<?xml version="1.0" encoding="iso-8859-1"?>
<!-- Uploaded to: SVG Repo, www.svgrepo.com, Generator: SVG Repo Mixer Tools -->
<svg fill="#000000" height="800px" width="800px" version="1.1" id="Layer_1" xmlns="http://www.w3.org/2000/svg" xmlns:xlink="http://www.w3.org/1999/xlink" 
	 viewBox="0 0 512 512" xml:space="preserve">
<g>
	<g>
		<g>
			<path d="M508.402,449.374l-39.104-33.89c-4.353-3.771-10.937-3.302-14.709,1.051c-3.772,4.352-3.301,10.938,1.05,14.709
				l17.979,15.582h-48.69v-2.086c0-5.759-4.669-10.428-10.428-10.428s-10.428,4.668-10.428,10.428v2.086h-52.139v-2.086
				c0-5.759-4.669-10.428-10.428-10.428s-10.428,4.668-10.428,10.428v2.086h-52.138v-2.086c0-5.759-4.67-10.428-10.428-10.428
				s-10.428,4.668-10.428,10.428v2.086h-52.138v-2.086c0-5.759-4.67-10.428-10.428-10.428s-10.428,4.668-10.428,10.428v2.086
				h-52.138v-2.086c0-5.759-4.67-10.428-10.428-10.428s-10.428,4.668-10.428,10.428v2.086H59.959v-97.976l63.944-59.072
				l61.189,36.131v22.896c0,5.759,4.669,10.428,10.428,10.428s10.428-4.669,10.428-10.428v-25.847L272.692,216.7l64.891,26.366
				c5.308,2.158,11.356-0.369,13.554-5.656l52.937-127.301v21.801c0,5.759,4.669,10.428,10.428,10.428s10.428-4.668,10.428-10.428
				V83.166l34.66,34.89c4.061,4.085,10.663,4.106,14.748,0.048c4.086-4.058,4.106-10.661,0.049-14.747l-52.486-52.833
				c-2.456-2.472-5.985-3.555-9.408-2.883c-3.42,0.673-6.28,3.009-7.618,6.228l-69.022,165.983l-63.412-25.766
				c-4.69-1.904-10.065-0.17-12.755,4.115l-67.598,107.618l-64.258-37.943c-3.966-2.342-8.996-1.806-12.379,1.32l-55.491,51.261
				v-33.176h2.086c5.758,0,10.428-4.668,10.428-10.428s-4.67-10.428-10.428-10.428h-2.086v-52.138h2.086
				c5.758,0,10.428-4.668,10.428-10.428s-4.67-10.428-10.428-10.428h-2.086v-52.138h2.086c5.758,0,10.428-4.668,10.428-10.428
				s-4.67-10.428-10.428-10.428h-2.086V46.723l15.582,17.979c2.063,2.38,4.965,3.599,7.884,3.599c2.42,0,4.852-0.838,6.825-2.547
				c4.353-3.772,4.823-10.358,1.051-14.709l-33.89-39.104c-0.472-0.544-0.841-0.905-1.131-1.112C55.375,10.06,54.333,9.432,53.177,9
				c-4.078-1.52-8.673-0.349-11.525,2.941L7.762,51.045C3.99,55.396,4.46,61.982,8.811,65.754
				c4.353,3.771,10.936,3.302,14.709-1.051l15.583-17.979v400.104H10.428C4.669,446.827,0,451.495,0,457.254
				c0,5.759,4.669,10.428,10.428,10.428h28.676v25.548c0,5.759,4.669,10.428,10.428,10.428s10.428-4.668,10.428-10.428v-25.548
				h413.659l-17.979,15.582c-4.353,3.772-4.823,10.358-1.051,14.709c2.063,2.38,4.965,3.599,7.884,3.599
				c2.42,0,4.852-0.838,6.825-2.547l39.104-33.89c0.578-0.5,0.971-0.91,1.218-1.258c0.722-0.876,1.312-1.874,1.723-2.978
				C512.863,456.82,511.691,452.225,508.402,449.374z"/>
			<path d="M195.519,380.09c-5.758,0-10.428,4.668-10.428,10.428v12.513c0,5.759,4.669,10.428,10.428,10.428
				s10.428-4.668,10.428-10.428v-12.513C205.947,384.758,201.278,380.09,195.519,380.09z"/>
			<path d="M132.953,336.293c0-5.759-4.67-10.428-10.428-10.428s-10.428,4.668-10.428,10.428v12.513
				c0,5.759,4.669,10.428,10.428,10.428s10.428-4.669,10.428-10.428V336.293z"/>
			<path d="M122.525,380.09c-5.758,0-10.428,4.668-10.428,10.428v12.513c0,5.759,4.669,10.428,10.428,10.428
				s10.428-4.668,10.428-10.428v-12.513C132.953,384.758,128.284,380.09,122.525,380.09z"/>
			<path d="M278.941,336.293c0-5.759-4.67-10.428-10.428-10.428s-10.428,4.668-10.428,10.428v12.513
				c0,5.759,4.669,10.428,10.428,10.428s10.428-4.669,10.428-10.428V336.293z"/>
			<path d="M278.941,282.069c0-5.759-4.67-10.428-10.428-10.428s-10.428,4.669-10.428,10.428v12.513
				c0,5.759,4.669,10.428,10.428,10.428s10.428-4.668,10.428-10.428V282.069z"/>
			<path d="M268.513,380.09c-5.758,0-10.428,4.668-10.428,10.428v12.513c0,5.759,4.669,10.428,10.428,10.428
				s10.428-4.668,10.428-10.428v-12.513C278.941,384.758,274.271,380.09,268.513,380.09z"/>
			<path d="M351.935,336.293c0-5.759-4.669-10.428-10.428-10.428s-10.428,4.668-10.428,10.428v12.513
				c0,5.759,4.669,10.428,10.428,10.428s10.428-4.669,10.428-10.428V336.293z"/>
			<path d="M351.935,282.069c0-5.759-4.669-10.428-10.428-10.428s-10.428,4.669-10.428,10.428v12.513
				c0,5.759,4.669,10.428,10.428,10.428s10.428-4.668,10.428-10.428V282.069z"/>
			<path d="M341.507,380.09c-5.758,0-10.428,4.668-10.428,10.428v12.513c0,5.759,4.669,10.428,10.428,10.428
				s10.428-4.668,10.428-10.428v-12.513C351.935,384.758,347.265,380.09,341.507,380.09z"/>
			<path d="M424.929,336.293c0-5.759-4.669-10.428-10.428-10.428s-10.428,4.668-10.428,10.428v12.513
				c0,5.759,4.669,10.428,10.428,10.428s10.428-4.669,10.428-10.428V336.293z"/>
			<path d="M414.501,380.09c-5.758,0-10.428,4.668-10.428,10.428v12.513c0,5.759,4.669,10.428,10.428,10.428
				s10.428-4.668,10.428-10.428v-12.513C424.929,384.758,420.259,380.09,414.501,380.09z"/>
			<path d="M424.929,282.069c0-5.759-4.669-10.428-10.428-10.428s-10.428,4.669-10.428,10.428v12.513
				c0,5.759,4.669,10.428,10.428,10.428s10.428-4.668,10.428-10.428V282.069z"/>
			<path d="M424.929,227.845c0-5.759-4.669-10.428-10.428-10.428s-10.428,4.668-10.428,10.428v12.513
				c0,5.759,4.669,10.428,10.428,10.428s10.428-4.668,10.428-10.428V227.845z"/>
			<path d="M424.929,173.621c0-5.759-4.669-10.428-10.428-10.428s-10.428,4.669-10.428,10.428v12.513
				c0,5.759,4.669,10.428,10.428,10.428s10.428-4.669,10.428-10.428V173.621z"/>
			<path d="M266.428,141.295h12.513c5.758,0,10.428-4.669,10.428-10.428s-4.669-10.428-10.428-10.428h-12.513
				c-5.758,0-10.428,4.668-10.428,10.428S260.67,141.295,266.428,141.295z"/>
			<path d="M320.652,141.295h12.513c5.758,0,10.428-4.669,10.428-10.428s-4.67-10.428-10.428-10.428h-12.513
				c-5.758,0-10.428,4.668-10.428,10.428S314.894,141.295,320.652,141.295z"/>
			<path d="M212.204,141.295h12.513c5.758,0,10.428-4.669,10.428-10.428s-4.669-10.428-10.428-10.428h-12.513
				c-5.758,0-10.428,4.668-10.428,10.428S206.445,141.295,212.204,141.295z"/>
			<path d="M103.756,141.295h12.513c5.758,0,10.428-4.669,10.428-10.428s-4.669-10.428-10.428-10.428h-12.513
				c-5.758,0-10.428,4.668-10.428,10.428S97.997,141.295,103.756,141.295z"/>
			<path d="M157.98,141.295h12.513c5.758,0,10.428-4.669,10.428-10.428s-4.67-10.428-10.428-10.428H157.98
				c-5.758,0-10.428,4.668-10.428,10.428S152.221,141.295,157.98,141.295z"/>
			<path d="M320.652,68.301h12.513c5.758,0,10.428-4.669,10.428-10.428s-4.67-10.428-10.428-10.428h-12.513
				c-5.758,0-10.428,4.668-10.428,10.428S314.894,68.301,320.652,68.301z"/>
			<path d="M374.876,68.301h12.513c5.758,0,10.428-4.669,10.428-10.428s-4.669-10.428-10.428-10.428h-12.513
				c-5.758,0-10.428,4.668-10.428,10.428S369.118,68.301,374.876,68.301z"/>
			<path d="M266.428,68.301h12.513c5.758,0,10.428-4.669,10.428-10.428s-4.669-10.428-10.428-10.428h-12.513
				c-5.758,0-10.428,4.668-10.428,10.428S260.67,68.301,266.428,68.301z"/>
			<path d="M212.204,68.301h12.513c5.758,0,10.428-4.669,10.428-10.428s-4.669-10.428-10.428-10.428h-12.513
				c-5.758,0-10.428,4.668-10.428,10.428S206.445,68.301,212.204,68.301z"/>
			<path d="M157.98,68.301h12.513c5.758,0,10.428-4.669,10.428-10.428s-4.67-10.428-10.428-10.428H157.98
				c-5.758,0-10.428,4.668-10.428,10.428S152.221,68.301,157.98,68.301z"/>
			<path d="M212.204,214.289h12.513c5.758,0,10.428-4.669,10.428-10.428s-4.669-10.428-10.428-10.428h-12.513
				c-5.758,0-10.428,4.668-10.428,10.428S206.445,214.289,212.204,214.289z"/>
			<path d="M116.269,193.434h-12.513c-5.758,0-10.428,4.668-10.428,10.428s4.67,10.428,10.428,10.428h12.513
				c5.758,0,10.428-4.669,10.428-10.428S122.027,193.434,116.269,193.434z"/>
			<path d="M157.98,214.289h12.513c5.758,0,10.428-4.669,10.428-10.428s-4.67-10.428-10.428-10.428H157.98
				c-5.758,0-10.428,4.668-10.428,10.428S152.221,214.289,157.98,214.289z"/>
		</g>
	</g>
</g>
</svg>