<?xml version="1.0" encoding="UTF-8"?>
<svg xmlns="http://www.w3.org/2000/svg" version="1.1" width="300" height="300" viewBox="0 0 300 300"><rect x="0" y="0" width="300" height="300" fill="#ffffff"/><g transform="scale(5.66)"><g transform="translate(0,0)"><path fill-rule="evenodd" d="M11 0L11 1L12 1L12 0ZM13 0L13 1L15 1L15 3L16 3L16 4L17 4L17 5L15 5L15 4L14 4L14 3L13 3L13 4L12 4L12 2L10 2L10 4L11 4L11 5L8 5L8 7L9 7L9 6L10 6L10 9L9 9L9 8L6 8L6 9L7 9L7 10L6 10L6 11L4 11L4 13L3 13L3 12L2 12L2 10L3 10L3 9L5 9L5 8L0 8L0 9L2 9L2 10L0 10L0 11L1 11L1 12L2 12L2 14L1 14L1 16L0 16L0 17L1 17L1 19L0 19L0 20L3 20L3 21L1 21L1 22L2 22L2 23L0 23L0 26L2 26L2 25L3 25L3 26L4 26L4 27L0 27L0 28L3 28L3 29L2 29L2 30L1 30L1 31L0 31L0 35L1 35L1 36L0 36L0 37L2 37L2 38L0 38L0 40L1 40L1 41L0 41L0 43L1 43L1 44L3 44L3 45L4 45L4 44L3 44L3 43L8 43L8 47L11 47L11 48L8 48L8 53L9 53L9 50L10 50L10 49L12 49L12 47L14 47L14 43L16 43L16 45L15 45L15 47L16 47L16 48L15 48L15 49L14 49L14 48L13 48L13 50L11 50L11 51L12 51L12 52L11 52L11 53L17 53L17 52L15 52L15 51L14 51L14 52L13 52L13 50L15 50L15 49L19 49L19 48L20 48L20 49L22 49L22 51L23 51L23 52L24 52L24 53L25 53L25 52L26 52L26 51L27 51L27 52L30 52L30 53L31 53L31 51L30 51L30 50L33 50L33 49L29 49L29 48L30 48L30 47L29 47L29 46L31 46L31 45L30 45L30 43L29 43L29 42L31 42L31 40L33 40L33 38L34 38L34 39L35 39L35 40L36 40L36 41L37 41L37 42L36 42L36 43L37 43L37 44L36 44L36 45L35 45L35 44L34 44L34 43L35 43L35 42L33 42L33 41L32 41L32 42L33 42L33 43L32 43L32 44L33 44L33 45L32 45L32 46L34 46L34 48L35 48L35 46L36 46L36 47L38 47L38 48L36 48L36 50L34 50L34 51L32 51L32 52L34 52L34 53L35 53L35 52L36 52L36 53L37 53L37 52L36 52L36 51L37 51L37 50L38 50L38 51L39 51L39 52L41 52L41 53L42 53L42 51L40 51L40 50L41 50L41 49L42 49L42 50L43 50L43 51L44 51L44 50L47 50L47 49L49 49L49 48L50 48L50 49L51 49L51 50L48 50L48 52L46 52L46 51L45 51L45 52L46 52L46 53L51 53L51 52L52 52L52 51L53 51L53 47L51 47L51 48L50 48L50 46L51 46L51 45L52 45L52 46L53 46L53 45L52 45L52 44L53 44L53 43L51 43L51 42L50 42L50 43L48 43L48 44L47 44L47 43L46 43L46 44L45 44L45 43L43 43L43 44L44 44L44 45L41 45L41 47L39 47L39 46L40 46L40 45L39 45L39 46L37 46L37 45L38 45L38 44L42 44L42 42L44 42L44 41L43 41L43 40L45 40L45 42L49 42L49 41L46 41L46 40L47 40L47 39L46 39L46 38L47 38L47 37L48 37L48 38L49 38L49 39L48 39L48 40L50 40L50 41L51 41L51 40L52 40L52 39L51 39L51 37L53 37L53 35L52 35L52 34L53 34L53 31L52 31L52 33L50 33L50 31L51 31L51 30L50 30L50 31L49 31L49 33L47 33L47 31L46 31L46 29L48 29L48 30L49 30L49 29L52 29L52 30L53 30L53 29L52 29L52 28L53 28L53 27L51 27L51 26L53 26L53 25L51 25L51 24L52 24L52 23L51 23L51 24L50 24L50 21L51 21L51 20L50 20L50 21L49 21L49 20L46 20L46 18L45 18L45 20L44 20L44 18L43 18L43 17L49 17L49 18L48 18L48 19L50 19L50 17L52 17L52 18L53 18L53 16L50 16L50 15L48 15L48 16L46 16L46 15L47 15L47 14L50 14L50 13L52 13L52 14L53 14L53 13L52 13L52 12L53 12L53 11L51 11L51 12L50 12L50 11L49 11L49 12L48 12L48 8L47 8L47 14L46 14L46 12L44 12L44 13L42 13L42 12L43 12L43 11L44 11L44 10L43 10L43 9L46 9L46 8L43 8L43 3L44 3L44 4L45 4L45 3L44 3L44 1L43 1L43 0L42 0L42 1L41 1L41 2L39 2L39 1L40 1L40 0L39 0L39 1L38 1L38 0L37 0L37 1L36 1L36 2L35 2L35 1L34 1L34 0L32 0L32 1L33 1L33 2L30 2L30 3L31 3L31 4L27 4L27 3L25 3L25 2L26 2L26 1L27 1L27 0L26 0L26 1L25 1L25 0L21 0L21 1L22 1L22 3L25 3L25 4L22 4L22 5L24 5L24 9L23 9L23 10L25 10L25 11L23 11L23 12L24 12L24 13L21 13L21 12L22 12L22 11L21 11L21 12L19 12L19 11L20 11L20 9L21 9L21 8L22 8L22 7L23 7L23 6L22 6L22 7L21 7L21 5L20 5L20 8L19 8L19 5L18 5L18 4L19 4L19 3L20 3L20 4L21 4L21 3L20 3L20 2L19 2L19 1L20 1L20 0L19 0L19 1L18 1L18 0L17 0L17 1L15 1L15 0ZM28 0L28 1L29 1L29 0ZM30 0L30 1L31 1L31 0ZM8 1L8 2L9 2L9 1ZM17 1L17 2L16 2L16 3L17 3L17 4L18 4L18 3L19 3L19 2L18 2L18 1ZM37 1L37 2L36 2L36 3L35 3L35 2L34 2L34 3L32 3L32 4L31 4L31 5L29 5L29 7L30 7L30 8L29 8L29 10L28 10L28 9L25 9L25 10L28 10L28 12L27 12L27 11L25 11L25 14L24 14L24 15L25 15L25 16L22 16L22 14L21 14L21 13L18 13L18 12L17 12L17 11L18 11L18 10L19 10L19 9L18 9L18 10L17 10L17 9L16 9L16 10L15 10L15 7L16 7L16 8L17 8L17 7L18 7L18 6L17 6L17 7L16 7L16 6L15 6L15 7L14 7L14 6L13 6L13 5L14 5L14 4L13 4L13 5L12 5L12 6L11 6L11 7L12 7L12 9L10 9L10 10L9 10L9 12L8 12L8 13L6 13L6 12L7 12L7 11L6 11L6 12L5 12L5 13L6 13L6 14L5 14L5 15L4 15L4 14L2 14L2 15L4 15L4 16L3 16L3 17L4 17L4 16L5 16L5 15L6 15L6 16L7 16L7 15L6 15L6 14L8 14L8 17L6 17L6 18L7 18L7 19L6 19L6 20L5 20L5 19L4 19L4 18L3 18L3 19L4 19L4 21L6 21L6 22L5 22L5 23L6 23L6 24L10 24L10 23L11 23L11 24L12 24L12 25L14 25L14 26L15 26L15 27L14 27L14 29L12 29L12 28L13 28L13 26L11 26L11 25L9 25L9 26L11 26L11 27L12 27L12 28L10 28L10 29L9 29L9 30L8 30L8 29L4 29L4 30L8 30L8 31L6 31L6 32L7 32L7 33L6 33L6 34L5 34L5 36L7 36L7 35L6 35L6 34L7 34L7 33L8 33L8 32L10 32L10 33L9 33L9 34L8 34L8 35L9 35L9 37L10 37L10 38L8 38L8 37L6 37L6 38L7 38L7 39L6 39L6 40L7 40L7 39L10 39L10 40L8 40L8 42L9 42L9 43L10 43L10 44L9 44L9 46L11 46L11 45L12 45L12 46L13 46L13 42L12 42L12 40L13 40L13 41L14 41L14 42L17 42L17 45L16 45L16 46L17 46L17 48L18 48L18 46L19 46L19 45L18 45L18 42L19 42L19 43L21 43L21 45L20 45L20 46L21 46L21 45L24 45L24 42L22 42L22 41L24 41L24 40L22 40L22 41L20 41L20 40L21 40L21 37L24 37L24 38L22 38L22 39L24 39L24 38L25 38L25 41L27 41L27 42L25 42L25 44L26 44L26 43L27 43L27 44L29 44L29 43L27 43L27 42L29 42L29 40L30 40L30 39L31 39L31 38L33 38L33 36L32 36L32 33L33 33L33 34L35 34L35 35L36 35L36 36L35 36L35 37L34 37L34 38L35 38L35 37L36 37L36 36L37 36L37 38L36 38L36 40L37 40L37 39L38 39L38 38L40 38L40 39L45 39L45 40L46 40L46 39L45 39L45 38L44 38L44 37L47 37L47 36L45 36L45 35L44 35L44 34L45 34L45 33L46 33L46 35L47 35L47 33L46 33L46 31L45 31L45 30L41 30L41 28L44 28L44 26L40 26L40 25L41 25L41 24L42 24L42 23L44 23L44 22L45 22L45 21L44 21L44 22L41 22L41 21L42 21L42 20L40 20L40 21L39 21L39 19L41 19L41 18L42 18L42 19L43 19L43 18L42 18L42 17L43 17L43 16L45 16L45 15L43 15L43 14L42 14L42 15L41 15L41 14L40 14L40 15L39 15L39 16L38 16L38 18L36 18L36 16L37 16L37 15L36 15L36 12L37 12L37 14L39 14L39 13L38 13L38 12L40 12L40 13L41 13L41 12L42 12L42 11L43 11L43 10L42 10L42 9L43 9L43 8L42 8L42 9L41 9L41 8L40 8L40 6L39 6L39 9L38 9L38 10L37 10L37 11L36 11L36 12L35 12L35 13L34 13L34 14L33 14L33 12L32 12L32 11L33 11L33 10L30 10L30 8L31 8L31 9L33 9L33 8L34 8L34 10L36 10L36 8L37 8L37 7L38 7L38 6L37 6L37 7L36 7L36 3L37 3L37 5L39 5L39 4L38 4L38 3L39 3L39 2L38 2L38 1ZM41 2L41 3L40 3L40 4L41 4L41 3L43 3L43 2ZM8 3L8 4L9 4L9 3ZM32 4L32 5L31 5L31 6L30 6L30 7L31 7L31 6L32 6L32 8L33 8L33 6L32 6L32 5L34 5L34 8L35 8L35 5L34 5L34 4ZM25 5L25 8L28 8L28 5ZM41 5L41 7L42 7L42 5ZM12 6L12 7L13 7L13 8L14 8L14 7L13 7L13 6ZM26 6L26 7L27 7L27 6ZM44 6L44 7L45 7L45 6ZM49 8L49 9L50 9L50 8ZM51 8L51 10L53 10L53 9L52 9L52 8ZM40 9L40 10L38 10L38 11L40 11L40 12L41 12L41 11L42 11L42 10L41 10L41 9ZM10 10L10 12L9 12L9 13L8 13L8 14L9 14L9 15L10 15L10 16L9 16L9 17L8 17L8 18L9 18L9 17L10 17L10 16L11 16L11 17L12 17L12 16L13 16L13 17L17 17L17 16L18 16L18 17L19 17L19 18L20 18L20 17L21 17L21 19L22 19L22 18L23 18L23 21L21 21L21 20L20 20L20 19L18 19L18 21L17 21L17 18L14 18L14 19L13 19L13 18L10 18L10 19L9 19L9 21L7 21L7 20L6 20L6 21L7 21L7 22L6 22L6 23L8 23L8 22L9 22L9 21L10 21L10 22L11 22L11 19L12 19L12 20L13 20L13 21L14 21L14 22L15 22L15 25L17 25L17 26L18 26L18 27L21 27L21 28L18 28L18 29L17 29L17 27L15 27L15 29L14 29L14 30L13 30L13 31L14 31L14 32L13 32L13 33L17 33L17 32L16 32L16 29L17 29L17 30L18 30L18 29L19 29L19 30L20 30L20 31L19 31L19 32L18 32L18 33L19 33L19 34L17 34L17 35L19 35L19 34L20 34L20 35L21 35L21 34L22 34L22 36L24 36L24 37L25 37L25 35L27 35L27 34L28 34L28 35L29 35L29 34L31 34L31 31L29 31L29 30L31 30L31 29L32 29L32 30L34 30L34 31L35 31L35 30L34 30L34 28L36 28L36 31L39 31L39 32L38 32L38 33L37 33L37 32L36 32L36 33L37 33L37 36L38 36L38 37L39 37L39 36L38 36L38 33L39 33L39 35L40 35L40 36L41 36L41 38L43 38L43 37L42 37L42 35L40 35L40 34L43 34L43 33L39 33L39 32L41 32L41 31L39 31L39 30L40 30L40 29L39 29L39 28L41 28L41 27L40 27L40 26L38 26L38 23L39 23L39 22L36 22L36 21L37 21L37 20L36 20L36 21L35 21L35 22L34 22L34 20L33 20L33 19L35 19L35 18L33 18L33 19L32 19L32 17L29 17L29 16L25 16L25 17L24 17L24 18L23 18L23 17L21 17L21 16L20 16L20 17L19 17L19 16L18 16L18 15L19 15L19 14L18 14L18 13L17 13L17 12L15 12L15 13L14 13L14 11L13 11L13 14L12 14L12 16L11 16L11 15L10 15L10 14L11 14L11 13L12 13L12 12L11 12L11 10ZM16 10L16 11L17 11L17 10ZM40 10L40 11L41 11L41 10ZM29 11L29 13L27 13L27 12L26 12L26 14L25 14L25 15L26 15L26 14L31 14L31 15L30 15L30 16L33 16L33 17L35 17L35 16L36 16L36 15L35 15L35 14L34 14L34 15L32 15L32 12L31 12L31 11ZM49 12L49 13L50 13L50 12ZM9 13L9 14L10 14L10 13ZM16 13L16 15L15 15L15 16L16 16L16 15L18 15L18 14L17 14L17 13ZM44 13L44 14L45 14L45 13ZM20 14L20 15L21 15L21 14ZM13 15L13 16L14 16L14 15ZM34 15L34 16L35 16L35 15ZM40 15L40 16L41 16L41 15ZM42 15L42 16L43 16L43 15ZM49 16L49 17L50 17L50 16ZM25 17L25 18L24 18L24 19L25 19L25 20L27 20L27 19L26 19L26 18L28 18L28 19L29 19L29 18L28 18L28 17ZM30 18L30 20L29 20L29 21L30 21L30 20L32 20L32 21L31 21L31 23L34 23L34 22L32 22L32 21L33 21L33 20L32 20L32 19L31 19L31 18ZM38 18L38 19L39 19L39 18ZM14 19L14 21L15 21L15 20L16 20L16 19ZM52 19L52 22L53 22L53 19ZM19 20L19 21L18 21L18 22L17 22L17 21L16 21L16 22L17 22L17 23L16 23L16 24L17 24L17 25L18 25L18 26L19 26L19 25L18 25L18 24L19 24L19 23L20 23L20 24L21 24L21 25L20 25L20 26L21 26L21 27L22 27L22 28L21 28L21 29L20 29L20 30L23 30L23 31L21 31L21 32L22 32L22 33L24 33L24 32L25 32L25 34L26 34L26 33L27 33L27 32L26 32L26 29L24 29L24 28L23 28L23 27L22 27L22 25L23 25L23 26L24 26L24 23L25 23L25 24L27 24L27 23L28 23L28 24L30 24L30 23L29 23L29 22L26 22L26 21L25 21L25 22L24 22L24 21L23 21L23 22L22 22L22 23L23 23L23 24L21 24L21 21L20 21L20 20ZM46 21L46 22L48 22L48 21ZM3 22L3 23L2 23L2 24L3 24L3 23L4 23L4 22ZM18 22L18 23L19 23L19 22ZM25 22L25 23L26 23L26 22ZM13 23L13 24L14 24L14 23ZM36 23L36 24L31 24L31 26L30 26L30 29L31 29L31 27L34 27L34 26L35 26L35 27L36 27L36 28L37 28L37 30L39 30L39 29L38 29L38 28L39 28L39 27L36 27L36 26L37 26L37 25L36 25L36 24L37 24L37 23ZM40 23L40 24L41 24L41 23ZM45 23L45 24L49 24L49 23ZM5 25L5 28L8 28L8 25ZM25 25L25 28L28 28L28 25ZM32 25L32 26L33 26L33 25ZM45 25L45 28L48 28L48 25ZM49 25L49 28L51 28L51 27L50 27L50 26L51 26L51 25ZM6 26L6 27L7 27L7 26ZM26 26L26 27L27 27L27 26ZM46 26L46 27L47 27L47 26ZM32 28L32 29L33 29L33 28ZM11 29L11 30L12 30L12 29ZM23 29L23 30L24 30L24 29ZM27 29L27 31L28 31L28 32L29 32L29 31L28 31L28 30L29 30L29 29ZM2 30L2 31L1 31L1 32L2 32L2 31L3 31L3 33L1 33L1 35L3 35L3 33L5 33L5 31L3 31L3 30ZM9 30L9 31L10 31L10 30ZM11 31L11 32L12 32L12 31ZM32 31L32 32L33 32L33 33L34 33L34 32L33 32L33 31ZM42 31L42 32L44 32L44 33L45 33L45 31ZM11 33L11 35L10 35L10 34L9 34L9 35L10 35L10 36L11 36L11 37L12 37L12 36L13 36L13 37L14 37L14 38L15 38L15 41L17 41L17 42L18 42L18 41L19 41L19 40L20 40L20 37L21 37L21 36L20 36L20 37L19 37L19 36L18 36L18 37L17 37L17 36L16 36L16 37L14 37L14 34L12 34L12 33ZM20 33L20 34L21 34L21 33ZM28 33L28 34L29 34L29 33ZM49 33L49 36L48 36L48 37L50 37L50 36L52 36L52 35L50 35L50 33ZM15 34L15 35L16 35L16 34ZM23 34L23 35L24 35L24 34ZM11 35L11 36L12 36L12 35ZM30 35L30 36L29 36L29 37L26 37L26 38L27 38L27 39L26 39L26 40L28 40L28 39L29 39L29 38L31 38L31 37L30 37L30 36L31 36L31 35ZM43 35L43 36L44 36L44 35ZM4 37L4 38L3 38L3 39L2 39L2 43L3 43L3 41L5 41L5 42L7 42L7 41L5 41L5 39L4 39L4 38L5 38L5 37ZM16 37L16 40L19 40L19 39L18 39L18 38L19 38L19 37L18 37L18 38L17 38L17 37ZM10 38L10 39L11 39L11 40L12 40L12 39L11 39L11 38ZM13 39L13 40L14 40L14 39ZM50 39L50 40L51 40L51 39ZM40 40L40 42L39 42L39 41L38 41L38 42L37 42L37 43L38 43L38 42L39 42L39 43L40 43L40 42L42 42L42 41L41 41L41 40ZM9 41L9 42L10 42L10 43L11 43L11 44L12 44L12 42L11 42L11 41ZM52 41L52 42L53 42L53 41ZM21 42L21 43L22 43L22 42ZM50 43L50 44L49 44L49 46L50 46L50 44L51 44L51 43ZM6 44L6 45L7 45L7 44ZM17 45L17 46L18 46L18 45ZM25 45L25 48L28 48L28 45ZM34 45L34 46L35 46L35 45ZM45 45L45 48L48 48L48 45ZM26 46L26 47L27 47L27 46ZM43 46L43 47L41 47L41 48L40 48L40 49L41 49L41 48L43 48L43 49L44 49L44 48L43 48L43 47L44 47L44 46ZM46 46L46 47L47 47L47 46ZM32 47L32 48L33 48L33 47ZM22 48L22 49L24 49L24 50L23 50L23 51L24 51L24 52L25 52L25 51L26 51L26 50L27 50L27 51L29 51L29 49L28 49L28 50L27 50L27 49L26 49L26 50L25 50L25 49L24 49L24 48ZM38 48L38 50L39 50L39 48ZM51 48L51 49L52 49L52 48ZM18 50L18 53L19 53L19 52L20 52L20 53L21 53L21 52L20 52L20 51L21 51L21 50ZM24 50L24 51L25 51L25 50ZM51 50L51 51L50 51L50 52L51 52L51 51L52 51L52 50ZM34 51L34 52L35 52L35 51ZM43 52L43 53L44 53L44 52ZM0 0L0 7L7 7L7 0ZM1 1L1 6L6 6L6 1ZM2 2L2 5L5 5L5 2ZM46 0L46 7L53 7L53 0ZM47 1L47 6L52 6L52 1ZM48 2L48 5L51 5L51 2ZM0 46L0 53L7 53L7 46ZM1 47L1 52L6 52L6 47ZM2 48L2 51L5 51L5 48Z" fill="#000000"/></g></g></svg>
