<?xml version="1.0" encoding="UTF-8"?>
<svg xmlns="http://www.w3.org/2000/svg" version="1.1" width="300" height="300" viewBox="0 0 300 300"><rect x="0" y="0" width="300" height="300" fill="#ffffff"/><g transform="scale(5.66)"><g transform="translate(0,0)"><path fill-rule="evenodd" d="M10 0L10 2L9 2L9 1L8 1L8 3L10 3L10 4L8 4L8 8L6 8L6 9L5 9L5 10L2 10L2 8L0 8L0 11L1 11L1 12L2 12L2 13L0 13L0 15L1 15L1 14L3 14L3 13L4 13L4 12L3 12L3 11L5 11L5 10L6 10L6 11L7 11L7 12L6 12L6 13L5 13L5 14L6 14L6 15L4 15L4 16L2 16L2 18L1 18L1 17L0 17L0 18L1 18L1 19L0 19L0 20L1 20L1 19L2 19L2 18L4 18L4 19L5 19L5 18L6 18L6 19L9 19L9 20L8 20L8 21L7 21L7 20L5 20L5 21L4 21L4 20L3 20L3 22L6 22L6 23L8 23L8 24L5 24L5 23L3 23L3 24L2 24L2 25L1 25L1 23L0 23L0 25L1 25L1 27L0 27L0 28L1 28L1 27L2 27L2 26L3 26L3 25L4 25L4 28L2 28L2 29L3 29L3 30L2 30L2 31L0 31L0 35L2 35L2 34L3 34L3 32L4 32L4 31L7 31L7 32L6 32L6 33L7 33L7 34L6 34L6 35L5 35L5 36L3 36L3 37L2 37L2 38L1 38L1 37L0 37L0 38L1 38L1 39L0 39L0 40L1 40L1 39L2 39L2 40L3 40L3 41L0 41L0 43L1 43L1 44L3 44L3 45L4 45L4 44L3 44L3 43L9 43L9 44L10 44L10 45L11 45L11 44L12 44L12 46L9 46L9 45L8 45L8 47L9 47L9 49L8 49L8 50L11 50L11 47L14 47L14 48L15 48L15 46L16 46L16 48L17 48L17 49L16 49L16 51L15 51L15 49L14 49L14 51L12 51L12 52L11 52L11 53L12 53L12 52L14 52L14 53L15 53L15 52L16 52L16 53L17 53L17 52L18 52L18 53L20 53L20 52L18 52L18 51L21 51L21 50L19 50L19 49L20 49L20 48L19 48L19 44L20 44L20 45L21 45L21 46L20 46L20 47L21 47L21 48L22 48L22 49L23 49L23 48L24 48L24 50L22 50L22 51L24 51L24 53L26 53L26 51L27 51L27 53L28 53L28 52L29 52L29 48L32 48L32 49L31 49L31 50L33 50L33 51L31 51L31 52L30 52L30 53L33 53L33 51L34 51L34 50L36 50L36 53L37 53L37 52L38 52L38 53L40 53L40 52L41 52L41 53L42 53L42 52L44 52L44 53L49 53L49 52L48 52L48 51L51 51L51 53L52 53L52 48L53 48L53 47L52 47L52 46L53 46L53 44L52 44L52 46L51 46L51 44L50 44L50 43L49 43L49 44L48 44L48 43L47 43L47 42L48 42L48 41L45 41L45 39L44 39L44 40L42 40L42 41L44 41L44 42L45 42L45 43L47 43L47 44L44 44L44 43L42 43L42 42L41 42L41 43L42 43L42 44L40 44L40 41L38 41L38 42L39 42L39 43L37 43L37 39L36 39L36 43L33 43L33 42L32 42L32 41L34 41L34 40L33 40L33 39L34 39L34 38L35 38L35 37L33 37L33 36L36 36L36 37L40 37L40 39L39 39L39 38L38 38L38 40L41 40L41 39L42 39L42 38L41 38L41 37L42 37L42 36L43 36L43 35L44 35L44 37L43 37L43 38L44 38L44 37L45 37L45 38L46 38L46 40L48 40L48 35L49 35L49 36L51 36L51 35L50 35L50 34L53 34L53 33L52 33L52 32L51 32L51 33L50 33L50 31L47 31L47 30L46 30L46 29L49 29L49 30L51 30L51 31L53 31L53 29L52 29L52 30L51 30L51 29L49 29L49 28L50 28L50 27L51 27L51 28L53 28L53 26L52 26L52 25L53 25L53 24L52 24L52 22L53 22L53 21L52 21L52 20L50 20L50 21L52 21L52 22L50 22L50 24L49 24L49 22L48 22L48 21L49 21L49 19L53 19L53 16L52 16L52 18L51 18L51 17L50 17L50 16L48 16L48 14L47 14L47 13L49 13L49 14L50 14L50 13L49 13L49 11L50 11L50 12L52 12L52 13L53 13L53 11L52 11L52 10L53 10L53 9L52 9L52 8L50 8L50 9L49 9L49 8L46 8L46 9L48 9L48 10L47 10L47 12L46 12L46 13L45 13L45 14L44 14L44 13L43 13L43 15L41 15L41 14L40 14L40 13L42 13L42 12L41 12L41 11L42 11L42 8L39 8L39 6L40 6L40 7L41 7L41 5L42 5L42 7L43 7L43 3L44 3L44 4L45 4L45 3L44 3L44 1L43 1L43 0L42 0L42 2L41 2L41 0L40 0L40 2L41 2L41 3L42 3L42 4L40 4L40 3L37 3L37 4L36 4L36 3L35 3L35 2L36 2L36 1L35 1L35 0L34 0L34 1L33 1L33 2L31 2L31 0L30 0L30 1L28 1L28 0L26 0L26 1L25 1L25 0L23 0L23 1L22 1L22 3L23 3L23 1L25 1L25 2L24 2L24 4L22 4L22 5L24 5L24 7L23 7L23 6L22 6L22 7L21 7L21 6L20 6L20 5L21 5L21 3L20 3L20 4L19 4L19 6L18 6L18 5L16 5L16 4L18 4L18 2L20 2L20 1L21 1L21 0L19 0L19 1L18 1L18 0L16 0L16 1L17 1L17 2L15 2L15 3L16 3L16 4L15 4L15 5L14 5L14 4L12 4L12 3L13 3L13 0L12 0L12 3L11 3L11 0ZM37 0L37 1L38 1L38 2L39 2L39 0ZM27 1L27 2L25 2L25 4L26 4L26 3L27 3L27 4L29 4L29 3L27 3L27 2L28 2L28 1ZM34 1L34 2L35 2L35 1ZM42 2L42 3L43 3L43 2ZM31 3L31 4L32 4L32 5L31 5L31 9L30 9L30 10L28 10L28 9L26 9L26 10L25 10L25 9L24 9L24 8L23 8L23 9L20 9L20 8L21 8L21 7L20 7L20 6L19 6L19 7L18 7L18 6L17 6L17 7L18 7L18 8L14 8L14 6L13 6L13 7L12 7L12 4L10 4L10 5L9 5L9 8L8 8L8 10L7 10L7 9L6 9L6 10L7 10L7 11L10 11L10 10L9 10L9 9L11 9L11 10L12 10L12 12L10 12L10 13L9 13L9 14L8 14L8 13L6 13L6 14L8 14L8 15L6 15L6 16L7 16L7 17L6 17L6 18L7 18L7 17L8 17L8 18L9 18L9 19L10 19L10 21L11 21L11 23L10 23L10 22L8 22L8 23L10 23L10 27L11 27L11 28L9 28L9 29L4 29L4 30L8 30L8 32L7 32L7 33L8 33L8 32L9 32L9 29L11 29L11 30L12 30L12 29L14 29L14 30L13 30L13 31L14 31L14 32L11 32L11 33L9 33L9 34L7 34L7 35L6 35L6 36L5 36L5 37L4 37L4 38L3 38L3 39L4 39L4 38L7 38L7 37L8 37L8 36L7 36L7 35L9 35L9 36L10 36L10 35L11 35L11 37L12 37L12 35L13 35L13 36L14 36L14 34L15 34L15 36L16 36L16 37L17 37L17 38L18 38L18 39L19 39L19 40L20 40L20 41L21 41L21 42L22 42L22 43L20 43L20 42L19 42L19 43L18 43L18 40L17 40L17 39L16 39L16 38L15 38L15 39L16 39L16 40L12 40L12 38L10 38L10 37L9 37L9 38L10 38L10 39L9 39L9 41L5 41L5 42L9 42L9 43L10 43L10 44L11 44L11 43L13 43L13 41L15 41L15 42L14 42L14 44L13 44L13 46L15 46L15 45L14 45L14 44L16 44L16 46L17 46L17 48L18 48L18 45L17 45L17 44L16 44L16 43L15 43L15 42L17 42L17 43L18 43L18 44L19 44L19 43L20 43L20 44L23 44L23 43L24 43L24 44L26 44L26 42L27 42L27 44L28 44L28 43L29 43L29 47L31 47L31 45L34 45L34 46L35 46L35 49L36 49L36 50L37 50L37 51L38 51L38 52L39 52L39 51L40 51L40 50L41 50L41 49L42 49L42 51L41 51L41 52L42 52L42 51L43 51L43 49L44 49L44 47L41 47L41 46L44 46L44 44L42 44L42 45L40 45L40 47L41 47L41 49L40 49L40 48L39 48L39 44L38 44L38 46L37 46L37 47L38 47L38 48L39 48L39 49L38 49L38 50L37 50L37 49L36 49L36 46L35 46L35 44L32 44L32 42L31 42L31 41L30 41L30 42L29 42L29 38L30 38L30 40L32 40L32 39L31 39L31 38L33 38L33 37L32 37L32 36L33 36L33 35L34 35L34 34L35 34L35 35L37 35L37 36L38 36L38 34L39 34L39 36L40 36L40 35L41 35L41 34L39 34L39 33L38 33L38 32L39 32L39 30L38 30L38 31L37 31L37 34L35 34L35 33L34 33L34 31L36 31L36 27L35 27L35 26L34 26L34 25L33 25L33 26L32 26L32 24L33 24L33 23L29 23L29 22L31 22L31 21L29 21L29 20L30 20L30 19L31 19L31 20L32 20L32 21L34 21L34 22L35 22L35 23L37 23L37 24L38 24L38 23L39 23L39 24L40 24L40 23L41 23L41 24L43 24L43 25L38 25L38 26L39 26L39 27L38 27L38 29L39 29L39 27L40 27L40 26L42 26L42 27L43 27L43 25L44 25L44 24L48 24L48 23L46 23L46 22L47 22L47 21L48 21L48 20L45 20L45 19L46 19L46 18L47 18L47 19L48 19L48 17L46 17L46 16L47 16L47 14L45 14L45 15L44 15L44 17L42 17L42 16L40 16L40 14L39 14L39 13L40 13L40 11L41 11L41 10L40 10L40 9L37 9L37 10L38 10L38 11L39 11L39 12L37 12L37 13L36 13L36 12L33 12L33 11L34 11L34 10L35 10L35 9L34 9L34 8L35 8L35 7L36 7L36 6L37 6L37 7L38 7L38 6L39 6L39 5L40 5L40 4L39 4L39 5L35 5L35 3ZM25 5L25 8L28 8L28 5ZM29 5L29 8L30 8L30 5ZM32 5L32 8L33 8L33 5ZM34 5L34 7L35 7L35 5ZM10 6L10 7L11 7L11 9L12 9L12 7L11 7L11 6ZM15 6L15 7L16 7L16 6ZM26 6L26 7L27 7L27 6ZM44 6L44 7L45 7L45 6ZM3 8L3 9L4 9L4 8ZM13 8L13 9L14 9L14 10L13 10L13 11L14 11L14 12L13 12L13 13L10 13L10 14L11 14L11 15L10 15L10 16L8 16L8 17L9 17L9 18L10 18L10 17L12 17L12 18L11 18L11 19L12 19L12 22L16 22L16 23L15 23L15 24L16 24L16 23L17 23L17 24L18 24L18 25L16 25L16 27L19 27L19 28L18 28L18 29L17 29L17 28L16 28L16 29L15 29L15 28L14 28L14 29L15 29L15 30L14 30L14 31L15 31L15 32L17 32L17 33L18 33L18 34L19 34L19 35L21 35L21 37L22 37L22 39L21 39L21 38L20 38L20 36L18 36L18 38L19 38L19 39L20 39L20 40L23 40L23 39L25 39L25 41L28 41L28 39L25 39L25 36L26 36L26 38L28 38L28 37L30 37L30 36L27 36L27 35L29 35L29 34L28 34L28 33L25 33L25 31L22 31L22 33L21 33L21 32L20 32L20 31L21 31L21 30L26 30L26 29L29 29L29 30L30 30L30 28L31 28L31 27L30 27L30 28L29 28L29 25L31 25L31 24L28 24L28 22L29 22L29 21L27 21L27 20L28 20L28 19L30 19L30 17L29 17L29 16L30 16L30 14L28 14L28 13L31 13L31 15L32 15L32 16L31 16L31 19L32 19L32 20L33 20L33 16L34 16L34 17L35 17L35 16L34 16L34 14L35 14L35 15L36 15L36 17L37 17L37 15L38 15L38 18L39 18L39 20L40 20L40 21L45 21L45 22L46 22L46 21L45 21L45 20L40 20L40 19L41 19L41 18L42 18L42 17L41 17L41 18L39 18L39 17L40 17L40 16L39 16L39 14L36 14L36 13L33 13L33 12L32 12L32 9L31 9L31 12L30 12L30 11L28 11L28 12L27 12L27 11L25 11L25 12L24 12L24 11L23 11L23 10L24 10L24 9L23 9L23 10L19 10L19 8L18 8L18 15L19 15L19 11L20 11L20 12L21 12L21 13L23 13L23 12L24 12L24 13L25 13L25 12L27 12L27 14L25 14L25 16L24 16L24 14L23 14L23 15L22 15L22 14L21 14L21 15L22 15L22 16L21 16L21 17L20 17L20 18L19 18L19 16L17 16L17 13L15 13L15 9L14 9L14 8ZM43 8L43 11L44 11L44 12L45 12L45 11L46 11L46 10L44 10L44 9L45 9L45 8ZM33 9L33 10L34 10L34 9ZM50 9L50 10L51 10L51 9ZM1 10L1 11L2 11L2 10ZM16 10L16 12L17 12L17 10ZM48 10L48 11L49 11L49 10ZM21 11L21 12L22 12L22 11ZM32 13L32 15L33 15L33 13ZM15 14L15 15L12 15L12 17L13 17L13 16L15 16L15 18L13 18L13 19L14 19L14 21L16 21L16 22L17 22L17 23L18 23L18 21L17 21L17 19L18 19L18 18L17 18L17 17L16 17L16 14ZM51 14L51 15L53 15L53 14ZM26 15L26 16L25 16L25 17L27 17L27 18L24 18L24 19L23 19L23 21L24 21L24 22L21 22L21 21L19 21L19 22L20 22L20 23L19 23L19 24L20 24L20 26L19 26L19 27L20 27L20 29L19 29L19 30L20 30L20 29L21 29L21 28L22 28L22 29L24 29L24 28L23 28L23 27L22 27L22 26L24 26L24 24L25 24L25 22L27 22L27 21L24 21L24 20L27 20L27 19L28 19L28 16L29 16L29 15ZM45 15L45 16L46 16L46 15ZM4 16L4 18L5 18L5 16ZM22 16L22 17L24 17L24 16ZM44 17L44 18L43 18L43 19L45 19L45 17ZM49 17L49 18L50 18L50 17ZM15 18L15 20L16 20L16 19L17 19L17 18ZM20 18L20 19L19 19L19 20L21 20L21 18ZM34 19L34 21L37 21L37 22L38 22L38 21L37 21L37 19ZM0 21L0 22L2 22L2 21ZM6 21L6 22L7 22L7 21ZM39 22L39 23L40 23L40 22ZM43 22L43 23L44 23L44 22ZM11 23L11 27L12 27L12 26L13 26L13 27L15 27L15 26L13 26L13 25L14 25L14 23L13 23L13 25L12 25L12 23ZM21 23L21 25L23 25L23 23ZM35 24L35 25L36 25L36 24ZM50 24L50 25L49 25L49 27L50 27L50 26L51 26L51 24ZM5 25L5 28L8 28L8 25ZM25 25L25 28L28 28L28 25ZM45 25L45 28L48 28L48 25ZM6 26L6 27L7 27L7 26ZM20 26L20 27L21 27L21 26ZM26 26L26 27L27 27L27 26ZM33 26L33 27L32 27L32 29L31 29L31 30L32 30L32 32L33 32L33 31L34 31L34 26ZM46 26L46 27L47 27L47 26ZM40 28L40 30L41 30L41 31L40 31L40 32L41 32L41 33L42 33L42 35L43 35L43 33L44 33L44 35L47 35L47 34L49 34L49 32L48 32L48 33L47 33L47 31L46 31L46 30L45 30L45 29L44 29L44 28L43 28L43 29L42 29L42 30L41 30L41 28ZM0 29L0 30L1 30L1 29ZM16 29L16 30L15 30L15 31L16 31L16 30L17 30L17 31L18 31L18 30L17 30L17 29ZM32 29L32 30L33 30L33 29ZM43 29L43 30L44 30L44 31L43 31L43 32L42 32L42 33L43 33L43 32L44 32L44 33L45 33L45 34L46 34L46 32L45 32L45 30L44 30L44 29ZM27 30L27 31L26 31L26 32L29 32L29 31L28 31L28 30ZM19 32L19 33L20 33L20 34L21 34L21 33L20 33L20 32ZM30 32L30 33L31 33L31 36L32 36L32 34L33 34L33 33L31 33L31 32ZM1 33L1 34L2 34L2 33ZM11 33L11 34L13 34L13 33ZM23 33L23 35L22 35L22 36L25 36L25 35L27 35L27 34L25 34L25 33ZM9 34L9 35L10 35L10 34ZM16 34L16 36L17 36L17 34ZM24 34L24 35L25 35L25 34ZM52 35L52 36L53 36L53 35ZM6 36L6 37L7 37L7 36ZM13 37L13 38L14 38L14 37ZM23 37L23 38L24 38L24 37ZM46 37L46 38L47 38L47 37ZM49 37L49 39L51 39L51 41L50 41L50 40L49 40L49 42L51 42L51 43L53 43L53 41L52 41L52 39L53 39L53 37L52 37L52 38L51 38L51 37ZM6 39L6 40L7 40L7 39ZM10 40L10 42L12 42L12 40ZM16 40L16 41L17 41L17 40ZM22 41L22 42L24 42L24 41ZM51 41L51 42L52 42L52 41ZM2 42L2 43L3 43L3 42ZM30 43L30 44L31 44L31 43ZM6 44L6 45L7 45L7 44ZM49 44L49 45L50 45L50 44ZM23 45L23 46L24 46L24 45ZM25 45L25 48L28 48L28 45ZM45 45L45 48L48 48L48 45ZM21 46L21 47L22 47L22 46ZM26 46L26 47L27 47L27 46ZM46 46L46 47L47 47L47 46ZM49 46L49 50L51 50L51 48L50 48L50 46ZM32 47L32 48L34 48L34 47ZM12 48L12 50L13 50L13 48ZM17 49L17 50L18 50L18 49ZM26 49L26 50L25 50L25 51L26 51L26 50L27 50L27 49ZM33 49L33 50L34 50L34 49ZM39 49L39 50L38 50L38 51L39 51L39 50L40 50L40 49ZM46 49L46 50L47 50L47 49ZM44 50L44 52L45 52L45 50ZM8 51L8 53L9 53L9 52L10 52L10 51ZM16 51L16 52L17 52L17 51ZM46 51L46 52L47 52L47 51ZM21 52L21 53L22 53L22 52ZM34 52L34 53L35 53L35 52ZM0 0L0 7L7 7L7 0ZM1 1L1 6L6 6L6 1ZM2 2L2 5L5 5L5 2ZM46 0L46 7L53 7L53 0ZM47 1L47 6L52 6L52 1ZM48 2L48 5L51 5L51 2ZM0 46L0 53L7 53L7 46ZM1 47L1 52L6 52L6 47ZM2 48L2 51L5 51L5 48Z" fill="#000000"/></g></g></svg>
