<?xml version="1.0" encoding="UTF-8"?>
<svg xmlns="http://www.w3.org/2000/svg" version="1.1" width="300" height="300" viewBox="0 0 300 300"><rect x="0" y="0" width="300" height="300" fill="#ffffff"/><g transform="scale(5.66)"><g transform="translate(0,0)"><path fill-rule="evenodd" d="M8 0L8 1L9 1L9 2L8 2L8 5L9 5L9 6L8 6L8 7L9 7L9 6L10 6L10 7L11 7L11 5L10 5L10 3L12 3L12 4L14 4L14 2L15 2L15 3L16 3L16 4L15 4L15 5L16 5L16 4L17 4L17 6L16 6L16 7L17 7L17 10L16 10L16 11L15 11L15 9L13 9L13 6L14 6L14 7L15 7L15 6L14 6L14 5L12 5L12 8L11 8L11 10L9 10L9 9L10 9L10 8L8 8L8 13L9 13L9 14L8 14L8 15L7 15L7 14L6 14L6 15L7 15L7 16L5 16L5 13L7 13L7 12L5 12L5 13L4 13L4 14L3 14L3 12L4 12L4 11L3 11L3 9L4 9L4 10L5 10L5 9L4 9L4 8L0 8L0 9L2 9L2 11L1 11L1 12L2 12L2 13L0 13L0 14L1 14L1 16L0 16L0 17L4 17L4 18L3 18L3 19L1 19L1 18L0 18L0 19L1 19L1 20L2 20L2 22L1 22L1 21L0 21L0 24L1 24L1 26L0 26L0 28L1 28L1 29L0 29L0 30L1 30L1 32L3 32L3 31L5 31L5 30L6 30L6 31L7 31L7 32L4 32L4 33L3 33L3 34L2 34L2 33L1 33L1 34L0 34L0 36L1 36L1 37L0 37L0 38L1 38L1 40L2 40L2 41L0 41L0 43L1 43L1 44L3 44L3 45L4 45L4 44L3 44L3 43L7 43L7 42L3 42L3 43L2 43L2 41L5 41L5 40L6 40L6 41L7 41L7 40L8 40L8 42L9 42L9 43L10 43L10 42L9 42L9 40L10 40L10 39L11 39L11 44L10 44L10 45L9 45L9 44L8 44L8 46L12 46L12 47L9 47L9 49L8 49L8 53L10 53L10 52L11 52L11 53L14 53L14 52L16 52L16 53L18 53L18 52L20 52L20 51L21 51L21 50L22 50L22 51L23 51L23 53L24 53L24 51L23 51L23 49L22 49L22 48L21 48L21 46L22 46L22 47L23 47L23 48L24 48L24 50L25 50L25 53L26 53L26 51L27 51L27 53L28 53L28 52L29 52L29 53L30 53L30 52L31 52L31 51L32 51L32 53L36 53L36 49L37 49L37 51L39 51L39 52L37 52L37 53L40 53L40 52L42 52L42 53L47 53L47 52L46 52L46 51L47 51L47 50L49 50L49 47L52 47L52 46L53 46L53 43L51 43L51 42L52 42L52 39L53 39L53 38L52 38L52 37L53 37L53 36L52 36L52 35L51 35L51 36L50 36L50 35L49 35L49 36L50 36L50 37L49 37L49 38L48 38L48 35L47 35L47 37L46 37L46 40L47 40L47 42L48 42L48 41L49 41L49 42L50 42L50 43L49 43L49 44L48 44L48 43L45 43L45 42L44 42L44 43L42 43L42 45L41 45L41 42L42 42L42 40L44 40L44 41L45 41L45 39L44 39L44 38L45 38L45 37L43 37L43 38L42 38L42 39L41 39L41 38L40 38L40 37L38 37L38 36L37 36L37 35L39 35L39 36L40 36L40 35L39 35L39 34L41 34L41 33L42 33L42 35L41 35L41 37L42 37L42 36L43 36L43 33L45 33L45 34L46 34L46 32L48 32L48 33L47 33L47 34L49 34L49 32L51 32L51 33L50 33L50 34L53 34L53 33L52 33L52 32L53 32L53 31L51 31L51 30L52 30L52 29L51 29L51 30L50 30L50 28L49 28L49 27L51 27L51 28L53 28L53 25L52 25L52 26L51 26L51 24L49 24L49 23L52 23L52 24L53 24L53 23L52 23L52 22L53 22L53 21L52 21L52 20L53 20L53 19L50 19L50 18L49 18L49 17L48 17L48 19L47 19L47 21L48 21L48 22L49 22L49 23L48 23L48 24L47 24L47 22L46 22L46 21L45 21L45 19L46 19L46 18L47 18L47 16L46 16L46 15L45 15L45 13L46 13L46 12L47 12L47 13L49 13L49 14L48 14L48 16L50 16L50 14L51 14L51 15L53 15L53 13L52 13L52 12L50 12L50 13L49 13L49 10L48 10L48 9L51 9L51 10L50 10L50 11L52 11L52 10L53 10L53 8L52 8L52 9L51 9L51 8L48 8L48 9L47 9L47 10L48 10L48 11L46 11L46 10L45 10L45 12L44 12L44 11L43 11L43 9L42 9L42 8L41 8L41 6L40 6L40 7L39 7L39 4L40 4L40 5L41 5L41 4L42 4L42 7L43 7L43 3L44 3L44 4L45 4L45 3L44 3L44 1L43 1L43 0L42 0L42 2L43 2L43 3L41 3L41 4L40 4L40 3L38 3L38 2L36 2L36 1L34 1L34 0L32 0L32 3L31 3L31 4L32 4L32 3L34 3L34 4L35 4L35 3L36 3L36 4L37 4L37 3L38 3L38 7L37 7L37 6L36 6L36 7L35 7L35 6L34 6L34 5L33 5L33 6L32 6L32 7L33 7L33 8L34 8L34 9L33 9L33 10L34 10L34 11L35 11L35 12L33 12L33 11L31 11L31 10L32 10L32 8L31 8L31 5L30 5L30 8L31 8L31 9L30 9L30 10L29 10L29 4L27 4L27 3L29 3L29 2L31 2L31 0L30 0L30 1L29 1L29 0L28 0L28 1L27 1L27 3L26 3L26 1L25 1L25 0L21 0L21 1L20 1L20 0L19 0L19 1L18 1L18 0L17 0L17 1L16 1L16 0L14 0L14 2L13 2L13 0ZM37 0L37 1L38 1L38 0ZM39 0L39 2L40 2L40 0ZM10 1L10 2L9 2L9 3L10 3L10 2L11 2L11 1ZM22 1L22 2L20 2L20 3L21 3L21 5L22 5L22 4L23 4L23 7L22 7L22 6L21 6L21 8L23 8L23 7L24 7L24 4L25 4L25 1ZM28 1L28 2L29 2L29 1ZM33 1L33 2L34 2L34 1ZM12 2L12 3L13 3L13 2ZM17 2L17 4L18 4L18 2ZM22 2L22 3L23 3L23 4L24 4L24 2ZM19 4L19 5L18 5L18 6L17 6L17 7L18 7L18 11L16 11L16 12L17 12L17 13L15 13L15 11L14 11L14 10L12 10L12 11L10 11L10 12L11 12L11 14L10 14L10 15L11 15L11 14L13 14L13 15L14 15L14 16L13 16L13 17L12 17L12 16L9 16L9 17L8 17L8 19L9 19L9 18L10 18L10 19L11 19L11 20L10 20L10 21L9 21L9 22L8 22L8 21L6 21L6 22L5 22L5 21L4 21L4 20L5 20L5 18L4 18L4 20L3 20L3 21L4 21L4 22L5 22L5 23L6 23L6 24L7 24L7 23L8 23L8 24L10 24L10 23L9 23L9 22L11 22L11 23L13 23L13 22L14 22L14 23L15 23L15 24L16 24L16 22L17 22L17 21L18 21L18 23L19 23L19 24L20 24L20 23L21 23L21 25L23 25L23 27L22 27L22 26L21 26L21 27L19 27L19 26L18 26L18 27L19 27L19 28L18 28L18 29L19 29L19 30L20 30L20 31L21 31L21 30L23 30L23 31L22 31L22 32L21 32L21 33L19 33L19 32L17 32L17 31L18 31L18 30L16 30L16 28L17 28L17 27L16 27L16 26L17 26L17 25L18 25L18 24L17 24L17 25L16 25L16 26L15 26L15 27L14 27L14 25L13 25L13 24L12 24L12 25L11 25L11 26L10 26L10 25L9 25L9 26L10 26L10 27L9 27L9 28L10 28L10 29L11 29L11 30L9 30L9 29L6 29L6 30L7 30L7 31L8 31L8 32L10 32L10 31L11 31L11 32L13 32L13 31L15 31L15 32L14 32L14 34L15 34L15 35L12 35L12 36L14 36L14 37L13 37L13 38L11 38L11 35L10 35L10 33L5 33L5 34L3 34L3 35L5 35L5 36L8 36L8 35L9 35L9 37L8 37L8 38L9 38L9 39L8 39L8 40L9 40L9 39L10 39L10 38L11 38L11 39L13 39L13 40L14 40L14 43L13 43L13 44L11 44L11 45L13 45L13 44L14 44L14 46L13 46L13 47L12 47L12 48L10 48L10 49L12 49L12 50L11 50L11 51L13 51L13 49L12 49L12 48L13 48L13 47L14 47L14 51L16 51L16 52L18 52L18 51L20 51L20 49L19 49L19 50L18 50L18 49L16 49L16 50L15 50L15 47L16 47L16 48L18 48L18 47L19 47L19 48L20 48L20 47L19 47L19 43L22 43L22 42L23 42L23 45L24 45L24 42L25 42L25 44L27 44L27 42L26 42L26 39L28 39L28 41L30 41L30 42L29 42L29 43L28 43L28 44L30 44L30 43L31 43L31 44L32 44L32 45L31 45L31 47L32 47L32 45L33 45L33 44L35 44L35 45L34 45L34 46L36 46L36 47L34 47L34 48L29 48L29 49L27 49L27 50L31 50L31 49L32 49L32 51L33 51L33 52L35 52L35 49L36 49L36 47L37 47L37 46L38 46L38 47L39 47L39 48L38 48L38 49L39 49L39 51L40 51L40 49L41 49L41 47L42 47L42 48L43 48L43 49L42 49L42 50L41 50L41 51L42 51L42 52L45 52L45 50L46 50L46 49L44 49L44 46L41 46L41 45L40 45L40 47L39 47L39 44L40 44L40 41L41 41L41 40L38 40L38 41L37 41L37 39L36 39L36 41L35 41L35 38L38 38L38 37L36 37L36 36L35 36L35 35L34 35L34 34L37 34L37 32L38 32L38 31L37 31L37 32L35 32L35 31L36 31L36 29L38 29L38 30L39 30L39 32L40 32L40 31L41 31L41 32L42 32L42 33L43 33L43 31L44 31L44 32L45 32L45 30L46 30L46 31L50 31L50 30L49 30L49 29L47 29L47 30L46 30L46 29L45 29L45 30L44 30L44 29L43 29L43 28L44 28L44 27L41 27L41 28L40 28L40 29L39 29L39 27L40 27L40 26L39 26L39 27L38 27L38 26L35 26L35 25L36 25L36 24L35 24L35 23L33 23L33 24L32 24L32 21L34 21L34 22L35 22L35 21L37 21L37 22L38 22L38 23L37 23L37 24L38 24L38 25L41 25L41 21L44 21L44 22L43 22L43 23L42 23L42 24L44 24L44 23L46 23L46 22L45 22L45 21L44 21L44 18L45 18L45 17L46 17L46 16L45 16L45 15L44 15L44 14L43 14L43 13L44 13L44 12L43 12L43 11L41 11L41 10L40 10L40 9L38 9L38 8L39 8L39 7L38 7L38 8L35 8L35 9L34 9L34 10L35 10L35 11L38 11L38 12L37 12L37 13L36 13L36 12L35 12L35 13L33 13L33 12L32 12L32 13L33 13L33 14L31 14L31 13L29 13L29 10L28 10L28 9L25 9L25 10L26 10L26 12L25 12L25 11L24 11L24 12L23 12L23 11L22 11L22 12L21 12L21 11L20 11L20 10L24 10L24 9L20 9L20 10L19 10L19 8L20 8L20 6L19 6L19 5L20 5L20 4ZM25 5L25 8L28 8L28 5ZM18 6L18 7L19 7L19 6ZM26 6L26 7L27 7L27 6ZM33 6L33 7L34 7L34 6ZM44 6L44 9L46 9L46 8L45 8L45 6ZM6 8L6 9L7 9L7 8ZM37 9L37 10L38 10L38 9ZM6 10L6 11L7 11L7 10ZM2 11L2 12L3 12L3 11ZM18 11L18 14L16 14L16 17L15 17L15 16L14 16L14 17L13 17L13 18L14 18L14 19L12 19L12 18L11 18L11 17L10 17L10 18L11 18L11 19L12 19L12 20L11 20L11 22L12 22L12 20L15 20L15 18L18 18L18 19L20 19L20 21L19 21L19 22L20 22L20 21L21 21L21 22L23 22L23 23L25 23L25 24L24 24L24 28L23 28L23 30L26 30L26 31L27 31L27 30L28 30L28 31L29 31L29 30L30 30L30 29L31 29L31 30L33 30L33 29L34 29L34 31L33 31L33 32L34 32L34 33L35 33L35 32L34 32L34 31L35 31L35 29L36 29L36 27L35 27L35 28L34 28L34 25L33 25L33 27L32 27L32 26L29 26L29 25L31 25L31 24L29 24L29 23L28 23L28 22L31 22L31 21L27 21L27 19L28 19L28 20L29 20L29 19L30 19L30 20L31 20L31 19L32 19L32 17L33 17L33 19L35 19L35 20L37 20L37 21L38 21L38 20L39 20L39 18L42 18L42 17L40 17L40 16L43 16L43 14L41 14L41 13L42 13L42 12L41 12L41 13L40 13L40 11L39 11L39 12L38 12L38 15L37 15L37 17L39 17L39 18L38 18L38 20L37 20L37 19L35 19L35 17L36 17L36 15L35 15L35 16L34 16L34 14L33 14L33 15L31 15L31 14L30 14L30 16L28 16L28 17L27 17L27 18L26 18L26 16L25 16L25 14L24 14L24 16L23 16L23 15L22 15L22 14L23 14L23 13L21 13L21 12L20 12L20 14L19 14L19 11ZM27 11L27 12L26 12L26 15L29 15L29 13L28 13L28 14L27 14L27 12L28 12L28 11ZM30 11L30 12L31 12L31 11ZM13 12L13 14L14 14L14 15L15 15L15 14L14 14L14 12ZM24 12L24 13L25 13L25 12ZM35 13L35 14L36 14L36 13ZM39 13L39 16L40 16L40 13ZM2 14L2 15L3 15L3 16L4 16L4 17L5 17L5 16L4 16L4 15L3 15L3 14ZM18 14L18 15L19 15L19 14ZM20 14L20 17L19 17L19 16L17 16L17 17L19 17L19 18L21 18L21 20L24 20L24 21L23 21L23 22L24 22L24 21L26 21L26 22L25 22L25 23L26 23L26 24L28 24L28 23L26 23L26 22L27 22L27 21L26 21L26 18L24 18L24 19L23 19L23 16L22 16L22 15L21 15L21 14ZM21 16L21 17L22 17L22 16ZM24 16L24 17L25 17L25 16ZM31 16L31 17L30 17L30 19L31 19L31 17L32 17L32 16ZM33 16L33 17L34 17L34 16ZM52 16L52 17L51 17L51 18L52 18L52 17L53 17L53 16ZM6 17L6 18L7 18L7 17ZM14 17L14 18L15 18L15 17ZM28 17L28 19L29 19L29 17ZM6 19L6 20L7 20L7 19ZM16 19L16 20L17 20L17 19ZM40 19L40 21L41 21L41 19ZM49 19L49 20L48 20L48 21L49 21L49 20L50 20L50 19ZM14 21L14 22L16 22L16 21ZM50 21L50 22L52 22L52 21ZM2 22L2 23L1 23L1 24L3 24L3 25L4 25L4 24L3 24L3 22ZM6 22L6 23L7 23L7 22ZM39 22L39 24L40 24L40 22ZM5 25L5 28L8 28L8 25ZM25 25L25 28L28 28L28 25ZM42 25L42 26L43 26L43 25ZM45 25L45 28L48 28L48 25ZM49 25L49 26L50 26L50 25ZM1 26L1 27L3 27L3 28L2 28L2 31L3 31L3 29L4 29L4 27L3 27L3 26ZM6 26L6 27L7 27L7 26ZM12 26L12 27L13 27L13 28L11 28L11 29L13 29L13 30L12 30L12 31L13 31L13 30L15 30L15 31L16 31L16 30L15 30L15 28L14 28L14 27L13 27L13 26ZM26 26L26 27L27 27L27 26ZM46 26L46 27L47 27L47 26ZM30 27L30 28L29 28L29 29L30 29L30 28L31 28L31 27ZM21 28L21 29L22 29L22 28ZM40 29L40 30L42 30L42 29ZM8 30L8 31L9 31L9 30ZM23 31L23 32L22 32L22 33L21 33L21 34L20 34L20 36L19 36L19 35L18 35L18 33L17 33L17 34L16 34L16 35L15 35L15 36L16 36L16 37L17 37L17 36L18 36L18 39L19 39L19 40L23 40L23 42L24 42L24 41L25 41L25 39L26 39L26 38L25 38L25 36L26 36L26 34L27 34L27 36L29 36L29 37L28 37L28 38L29 38L29 37L30 37L30 36L29 36L29 35L31 35L31 36L33 36L33 37L32 37L32 39L31 39L31 38L30 38L30 40L32 40L32 41L31 41L31 42L33 42L33 43L35 43L35 44L38 44L38 43L39 43L39 42L38 42L38 43L37 43L37 41L36 41L36 43L35 43L35 41L34 41L34 40L33 40L33 39L34 39L34 38L33 38L33 37L35 37L35 36L33 36L33 35L31 35L31 33L32 33L32 34L33 34L33 33L32 33L32 32L31 32L31 33L30 33L30 32L29 32L29 34L28 34L28 33L26 33L26 32L25 32L25 31ZM23 32L23 33L25 33L25 34L26 34L26 33L25 33L25 32ZM38 33L38 34L39 34L39 33ZM6 34L6 35L7 35L7 34ZM16 35L16 36L17 36L17 35ZM21 35L21 37L22 37L22 38L21 38L21 39L22 39L22 38L23 38L23 39L25 39L25 38L24 38L24 35L23 35L23 36L22 36L22 35ZM3 36L3 37L2 37L2 38L4 38L4 40L5 40L5 39L6 39L6 40L7 40L7 39L6 39L6 38L7 38L7 37L6 37L6 38L4 38L4 36ZM9 37L9 38L10 38L10 37ZM50 37L50 38L49 38L49 39L50 39L50 40L49 40L49 41L50 41L50 42L51 42L51 39L50 39L50 38L51 38L51 37ZM14 38L14 40L16 40L16 41L15 41L15 42L17 42L17 41L18 41L18 43L17 43L17 44L18 44L18 43L19 43L19 42L20 42L20 41L18 41L18 40L16 40L16 39L17 39L17 38L16 38L16 39L15 39L15 38ZM19 38L19 39L20 39L20 38ZM39 38L39 39L40 39L40 38ZM47 38L47 40L48 40L48 38ZM2 39L2 40L3 40L3 39ZM21 41L21 42L22 42L22 41ZM15 43L15 46L16 46L16 47L18 47L18 45L17 45L17 46L16 46L16 43ZM6 44L6 45L7 45L7 44ZM51 44L51 46L52 46L52 44ZM20 45L20 46L21 46L21 45ZM25 45L25 48L28 48L28 45ZM45 45L45 48L48 48L48 45ZM49 45L49 46L50 46L50 45ZM23 46L23 47L24 47L24 46ZM26 46L26 47L27 47L27 46ZM46 46L46 47L47 47L47 46ZM39 48L39 49L40 49L40 48ZM50 48L50 51L48 51L48 52L49 52L49 53L50 53L50 51L51 51L51 53L52 53L52 50L53 50L53 48L52 48L52 50L51 50L51 48ZM33 49L33 51L34 51L34 49ZM43 49L43 50L42 50L42 51L43 51L43 50L44 50L44 49ZM9 50L9 51L10 51L10 50ZM16 50L16 51L17 51L17 50ZM21 52L21 53L22 53L22 52ZM0 0L0 7L7 7L7 0ZM1 1L1 6L6 6L6 1ZM2 2L2 5L5 5L5 2ZM46 0L46 7L53 7L53 0ZM47 1L47 6L52 6L52 1ZM48 2L48 5L51 5L51 2ZM0 46L0 53L7 53L7 46ZM1 47L1 52L6 52L6 47ZM2 48L2 51L5 51L5 48Z" fill="#000000"/></g></g></svg>
