<?xml version="1.0" encoding="UTF-8"?>
<svg xmlns="http://www.w3.org/2000/svg" version="1.1" width="300" height="300" viewBox="0 0 300 300"><rect x="0" y="0" width="300" height="300" fill="#ffffff"/><g transform="scale(5.66)"><g transform="translate(0,0)"><path fill-rule="evenodd" d="M9 0L9 1L8 1L8 2L10 2L10 5L12 5L12 4L11 4L11 2L12 2L12 3L13 3L13 4L14 4L14 5L15 5L15 4L14 4L14 2L16 2L16 4L17 4L17 5L18 5L18 7L19 7L19 5L18 5L18 4L21 4L21 5L20 5L20 7L21 7L21 8L18 8L18 9L17 9L17 10L18 10L18 11L16 11L16 12L15 12L15 13L14 13L14 11L15 11L15 10L16 10L16 7L17 7L17 6L16 6L16 7L15 7L15 6L14 6L14 7L13 7L13 6L12 6L12 8L11 8L11 6L10 6L10 7L9 7L9 5L8 5L8 7L9 7L9 8L6 8L6 9L7 9L7 10L3 10L3 9L5 9L5 8L0 8L0 12L1 12L1 13L0 13L0 14L1 14L1 15L0 15L0 16L2 16L2 17L0 17L0 18L1 18L1 19L0 19L0 21L1 21L1 22L0 22L0 23L1 23L1 24L0 24L0 25L1 25L1 26L0 26L0 27L1 27L1 28L0 28L0 31L2 31L2 33L1 33L1 34L0 34L0 35L1 35L1 36L0 36L0 41L1 41L1 42L0 42L0 43L1 43L1 44L3 44L3 45L4 45L4 44L3 44L3 43L9 43L9 45L8 45L8 47L10 47L10 46L12 46L12 45L13 45L13 44L14 44L14 45L15 45L15 47L14 47L14 48L13 48L13 47L11 47L11 48L8 48L8 53L10 53L10 52L12 52L12 51L14 51L14 52L15 52L15 51L16 51L16 50L15 50L15 49L19 49L19 50L18 50L18 53L21 53L21 52L19 52L19 50L20 50L20 51L21 51L21 50L22 50L22 52L23 52L23 51L25 51L25 52L24 52L24 53L28 53L28 52L29 52L29 50L33 50L33 49L31 49L31 47L29 47L29 45L30 45L30 46L31 46L31 45L32 45L32 46L33 46L33 47L32 47L32 48L33 48L33 47L34 47L34 48L35 48L35 46L34 46L34 45L35 45L35 44L36 44L36 45L37 45L37 44L36 44L36 43L37 43L37 42L38 42L38 43L39 43L39 44L38 44L38 45L39 45L39 46L38 46L38 48L36 48L36 50L34 50L34 52L33 52L33 51L32 51L32 52L33 52L33 53L34 53L34 52L36 52L36 53L38 53L38 52L39 52L39 51L40 51L40 52L41 52L41 53L43 53L43 52L44 52L44 50L47 50L47 49L49 49L49 50L48 50L48 52L46 52L46 51L45 51L45 52L46 52L46 53L49 53L49 52L50 52L50 53L51 53L51 52L52 52L52 51L53 51L53 47L52 47L52 49L51 49L51 48L50 48L50 46L51 46L51 45L52 45L52 46L53 46L53 45L52 45L52 43L51 43L51 42L50 42L50 43L49 43L49 41L46 41L46 40L47 40L47 39L46 39L46 38L47 38L47 37L48 37L48 38L49 38L49 39L48 39L48 40L50 40L50 41L51 41L51 40L52 40L52 39L51 39L51 37L52 37L52 38L53 38L53 35L52 35L52 34L53 34L53 32L51 32L51 34L49 34L49 33L50 33L50 31L51 31L51 30L50 30L50 31L49 31L49 33L48 33L48 32L47 32L47 31L46 31L46 29L48 29L48 30L49 30L49 28L50 28L50 29L52 29L52 30L53 30L53 29L52 29L52 28L53 28L53 27L51 27L51 26L53 26L53 25L52 25L52 23L51 23L51 24L50 24L50 21L51 21L51 22L53 22L53 19L52 19L52 21L51 21L51 20L50 20L50 21L49 21L49 20L48 20L48 22L46 22L46 23L49 23L49 24L43 24L43 23L44 23L44 21L47 21L47 20L46 20L46 18L45 18L45 19L44 19L44 21L42 21L42 18L44 18L44 17L49 17L49 16L50 16L50 19L51 19L51 16L50 16L50 15L49 15L49 14L50 14L50 13L51 13L51 15L52 15L52 14L53 14L53 13L52 13L52 12L53 12L53 11L51 11L51 10L53 10L53 9L52 9L52 8L51 8L51 10L50 10L50 11L51 11L51 12L48 12L48 13L49 13L49 14L48 14L48 16L46 16L46 15L47 15L47 14L46 14L46 12L47 12L47 11L48 11L48 8L47 8L47 11L46 11L46 12L44 12L44 11L45 11L45 10L44 10L44 11L43 11L43 12L41 12L41 11L42 11L42 10L43 10L43 9L46 9L46 8L44 8L44 7L45 7L45 6L44 6L44 7L43 7L43 3L44 3L44 4L45 4L45 3L44 3L44 1L43 1L43 0L42 0L42 2L43 2L43 3L41 3L41 2L40 2L40 3L39 3L39 5L37 5L37 6L36 6L36 7L37 7L37 8L36 8L36 9L35 9L35 10L34 10L34 8L35 8L35 5L34 5L34 4L33 4L33 5L34 5L34 8L33 8L33 6L32 6L32 3L33 3L33 2L35 2L35 3L36 3L36 4L37 4L37 3L36 3L36 2L37 2L37 1L38 1L38 2L39 2L39 1L40 1L40 0L39 0L39 1L38 1L38 0L37 0L37 1L36 1L36 2L35 2L35 1L34 1L34 0L33 0L33 1L31 1L31 0L30 0L30 1L31 1L31 2L32 2L32 3L30 3L30 2L28 2L28 1L29 1L29 0L26 0L26 1L25 1L25 0L21 0L21 1L18 1L18 2L17 2L17 0L16 0L16 1L14 1L14 2L13 2L13 1L11 1L11 0ZM10 1L10 2L11 2L11 1ZM21 1L21 2L19 2L19 3L21 3L21 4L23 4L23 1ZM24 1L24 4L26 4L26 3L28 3L28 4L30 4L30 3L28 3L28 2L27 2L27 1L26 1L26 2L25 2L25 1ZM21 2L21 3L22 3L22 2ZM8 3L8 4L9 4L9 3ZM17 3L17 4L18 4L18 3ZM40 3L40 4L41 4L41 3ZM22 5L22 6L21 6L21 7L22 7L22 6L23 6L23 7L24 7L24 5ZM25 5L25 8L28 8L28 5ZM40 5L40 6L39 6L39 9L38 9L38 10L37 10L37 9L36 9L36 10L35 10L35 11L34 11L34 12L35 12L35 13L34 13L34 14L32 14L32 13L33 13L33 12L32 12L32 11L33 11L33 10L32 10L32 9L33 9L33 8L32 8L32 6L31 6L31 8L30 8L30 6L29 6L29 9L31 9L31 10L30 10L30 13L31 13L31 14L28 14L28 13L27 13L27 14L23 14L23 15L21 15L21 16L22 16L22 17L24 17L24 16L23 16L23 15L25 15L25 18L23 18L23 19L22 19L22 18L21 18L21 17L20 17L20 18L19 18L19 17L18 17L18 16L20 16L20 14L21 14L21 13L24 13L24 12L23 12L23 10L22 10L22 9L23 9L23 8L21 8L21 9L20 9L20 12L19 12L19 11L18 11L18 12L17 12L17 13L15 13L15 14L16 14L16 16L15 16L15 17L13 17L13 18L11 18L11 17L10 17L10 16L12 16L12 15L13 15L13 16L14 16L14 15L13 15L13 14L14 14L14 13L13 13L13 11L12 11L12 10L11 10L11 8L10 8L10 9L8 9L8 11L9 11L9 13L6 13L6 12L7 12L7 11L5 11L5 13L4 13L4 11L3 11L3 10L1 10L1 12L2 12L2 13L1 13L1 14L2 14L2 13L3 13L3 17L2 17L2 19L3 19L3 23L2 23L2 22L1 22L1 23L2 23L2 24L1 24L1 25L3 25L3 26L1 26L1 27L4 27L4 25L3 25L3 23L4 23L4 24L7 24L7 23L6 23L6 22L7 22L7 21L5 21L5 19L6 19L6 20L7 20L7 19L8 19L8 18L7 18L7 17L9 17L9 19L10 19L10 22L8 22L8 24L9 24L9 26L10 26L10 27L11 27L11 26L13 26L13 25L14 25L14 26L15 26L15 28L14 28L14 27L13 27L13 28L14 28L14 29L15 29L15 28L17 28L17 29L16 29L16 31L15 31L15 32L16 32L16 31L17 31L17 32L18 32L18 30L19 30L19 31L20 31L20 32L19 32L19 33L13 33L13 34L14 34L14 35L13 35L13 36L14 36L14 38L13 38L13 37L11 37L11 38L10 38L10 36L9 36L9 35L8 35L8 36L7 36L7 35L6 35L6 36L7 36L7 37L6 37L6 38L5 38L5 36L2 36L2 37L1 37L1 38L2 38L2 39L1 39L1 41L2 41L2 40L7 40L7 41L6 41L6 42L9 42L9 41L8 41L8 40L10 40L10 44L11 44L11 40L12 40L12 39L11 39L11 38L13 38L13 39L14 39L14 40L13 40L13 41L12 41L12 42L13 42L13 41L14 41L14 43L17 43L17 45L16 45L16 48L19 48L19 45L20 45L20 48L21 48L21 47L22 47L22 49L24 49L24 48L23 48L23 47L22 47L22 46L21 46L21 45L23 45L23 46L24 46L24 44L23 44L23 43L24 43L24 42L23 42L23 43L22 43L22 42L21 42L21 41L20 41L20 42L21 42L21 43L19 43L19 41L15 41L15 36L16 36L16 35L15 35L15 34L19 34L19 35L20 35L20 36L21 36L21 37L20 37L20 38L19 38L19 37L18 37L18 36L17 36L17 37L16 37L16 38L19 38L19 39L20 39L20 38L21 38L21 40L22 40L22 41L24 41L24 39L25 39L25 41L27 41L27 40L26 40L26 39L28 39L28 40L29 40L29 41L31 41L31 42L30 42L30 43L33 43L33 42L35 42L35 43L34 43L34 44L35 44L35 43L36 43L36 42L37 42L37 41L36 41L36 40L37 40L37 39L36 39L36 40L35 40L35 39L33 39L33 38L32 38L32 37L33 37L33 36L35 36L35 37L34 37L34 38L39 38L39 39L44 39L44 36L45 36L45 37L47 37L47 36L48 36L48 37L49 37L49 35L47 35L47 32L46 32L46 31L45 31L45 30L43 30L43 31L45 31L45 33L44 33L44 32L42 32L42 31L41 31L41 30L40 30L40 31L41 31L41 32L39 32L39 31L36 31L36 28L37 28L37 27L36 27L36 26L37 26L37 25L36 25L36 24L37 24L37 23L38 23L38 26L40 26L40 27L39 27L39 28L38 28L38 29L37 29L37 30L39 30L39 28L40 28L40 29L44 29L44 26L42 26L42 23L43 23L43 22L41 22L41 24L40 24L40 23L38 23L38 22L39 22L39 19L41 19L41 18L42 18L42 17L44 17L44 16L45 16L45 15L43 15L43 14L40 14L40 15L39 15L39 16L38 16L38 18L36 18L36 16L37 16L37 15L36 15L36 16L35 16L35 15L34 15L34 14L35 14L35 13L36 13L36 12L37 12L37 14L39 14L39 13L38 13L38 12L40 12L40 13L41 13L41 12L40 12L40 11L41 11L41 10L42 10L42 8L40 8L40 6L41 6L41 7L42 7L42 5ZM26 6L26 7L27 7L27 6ZM37 6L37 7L38 7L38 6ZM14 7L14 8L13 8L13 9L14 9L14 10L15 10L15 7ZM49 8L49 9L50 9L50 8ZM18 9L18 10L19 10L19 9ZM24 9L24 10L25 10L25 12L29 12L29 10L28 10L28 9ZM40 9L40 10L38 10L38 11L40 11L40 10L41 10L41 9ZM10 10L10 11L11 11L11 12L10 12L10 14L9 14L9 15L8 15L8 14L6 14L6 13L5 13L5 14L4 14L4 16L5 16L5 18L6 18L6 19L7 19L7 18L6 18L6 17L7 17L7 16L6 16L6 15L8 15L8 16L9 16L9 15L10 15L10 14L13 14L13 13L12 13L12 11L11 11L11 10ZM21 10L21 11L22 11L22 10ZM26 10L26 11L28 11L28 10ZM36 10L36 11L35 11L35 12L36 12L36 11L37 11L37 10ZM18 12L18 13L17 13L17 14L18 14L18 13L19 13L19 12ZM20 12L20 13L21 13L21 12ZM31 12L31 13L32 13L32 12ZM44 13L44 14L45 14L45 13ZM30 15L30 16L29 16L29 17L28 17L28 18L27 18L27 16L26 16L26 19L28 19L28 18L29 18L29 19L30 19L30 20L26 20L26 21L27 21L27 22L26 22L26 23L24 23L24 22L25 22L25 19L23 19L23 23L22 23L22 22L20 22L20 23L21 23L21 24L16 24L16 23L17 23L17 22L18 22L18 23L19 23L19 22L18 22L18 21L21 21L21 20L22 20L22 19L21 19L21 20L20 20L20 19L19 19L19 18L15 18L15 20L16 20L16 21L17 21L17 22L15 22L15 21L14 21L14 18L13 18L13 21L14 21L14 22L15 22L15 26L16 26L16 27L17 27L17 28L18 28L18 29L17 29L17 30L18 30L18 29L19 29L19 28L18 28L18 27L20 27L20 25L22 25L22 28L23 28L23 26L24 26L24 29L21 29L21 28L20 28L20 29L21 29L21 32L20 32L20 33L19 33L19 34L20 34L20 33L22 33L22 34L21 34L21 35L22 35L22 34L24 34L24 35L25 35L25 39L26 39L26 38L27 38L27 37L28 37L28 36L27 36L27 35L29 35L29 36L30 36L30 37L29 37L29 38L28 38L28 39L29 39L29 40L30 40L30 39L29 39L29 38L31 38L31 37L32 37L32 36L33 36L33 35L35 35L35 34L33 34L33 33L34 33L34 32L33 32L33 31L32 31L32 28L34 28L34 29L33 29L33 30L34 30L34 31L35 31L35 30L34 30L34 29L35 29L35 28L36 28L36 27L35 27L35 26L34 26L34 27L32 27L32 28L31 28L31 29L30 29L30 27L29 27L29 26L31 26L31 24L36 24L36 23L37 23L37 21L38 21L38 19L39 19L39 18L38 18L38 19L37 19L37 20L36 20L36 19L35 19L35 18L33 18L33 17L35 17L35 16L34 16L34 15L32 15L32 16L33 16L33 17L32 17L32 18L31 18L31 15ZM40 15L40 16L43 16L43 15ZM16 16L16 17L17 17L17 16ZM52 17L52 18L53 18L53 17ZM3 18L3 19L4 19L4 18ZM30 18L30 19L31 19L31 18ZM32 18L32 19L33 19L33 18ZM48 18L48 19L49 19L49 18ZM11 19L11 22L10 22L10 23L11 23L11 24L10 24L10 25L11 25L11 24L14 24L14 23L13 23L13 22L12 22L12 19ZM16 19L16 20L17 20L17 21L18 21L18 20L19 20L19 19L18 19L18 20L17 20L17 19ZM1 20L1 21L2 21L2 20ZM8 20L8 21L9 21L9 20ZM30 20L30 21L31 21L31 22L27 22L27 23L26 23L26 24L29 24L29 23L31 23L31 22L32 22L32 23L34 23L34 22L35 22L35 23L36 23L36 22L35 22L35 21L36 21L36 20L35 20L35 21L34 21L34 22L32 22L32 21L33 21L33 20L32 20L32 21L31 21L31 20ZM40 20L40 21L41 21L41 20ZM4 22L4 23L5 23L5 22ZM22 24L22 25L24 25L24 24ZM5 25L5 28L8 28L8 25ZM16 25L16 26L17 26L17 27L18 27L18 26L19 26L19 25L18 25L18 26L17 26L17 25ZM25 25L25 28L28 28L28 25ZM32 25L32 26L33 26L33 25ZM40 25L40 26L41 26L41 27L40 27L40 28L42 28L42 26L41 26L41 25ZM45 25L45 28L48 28L48 25ZM49 25L49 27L50 27L50 28L51 28L51 27L50 27L50 26L51 26L51 25ZM6 26L6 27L7 27L7 26ZM26 26L26 27L27 27L27 26ZM46 26L46 27L47 27L47 26ZM34 27L34 28L35 28L35 27ZM2 28L2 29L1 29L1 30L2 30L2 31L3 31L3 30L4 30L4 32L5 32L5 29L3 29L3 28ZM10 28L10 29L11 29L11 30L12 30L12 31L13 31L13 32L14 32L14 31L13 31L13 29L12 29L12 28ZM6 29L6 30L8 30L8 32L7 32L7 31L6 31L6 32L7 32L7 33L5 33L5 34L4 34L4 35L5 35L5 34L8 34L8 33L9 33L9 30L8 30L8 29ZM24 29L24 30L23 30L23 32L22 32L22 33L24 33L24 32L25 32L25 33L27 33L27 34L25 34L25 35L27 35L27 34L29 34L29 35L31 35L31 36L32 36L32 33L33 33L33 32L32 32L32 31L31 31L31 30L29 30L29 31L28 31L28 30L26 30L26 29ZM24 30L24 31L25 31L25 30ZM26 31L26 32L27 32L27 33L28 33L28 31ZM30 31L30 32L29 32L29 34L31 34L31 31ZM10 32L10 33L11 33L11 34L12 34L12 32ZM36 32L36 33L37 33L37 35L38 35L38 33L39 33L39 37L40 37L40 36L41 36L41 38L43 38L43 37L42 37L42 35L40 35L40 34L44 34L44 35L43 35L43 36L44 36L44 35L45 35L45 34L46 34L46 33L45 33L45 34L44 34L44 33L42 33L42 32L41 32L41 33L39 33L39 32L38 32L38 33L37 33L37 32ZM2 33L2 34L1 34L1 35L3 35L3 33ZM11 35L11 36L12 36L12 35ZM46 35L46 36L47 36L47 35ZM50 35L50 36L52 36L52 35ZM8 36L8 37L9 37L9 36ZM23 36L23 37L21 37L21 38L24 38L24 36ZM26 36L26 37L27 37L27 36ZM36 36L36 37L38 37L38 36ZM3 37L3 39L4 39L4 37ZM6 38L6 39L8 39L8 38ZM9 38L9 39L10 39L10 40L11 40L11 39L10 39L10 38ZM16 39L16 40L17 40L17 39ZM22 39L22 40L23 40L23 39ZM31 39L31 40L33 40L33 39ZM45 39L45 40L43 40L43 41L45 41L45 40L46 40L46 39ZM50 39L50 40L51 40L51 39ZM40 40L40 42L39 42L39 41L38 41L38 42L39 42L39 43L40 43L40 42L42 42L42 43L43 43L43 42L42 42L42 40ZM3 41L3 42L2 42L2 43L3 43L3 42L4 42L4 41ZM32 41L32 42L33 42L33 41ZM52 41L52 42L53 42L53 41ZM17 42L17 43L18 43L18 42ZM25 42L25 44L26 44L26 43L27 43L27 44L29 44L29 43L28 43L28 42ZM44 42L44 43L48 43L48 42ZM12 43L12 44L13 44L13 43ZM50 43L50 44L49 44L49 46L50 46L50 44L51 44L51 43ZM6 44L6 45L7 45L7 44ZM18 44L18 45L17 45L17 47L18 47L18 45L19 45L19 44ZM20 44L20 45L21 45L21 44ZM32 44L32 45L33 45L33 44ZM39 44L39 45L40 45L40 46L39 46L39 47L41 47L41 48L40 48L40 49L41 49L41 50L40 50L40 51L41 51L41 52L42 52L42 51L43 51L43 50L44 50L44 48L43 48L43 50L42 50L42 47L44 47L44 44L43 44L43 46L41 46L41 45L42 45L42 44ZM25 45L25 48L28 48L28 45ZM45 45L45 48L48 48L48 45ZM26 46L26 47L27 47L27 46ZM36 46L36 47L37 47L37 46ZM46 46L46 47L47 47L47 46ZM29 48L29 49L26 49L26 50L25 50L25 51L26 51L26 52L28 52L28 51L26 51L26 50L29 50L29 49L30 49L30 48ZM38 48L38 50L37 50L37 51L36 51L36 52L37 52L37 51L38 51L38 50L39 50L39 48ZM49 48L49 49L50 49L50 52L51 52L51 51L52 51L52 50L51 50L51 49L50 49L50 48ZM13 49L13 50L14 50L14 49ZM20 49L20 50L21 50L21 49ZM9 50L9 51L12 51L12 50ZM30 51L30 52L31 52L31 51ZM16 52L16 53L17 53L17 52ZM0 0L0 7L7 7L7 0ZM1 1L1 6L6 6L6 1ZM2 2L2 5L5 5L5 2ZM46 0L46 7L53 7L53 0ZM47 1L47 6L52 6L52 1ZM48 2L48 5L51 5L51 2ZM0 46L0 53L7 53L7 46ZM1 47L1 52L6 52L6 47ZM2 48L2 51L5 51L5 48Z" fill="#000000"/></g></g></svg>
