<?xml version="1.0" encoding="UTF-8"?>
<svg xmlns="http://www.w3.org/2000/svg" version="1.1" width="300" height="300" viewBox="0 0 300 300"><rect x="0" y="0" width="300" height="300" fill="#ffffff"/><g transform="scale(5.66)"><g transform="translate(0,0)"><path fill-rule="evenodd" d="M9 0L9 1L8 1L8 2L9 2L9 3L8 3L8 4L9 4L9 3L10 3L10 2L12 2L12 5L13 5L13 6L12 6L12 7L13 7L13 6L14 6L14 8L11 8L11 6L10 6L10 5L11 5L11 4L10 4L10 5L8 5L8 7L9 7L9 6L10 6L10 8L6 8L6 9L8 9L8 10L6 10L6 11L7 11L7 12L6 12L6 13L5 13L5 14L6 14L6 15L4 15L4 14L3 14L3 13L4 13L4 11L3 11L3 10L2 10L2 9L5 9L5 8L0 8L0 11L1 11L1 12L0 12L0 13L1 13L1 14L0 14L0 18L4 18L4 19L3 19L3 20L2 20L2 21L1 21L1 20L0 20L0 22L2 22L2 21L3 21L3 20L4 20L4 19L5 19L5 20L6 20L6 21L5 21L5 23L10 23L10 25L9 25L9 24L4 24L4 22L3 22L3 23L0 23L0 25L1 25L1 26L0 26L0 28L1 28L1 29L0 29L0 33L1 33L1 34L0 34L0 36L3 36L3 38L2 38L2 39L4 39L4 41L5 41L5 42L3 42L3 43L2 43L2 41L3 41L3 40L0 40L0 41L1 41L1 42L0 42L0 43L1 43L1 44L3 44L3 45L4 45L4 44L3 44L3 43L8 43L8 44L6 44L6 45L8 45L8 47L9 47L9 48L8 48L8 53L10 53L10 51L11 51L11 49L12 49L12 51L16 51L16 53L17 53L17 51L18 51L18 50L14 50L14 49L19 49L19 48L20 48L20 49L21 49L21 50L22 50L22 51L23 51L23 52L24 52L24 53L26 53L26 52L24 52L24 51L27 51L27 53L28 53L28 52L29 52L29 53L31 53L31 51L30 51L30 50L33 50L33 49L29 49L29 48L30 48L30 47L29 47L29 46L31 46L31 47L32 47L32 48L33 48L33 47L34 47L34 48L35 48L35 47L36 47L36 46L37 46L37 47L38 47L38 48L36 48L36 50L34 50L34 51L32 51L32 52L33 52L33 53L35 53L35 52L34 52L34 51L37 51L37 50L38 50L38 51L39 51L39 52L42 52L42 53L43 53L43 51L44 51L44 52L46 52L46 53L49 53L49 52L50 52L50 53L51 53L51 52L52 52L52 51L53 51L53 49L51 49L51 48L52 48L52 47L51 47L51 48L50 48L50 46L51 46L51 45L52 45L52 44L50 44L50 43L51 43L51 42L49 42L49 41L47 41L47 43L46 43L46 44L45 44L45 43L43 43L43 44L44 44L44 45L42 45L42 43L41 43L41 42L43 42L43 40L44 40L44 41L45 41L45 42L46 42L46 41L45 41L45 39L46 39L46 40L47 40L47 39L46 39L46 38L47 38L47 37L48 37L48 38L49 38L49 39L48 39L48 40L50 40L50 41L51 41L51 40L50 40L50 39L51 39L51 37L52 37L52 38L53 38L53 35L52 35L52 34L53 34L53 33L51 33L51 34L50 34L50 35L49 35L49 33L50 33L50 31L51 31L51 32L52 32L52 31L51 31L51 30L50 30L50 31L49 31L49 33L46 33L46 32L47 32L47 31L46 31L46 29L48 29L48 30L49 30L49 25L50 25L50 27L51 27L51 28L50 28L50 29L52 29L52 30L53 30L53 29L52 29L52 28L53 28L53 27L51 27L51 26L53 26L53 24L50 24L50 21L51 21L51 20L48 20L48 19L49 19L49 18L48 18L48 19L46 19L46 18L43 18L43 17L49 17L49 16L50 16L50 17L52 17L52 18L53 18L53 17L52 17L52 15L51 15L51 16L50 16L50 15L49 15L49 14L50 14L50 13L51 13L51 14L53 14L53 13L52 13L52 12L53 12L53 11L51 11L51 12L50 12L50 13L49 13L49 12L48 12L48 14L46 14L46 13L47 13L47 12L46 12L46 11L44 11L44 13L43 13L43 11L42 11L42 10L43 10L43 9L46 9L46 8L43 8L43 3L44 3L44 4L45 4L45 3L44 3L44 1L43 1L43 0L41 0L41 2L40 2L40 3L38 3L38 4L39 4L39 5L37 5L37 3L36 3L36 2L37 2L37 1L38 1L38 2L39 2L39 1L40 1L40 0L39 0L39 1L38 1L38 0L37 0L37 1L36 1L36 2L35 2L35 1L34 1L34 0L32 0L32 1L33 1L33 2L32 2L32 3L31 3L31 2L29 2L29 4L27 4L27 3L25 3L25 2L26 2L26 1L27 1L27 0L26 0L26 1L25 1L25 0L23 0L23 1L22 1L22 3L25 3L25 4L22 4L22 8L23 8L23 5L24 5L24 9L21 9L21 5L20 5L20 8L18 8L18 7L19 7L19 5L18 5L18 4L19 4L19 3L20 3L20 4L21 4L21 3L20 3L20 0L19 0L19 1L18 1L18 0L17 0L17 1L18 1L18 2L19 2L19 3L18 3L18 4L17 4L17 2L16 2L16 3L15 3L15 4L14 4L14 2L12 2L12 1L13 1L13 0L11 0L11 1L10 1L10 0ZM15 0L15 1L16 1L16 0ZM28 0L28 1L29 1L29 0ZM30 0L30 1L31 1L31 0ZM9 1L9 2L10 2L10 1ZM23 1L23 2L24 2L24 1ZM41 2L41 3L40 3L40 4L41 4L41 3L43 3L43 2ZM32 3L32 4L31 4L31 5L29 5L29 7L30 7L30 8L29 8L29 10L28 10L28 9L25 9L25 10L21 10L21 9L20 9L20 10L19 10L19 9L18 9L18 8L17 8L17 7L18 7L18 5L17 5L17 4L15 4L15 5L16 5L16 6L15 6L15 7L16 7L16 8L15 8L15 9L12 9L12 11L11 11L11 12L10 12L10 10L9 10L9 14L8 14L8 16L9 16L9 15L10 15L10 13L11 13L11 15L12 15L12 13L13 13L13 15L14 15L14 16L12 16L12 17L14 17L14 18L15 18L15 19L14 19L14 21L13 21L13 20L10 20L10 19L11 19L11 16L10 16L10 17L8 17L8 18L7 18L7 17L6 17L6 16L7 16L7 15L6 15L6 16L5 16L5 17L4 17L4 15L3 15L3 14L2 14L2 15L1 15L1 17L4 17L4 18L7 18L7 19L6 19L6 20L7 20L7 19L8 19L8 18L9 18L9 20L8 20L8 21L6 21L6 22L10 22L10 21L11 21L11 24L12 24L12 22L14 22L14 21L15 21L15 20L17 20L17 21L16 21L16 23L15 23L15 24L16 24L16 23L17 23L17 25L10 25L10 26L9 26L9 27L10 27L10 28L9 28L9 30L8 30L8 31L9 31L9 30L10 30L10 36L8 36L8 35L9 35L9 34L7 34L7 33L8 33L8 32L7 32L7 31L6 31L6 30L7 30L7 29L6 29L6 30L5 30L5 31L2 31L2 30L3 30L3 29L4 29L4 27L3 27L3 26L4 26L4 24L3 24L3 25L2 25L2 24L1 24L1 25L2 25L2 27L3 27L3 29L1 29L1 33L2 33L2 32L3 32L3 33L4 33L4 32L5 32L5 31L6 31L6 32L7 32L7 33L6 33L6 34L7 34L7 35L6 35L6 36L5 36L5 34L3 34L3 36L4 36L4 39L5 39L5 40L7 40L7 39L8 39L8 40L9 40L9 39L8 39L8 38L9 38L9 37L11 37L11 36L12 36L12 35L11 35L11 34L13 34L13 33L14 33L14 34L15 34L15 35L17 35L17 33L15 33L15 30L14 30L14 29L15 29L15 28L16 28L16 27L15 27L15 26L19 26L19 27L20 27L20 28L21 28L21 29L20 29L20 30L19 30L19 29L18 29L18 27L17 27L17 29L16 29L16 30L17 30L17 31L16 31L16 32L19 32L19 31L20 31L20 30L22 30L22 31L23 31L23 32L22 32L22 33L20 33L20 34L21 34L21 35L18 35L18 36L17 36L17 37L16 37L16 40L18 40L18 38L19 38L19 37L20 37L20 40L21 40L21 37L24 37L24 38L23 38L23 40L22 40L22 41L20 41L20 42L19 42L19 41L12 41L12 42L10 42L10 41L11 41L11 40L10 40L10 41L9 41L9 42L8 42L8 43L10 43L10 45L12 45L12 44L13 44L13 43L12 43L12 42L16 42L16 43L14 43L14 47L12 47L12 46L11 46L11 47L12 47L12 49L13 49L13 48L15 48L15 45L16 45L16 48L17 48L17 46L19 46L19 45L18 45L18 44L17 44L17 42L19 42L19 44L21 44L21 45L20 45L20 46L21 46L21 48L22 48L22 49L23 49L23 51L24 51L24 50L25 50L25 49L24 49L24 48L22 48L22 47L23 47L23 46L24 46L24 44L25 44L25 43L27 43L27 44L29 44L29 45L30 45L30 44L29 44L29 43L31 43L31 46L33 46L33 45L34 45L34 46L35 46L35 45L36 45L36 44L37 44L37 46L40 46L40 47L44 47L44 46L41 46L41 44L40 44L40 42L41 42L41 40L42 40L42 39L41 39L41 37L43 37L43 39L45 39L45 38L44 38L44 37L47 37L47 36L46 36L46 35L48 35L48 34L45 34L45 35L44 35L44 36L43 36L43 34L42 34L42 33L41 33L41 32L39 32L39 31L44 31L44 30L41 30L41 28L40 28L40 29L38 29L38 28L39 28L39 27L38 27L38 28L37 28L37 27L36 27L36 26L37 26L37 25L36 25L36 24L37 24L37 23L36 23L36 20L37 20L37 22L39 22L39 21L38 21L38 20L40 20L40 21L41 21L41 20L43 20L43 21L44 21L44 22L45 22L45 21L44 21L44 20L46 20L46 22L47 22L47 23L43 23L43 22L40 22L40 23L38 23L38 26L40 26L40 27L42 27L42 29L43 29L43 28L44 28L44 26L40 26L40 25L43 25L43 24L49 24L49 22L47 22L47 20L46 20L46 19L44 19L44 20L43 20L43 18L42 18L42 17L41 17L41 16L42 16L42 15L43 15L43 16L45 16L45 13L44 13L44 15L43 15L43 14L41 14L41 16L40 16L40 15L39 15L39 16L38 16L38 18L36 18L36 16L37 16L37 15L36 15L36 12L37 12L37 14L39 14L39 11L38 11L38 10L40 10L40 11L41 11L41 10L42 10L42 9L41 9L41 8L42 8L42 6L41 6L41 5L40 5L40 6L39 6L39 9L38 9L38 10L37 10L37 11L36 11L36 12L35 12L35 11L33 11L33 10L30 10L30 8L31 8L31 9L33 9L33 8L34 8L34 10L36 10L36 8L37 8L37 7L38 7L38 6L37 6L37 7L36 7L36 5L35 5L35 4L36 4L36 3L35 3L35 4L34 4L34 5L32 5L32 4L33 4L33 3ZM25 5L25 8L28 8L28 5ZM34 5L34 8L35 8L35 5ZM16 6L16 7L17 7L17 6ZM26 6L26 7L27 7L27 6ZM30 6L30 7L31 7L31 6ZM32 6L32 8L33 8L33 6ZM40 6L40 8L41 8L41 6ZM44 6L44 7L45 7L45 6ZM10 8L10 9L11 9L11 8ZM16 8L16 9L17 9L17 8ZM47 8L47 11L48 11L48 8ZM49 8L49 11L50 11L50 8ZM51 8L51 10L53 10L53 9L52 9L52 8ZM40 9L40 10L41 10L41 9ZM1 10L1 11L2 11L2 12L3 12L3 11L2 11L2 10ZM14 10L14 11L12 11L12 12L13 12L13 13L14 13L14 14L15 14L15 18L16 18L16 19L17 19L17 18L18 18L18 17L19 17L19 19L18 19L18 21L17 21L17 22L18 22L18 21L19 21L19 19L20 19L20 17L21 17L21 16L25 16L25 15L26 15L26 14L29 14L29 15L30 15L30 16L33 16L33 17L35 17L35 16L36 16L36 15L35 15L35 14L34 14L34 13L32 13L32 12L33 12L33 11L31 11L31 12L30 12L30 11L29 11L29 12L26 12L26 14L25 14L25 11L28 11L28 10L25 10L25 11L23 11L23 13L21 13L21 12L22 12L22 11L21 11L21 12L20 12L20 11L19 11L19 10ZM14 11L14 13L15 13L15 14L17 14L17 15L16 15L16 16L17 16L17 17L16 17L16 18L17 18L17 17L18 17L18 16L21 16L21 15L20 15L20 14L21 14L21 13L18 13L18 12L19 12L19 11L16 11L16 12L15 12L15 11ZM16 12L16 13L17 13L17 14L18 14L18 15L19 15L19 14L18 14L18 13L17 13L17 12ZM29 12L29 13L30 13L30 12ZM40 12L40 13L42 13L42 12ZM6 13L6 14L7 14L7 13ZM31 13L31 14L32 14L32 15L34 15L34 16L35 16L35 15L34 15L34 14L32 14L32 13ZM22 14L22 15L23 15L23 14ZM24 14L24 15L25 15L25 14ZM46 15L46 16L48 16L48 15ZM26 16L26 17L28 17L28 18L26 18L26 19L27 19L27 20L25 20L25 19L23 19L23 20L24 20L24 21L21 21L21 20L20 20L20 21L21 21L21 23L23 23L23 22L31 22L31 23L30 23L30 24L28 24L28 23L27 23L27 24L25 24L25 23L24 23L24 26L23 26L23 25L22 25L22 24L20 24L20 23L19 23L19 24L18 24L18 25L19 25L19 26L20 26L20 25L21 25L21 26L22 26L22 27L21 27L21 28L22 28L22 27L23 27L23 30L24 30L24 29L26 29L26 32L27 32L27 33L26 33L26 34L28 34L28 35L29 35L29 37L26 37L26 36L27 36L27 35L26 35L26 36L25 36L25 31L24 31L24 33L22 33L22 36L24 36L24 37L26 37L26 38L28 38L28 39L26 39L26 40L27 40L27 41L25 41L25 40L24 40L24 41L22 41L22 42L20 42L20 43L22 43L22 42L27 42L27 43L29 43L29 42L31 42L31 40L33 40L33 39L30 39L30 40L28 40L28 39L29 39L29 38L31 38L31 37L32 37L32 38L34 38L34 39L35 39L35 40L36 40L36 41L37 41L37 42L36 42L36 43L35 43L35 42L33 42L33 41L32 41L32 42L33 42L33 43L32 43L32 44L34 44L34 43L35 43L35 44L36 44L36 43L37 43L37 42L38 42L38 43L39 43L39 42L40 42L40 40L41 40L41 39L39 39L39 38L40 38L40 37L39 37L39 38L37 38L37 37L38 37L38 36L42 36L42 34L41 34L41 33L39 33L39 32L38 32L38 33L37 33L37 32L36 32L36 33L37 33L37 36L36 36L36 35L35 35L35 34L33 34L33 33L34 33L34 32L33 32L33 31L32 31L32 32L33 32L33 33L32 33L32 35L31 35L31 37L30 37L30 35L29 35L29 34L31 34L31 31L29 31L29 30L31 30L31 29L32 29L32 30L34 30L34 31L37 31L37 30L36 30L36 29L37 29L37 28L36 28L36 29L35 29L35 26L34 26L34 27L32 27L32 28L31 28L31 27L30 27L30 26L31 26L31 24L36 24L36 23L35 23L35 22L34 22L34 20L36 20L36 19L35 19L35 18L33 18L33 19L32 19L32 17L29 17L29 16ZM22 17L22 18L21 18L21 19L22 19L22 18L23 18L23 17ZM24 17L24 18L25 18L25 17ZM12 18L12 19L13 19L13 18ZM28 18L28 20L27 20L27 21L29 21L29 18ZM30 18L30 21L31 21L31 20L32 20L32 23L34 23L34 22L33 22L33 20L32 20L32 19L31 19L31 18ZM38 18L38 19L39 19L39 18ZM41 18L41 19L40 19L40 20L41 20L41 19L42 19L42 18ZM50 18L50 19L51 19L51 18ZM52 19L52 22L53 22L53 19ZM9 20L9 21L10 21L10 20ZM13 23L13 24L14 24L14 23ZM40 23L40 24L43 24L43 23ZM19 24L19 25L20 25L20 24ZM5 25L5 28L8 28L8 25ZM25 25L25 28L28 28L28 25ZM32 25L32 26L33 26L33 25ZM45 25L45 28L48 28L48 25ZM6 26L6 27L7 27L7 26ZM10 26L10 27L11 27L11 28L10 28L10 29L11 29L11 28L12 28L12 29L14 29L14 26L12 26L12 27L11 27L11 26ZM26 26L26 27L27 27L27 26ZM46 26L46 27L47 27L47 26ZM12 27L12 28L13 28L13 27ZM29 27L29 28L30 28L30 29L31 29L31 28L30 28L30 27ZM32 28L32 29L33 29L33 28ZM17 29L17 30L18 30L18 31L19 31L19 30L18 30L18 29ZM27 29L27 31L28 31L28 32L29 32L29 31L28 31L28 30L29 30L29 29ZM34 29L34 30L35 30L35 29ZM38 30L38 31L39 31L39 30ZM11 31L11 33L13 33L13 32L14 32L14 31ZM45 31L45 32L43 32L43 33L45 33L45 32L46 32L46 31ZM18 33L18 34L19 34L19 33ZM38 33L38 35L39 35L39 33ZM1 34L1 35L2 35L2 34ZM23 34L23 35L24 35L24 34ZM40 34L40 35L41 35L41 34ZM13 35L13 36L14 36L14 37L15 37L15 36L14 36L14 35ZM33 35L33 36L32 36L32 37L33 37L33 36L34 36L34 38L35 38L35 39L36 39L36 40L37 40L37 39L36 39L36 36L35 36L35 35ZM50 35L50 36L48 36L48 37L50 37L50 36L52 36L52 35ZM6 36L6 37L5 37L5 39L7 39L7 38L8 38L8 36ZM18 36L18 37L17 37L17 38L18 38L18 37L19 37L19 36ZM20 36L20 37L21 37L21 36ZM6 37L6 38L7 38L7 37ZM12 37L12 39L13 39L13 40L14 40L14 39L13 39L13 37ZM0 38L0 39L1 39L1 38ZM10 38L10 39L11 39L11 38ZM52 39L52 42L53 42L53 39ZM6 41L6 42L7 42L7 41ZM28 41L28 42L29 42L29 41ZM38 41L38 42L39 42L39 41ZM11 43L11 44L12 44L12 43ZM16 44L16 45L17 45L17 44ZM21 45L21 46L23 46L23 45ZM25 45L25 48L28 48L28 45ZM45 45L45 48L48 48L48 45ZM49 45L49 46L50 46L50 45ZM9 46L9 47L10 47L10 46ZM26 46L26 47L27 47L27 46ZM46 46L46 47L47 47L47 46ZM9 48L9 49L10 49L10 48ZM38 48L38 50L39 50L39 48ZM40 48L40 49L41 49L41 50L40 50L40 51L43 51L43 50L44 50L44 51L46 51L46 52L48 52L48 50L49 50L49 51L50 51L50 52L51 52L51 51L52 51L52 50L51 50L51 49L50 49L50 48L49 48L49 49L47 49L47 50L44 50L44 48L43 48L43 50L42 50L42 49L41 49L41 48ZM26 49L26 50L27 50L27 51L29 51L29 49L28 49L28 50L27 50L27 49ZM50 50L50 51L51 51L51 50ZM19 51L19 52L18 52L18 53L19 53L19 52L20 52L20 53L21 53L21 51ZM11 52L11 53L14 53L14 52ZM36 52L36 53L38 53L38 52ZM0 0L0 7L7 7L7 0ZM1 1L1 6L6 6L6 1ZM2 2L2 5L5 5L5 2ZM46 0L46 7L53 7L53 0ZM47 1L47 6L52 6L52 1ZM48 2L48 5L51 5L51 2ZM0 46L0 53L7 53L7 46ZM1 47L1 52L6 52L6 47ZM2 48L2 51L5 51L5 48Z" fill="#000000"/></g></g></svg>
