<?xml version="1.0" encoding="UTF-8"?>
<svg xmlns="http://www.w3.org/2000/svg" version="1.1" width="300" height="300" viewBox="0 0 300 300"><rect x="0" y="0" width="300" height="300" fill="#ffffff"/><g transform="scale(5.66)"><g transform="translate(0,0)"><path fill-rule="evenodd" d="M9 0L9 1L8 1L8 2L9 2L9 1L10 1L10 0ZM11 0L11 1L12 1L12 0ZM14 0L14 1L16 1L16 2L17 2L17 1L18 1L18 0L17 0L17 1L16 1L16 0ZM19 0L19 2L20 2L20 0ZM21 0L21 1L24 1L24 2L23 2L23 4L21 4L21 3L22 3L22 2L21 2L21 3L18 3L18 4L21 4L21 5L20 5L20 7L21 7L21 5L24 5L24 8L23 8L23 9L21 9L21 8L20 8L20 9L19 9L19 5L17 5L17 6L16 6L16 4L17 4L17 3L15 3L15 2L14 2L14 3L13 3L13 2L10 2L10 3L8 3L8 4L9 4L9 5L8 5L8 7L9 7L9 5L11 5L11 6L10 6L10 7L11 7L11 8L6 8L6 9L7 9L7 10L3 10L3 11L2 11L2 10L0 10L0 11L1 11L1 12L0 12L0 14L1 14L1 15L3 15L3 14L4 14L4 13L5 13L5 14L6 14L6 15L5 15L5 16L6 16L6 17L4 17L4 16L2 16L2 17L4 17L4 18L6 18L6 19L7 19L7 18L6 18L6 17L7 17L7 16L6 16L6 15L7 15L7 14L6 14L6 13L7 13L7 12L6 12L6 13L5 13L5 12L4 12L4 13L3 13L3 11L7 11L7 10L8 10L8 12L9 12L9 13L8 13L8 16L9 16L9 15L10 15L10 17L8 17L8 21L7 21L7 20L6 20L6 21L7 21L7 22L6 22L6 23L7 23L7 24L5 24L5 23L4 23L4 22L3 22L3 23L4 23L4 24L3 24L3 27L2 27L2 28L1 28L1 29L0 29L0 30L1 30L1 29L2 29L2 31L0 31L0 32L1 32L1 33L0 33L0 35L1 35L1 36L0 36L0 37L1 37L1 38L0 38L0 39L2 39L2 40L5 40L5 39L3 39L3 38L4 38L4 36L5 36L5 34L6 34L6 35L7 35L7 34L8 34L8 40L6 40L6 41L4 41L4 42L3 42L3 43L2 43L2 42L1 42L1 40L0 40L0 43L1 43L1 44L3 44L3 45L4 45L4 44L3 44L3 43L7 43L7 42L8 42L8 40L9 40L9 39L10 39L10 41L11 41L11 42L10 42L10 43L9 43L9 44L10 44L10 43L11 43L11 45L8 45L8 44L6 44L6 45L8 45L8 47L9 47L9 48L8 48L8 53L11 53L11 51L12 51L12 53L14 53L14 52L16 52L16 53L17 53L17 52L16 52L16 50L15 50L15 51L13 51L13 50L14 50L14 48L13 48L13 47L15 47L15 49L17 49L17 50L18 50L18 53L19 53L19 50L18 50L18 49L22 49L22 50L20 50L20 53L21 53L21 51L22 51L22 50L23 50L23 49L22 49L22 48L24 48L24 49L27 49L27 50L26 50L26 51L27 51L27 52L24 52L24 51L25 51L25 50L24 50L24 51L23 51L23 52L24 52L24 53L27 53L27 52L29 52L29 53L30 53L30 50L33 50L33 49L29 49L29 48L30 48L30 47L29 47L29 46L31 46L31 45L30 45L30 44L31 44L31 43L30 43L30 44L25 44L25 43L29 43L29 42L31 42L31 40L33 40L33 39L30 39L30 40L29 40L29 42L27 42L27 41L28 41L28 40L27 40L27 39L29 39L29 38L31 38L31 37L30 37L30 35L29 35L29 34L31 34L31 31L32 31L32 32L33 32L33 33L32 33L32 36L33 36L33 37L32 37L32 38L34 38L34 39L35 39L35 40L36 40L36 41L37 41L37 42L36 42L36 43L35 43L35 42L33 42L33 41L32 41L32 42L33 42L33 43L32 43L32 44L33 44L33 46L32 46L32 48L33 48L33 46L34 46L34 48L35 48L35 46L36 46L36 47L37 47L37 45L38 45L38 43L39 43L39 44L41 44L41 45L40 45L40 47L39 47L39 46L38 46L38 48L36 48L36 50L34 50L34 51L31 51L31 52L33 52L33 53L34 53L34 51L35 51L35 52L36 52L36 53L38 53L38 52L39 52L39 51L40 51L40 50L41 50L41 49L40 49L40 48L42 48L42 50L43 50L43 51L44 51L44 52L46 52L46 53L49 53L49 52L50 52L50 53L51 53L51 52L52 52L52 51L53 51L53 49L51 49L51 48L50 48L50 46L53 46L53 45L52 45L52 44L53 44L53 43L52 43L52 44L50 44L50 46L49 46L49 43L48 43L48 42L49 42L49 41L48 41L48 40L50 40L50 43L51 43L51 40L52 40L52 42L53 42L53 39L51 39L51 37L52 37L52 38L53 38L53 35L52 35L52 34L53 34L53 33L51 33L51 34L50 34L50 35L52 35L52 36L49 36L49 35L48 35L48 36L47 36L47 35L46 35L46 34L49 34L49 33L50 33L50 31L51 31L51 32L52 32L52 31L51 31L51 30L50 30L50 31L49 31L49 33L46 33L46 32L47 32L47 31L46 31L46 29L48 29L48 30L49 30L49 27L50 27L50 25L51 25L51 26L53 26L53 23L52 23L52 25L51 25L51 24L50 24L50 21L51 21L51 20L50 20L50 19L49 19L49 18L48 18L48 19L49 19L49 20L47 20L47 22L46 22L46 20L44 20L44 19L46 19L46 18L44 18L44 19L42 19L42 18L43 18L43 17L49 17L49 16L50 16L50 17L51 17L51 16L52 16L52 15L51 15L51 16L50 16L50 15L49 15L49 14L50 14L50 13L52 13L52 14L53 14L53 13L52 13L52 12L53 12L53 11L51 11L51 12L50 12L50 10L53 10L53 9L52 9L52 8L51 8L51 9L50 9L50 8L49 8L49 9L50 9L50 10L49 10L49 12L47 12L47 11L48 11L48 8L47 8L47 11L45 11L45 12L44 12L44 11L42 11L42 12L41 12L41 11L40 11L40 10L43 10L43 9L46 9L46 8L42 8L42 9L40 9L40 10L38 10L38 9L39 9L39 6L40 6L40 8L41 8L41 6L40 6L40 5L42 5L42 7L43 7L43 3L44 3L44 4L45 4L45 3L44 3L44 1L43 1L43 0L41 0L41 2L40 2L40 3L39 3L39 1L40 1L40 0L39 0L39 1L38 1L38 0L37 0L37 1L36 1L36 2L35 2L35 1L34 1L34 0L32 0L32 1L33 1L33 2L32 2L32 3L31 3L31 2L29 2L29 3L31 3L31 4L27 4L27 3L25 3L25 1L26 1L26 0ZM28 0L28 1L29 1L29 0ZM30 0L30 1L31 1L31 0ZM37 1L37 2L36 2L36 3L35 3L35 2L34 2L34 3L32 3L32 6L31 6L31 5L30 5L30 6L29 6L29 7L30 7L30 8L29 8L29 10L28 10L28 9L25 9L25 10L24 10L24 9L23 9L23 10L24 10L24 11L25 11L25 14L24 14L24 13L23 13L23 12L22 12L22 10L21 10L21 9L20 9L20 10L19 10L19 9L18 9L18 10L17 10L17 9L15 9L15 8L16 8L16 6L15 6L15 5L13 5L13 3L11 3L11 5L12 5L12 6L11 6L11 7L12 7L12 6L13 6L13 8L14 8L14 9L15 9L15 10L13 10L13 9L12 9L12 11L13 11L13 12L12 12L12 13L13 13L13 14L10 14L10 13L9 13L9 14L10 14L10 15L12 15L12 16L11 16L11 17L10 17L10 18L9 18L9 19L10 19L10 18L11 18L11 17L12 17L12 19L11 19L11 20L10 20L10 21L8 21L8 22L7 22L7 23L8 23L8 24L9 24L9 22L10 22L10 21L11 21L11 22L12 22L12 21L13 21L13 19L14 19L14 21L15 21L15 19L17 19L17 17L15 17L15 15L14 15L14 16L13 16L13 14L14 14L14 13L15 13L15 12L16 12L16 11L15 11L15 10L17 10L17 13L16 13L16 14L17 14L17 13L18 13L18 14L19 14L19 15L20 15L20 16L21 16L21 17L20 17L20 18L21 18L21 19L18 19L18 20L17 20L17 21L16 21L16 24L17 24L17 25L13 25L13 24L14 24L14 23L10 23L10 25L9 25L9 27L10 27L10 28L9 28L9 31L6 31L6 30L7 30L7 29L5 29L5 30L4 30L4 28L2 28L2 29L3 29L3 31L2 31L2 33L3 33L3 34L5 34L5 33L6 33L6 34L7 34L7 33L9 33L9 32L10 32L10 33L11 33L11 34L12 34L12 29L13 29L13 31L14 31L14 32L13 32L13 33L14 33L14 34L17 34L17 33L18 33L18 34L19 34L19 35L18 35L18 36L17 36L17 37L16 37L16 35L14 35L14 37L13 37L13 35L12 35L12 37L11 37L11 35L10 35L10 34L9 34L9 36L10 36L10 37L9 37L9 38L10 38L10 39L11 39L11 40L12 40L12 39L13 39L13 40L14 40L14 39L13 39L13 38L14 38L14 37L16 37L16 38L17 38L17 41L12 41L12 42L11 42L11 43L12 43L12 42L15 42L15 43L13 43L13 44L14 44L14 46L15 46L15 44L17 44L17 45L16 45L16 48L19 48L19 47L18 47L18 46L19 46L19 45L20 45L20 47L21 47L21 45L23 45L23 46L22 46L22 47L23 47L23 46L24 46L24 42L23 42L23 44L22 44L22 42L21 42L21 41L20 41L20 40L19 40L19 37L18 37L18 36L19 36L19 35L22 35L22 36L21 36L21 37L20 37L20 38L23 38L23 39L21 39L21 40L22 40L22 41L27 41L27 40L26 40L26 39L27 39L27 38L26 38L26 37L29 37L29 35L28 35L28 34L29 34L29 31L28 31L28 32L26 32L26 30L25 30L25 29L24 29L24 26L22 26L22 27L20 27L20 26L21 26L21 25L24 25L24 23L25 23L25 24L27 24L27 23L28 23L28 24L30 24L30 23L34 23L34 22L35 22L35 23L36 23L36 24L31 24L31 26L30 26L30 28L29 28L29 29L27 29L27 30L29 30L29 29L30 29L30 28L31 28L31 30L33 30L33 32L34 32L34 33L33 33L33 34L35 34L35 35L33 35L33 36L34 36L34 38L35 38L35 39L36 39L36 40L37 40L37 39L36 39L36 38L39 38L39 39L41 39L41 40L40 40L40 42L39 42L39 41L38 41L38 42L37 42L37 43L36 43L36 44L35 44L35 45L34 45L34 46L35 46L35 45L36 45L36 44L37 44L37 43L38 43L38 42L39 42L39 43L40 43L40 42L41 42L41 43L42 43L42 45L44 45L44 44L45 44L45 43L44 43L44 41L46 41L46 43L47 43L47 44L48 44L48 43L47 43L47 41L46 41L46 39L47 39L47 40L48 40L48 39L49 39L49 38L48 38L48 37L49 37L49 36L48 36L48 37L47 37L47 36L45 36L45 35L44 35L44 34L45 34L45 32L46 32L46 31L45 31L45 29L43 29L43 30L41 30L41 29L42 29L42 28L40 28L40 27L43 27L43 28L44 28L44 27L43 27L43 26L40 26L40 25L42 25L42 23L43 23L43 25L44 25L44 24L49 24L49 23L45 23L45 21L44 21L44 20L42 20L42 19L41 19L41 18L42 18L42 17L41 17L41 16L40 16L40 15L44 15L44 14L45 14L45 15L46 15L46 16L48 16L48 15L46 15L46 14L48 14L48 13L47 13L47 12L45 12L45 13L44 13L44 14L41 14L41 12L40 12L40 13L38 13L38 12L39 12L39 11L38 11L38 10L37 10L37 9L36 9L36 8L37 8L37 7L38 7L38 5L39 5L39 4L38 4L38 1ZM41 2L41 3L40 3L40 4L41 4L41 3L43 3L43 2ZM14 3L14 4L15 4L15 3ZM24 3L24 4L25 4L25 3ZM36 3L36 7L37 7L37 3ZM33 4L33 5L34 5L34 8L33 8L33 6L32 6L32 8L33 8L33 11L32 11L32 12L31 12L31 11L30 11L30 12L31 12L31 13L29 13L29 11L28 11L28 10L25 10L25 11L27 11L27 12L26 12L26 14L25 14L25 15L24 15L24 17L23 17L23 18L24 18L24 17L28 17L28 18L26 18L26 19L27 19L27 20L25 20L25 19L23 19L23 21L21 21L21 20L22 20L22 19L21 19L21 20L18 20L18 21L17 21L17 22L18 22L18 23L17 23L17 24L18 24L18 25L19 25L19 26L18 26L18 29L17 29L17 28L16 28L16 29L14 29L14 27L16 27L16 26L14 26L14 27L11 27L11 26L13 26L13 25L12 25L12 24L11 24L11 25L10 25L10 27L11 27L11 28L10 28L10 29L11 29L11 28L13 28L13 29L14 29L14 30L15 30L15 33L17 33L17 32L16 32L16 29L17 29L17 30L18 30L18 31L19 31L19 32L18 32L18 33L19 33L19 32L20 32L20 33L21 33L21 32L24 32L24 33L22 33L22 35L23 35L23 34L24 34L24 36L26 36L26 35L27 35L27 33L26 33L26 35L25 35L25 30L24 30L24 29L21 29L21 28L20 28L20 29L19 29L19 26L20 26L20 25L21 25L21 22L22 22L22 24L23 24L23 22L25 22L25 23L26 23L26 22L31 22L31 21L32 21L32 22L34 22L34 21L35 21L35 22L36 22L36 23L37 23L37 24L36 24L36 25L37 25L37 26L36 26L36 27L35 27L35 26L34 26L34 27L32 27L32 28L33 28L33 30L34 30L34 31L36 31L36 30L37 30L37 31L39 31L39 32L38 32L38 33L37 33L37 32L36 32L36 33L37 33L37 35L38 35L38 33L39 33L39 36L38 36L38 37L39 37L39 38L40 38L40 37L39 37L39 36L41 36L41 38L43 38L43 36L44 36L44 39L42 39L42 41L41 41L41 42L43 42L43 40L45 40L45 39L46 39L46 38L47 38L47 37L45 37L45 36L44 36L44 35L43 35L43 36L41 36L41 35L42 35L42 34L44 34L44 33L42 33L42 32L45 32L45 31L42 31L42 32L41 32L41 31L40 31L40 30L37 30L37 28L36 28L36 27L40 27L40 26L38 26L38 23L39 23L39 22L40 22L40 21L39 21L39 20L41 20L41 23L40 23L40 24L41 24L41 23L42 23L42 22L43 22L43 23L44 23L44 21L42 21L42 20L41 20L41 19L39 19L39 18L38 18L38 16L39 16L39 14L37 14L37 12L36 12L36 13L35 13L35 14L34 14L34 12L35 12L35 10L34 10L34 8L35 8L35 5L34 5L34 4ZM25 5L25 8L28 8L28 5ZM14 6L14 8L15 8L15 6ZM17 6L17 8L18 8L18 6ZM22 6L22 7L23 7L23 6ZM26 6L26 7L27 7L27 6ZM30 6L30 7L31 7L31 6ZM44 6L44 7L45 7L45 6ZM0 8L0 9L5 9L5 8ZM30 8L30 10L32 10L32 9L31 9L31 8ZM9 9L9 10L11 10L11 9ZM18 10L18 11L19 11L19 12L18 12L18 13L19 13L19 12L20 12L20 13L21 13L21 12L20 12L20 11L19 11L19 10ZM36 10L36 11L37 11L37 10ZM9 11L9 12L10 12L10 11ZM13 12L13 13L14 13L14 12ZM32 12L32 13L31 13L31 14L26 14L26 15L25 15L25 16L29 16L29 17L32 17L32 19L33 19L33 18L35 18L35 19L36 19L36 20L35 20L35 21L36 21L36 22L39 22L39 21L38 21L38 20L39 20L39 19L38 19L38 18L36 18L36 16L37 16L37 15L36 15L36 14L35 14L35 15L34 15L34 14L32 14L32 13L33 13L33 12ZM2 13L2 14L3 14L3 13ZM22 13L22 14L23 14L23 13ZM16 15L16 16L17 16L17 15ZM21 15L21 16L22 16L22 15ZM30 15L30 16L33 16L33 17L35 17L35 16L36 16L36 15L35 15L35 16L34 16L34 15ZM0 16L0 22L2 22L2 21L3 21L3 19L2 19L2 18L1 18L1 16ZM12 16L12 17L13 17L13 16ZM18 17L18 18L19 18L19 17ZM52 17L52 18L53 18L53 17ZM28 18L28 19L29 19L29 18ZM30 18L30 19L31 19L31 18ZM1 19L1 21L2 21L2 19ZM52 19L52 22L53 22L53 19ZM4 20L4 21L5 21L5 20ZM11 20L11 21L12 21L12 20ZM28 20L28 21L29 21L29 20ZM32 20L32 21L33 21L33 20ZM36 20L36 21L37 21L37 20ZM49 20L49 21L50 21L50 20ZM18 21L18 22L19 22L19 23L18 23L18 24L19 24L19 23L20 23L20 22L21 22L21 21L20 21L20 22L19 22L19 21ZM25 21L25 22L26 22L26 21ZM0 24L0 27L1 27L1 26L2 26L2 24ZM5 25L5 28L8 28L8 25ZM25 25L25 28L28 28L28 25ZM32 25L32 26L33 26L33 25ZM45 25L45 28L48 28L48 25ZM6 26L6 27L7 27L7 26ZM26 26L26 27L27 27L27 26ZM46 26L46 27L47 27L47 26ZM34 27L34 30L35 30L35 29L36 29L36 28L35 28L35 27ZM51 27L51 28L50 28L50 29L52 29L52 28L53 28L53 27ZM18 29L18 30L19 30L19 29ZM20 29L20 32L21 32L21 29ZM10 30L10 32L11 32L11 30ZM22 30L22 31L24 31L24 30ZM5 31L5 32L6 32L6 33L7 33L7 32L6 32L6 31ZM3 32L3 33L4 33L4 32ZM39 32L39 33L41 33L41 34L40 34L40 35L41 35L41 34L42 34L42 33L41 33L41 32ZM6 36L6 37L7 37L7 36ZM36 36L36 37L37 37L37 36ZM2 37L2 38L3 38L3 37ZM10 37L10 38L11 38L11 39L12 39L12 38L13 38L13 37L12 37L12 38L11 38L11 37ZM17 37L17 38L18 38L18 37ZM23 37L23 38L24 38L24 37ZM6 38L6 39L7 39L7 38ZM15 39L15 40L16 40L16 39ZM23 39L23 40L25 40L25 39ZM50 39L50 40L51 40L51 39ZM18 40L18 41L19 41L19 40ZM6 41L6 42L7 42L7 41ZM17 42L17 44L18 44L18 45L17 45L17 46L18 46L18 45L19 45L19 44L20 44L20 45L21 45L21 44L20 44L20 43L21 43L21 42ZM18 43L18 44L19 44L19 43ZM43 43L43 44L44 44L44 43ZM25 45L25 48L28 48L28 45ZM45 45L45 48L48 48L48 45ZM9 46L9 47L10 47L10 48L12 48L12 46L11 46L11 47L10 47L10 46ZM26 46L26 47L27 47L27 46ZM41 46L41 47L44 47L44 46ZM46 46L46 47L47 47L47 46ZM38 48L38 50L37 50L37 51L36 51L36 52L37 52L37 51L38 51L38 50L39 50L39 48ZM43 48L43 49L44 49L44 48ZM49 48L49 49L47 49L47 50L44 50L44 51L46 51L46 52L48 52L48 50L49 50L49 51L50 51L50 52L51 52L51 51L52 51L52 50L51 50L51 49L50 49L50 48ZM10 49L10 50L9 50L9 51L11 51L11 49ZM12 49L12 50L13 50L13 49ZM28 49L28 50L27 50L27 51L29 51L29 49ZM50 50L50 51L51 51L51 50ZM41 51L41 52L42 52L42 51ZM0 0L0 7L7 7L7 0ZM1 1L1 6L6 6L6 1ZM2 2L2 5L5 5L5 2ZM46 0L46 7L53 7L53 0ZM47 1L47 6L52 6L52 1ZM48 2L48 5L51 5L51 2ZM0 46L0 53L7 53L7 46ZM1 47L1 52L6 52L6 47ZM2 48L2 51L5 51L5 48Z" fill="#000000"/></g></g></svg>
