<?xml version="1.0" encoding="UTF-8"?>
<svg xmlns="http://www.w3.org/2000/svg" version="1.1" width="300" height="300" viewBox="0 0 300 300"><rect x="0" y="0" width="300" height="300" fill="#ffffff"/><g transform="scale(5.263)"><g transform="translate(0,0)"><path fill-rule="evenodd" d="M8 0L8 4L9 4L9 3L10 3L10 5L11 5L11 4L12 4L12 3L11 3L11 1L12 1L12 2L13 2L13 3L14 3L14 2L15 2L15 5L16 5L16 7L17 7L17 2L20 2L20 3L19 3L19 5L18 5L18 8L14 8L14 7L15 7L15 6L14 6L14 4L13 4L13 6L12 6L12 7L11 7L11 6L10 6L10 8L9 8L9 10L10 10L10 11L9 11L9 12L8 12L8 9L7 9L7 8L4 8L4 9L2 9L2 8L0 8L0 9L2 9L2 10L4 10L4 11L3 11L3 12L1 12L1 11L0 11L0 14L2 14L2 13L3 13L3 14L4 14L4 17L2 17L2 16L3 16L3 15L2 15L2 16L0 16L0 17L1 17L1 18L0 18L0 22L1 22L1 24L0 24L0 25L2 25L2 26L0 26L0 28L2 28L2 27L3 27L3 25L4 25L4 28L3 28L3 29L1 29L1 30L0 30L0 31L2 31L2 32L3 32L3 31L4 31L4 32L6 32L6 33L7 33L7 34L6 34L6 35L7 35L7 36L5 36L5 39L4 39L4 38L2 38L2 39L4 39L4 40L5 40L5 42L3 42L3 43L2 43L2 44L4 44L4 43L5 43L5 44L6 44L6 45L3 45L3 46L2 46L2 45L1 45L1 42L2 42L2 41L3 41L3 40L2 40L2 41L1 41L1 40L0 40L0 45L1 45L1 46L0 46L0 48L5 48L5 47L7 47L7 46L8 46L8 48L6 48L6 49L8 49L8 50L9 50L9 51L8 51L8 53L9 53L9 55L8 55L8 57L9 57L9 56L10 56L10 57L11 57L11 56L12 56L12 57L13 57L13 56L16 56L16 57L17 57L17 54L18 54L18 53L22 53L22 54L20 54L20 55L19 55L19 56L18 56L18 57L20 57L20 56L21 56L21 57L22 57L22 55L23 55L23 56L24 56L24 55L23 55L23 53L24 53L24 54L26 54L26 53L28 53L28 57L34 57L34 56L35 56L35 57L39 57L39 56L40 56L40 55L41 55L41 57L42 57L42 55L43 55L43 54L44 54L44 53L45 53L45 55L44 55L44 56L43 56L43 57L45 57L45 55L46 55L46 53L52 53L52 55L51 55L51 56L52 56L52 55L53 55L53 54L57 54L57 53L53 53L53 50L56 50L56 49L57 49L57 47L56 47L56 48L55 48L55 49L53 49L53 48L54 48L54 44L53 44L53 42L54 42L54 43L55 43L55 45L56 45L56 43L55 43L55 42L56 42L56 41L57 41L57 40L55 40L55 42L54 42L54 41L53 41L53 39L57 39L57 38L56 38L56 37L57 37L57 36L55 36L55 37L54 37L54 38L52 38L52 37L53 37L53 35L55 35L55 33L56 33L56 32L57 32L57 31L56 31L56 32L55 32L55 33L54 33L54 34L52 34L52 33L53 33L53 32L54 32L54 31L55 31L55 30L56 30L56 29L54 29L54 30L53 30L53 27L55 27L55 26L56 26L56 25L54 25L54 24L53 24L53 25L54 25L54 26L52 26L52 24L50 24L50 26L49 26L49 25L48 25L48 24L46 24L46 20L47 20L47 23L48 23L48 22L49 22L49 23L50 23L50 22L51 22L51 23L52 23L52 20L51 20L51 21L50 21L50 20L49 20L49 19L46 19L46 14L45 14L45 12L46 12L46 13L48 13L48 14L47 14L47 16L48 16L48 15L49 15L49 16L50 16L50 19L51 19L51 17L52 17L52 15L53 15L53 16L54 16L54 15L56 15L56 16L55 16L55 17L54 17L54 19L55 19L55 20L56 20L56 21L57 21L57 20L56 20L56 19L55 19L55 17L57 17L57 15L56 15L56 13L57 13L57 11L56 11L56 9L57 9L57 8L53 8L53 9L55 9L55 10L54 10L54 11L53 11L53 10L52 10L52 8L51 8L51 9L50 9L50 11L49 11L49 13L48 13L48 12L46 12L46 11L44 11L44 10L45 10L45 8L46 8L46 9L47 9L47 11L48 11L48 10L49 10L49 9L47 9L47 8L48 8L48 7L49 7L49 6L48 6L48 7L47 7L47 5L48 5L48 0L45 0L45 1L43 1L43 0L42 0L42 1L43 1L43 2L41 2L41 3L39 3L39 4L38 4L38 1L39 1L39 0L36 0L36 1L35 1L35 2L34 2L34 0L30 0L30 1L32 1L32 2L31 2L31 4L30 4L30 2L29 2L29 3L27 3L27 2L28 2L28 1L27 1L27 0L22 0L22 1L27 1L27 2L25 2L25 3L26 3L26 8L25 8L25 6L24 6L24 8L23 8L23 9L22 9L22 7L23 7L23 6L22 6L22 7L21 7L21 4L22 4L22 5L24 5L24 2L23 2L23 3L22 3L22 2L20 2L20 1L21 1L21 0L19 0L19 1L17 1L17 2L16 2L16 1L14 1L14 0ZM40 0L40 1L41 1L41 0ZM9 1L9 2L10 2L10 1ZM13 1L13 2L14 2L14 1ZM36 1L36 2L37 2L37 1ZM45 1L45 2L47 2L47 1ZM33 2L33 3L32 3L32 4L31 4L31 9L32 9L32 10L33 10L33 11L35 11L35 13L34 13L34 14L33 14L33 13L31 13L31 14L30 14L30 13L29 13L29 11L30 11L30 12L32 12L32 11L30 11L30 9L29 9L29 11L26 11L26 10L27 10L27 9L26 9L26 10L25 10L25 11L24 11L24 12L22 12L22 11L21 11L21 12L20 12L20 13L19 13L19 12L18 12L18 13L16 13L16 11L15 11L15 10L17 10L17 11L18 11L18 10L20 10L20 9L21 9L21 10L22 10L22 9L21 9L21 7L20 7L20 5L19 5L19 8L20 8L20 9L13 9L13 10L11 10L11 9L12 9L12 8L13 8L13 7L14 7L14 6L13 6L13 7L12 7L12 8L10 8L10 10L11 10L11 11L10 11L10 12L9 12L9 13L8 13L8 12L7 12L7 11L6 11L6 10L7 10L7 9L4 9L4 10L5 10L5 12L3 12L3 13L5 13L5 14L7 14L7 15L6 15L6 16L5 16L5 18L4 18L4 20L5 20L5 18L7 18L7 17L8 17L8 18L9 18L9 17L10 17L10 19L6 19L6 20L11 20L11 21L6 21L6 22L3 22L3 18L1 18L1 19L2 19L2 20L1 20L1 22L2 22L2 24L3 24L3 23L6 23L6 24L7 24L7 25L6 25L6 26L8 26L8 25L9 25L9 26L10 26L10 25L9 25L9 24L10 24L10 22L11 22L11 23L12 23L12 22L13 22L13 23L14 23L14 22L13 22L13 21L15 21L15 23L16 23L16 22L17 22L17 24L18 24L18 22L19 22L19 23L20 23L20 22L21 22L21 24L22 24L22 25L21 25L21 26L20 26L20 24L19 24L19 25L15 25L15 26L13 26L13 25L12 25L12 28L11 28L11 27L9 27L9 28L11 28L11 29L10 29L10 30L9 30L9 32L11 32L11 33L9 33L9 35L10 35L10 38L11 38L11 35L10 35L10 34L12 34L12 35L13 35L13 34L12 34L12 32L13 32L13 33L15 33L15 34L14 34L14 35L15 35L15 34L17 34L17 35L18 35L18 36L19 36L19 37L20 37L20 36L21 36L21 35L19 35L19 33L18 33L18 32L20 32L20 33L21 33L21 34L22 34L22 33L23 33L23 34L24 34L24 33L25 33L25 32L26 32L26 33L27 33L27 34L26 34L26 35L24 35L24 36L23 36L23 35L22 35L22 37L24 37L24 38L25 38L25 37L24 37L24 36L26 36L26 37L29 37L29 36L28 36L28 35L27 35L27 34L29 34L29 35L30 35L30 38L28 38L28 39L27 39L27 38L26 38L26 39L27 39L27 40L24 40L24 39L22 39L22 38L20 38L20 39L19 39L19 38L16 38L16 39L15 39L15 40L17 40L17 39L18 39L18 40L20 40L20 41L15 41L15 42L16 42L16 43L18 43L18 42L20 42L20 44L18 44L18 45L16 45L16 46L18 46L18 47L17 47L17 49L16 49L16 47L15 47L15 48L12 48L12 47L11 47L11 46L14 46L14 38L15 38L15 37L17 37L17 36L14 36L14 38L12 38L12 39L6 39L6 40L7 40L7 41L6 41L6 42L5 42L5 43L6 43L6 44L7 44L7 45L6 45L6 46L7 46L7 45L8 45L8 44L9 44L9 45L11 45L11 46L10 46L10 49L11 49L11 48L12 48L12 49L14 49L14 50L13 50L13 51L12 51L12 52L11 52L11 53L10 53L10 56L11 56L11 54L12 54L12 52L13 52L13 51L14 51L14 52L16 52L16 53L15 53L15 54L14 54L14 53L13 53L13 55L12 55L12 56L13 56L13 55L16 55L16 54L17 54L17 52L18 52L18 50L20 50L20 51L21 51L21 50L22 50L22 49L23 49L23 50L24 50L24 51L23 51L23 52L22 52L22 53L23 53L23 52L26 52L26 51L25 51L25 50L24 50L24 49L25 49L25 48L24 48L24 47L23 47L23 48L22 48L22 46L24 46L24 45L25 45L25 43L26 43L26 44L27 44L27 43L26 43L26 41L27 41L27 42L28 42L28 44L29 44L29 45L27 45L27 46L26 46L26 47L27 47L27 46L28 46L28 47L29 47L29 48L30 48L30 47L31 47L31 46L32 46L32 45L30 45L30 44L29 44L29 42L30 42L30 43L31 43L31 41L32 41L32 42L33 42L33 41L34 41L34 40L35 40L35 38L36 38L36 39L38 39L38 38L37 38L37 37L36 37L36 36L34 36L34 37L32 37L32 35L33 35L33 34L32 34L32 31L35 31L35 30L36 30L36 31L37 31L37 32L38 32L38 33L37 33L37 34L36 34L36 33L35 33L35 32L34 32L34 35L37 35L37 36L38 36L38 37L39 37L39 40L38 40L38 41L37 41L37 44L39 44L39 43L38 43L38 41L39 41L39 42L40 42L40 41L41 41L41 40L43 40L43 41L44 41L44 42L43 42L43 43L42 43L42 42L41 42L41 43L40 43L40 45L39 45L39 47L38 47L38 45L36 45L36 43L35 43L35 45L34 45L34 46L33 46L33 48L34 48L34 51L36 51L36 50L37 50L37 52L38 52L38 53L39 53L39 55L38 55L38 56L39 56L39 55L40 55L40 54L41 54L41 52L42 52L42 53L44 53L44 52L45 52L45 50L46 50L46 51L47 51L47 49L48 49L48 47L49 47L49 45L50 45L50 47L51 47L51 44L52 44L52 43L51 43L51 41L52 41L52 42L53 42L53 41L52 41L52 40L51 40L51 39L52 39L52 38L50 38L50 40L49 40L49 42L48 42L48 43L47 43L47 41L48 41L48 39L47 39L47 37L48 37L48 35L47 35L47 34L49 34L49 37L50 37L50 35L51 35L51 36L52 36L52 35L51 35L51 33L52 33L52 32L51 32L51 33L50 33L50 34L49 34L49 33L48 33L48 32L50 32L50 31L47 31L47 32L46 32L46 31L45 31L45 29L46 29L46 30L47 30L47 29L48 29L48 28L47 28L47 29L46 29L46 28L45 28L45 29L44 29L44 28L43 28L43 27L48 27L48 26L47 26L47 25L46 25L46 24L45 24L45 25L44 25L44 24L43 24L43 23L40 23L40 24L39 24L39 23L38 23L38 24L37 24L37 25L35 25L35 23L36 23L36 20L35 20L35 17L34 17L34 19L33 19L33 20L34 20L34 21L33 21L33 23L32 23L32 24L34 24L34 25L33 25L33 26L32 26L32 25L31 25L31 23L30 23L30 21L31 21L31 22L32 22L32 19L31 19L31 18L29 18L29 17L32 17L32 18L33 18L33 17L32 17L32 16L31 16L31 14L32 14L32 15L33 15L33 16L35 16L35 14L36 14L36 15L37 15L37 13L36 13L36 11L37 11L37 12L38 12L38 13L39 13L39 15L40 15L40 16L39 16L39 19L38 19L38 18L36 18L36 19L37 19L37 20L38 20L38 21L39 21L39 22L40 22L40 21L41 21L41 20L42 20L42 21L43 21L43 20L42 20L42 19L40 19L40 18L42 18L42 13L41 13L41 12L43 12L43 13L44 13L44 11L42 11L42 10L41 10L41 11L40 11L40 13L39 13L39 11L38 11L38 9L36 9L36 8L35 8L35 9L34 9L34 8L33 8L33 7L34 7L34 5L35 5L35 7L36 7L36 5L37 5L37 3L35 3L35 4L34 4L34 2ZM20 3L20 4L21 4L21 3ZM41 3L41 4L40 4L40 6L39 6L39 5L38 5L38 6L37 6L37 8L40 8L40 9L39 9L39 10L40 10L40 9L41 9L41 7L42 7L42 8L43 8L43 9L44 9L44 6L45 6L45 7L46 7L46 5L47 5L47 3ZM32 4L32 7L33 7L33 4ZM41 4L41 5L43 5L43 6L42 6L42 7L43 7L43 6L44 6L44 5L46 5L46 4L44 4L44 5L43 5L43 4ZM8 5L8 7L9 7L9 5ZM27 5L27 8L30 8L30 5ZM28 6L28 7L29 7L29 6ZM38 6L38 7L39 7L39 6ZM40 6L40 7L41 7L41 6ZM24 8L24 9L25 9L25 8ZM33 9L33 10L34 10L34 9ZM35 9L35 10L36 10L36 9ZM51 10L51 11L50 11L50 12L52 12L52 14L51 14L51 15L50 15L50 14L49 14L49 15L50 15L50 16L51 16L51 15L52 15L52 14L54 14L54 13L55 13L55 12L56 12L56 11L54 11L54 12L53 12L53 11L52 11L52 10ZM13 11L13 12L12 12L12 13L14 13L14 15L13 15L13 17L12 17L12 18L11 18L11 19L12 19L12 18L13 18L13 19L14 19L14 20L15 20L15 21L16 21L16 20L17 20L17 22L18 22L18 21L21 21L21 20L23 20L23 21L22 21L22 24L24 24L24 23L23 23L23 21L24 21L24 22L25 22L25 23L26 23L26 22L28 22L28 23L29 23L29 24L30 24L30 23L29 23L29 22L28 22L28 21L25 21L25 19L24 19L24 18L26 18L26 19L29 19L29 20L30 20L30 19L29 19L29 18L28 18L28 17L27 17L27 18L26 18L26 17L24 17L24 18L23 18L23 17L22 17L22 16L24 16L24 14L26 14L26 12L25 12L25 13L24 13L24 14L23 14L23 15L22 15L22 13L20 13L20 14L19 14L19 13L18 13L18 14L16 14L16 13L15 13L15 12L14 12L14 11ZM5 12L5 13L7 13L7 12ZM10 12L10 13L11 13L11 12ZM28 13L28 14L27 14L27 15L28 15L28 16L30 16L30 15L29 15L29 13ZM8 14L8 15L7 15L7 16L6 16L6 17L7 17L7 16L10 16L10 17L11 17L11 16L12 16L12 14L11 14L11 15L10 15L10 14ZM18 14L18 15L19 15L19 14ZM20 14L20 15L21 15L21 16L19 16L19 17L18 17L18 16L17 16L17 17L13 17L13 18L15 18L15 20L16 20L16 18L17 18L17 19L18 19L18 18L19 18L19 20L21 20L21 19L23 19L23 20L24 20L24 19L23 19L23 18L21 18L21 19L20 19L20 18L19 18L19 17L21 17L21 16L22 16L22 15L21 15L21 14ZM40 14L40 15L41 15L41 14ZM44 14L44 15L45 15L45 14ZM14 15L14 16L15 16L15 15ZM17 17L17 18L18 18L18 17ZM44 17L44 18L43 18L43 19L45 19L45 17ZM48 17L48 18L49 18L49 17ZM52 18L52 19L53 19L53 18ZM39 19L39 21L40 21L40 19ZM12 20L12 21L11 21L11 22L12 22L12 21L13 21L13 20ZM48 20L48 21L49 21L49 22L50 22L50 21L49 21L49 20ZM53 20L53 21L54 21L54 23L56 23L56 24L57 24L57 23L56 23L56 22L55 22L55 21L54 21L54 20ZM44 21L44 23L45 23L45 21ZM6 22L6 23L7 23L7 24L8 24L8 23L9 23L9 22ZM26 24L26 25L24 25L24 26L23 26L23 25L22 25L22 26L23 26L23 27L24 27L24 28L22 28L22 27L19 27L19 28L18 28L18 29L17 29L17 28L16 28L16 26L15 26L15 27L14 27L14 28L13 28L13 29L14 29L14 30L16 30L16 31L15 31L15 33L17 33L17 34L18 34L18 33L17 33L17 32L16 32L16 31L17 31L17 30L19 30L19 31L20 31L20 32L21 32L21 33L22 33L22 32L24 32L24 30L25 30L25 31L26 31L26 32L28 32L28 33L30 33L30 32L31 32L31 30L32 30L32 29L33 29L33 30L34 30L34 28L35 28L35 26L33 26L33 27L31 27L31 25L30 25L30 26L29 26L29 25L27 25L27 24ZM38 24L38 27L37 27L37 26L36 26L36 30L37 30L37 31L41 31L41 32L42 32L42 36L43 36L43 37L40 37L40 39L41 39L41 38L43 38L43 40L44 40L44 41L47 41L47 39L46 39L46 40L45 40L45 39L44 39L44 38L46 38L46 37L47 37L47 36L46 36L46 37L45 37L45 34L46 34L46 32L45 32L45 31L44 31L44 32L42 32L42 31L43 31L43 28L42 28L42 27L43 27L43 24L42 24L42 25L40 25L40 26L39 26L39 24ZM17 26L17 27L18 27L18 26ZM24 26L24 27L25 27L25 28L24 28L24 29L21 29L21 28L20 28L20 29L19 29L19 30L20 30L20 31L22 31L22 30L24 30L24 29L25 29L25 28L26 28L26 27L25 27L25 26ZM40 26L40 27L38 27L38 28L40 28L40 30L41 30L41 31L42 31L42 28L41 28L41 27L42 27L42 26ZM5 27L5 30L8 30L8 27ZM27 27L27 30L30 30L30 27ZM33 27L33 28L34 28L34 27ZM49 27L49 30L52 30L52 27ZM6 28L6 29L7 29L7 28ZM28 28L28 29L29 29L29 28ZM50 28L50 29L51 29L51 28ZM16 29L16 30L17 30L17 29ZM20 29L20 30L21 30L21 29ZM10 30L10 31L11 31L11 32L12 32L12 31L11 31L11 30ZM6 31L6 32L7 32L7 33L8 33L8 32L7 32L7 31ZM13 31L13 32L14 32L14 31ZM29 31L29 32L30 32L30 31ZM0 33L0 34L1 34L1 35L0 35L0 38L1 38L1 37L2 37L2 36L3 36L3 37L4 37L4 36L3 36L3 35L5 35L5 34L3 34L3 33L2 33L2 34L1 34L1 33ZM38 33L38 34L37 34L37 35L38 35L38 36L39 36L39 35L41 35L41 34L39 34L39 33ZM44 33L44 34L43 34L43 35L44 35L44 34L45 34L45 33ZM30 34L30 35L32 35L32 34ZM1 35L1 36L2 36L2 35ZM26 35L26 36L27 36L27 35ZM7 36L7 37L6 37L6 38L9 38L9 37L8 37L8 36ZM12 36L12 37L13 37L13 36ZM31 38L31 39L29 39L29 40L27 40L27 41L29 41L29 40L31 40L31 39L33 39L33 38ZM21 39L21 41L20 41L20 42L21 42L21 43L22 43L22 44L23 44L23 45L24 45L24 43L25 43L25 41L24 41L24 42L23 42L23 41L22 41L22 39ZM8 40L8 41L9 41L9 44L11 44L11 43L12 43L12 42L13 42L13 41L12 41L12 42L10 42L10 41L11 41L11 40ZM6 42L6 43L8 43L8 42ZM45 42L45 43L44 43L44 46L46 46L46 47L43 47L43 44L42 44L42 43L41 43L41 46L40 46L40 47L39 47L39 48L38 48L38 47L36 47L36 46L35 46L35 47L36 47L36 48L35 48L35 50L36 50L36 49L38 49L38 51L39 51L39 48L40 48L40 47L43 47L43 48L42 48L42 50L41 50L41 51L42 51L42 52L43 52L43 50L44 50L44 49L47 49L47 47L48 47L48 46L46 46L46 45L47 45L47 44L45 44L45 43L46 43L46 42ZM49 42L49 43L48 43L48 45L49 45L49 43L50 43L50 44L51 44L51 43L50 43L50 42ZM12 44L12 45L13 45L13 44ZM18 45L18 46L19 46L19 47L20 47L20 46L22 46L22 45L20 45L20 46L19 46L19 45ZM52 45L52 47L53 47L53 45ZM1 46L1 47L2 47L2 46ZM3 46L3 47L5 47L5 46ZM29 46L29 47L30 47L30 46ZM18 48L18 49L19 49L19 48ZM21 48L21 49L20 49L20 50L21 50L21 49L22 49L22 48ZM31 48L31 50L33 50L33 49L32 49L32 48ZM27 49L27 52L30 52L30 49ZM49 49L49 52L52 52L52 49ZM14 50L14 51L17 51L17 50ZM28 50L28 51L29 51L29 50ZM50 50L50 51L51 51L51 50ZM31 51L31 53L32 53L32 51ZM33 52L33 54L32 54L32 56L33 56L33 54L34 54L34 55L35 55L35 54L36 54L36 55L37 55L37 53L36 53L36 52L35 52L35 53L34 53L34 52ZM29 53L29 55L30 55L30 56L31 56L31 54L30 54L30 53ZM26 55L26 56L25 56L25 57L27 57L27 55ZM48 55L48 56L47 56L47 57L48 57L48 56L49 56L49 57L50 57L50 56L49 56L49 55ZM56 56L56 57L57 57L57 56ZM0 0L0 7L7 7L7 0ZM1 1L1 6L6 6L6 1ZM2 2L2 5L5 5L5 2ZM50 0L50 7L57 7L57 0ZM51 1L51 6L56 6L56 1ZM52 2L52 5L55 5L55 2ZM0 50L0 57L7 57L7 50ZM1 51L1 56L6 56L6 51ZM2 52L2 55L5 55L5 52Z" fill="#000000"/></g></g></svg>
