<?xml version="1.0" encoding="UTF-8"?>
<svg xmlns="http://www.w3.org/2000/svg" version="1.1" width="300" height="300" viewBox="0 0 300 300"><rect x="0" y="0" width="300" height="300" fill="#ffffff"/><g transform="scale(5.66)"><g transform="translate(0,0)"><path fill-rule="evenodd" d="M13 0L13 1L11 1L11 2L9 2L9 1L8 1L8 2L9 2L9 3L8 3L8 4L10 4L10 5L8 5L8 7L9 7L9 8L6 8L6 9L8 9L8 11L7 11L7 10L5 10L5 11L4 11L4 10L1 10L1 9L5 9L5 8L0 8L0 10L1 10L1 11L2 11L2 12L0 12L0 13L4 13L4 12L5 12L5 13L7 13L7 14L5 14L5 16L4 16L4 15L2 15L2 14L1 14L1 16L0 16L0 23L2 23L2 25L0 25L0 27L1 27L1 26L2 26L2 27L3 27L3 28L2 28L2 29L1 29L1 28L0 28L0 29L1 29L1 30L0 30L0 33L1 33L1 34L2 34L2 35L3 35L3 37L4 37L4 38L3 38L3 40L4 40L4 42L3 42L3 43L2 43L2 41L1 41L1 42L0 42L0 43L1 43L1 44L3 44L3 45L4 45L4 44L3 44L3 43L7 43L7 42L8 42L8 44L6 44L6 45L8 45L8 47L9 47L9 48L8 48L8 53L9 53L9 51L10 51L10 52L11 52L11 53L12 53L12 52L13 52L13 51L15 51L15 53L17 53L17 51L15 51L15 49L19 49L19 50L18 50L18 51L21 51L21 50L20 50L20 49L21 49L21 48L24 48L24 50L23 50L23 49L22 49L22 52L23 52L23 51L25 51L25 52L24 52L24 53L25 53L25 52L26 52L26 51L27 51L27 50L28 50L28 49L29 49L29 51L28 51L28 52L27 52L27 53L28 53L28 52L29 52L29 53L30 53L30 52L31 52L31 53L32 53L32 52L33 52L33 53L35 53L35 52L34 52L34 51L37 51L37 50L38 50L38 52L36 52L36 53L38 53L38 52L39 52L39 53L40 53L40 52L41 52L41 53L43 53L43 52L46 52L46 53L51 53L51 52L52 52L52 51L53 51L53 50L52 50L52 51L51 51L51 52L50 52L50 50L51 50L51 49L53 49L53 48L50 48L50 46L51 46L51 44L50 44L50 43L49 43L49 42L50 42L50 41L52 41L52 42L53 42L53 41L52 41L52 39L51 39L51 38L53 38L53 35L52 35L52 34L53 34L53 33L51 33L51 35L52 35L52 36L50 36L50 31L52 31L52 30L53 30L53 29L52 29L52 28L53 28L53 27L51 27L51 26L53 26L53 25L52 25L52 24L53 24L53 23L52 23L52 22L53 22L53 19L52 19L52 22L51 22L51 24L50 24L50 21L51 21L51 20L50 20L50 19L51 19L51 18L48 18L48 19L49 19L49 20L48 20L48 22L45 22L45 23L48 23L48 22L49 22L49 24L44 24L44 23L42 23L42 24L41 24L41 23L40 23L40 22L44 22L44 21L47 21L47 20L46 20L46 18L45 18L45 20L44 20L44 21L42 21L42 18L44 18L44 17L49 17L49 16L50 16L50 17L52 17L52 18L53 18L53 15L52 15L52 14L53 14L53 13L52 13L52 12L53 12L53 11L51 11L51 10L53 10L53 9L52 9L52 8L51 8L51 10L50 10L50 11L49 11L49 12L48 12L48 8L47 8L47 13L49 13L49 14L48 14L48 16L46 16L46 15L47 15L47 14L46 14L46 15L44 15L44 13L46 13L46 12L44 12L44 13L41 13L41 15L40 15L40 12L42 12L42 10L43 10L43 9L46 9L46 8L45 8L45 6L44 6L44 7L43 7L43 3L44 3L44 4L45 4L45 3L44 3L44 1L43 1L43 0L41 0L41 2L40 2L40 3L39 3L39 5L38 5L38 7L37 7L37 4L38 4L38 2L39 2L39 1L40 1L40 0L39 0L39 1L38 1L38 0L37 0L37 1L36 1L36 2L35 2L35 1L34 1L34 0L32 0L32 1L33 1L33 2L32 2L32 3L31 3L31 2L30 2L30 3L29 3L29 4L27 4L27 3L26 3L26 2L27 2L27 1L26 1L26 2L25 2L25 0L24 0L24 1L23 1L23 0L21 0L21 1L20 1L20 2L21 2L21 3L19 3L19 1L18 1L18 0L17 0L17 2L18 2L18 4L17 4L17 3L16 3L16 2L15 2L15 4L14 4L14 0ZM15 0L15 1L16 1L16 0ZM28 0L28 1L29 1L29 0ZM30 0L30 1L31 1L31 0ZM21 1L21 2L22 2L22 3L21 3L21 4L18 4L18 5L17 5L17 4L15 4L15 8L16 8L16 9L13 9L13 8L14 8L14 6L13 6L13 5L14 5L14 4L13 4L13 2L12 2L12 4L11 4L11 3L10 3L10 4L11 4L11 5L10 5L10 6L9 6L9 7L10 7L10 6L11 6L11 8L10 8L10 11L9 11L9 12L7 12L7 11L6 11L6 12L7 12L7 13L9 13L9 15L10 15L10 14L11 14L11 17L10 17L10 16L9 16L9 17L8 17L8 14L7 14L7 15L6 15L6 16L7 16L7 17L4 17L4 16L2 16L2 18L1 18L1 20L2 20L2 21L3 21L3 22L2 22L2 23L3 23L3 22L5 22L5 20L2 20L2 18L3 18L3 19L4 19L4 18L5 18L5 19L6 19L6 20L7 20L7 19L6 19L6 18L9 18L9 21L6 21L6 22L10 22L10 24L9 24L9 23L6 23L6 24L9 24L9 25L10 25L10 26L9 26L9 28L10 28L10 29L4 29L4 30L8 30L8 32L7 32L7 31L5 31L5 32L7 32L7 33L6 33L6 34L8 34L8 33L9 33L9 34L11 34L11 33L12 33L12 37L13 37L13 36L14 36L14 37L15 37L15 38L17 38L17 37L18 37L18 39L16 39L16 40L19 40L19 41L13 41L13 40L14 40L14 39L12 39L12 38L11 38L11 39L10 39L10 37L8 37L8 39L5 39L5 38L4 38L4 39L5 39L5 40L8 40L8 42L10 42L10 43L9 43L9 44L10 44L10 45L11 45L11 46L10 46L10 48L11 48L11 49L9 49L9 50L13 50L13 48L12 48L12 47L14 47L14 49L15 49L15 48L16 48L16 47L17 47L17 48L18 48L18 47L17 47L17 46L19 46L19 45L20 45L20 48L21 48L21 45L23 45L23 46L22 46L22 47L23 47L23 46L24 46L24 44L23 44L23 43L24 43L24 42L23 42L23 43L22 43L22 42L21 42L21 41L20 41L20 40L19 40L19 39L20 39L20 38L21 38L21 39L22 39L22 41L24 41L24 40L25 40L25 41L28 41L28 42L29 42L29 43L27 43L27 42L25 42L25 43L26 43L26 44L29 44L29 46L30 46L30 48L29 48L29 49L33 49L33 50L30 50L30 51L31 51L31 52L32 52L32 51L34 51L34 50L36 50L36 48L38 48L38 50L39 50L39 48L38 48L38 47L36 47L36 44L37 44L37 46L39 46L39 45L38 45L38 44L40 44L40 45L42 45L42 44L40 44L40 42L42 42L42 43L44 43L44 44L43 44L43 45L44 45L44 44L46 44L46 43L48 43L48 41L50 41L50 40L51 40L51 39L50 39L50 40L48 40L48 39L49 39L49 38L48 38L48 37L50 37L50 36L48 36L48 35L49 35L49 34L48 34L48 33L49 33L49 31L50 31L50 30L51 30L51 29L50 29L50 28L51 28L51 27L50 27L50 26L51 26L51 25L49 25L49 27L50 27L50 28L49 28L49 30L48 30L48 29L46 29L46 31L45 31L45 32L46 32L46 33L44 33L44 32L39 32L39 31L38 31L38 30L39 30L39 29L38 29L38 28L40 28L40 29L42 29L42 28L40 28L40 27L41 27L41 26L42 26L42 27L43 27L43 28L44 28L44 26L42 26L42 25L41 25L41 24L40 24L40 23L38 23L38 26L40 26L40 27L36 27L36 26L37 26L37 25L36 25L36 24L37 24L37 22L39 22L39 20L40 20L40 21L41 21L41 20L40 20L40 19L41 19L41 18L42 18L42 16L43 16L43 17L44 17L44 15L41 15L41 16L40 16L40 15L39 15L39 16L38 16L38 18L36 18L36 16L37 16L37 15L36 15L36 14L39 14L39 12L40 12L40 11L41 11L41 10L42 10L42 8L40 8L40 6L41 6L41 7L42 7L42 5L40 5L40 6L39 6L39 9L38 9L38 10L37 10L37 9L36 9L36 8L37 8L37 7L36 7L36 5L35 5L35 4L36 4L36 3L37 3L37 2L38 2L38 1L37 1L37 2L36 2L36 3L35 3L35 4L34 4L34 5L33 5L33 8L32 8L32 6L31 6L31 5L29 5L29 7L30 7L30 8L29 8L29 10L28 10L28 12L27 12L27 11L25 11L25 10L27 10L27 9L24 9L24 11L25 11L25 12L23 12L23 10L22 10L22 9L23 9L23 8L22 8L22 9L20 9L20 8L21 8L21 7L22 7L22 6L23 6L23 7L24 7L24 5L22 5L22 6L21 6L21 7L20 7L20 5L21 5L21 4L23 4L23 3L24 3L24 4L26 4L26 3L25 3L25 2L23 2L23 1ZM41 2L41 3L40 3L40 4L41 4L41 3L43 3L43 2ZM30 3L30 4L31 4L31 3ZM32 3L32 4L33 4L33 3ZM25 5L25 8L28 8L28 5ZM34 5L34 8L33 8L33 10L32 10L32 11L31 11L31 13L30 13L30 11L29 11L29 12L28 12L28 13L27 13L27 12L26 12L26 13L27 13L27 14L25 14L25 13L24 13L24 14L25 14L25 15L23 15L23 13L21 13L21 12L20 12L20 13L21 13L21 14L20 14L20 16L17 16L17 15L15 15L15 18L16 18L16 16L17 16L17 18L18 18L18 21L21 21L21 20L22 20L22 19L23 19L23 23L22 23L22 24L19 24L19 22L18 22L18 24L16 24L16 23L15 23L15 22L14 22L14 20L13 20L13 19L14 19L14 17L13 17L13 18L12 18L12 20L11 20L11 21L12 21L12 20L13 20L13 22L12 22L12 23L11 23L11 27L10 27L10 28L12 28L12 29L11 29L11 30L12 30L12 31L11 31L11 32L14 32L14 31L13 31L13 30L15 30L15 34L16 34L16 35L17 35L17 34L16 34L16 33L19 33L19 34L18 34L18 37L19 37L19 38L20 38L20 37L21 37L21 38L22 38L22 39L23 39L23 38L24 38L24 37L26 37L26 38L28 38L28 39L26 39L26 40L28 40L28 41L29 41L29 42L31 42L31 40L33 40L33 39L35 39L35 40L36 40L36 41L37 41L37 42L36 42L36 43L35 43L35 42L33 42L33 41L32 41L32 42L33 42L33 43L32 43L32 44L31 44L31 45L30 45L30 46L31 46L31 47L32 47L32 48L33 48L33 47L32 47L32 44L33 44L33 45L35 45L35 44L36 44L36 43L37 43L37 42L38 42L38 43L39 43L39 42L40 42L40 40L41 40L41 41L42 41L42 42L43 42L43 41L42 41L42 40L44 40L44 41L45 41L45 42L44 42L44 43L45 43L45 42L47 42L47 39L46 39L46 38L47 38L47 37L48 37L48 36L47 36L47 35L45 35L45 34L44 34L44 33L39 33L39 32L38 32L38 33L37 33L37 32L36 32L36 33L37 33L37 36L36 36L36 35L35 35L35 34L33 34L33 33L34 33L34 32L33 32L33 31L35 31L35 30L37 30L37 28L36 28L36 27L35 27L35 26L34 26L34 27L32 27L32 28L31 28L31 27L30 27L30 26L31 26L31 24L36 24L36 23L35 23L35 22L34 22L34 21L35 21L35 20L36 20L36 21L38 21L38 20L36 20L36 19L35 19L35 18L33 18L33 19L32 19L32 18L31 18L31 17L29 17L29 16L26 16L26 15L27 15L27 14L31 14L31 15L30 15L30 16L33 16L33 17L35 17L35 16L36 16L36 15L35 15L35 14L36 14L36 13L38 13L38 12L39 12L39 11L40 11L40 10L41 10L41 9L40 9L40 10L38 10L38 11L37 11L37 10L34 10L34 8L35 8L35 5ZM12 6L12 7L13 7L13 6ZM16 6L16 8L17 8L17 6ZM18 6L18 7L19 7L19 6ZM26 6L26 7L27 7L27 6ZM30 6L30 7L31 7L31 6ZM11 8L11 9L12 9L12 8ZM18 8L18 9L19 9L19 8ZM30 8L30 10L31 10L31 8ZM49 8L49 9L50 9L50 8ZM16 9L16 10L12 10L12 11L10 11L10 12L9 12L9 13L10 13L10 12L13 12L13 13L11 13L11 14L12 14L12 16L14 16L14 15L13 15L13 14L15 14L15 13L17 13L17 14L18 14L18 15L19 15L19 14L18 14L18 13L19 13L19 11L22 11L22 10L18 10L18 13L17 13L17 9ZM44 10L44 11L45 11L45 10ZM13 11L13 12L14 12L14 13L15 13L15 12L16 12L16 11L15 11L15 12L14 12L14 11ZM32 11L32 13L31 13L31 14L33 14L33 15L34 15L34 16L35 16L35 15L34 15L34 14L35 14L35 13L36 13L36 12L37 12L37 11L36 11L36 12L35 12L35 11L34 11L34 12L33 12L33 11ZM50 11L50 12L49 12L49 13L50 13L50 14L49 14L49 15L50 15L50 16L51 16L51 13L50 13L50 12L51 12L51 11ZM33 13L33 14L34 14L34 13ZM22 16L22 17L20 17L20 20L21 20L21 19L22 19L22 17L24 17L24 16ZM9 17L9 18L10 18L10 17ZM18 17L18 18L19 18L19 17ZM25 17L25 18L23 18L23 19L25 19L25 20L24 20L24 23L26 23L26 24L27 24L27 23L28 23L28 24L30 24L30 23L31 23L31 22L27 22L27 21L30 21L30 20L29 20L29 18L28 18L28 20L27 20L27 19L26 19L26 18L27 18L27 17ZM30 18L30 19L31 19L31 20L32 20L32 23L33 23L33 20L35 20L35 19L33 19L33 20L32 20L32 19L31 19L31 18ZM38 18L38 19L39 19L39 18ZM16 19L16 21L17 21L17 19ZM25 20L25 21L27 21L27 20ZM20 22L20 23L21 23L21 22ZM26 22L26 23L27 23L27 22ZM4 23L4 24L5 24L5 23ZM12 23L12 26L18 26L18 27L16 27L16 28L17 28L17 29L15 29L15 28L14 28L14 29L15 29L15 30L16 30L16 32L17 32L17 29L18 29L18 30L19 30L19 31L20 31L20 32L21 32L21 31L22 31L22 33L24 33L24 32L25 32L25 34L26 34L26 37L29 37L29 38L30 38L30 39L28 39L28 40L30 40L30 39L31 39L31 38L32 38L32 39L33 39L33 38L32 38L32 37L33 37L33 36L34 36L34 38L35 38L35 39L36 39L36 40L37 40L37 39L36 39L36 38L35 38L35 37L36 37L36 36L34 36L34 35L33 35L33 36L32 36L32 37L31 37L31 36L30 36L30 35L32 35L32 33L33 33L33 32L32 32L32 31L33 31L33 30L32 30L32 29L33 29L33 28L32 28L32 29L31 29L31 30L30 30L30 29L27 29L27 31L28 31L28 32L26 32L26 29L23 29L23 28L24 28L24 26L23 26L23 28L22 28L22 25L24 25L24 24L22 24L22 25L20 25L20 26L19 26L19 25L16 25L16 24L15 24L15 25L13 25L13 24L14 24L14 23ZM3 25L3 26L4 26L4 25ZM5 25L5 28L8 28L8 25ZM25 25L25 28L28 28L28 25ZM32 25L32 26L33 26L33 25ZM40 25L40 26L41 26L41 25ZM45 25L45 28L48 28L48 25ZM6 26L6 27L7 27L7 26ZM26 26L26 27L27 27L27 26ZM46 26L46 27L47 27L47 26ZM19 27L19 28L18 28L18 29L19 29L19 28L20 28L20 29L21 29L21 30L23 30L23 29L21 29L21 28L20 28L20 27ZM34 27L34 28L35 28L35 29L34 29L34 30L35 30L35 29L36 29L36 28L35 28L35 27ZM12 29L12 30L13 30L13 29ZM43 29L43 30L40 30L40 31L43 31L43 30L45 30L45 29ZM1 30L1 31L2 31L2 32L3 32L3 33L4 33L4 31L2 31L2 30ZM9 30L9 33L10 33L10 30ZM24 30L24 31L25 31L25 30ZM28 30L28 31L29 31L29 32L28 32L28 33L26 33L26 34L28 34L28 35L29 35L29 34L31 34L31 31L29 31L29 30ZM46 31L46 32L47 32L47 31ZM13 33L13 35L14 35L14 33ZM20 33L20 35L19 35L19 36L21 36L21 37L23 37L23 36L25 36L25 35L24 35L24 34L22 34L22 35L21 35L21 33ZM28 33L28 34L29 34L29 33ZM38 33L38 35L39 35L39 33ZM3 34L3 35L4 35L4 34ZM40 34L40 35L41 35L41 36L40 36L40 37L41 37L41 36L42 36L42 35L44 35L44 36L43 36L43 37L44 37L44 38L42 38L42 39L41 39L41 40L42 40L42 39L45 39L45 41L46 41L46 39L45 39L45 37L47 37L47 36L45 36L45 35L44 35L44 34ZM0 35L0 36L1 36L1 35ZM5 35L5 36L4 36L4 37L5 37L5 36L11 36L11 35ZM16 36L16 37L17 37L17 36ZM38 36L38 37L37 37L37 38L39 38L39 36ZM6 37L6 38L7 38L7 37ZM30 37L30 38L31 38L31 37ZM0 38L0 40L1 40L1 39L2 39L2 38ZM11 39L11 40L9 40L9 41L10 41L10 42L11 42L11 43L10 43L10 44L12 44L12 46L13 46L13 45L14 45L14 47L16 47L16 45L17 45L17 42L15 42L15 43L16 43L16 44L13 44L13 43L14 43L14 42L13 42L13 43L12 43L12 39ZM5 41L5 42L7 42L7 41ZM19 41L19 42L18 42L18 45L19 45L19 44L20 44L20 45L21 45L21 44L20 44L20 43L19 43L19 42L20 42L20 41ZM38 41L38 42L39 42L39 41ZM34 43L34 44L35 44L35 43ZM52 43L52 46L53 46L53 43ZM49 44L49 46L50 46L50 44ZM25 45L25 48L28 48L28 45ZM45 45L45 48L48 48L48 45ZM26 46L26 47L27 47L27 46ZM34 46L34 48L35 48L35 46ZM40 46L40 47L41 47L41 48L40 48L40 49L41 49L41 50L40 50L40 51L43 51L43 50L44 50L44 51L46 51L46 52L48 52L48 50L50 50L50 48L49 48L49 49L47 49L47 50L44 50L44 48L43 48L43 50L42 50L42 47L44 47L44 46ZM46 46L46 47L47 47L47 46ZM26 49L26 50L27 50L27 49ZM11 51L11 52L12 52L12 51ZM18 52L18 53L21 53L21 52ZM0 0L0 7L7 7L7 0ZM1 1L1 6L6 6L6 1ZM2 2L2 5L5 5L5 2ZM46 0L46 7L53 7L53 0ZM47 1L47 6L52 6L52 1ZM48 2L48 5L51 5L51 2ZM0 46L0 53L7 53L7 46ZM1 47L1 52L6 52L6 47ZM2 48L2 51L5 51L5 48Z" fill="#000000"/></g></g></svg>
