<?xml version="1.0" encoding="UTF-8"?>
<svg xmlns="http://www.w3.org/2000/svg" version="1.1" width="300" height="300" viewBox="0 0 300 300"><rect x="0" y="0" width="300" height="300" fill="#ffffff"/><g transform="scale(5.66)"><g transform="translate(0,0)"><path fill-rule="evenodd" d="M12 0L12 1L11 1L11 2L10 2L10 3L8 3L8 4L9 4L9 5L8 5L8 7L9 7L9 6L10 6L10 8L11 8L11 4L10 4L10 3L12 3L12 4L14 4L14 5L15 5L15 4L14 4L14 2L16 2L16 4L17 4L17 5L18 5L18 7L19 7L19 5L18 5L18 4L21 4L21 5L20 5L20 7L21 7L21 8L17 8L17 10L18 10L18 11L17 11L17 12L16 12L16 11L15 11L15 10L16 10L16 9L15 9L15 10L14 10L14 9L13 9L13 8L14 8L14 7L15 7L15 8L16 8L16 7L17 7L17 6L16 6L16 7L15 7L15 6L14 6L14 7L13 7L13 6L12 6L12 7L13 7L13 8L12 8L12 9L11 9L11 10L12 10L12 9L13 9L13 11L12 11L12 12L11 12L11 11L9 11L9 8L6 8L6 9L7 9L7 10L6 10L6 11L7 11L7 12L5 12L5 8L0 8L0 9L2 9L2 10L3 10L3 9L4 9L4 13L3 13L3 12L2 12L2 11L1 11L1 10L0 10L0 11L1 11L1 12L0 12L0 15L1 15L1 16L0 16L0 18L2 18L2 17L3 17L3 19L2 19L2 20L0 20L0 21L2 21L2 23L1 23L1 25L0 25L0 26L1 26L1 27L0 27L0 28L1 28L1 30L0 30L0 31L1 31L1 33L2 33L2 35L1 35L1 36L2 36L2 37L1 37L1 38L2 38L2 39L3 39L3 40L4 40L4 41L5 41L5 42L3 42L3 43L2 43L2 42L1 42L1 41L0 41L0 43L1 43L1 44L3 44L3 45L4 45L4 44L3 44L3 43L7 43L7 44L6 44L6 45L8 45L8 47L9 47L9 48L8 48L8 53L9 53L9 51L10 51L10 53L11 53L11 51L12 51L12 52L13 52L13 53L14 53L14 52L13 52L13 50L12 50L12 49L14 49L14 50L15 50L15 51L16 51L16 53L17 53L17 50L15 50L15 49L19 49L19 50L18 50L18 53L21 53L21 52L20 52L20 51L19 51L19 50L20 50L20 49L21 49L21 48L20 48L20 45L21 45L21 47L22 47L22 48L24 48L24 50L23 50L23 49L22 49L22 52L23 52L23 51L27 51L27 50L28 50L28 49L29 49L29 51L28 51L28 52L24 52L24 53L28 53L28 52L30 52L30 53L32 53L32 52L33 52L33 53L35 53L35 52L34 52L34 51L37 51L37 52L36 52L36 53L40 53L40 52L41 52L41 53L43 53L43 52L46 52L46 53L49 53L49 52L50 52L50 53L51 53L51 52L52 52L52 51L53 51L53 50L52 50L52 51L51 51L51 50L48 50L48 52L46 52L46 51L44 51L44 50L47 50L47 49L49 49L49 48L50 48L50 49L51 49L51 48L50 48L50 46L51 46L51 44L52 44L52 46L53 46L53 43L51 43L51 44L50 44L50 42L49 42L49 41L48 41L48 43L49 43L49 44L47 44L47 43L46 43L46 44L44 44L44 43L45 43L45 42L47 42L47 39L46 39L46 38L47 38L47 37L48 37L48 38L49 38L49 39L48 39L48 40L50 40L50 41L51 41L51 40L52 40L52 39L51 39L51 37L52 37L52 38L53 38L53 35L52 35L52 34L53 34L53 32L51 32L51 34L49 34L49 33L50 33L50 31L51 31L51 30L50 30L50 31L49 31L49 33L48 33L48 34L49 34L49 35L48 35L48 36L47 36L47 35L45 35L45 34L44 34L44 33L46 33L46 32L47 32L47 31L46 31L46 29L48 29L48 30L49 30L49 28L50 28L50 29L52 29L52 30L53 30L53 29L52 29L52 28L53 28L53 27L51 27L51 26L53 26L53 25L52 25L52 23L51 23L51 24L50 24L50 21L51 21L51 22L53 22L53 19L52 19L52 21L51 21L51 20L50 20L50 21L49 21L49 20L48 20L48 22L45 22L45 23L48 23L48 22L49 22L49 24L44 24L44 23L40 23L40 22L44 22L44 21L47 21L47 20L46 20L46 18L45 18L45 20L44 20L44 19L43 19L43 20L44 20L44 21L42 21L42 18L43 18L43 17L49 17L49 16L50 16L50 19L51 19L51 16L50 16L50 15L49 15L49 14L50 14L50 13L51 13L51 15L52 15L52 14L53 14L53 13L52 13L52 12L53 12L53 11L51 11L51 10L53 10L53 9L52 9L52 8L51 8L51 10L50 10L50 11L51 11L51 12L48 12L48 8L47 8L47 13L49 13L49 14L48 14L48 16L46 16L46 15L47 15L47 14L46 14L46 15L44 15L44 13L46 13L46 12L45 12L45 11L44 11L44 13L41 13L41 15L40 15L40 12L42 12L42 11L40 11L40 10L43 10L43 9L46 9L46 8L45 8L45 6L44 6L44 7L43 7L43 3L44 3L44 4L45 4L45 3L44 3L44 1L43 1L43 0L41 0L41 2L40 2L40 3L39 3L39 5L38 5L38 7L37 7L37 5L34 5L34 4L35 4L35 3L36 3L36 4L38 4L38 2L39 2L39 1L40 1L40 0L39 0L39 1L38 1L38 0L37 0L37 1L36 1L36 2L35 2L35 1L34 1L34 0L32 0L32 1L33 1L33 2L32 2L32 3L31 3L31 2L30 2L30 3L29 3L29 4L27 4L27 3L26 3L26 2L27 2L27 1L26 1L26 2L25 2L25 0L24 0L24 1L23 1L23 0L21 0L21 1L20 1L20 3L19 3L19 1L18 1L18 2L17 2L17 0L16 0L16 1L14 1L14 2L13 2L13 0ZM28 0L28 1L29 1L29 0ZM30 0L30 1L31 1L31 0ZM8 1L8 2L9 2L9 1ZM21 1L21 2L22 2L22 3L21 3L21 4L23 4L23 3L24 3L24 4L26 4L26 3L25 3L25 2L23 2L23 1ZM37 1L37 2L36 2L36 3L37 3L37 2L38 2L38 1ZM12 2L12 3L13 3L13 2ZM41 2L41 3L40 3L40 4L41 4L41 3L43 3L43 2ZM17 3L17 4L18 4L18 3ZM30 3L30 4L31 4L31 3ZM32 3L32 4L33 4L33 3ZM22 5L22 6L21 6L21 7L22 7L22 6L23 6L23 7L24 7L24 5ZM25 5L25 8L28 8L28 5ZM29 5L29 7L30 7L30 8L29 8L29 10L28 10L28 12L27 12L27 11L25 11L25 10L27 10L27 9L24 9L24 11L25 11L25 12L23 12L23 10L22 10L22 9L23 9L23 8L22 8L22 9L18 9L18 10L19 10L19 11L18 11L18 12L17 12L17 13L15 13L15 11L14 11L14 13L12 13L12 15L13 15L13 16L12 16L12 17L13 17L13 18L14 18L14 21L13 21L13 20L11 20L11 21L10 21L10 22L9 22L9 23L8 23L8 22L7 22L7 21L6 21L6 20L7 20L7 19L8 19L8 20L10 20L10 19L11 19L11 18L10 18L10 17L11 17L11 13L10 13L10 12L9 12L9 11L8 11L8 12L7 12L7 13L6 13L6 14L5 14L5 13L4 13L4 14L3 14L3 13L2 13L2 15L3 15L3 17L4 17L4 15L6 15L6 16L7 16L7 17L6 17L6 18L7 18L7 19L5 19L5 21L6 21L6 22L7 22L7 23L2 23L2 24L7 24L7 23L8 23L8 24L9 24L9 26L10 26L10 22L11 22L11 21L13 21L13 22L12 22L12 23L11 23L11 24L12 24L12 25L11 25L11 28L10 28L10 27L9 27L9 28L10 28L10 29L11 29L11 32L12 32L12 29L13 29L13 28L14 28L14 29L15 29L15 28L16 28L16 27L17 27L17 29L16 29L16 31L15 31L15 33L13 33L13 34L14 34L14 35L13 35L13 36L14 36L14 38L13 38L13 37L12 37L12 38L9 38L9 39L8 39L8 40L9 40L9 41L8 41L8 42L11 42L11 41L14 41L14 42L12 42L12 43L10 43L10 45L9 45L9 43L8 43L8 45L9 45L9 47L10 47L10 48L9 48L9 49L10 49L10 48L13 48L13 47L14 47L14 46L11 46L11 44L12 44L12 43L14 43L14 44L13 44L13 45L14 45L14 44L17 44L17 45L16 45L16 48L17 48L17 47L19 47L19 45L20 45L20 44L21 44L21 45L23 45L23 46L22 46L22 47L23 47L23 46L24 46L24 44L23 44L23 43L24 43L24 42L23 42L23 43L22 43L22 41L24 41L24 40L25 40L25 41L29 41L29 40L30 40L30 39L31 39L31 38L32 38L32 39L33 39L33 40L31 40L31 42L29 42L29 43L27 43L27 42L25 42L25 43L26 43L26 44L29 44L29 46L30 46L30 48L29 48L29 49L33 49L33 50L30 50L30 51L31 51L31 52L32 52L32 51L34 51L34 50L36 50L36 48L38 48L38 50L37 50L37 51L38 51L38 52L39 52L39 51L38 51L38 50L39 50L39 48L38 48L38 47L36 47L36 44L37 44L37 46L39 46L39 45L38 45L38 44L40 44L40 45L42 45L42 44L40 44L40 42L41 42L41 43L44 43L44 42L45 42L45 41L46 41L46 39L45 39L45 37L47 37L47 36L45 36L45 35L44 35L44 34L42 34L42 32L39 32L39 31L38 31L38 30L39 30L39 29L38 29L38 28L40 28L40 29L42 29L42 28L40 28L40 27L43 27L43 28L44 28L44 26L40 26L40 25L43 25L43 24L40 24L40 23L38 23L38 26L40 26L40 27L36 27L36 26L37 26L37 25L36 25L36 24L37 24L37 22L39 22L39 20L40 20L40 21L41 21L41 20L40 20L40 19L41 19L41 18L42 18L42 17L43 17L43 16L44 16L44 15L43 15L43 16L42 16L42 15L41 15L41 16L40 16L40 15L39 15L39 16L38 16L38 18L36 18L36 16L37 16L37 15L36 15L36 14L35 14L35 13L36 13L36 12L37 12L37 11L38 11L38 10L40 10L40 9L41 9L41 8L42 8L42 5L40 5L40 6L39 6L39 9L38 9L38 10L37 10L37 9L36 9L36 8L37 8L37 7L36 7L36 6L35 6L35 8L34 8L34 5L33 5L33 8L32 8L32 6L31 6L31 5ZM26 6L26 7L27 7L27 6ZM30 6L30 7L31 7L31 6ZM40 6L40 8L41 8L41 6ZM30 8L30 10L31 10L31 8ZM33 8L33 9L32 9L32 10L33 10L33 11L35 11L35 12L36 12L36 11L37 11L37 10L36 10L36 9L35 9L35 10L34 10L34 8ZM49 8L49 9L50 9L50 8ZM20 10L20 11L22 11L22 10ZM35 10L35 11L36 11L36 10ZM29 11L29 12L28 12L28 13L27 13L27 12L26 12L26 13L27 13L27 14L25 14L25 13L24 13L24 14L25 14L25 15L23 15L23 13L21 13L21 12L20 12L20 13L21 13L21 14L20 14L20 17L22 17L22 19L21 19L21 18L18 18L18 21L17 21L17 17L19 17L19 14L18 14L18 13L19 13L19 12L18 12L18 13L17 13L17 14L18 14L18 16L17 16L17 17L16 17L16 14L15 14L15 13L14 13L14 14L13 14L13 15L14 15L14 16L13 16L13 17L16 17L16 18L15 18L15 19L16 19L16 21L17 21L17 22L15 22L15 21L14 21L14 22L15 22L15 26L14 26L14 25L12 25L12 27L14 27L14 28L15 28L15 26L16 26L16 23L17 23L17 25L19 25L19 26L18 26L18 29L17 29L17 31L16 31L16 33L19 33L19 34L18 34L18 35L19 35L19 36L18 36L18 37L19 37L19 38L16 38L16 37L17 37L17 36L16 36L16 35L17 35L17 34L15 34L15 42L14 42L14 43L15 43L15 42L16 42L16 43L18 43L18 42L16 42L16 41L19 41L19 43L20 43L20 41L21 41L21 40L23 40L23 39L22 39L22 38L24 38L24 37L26 37L26 38L28 38L28 39L26 39L26 40L28 40L28 39L30 39L30 38L31 38L31 37L32 37L32 38L33 38L33 39L35 39L35 40L36 40L36 41L37 41L37 42L36 42L36 43L35 43L35 42L33 42L33 41L32 41L32 42L33 42L33 43L32 43L32 44L31 44L31 45L30 45L30 46L31 46L31 47L32 47L32 48L33 48L33 47L32 47L32 44L33 44L33 45L35 45L35 44L36 44L36 43L37 43L37 42L38 42L38 43L39 43L39 42L40 42L40 40L41 40L41 39L42 39L42 38L43 38L43 36L44 36L44 35L42 35L42 34L41 34L41 33L39 33L39 32L38 32L38 33L37 33L37 32L36 32L36 33L37 33L37 36L36 36L36 35L35 35L35 34L33 34L33 33L34 33L34 32L33 32L33 31L35 31L35 30L34 30L34 29L35 29L35 28L36 28L36 29L37 29L37 28L36 28L36 27L35 27L35 26L34 26L34 27L32 27L32 28L31 28L31 27L30 27L30 26L31 26L31 24L36 24L36 23L35 23L35 22L34 22L34 21L33 21L33 23L32 23L32 20L36 20L36 21L38 21L38 20L36 20L36 19L35 19L35 18L33 18L33 19L32 19L32 17L29 17L29 16L26 16L26 15L27 15L27 14L31 14L31 15L30 15L30 16L33 16L33 17L35 17L35 16L36 16L36 15L35 15L35 14L34 14L34 12L33 12L33 14L31 14L31 13L32 13L32 11L31 11L31 13L30 13L30 11ZM39 11L39 12L38 12L38 13L37 13L37 14L39 14L39 12L40 12L40 11ZM8 13L8 17L7 17L7 18L9 18L9 19L10 19L10 18L9 18L9 16L10 16L10 14L9 14L9 13ZM6 14L6 15L7 15L7 14ZM33 14L33 15L34 15L34 16L35 16L35 15L34 15L34 14ZM22 16L22 17L24 17L24 16ZM41 16L41 17L42 17L42 16ZM25 17L25 18L23 18L23 19L22 19L22 20L21 20L21 19L19 19L19 20L21 20L21 21L18 21L18 22L19 22L19 24L22 24L22 25L24 25L24 24L22 24L22 23L23 23L23 19L25 19L25 20L24 20L24 23L26 23L26 24L27 24L27 23L28 23L28 24L30 24L30 23L31 23L31 22L27 22L27 21L25 21L25 20L29 20L29 21L30 21L30 20L29 20L29 18L28 18L28 19L26 19L26 18L27 18L27 17ZM52 17L52 18L53 18L53 17ZM30 18L30 19L31 19L31 20L32 20L32 19L31 19L31 18ZM38 18L38 19L39 19L39 18ZM48 18L48 19L49 19L49 18ZM3 19L3 20L2 20L2 21L3 21L3 22L4 22L4 19ZM20 22L20 23L21 23L21 22ZM26 22L26 23L27 23L27 22ZM13 23L13 24L14 24L14 23ZM1 25L1 26L2 26L2 27L1 27L1 28L2 28L2 29L4 29L4 28L3 28L3 26L4 26L4 25ZM5 25L5 28L8 28L8 25ZM20 25L20 28L19 28L19 29L18 29L18 31L17 31L17 32L19 32L19 31L20 31L20 32L21 32L21 31L22 31L22 33L24 33L24 32L25 32L25 34L26 34L26 37L29 37L29 38L30 38L30 37L31 37L31 36L30 36L30 35L32 35L32 33L33 33L33 32L32 32L32 31L33 31L33 30L32 30L32 29L33 29L33 28L32 28L32 29L31 29L31 30L30 30L30 29L27 29L27 31L28 31L28 32L26 32L26 29L23 29L23 28L24 28L24 26L23 26L23 28L22 28L22 26L21 26L21 25ZM25 25L25 28L28 28L28 25ZM32 25L32 26L33 26L33 25ZM45 25L45 28L48 28L48 25ZM49 25L49 27L50 27L50 28L51 28L51 27L50 27L50 26L51 26L51 25ZM6 26L6 27L7 27L7 26ZM26 26L26 27L27 27L27 26ZM46 26L46 27L47 27L47 26ZM34 27L34 28L35 28L35 27ZM11 28L11 29L12 29L12 28ZM20 28L20 29L21 29L21 30L22 30L22 31L23 31L23 29L21 29L21 28ZM5 29L5 30L2 30L2 32L3 32L3 33L4 33L4 35L3 35L3 36L4 36L4 35L5 35L5 34L7 34L7 35L6 35L6 36L8 36L8 37L9 37L9 36L8 36L8 35L9 35L9 34L8 34L8 33L4 33L4 31L5 31L5 30L9 30L9 29ZM43 29L43 30L40 30L40 31L44 31L44 30L45 30L45 29ZM24 30L24 31L25 31L25 30ZM28 30L28 31L29 31L29 33L26 33L26 34L28 34L28 35L29 35L29 34L31 34L31 31L29 31L29 30ZM36 30L36 31L37 31L37 30ZM6 31L6 32L7 32L7 31ZM8 31L8 32L9 32L9 33L10 33L10 32L9 32L9 31ZM13 31L13 32L14 32L14 31ZM45 31L45 32L46 32L46 31ZM43 32L43 33L44 33L44 32ZM11 33L11 34L12 34L12 33ZM20 33L20 34L19 34L19 35L20 35L20 36L21 36L21 37L20 37L20 38L19 38L19 39L20 39L20 38L21 38L21 37L23 37L23 36L25 36L25 35L24 35L24 34L22 34L22 35L21 35L21 33ZM38 33L38 35L39 35L39 33ZM40 34L40 35L41 35L41 36L40 36L40 37L41 37L41 36L42 36L42 35L41 35L41 34ZM10 35L10 37L11 37L11 36L12 36L12 35ZM33 35L33 36L32 36L32 37L33 37L33 36L34 36L34 38L35 38L35 39L36 39L36 40L37 40L37 39L36 39L36 38L39 38L39 36L38 36L38 37L36 37L36 36L34 36L34 35ZM50 35L50 36L48 36L48 37L50 37L50 36L52 36L52 35ZM2 37L2 38L3 38L3 37ZM4 37L4 40L5 40L5 41L6 41L6 42L7 42L7 41L6 41L6 40L7 40L7 39L6 39L6 38L7 38L7 37L6 37L6 38L5 38L5 37ZM12 38L12 39L13 39L13 40L14 40L14 39L13 39L13 38ZM10 39L10 41L11 41L11 39ZM16 39L16 40L18 40L18 39ZM43 39L43 40L42 40L42 41L41 41L41 42L43 42L43 40L44 40L44 41L45 41L45 39ZM50 39L50 40L51 40L51 39ZM38 41L38 42L39 42L39 41ZM52 41L52 42L53 42L53 41ZM34 43L34 44L35 44L35 43ZM18 44L18 45L17 45L17 46L18 46L18 45L19 45L19 44ZM43 44L43 45L44 45L44 44ZM25 45L25 48L28 48L28 45ZM45 45L45 48L48 48L48 45ZM49 45L49 46L50 46L50 45ZM10 46L10 47L11 47L11 46ZM26 46L26 47L27 47L27 46ZM34 46L34 48L35 48L35 46ZM40 46L40 47L41 47L41 48L40 48L40 49L41 49L41 50L40 50L40 51L43 51L43 50L44 50L44 48L42 48L42 47L44 47L44 46ZM46 46L46 47L47 47L47 46ZM52 47L52 49L53 49L53 47ZM19 48L19 49L20 49L20 48ZM26 49L26 50L27 50L27 49ZM42 49L42 50L43 50L43 49ZM10 50L10 51L11 51L11 50ZM50 51L50 52L51 52L51 51ZM0 0L0 7L7 7L7 0ZM1 1L1 6L6 6L6 1ZM2 2L2 5L5 5L5 2ZM46 0L46 7L53 7L53 0ZM47 1L47 6L52 6L52 1ZM48 2L48 5L51 5L51 2ZM0 46L0 53L7 53L7 46ZM1 47L1 52L6 52L6 47ZM2 48L2 51L5 51L5 48Z" fill="#000000"/></g></g></svg>
