<?xml version="1.0" encoding="UTF-8"?>
<svg xmlns="http://www.w3.org/2000/svg" version="1.1" width="300" height="300" viewBox="0 0 300 300"><rect x="0" y="0" width="300" height="300" fill="#ffffff"/><g transform="scale(5.66)"><g transform="translate(0,0)"><path fill-rule="evenodd" d="M8 0L8 1L10 1L10 2L11 2L11 1L10 1L10 0ZM12 0L12 1L13 1L13 2L12 2L12 3L10 3L10 4L9 4L9 2L8 2L8 5L9 5L9 6L8 6L8 7L9 7L9 6L10 6L10 8L8 8L8 11L9 11L9 12L10 12L10 14L9 14L9 15L8 15L8 16L6 16L6 15L7 15L7 14L8 14L8 12L6 12L6 13L7 13L7 14L6 14L6 15L5 15L5 16L6 16L6 17L8 17L8 18L5 18L5 17L4 17L4 16L2 16L2 17L1 17L1 18L0 18L0 19L3 19L3 20L0 20L0 21L3 21L3 22L0 22L0 23L1 23L1 24L0 24L0 25L2 25L2 23L4 23L4 24L3 24L3 25L4 25L4 28L1 28L1 27L3 27L3 26L0 26L0 29L1 29L1 30L0 30L0 31L1 31L1 32L0 32L0 33L1 33L1 35L0 35L0 36L2 36L2 34L3 34L3 33L5 33L5 34L6 34L6 35L7 35L7 34L9 34L9 37L8 37L8 36L6 36L6 37L7 37L7 38L6 38L6 39L5 39L5 40L6 40L6 41L7 41L7 42L3 42L3 43L2 43L2 42L0 42L0 43L1 43L1 44L3 44L3 45L4 45L4 44L3 44L3 43L7 43L7 42L10 42L10 43L9 43L9 44L6 44L6 45L8 45L8 46L9 46L9 47L10 47L10 46L9 46L9 44L10 44L10 45L12 45L12 46L13 46L13 49L11 49L11 48L10 48L10 49L8 49L8 53L9 53L9 52L10 52L10 53L13 53L13 51L12 51L12 52L10 52L10 51L11 51L11 50L14 50L14 49L15 49L15 52L14 52L14 53L15 53L15 52L16 52L16 53L18 53L18 52L19 52L19 53L20 53L20 52L19 52L19 51L18 51L18 52L17 52L17 50L20 50L20 51L22 51L22 52L21 52L21 53L22 53L22 52L23 52L23 53L24 53L24 52L23 52L23 51L22 51L22 50L23 50L23 49L21 49L21 48L17 48L17 46L18 46L18 45L17 45L17 46L16 46L16 45L15 45L15 44L18 44L18 43L19 43L19 47L21 47L21 46L24 46L24 47L23 47L23 48L24 48L24 49L25 49L25 53L27 53L27 52L26 52L26 51L27 51L27 50L28 50L28 49L29 49L29 48L30 48L30 49L31 49L31 50L30 50L30 51L31 51L31 52L29 52L29 51L28 51L28 52L29 52L29 53L33 53L33 52L34 52L34 53L36 53L36 49L37 49L37 51L39 51L39 53L40 53L40 52L41 52L41 53L42 53L42 52L43 52L43 53L44 53L44 52L45 52L45 53L47 53L47 52L46 52L46 51L47 51L47 50L49 50L49 51L48 51L48 52L50 52L50 50L51 50L51 53L52 53L52 49L51 49L51 48L50 48L50 49L49 49L49 47L52 47L52 48L53 48L53 47L52 47L52 46L53 46L53 45L52 45L52 44L53 44L53 43L50 43L50 42L48 42L48 41L49 41L49 40L50 40L50 39L53 39L53 36L52 36L52 35L51 35L51 36L50 36L50 37L49 37L49 38L48 38L48 34L49 34L49 32L51 32L51 30L50 30L50 27L51 27L51 28L53 28L53 25L52 25L52 26L51 26L51 24L53 24L53 23L51 23L51 22L53 22L53 21L52 21L52 20L53 20L53 19L51 19L51 18L52 18L52 17L51 17L51 18L50 18L50 17L48 17L48 19L47 19L47 20L46 20L46 18L47 18L47 16L46 16L46 13L47 13L47 15L48 15L48 16L50 16L50 14L52 14L52 15L51 15L51 16L53 16L53 13L52 13L52 12L50 12L50 11L49 11L49 10L48 10L48 9L50 9L50 10L51 10L51 11L52 11L52 10L53 10L53 8L52 8L52 9L51 9L51 8L48 8L48 9L47 9L47 10L48 10L48 13L47 13L47 11L46 11L46 10L45 10L45 11L46 11L46 12L44 12L44 10L43 10L43 9L42 9L42 11L41 11L41 13L40 13L40 11L39 11L39 13L38 13L38 12L37 12L37 11L36 11L36 10L34 10L34 9L35 9L35 8L38 8L38 9L37 9L37 10L38 10L38 9L40 9L40 10L41 10L41 5L40 5L40 7L39 7L39 4L40 4L40 0L39 0L39 3L38 3L38 2L36 2L36 1L34 1L34 0L33 0L33 1L34 1L34 2L33 2L33 3L36 3L36 4L35 4L35 6L34 6L34 5L33 5L33 4L32 4L32 3L31 3L31 2L32 2L32 1L31 1L31 0L30 0L30 1L29 1L29 0L22 0L22 1L21 1L21 2L22 2L22 3L23 3L23 4L22 4L22 5L23 5L23 4L24 4L24 8L22 8L22 7L23 7L23 6L22 6L22 7L21 7L21 3L20 3L20 2L19 2L19 1L18 1L18 0L17 0L17 2L16 2L16 0L15 0L15 2L16 2L16 3L15 3L15 5L14 5L14 7L15 7L15 6L16 6L16 11L15 11L15 10L12 10L12 9L13 9L13 8L12 8L12 7L13 7L13 5L11 5L11 6L10 6L10 4L12 4L12 3L13 3L13 4L14 4L14 3L13 3L13 2L14 2L14 0ZM37 0L37 1L38 1L38 0ZM42 0L42 2L43 2L43 3L41 3L41 4L42 4L42 7L43 7L43 3L44 3L44 4L45 4L45 3L44 3L44 1L43 1L43 0ZM22 1L22 2L23 2L23 3L24 3L24 4L26 4L26 3L27 3L27 2L28 2L28 4L29 4L29 7L30 7L30 8L29 8L29 9L30 9L30 8L32 8L32 9L31 9L31 11L30 11L30 10L27 10L27 9L24 9L24 10L25 10L25 11L24 11L24 13L23 13L23 12L21 12L21 11L23 11L23 10L21 10L21 9L22 9L22 8L21 8L21 9L19 9L19 8L20 8L20 6L19 6L19 8L17 8L17 10L18 10L18 11L16 11L16 12L15 12L15 11L11 11L11 12L12 12L12 13L11 13L11 15L10 15L10 16L11 16L11 15L12 15L12 16L13 16L13 17L10 17L10 19L6 19L6 20L9 20L9 21L6 21L6 22L4 22L4 23L6 23L6 24L9 24L9 23L8 23L8 22L9 22L9 21L11 21L11 22L12 22L12 23L11 23L11 24L12 24L12 26L13 26L13 27L9 27L9 29L4 29L4 30L3 30L3 29L2 29L2 32L1 32L1 33L2 33L2 32L4 32L4 31L5 31L5 30L9 30L9 32L8 32L8 33L9 33L9 34L12 34L12 35L13 35L13 36L11 36L11 37L13 37L13 36L14 36L14 38L13 38L13 40L14 40L14 42L15 42L15 41L16 41L16 38L18 38L18 34L19 34L19 33L20 33L20 34L21 34L21 35L20 35L20 36L21 36L21 38L22 38L22 40L19 40L19 39L17 39L17 43L18 43L18 41L19 41L19 43L22 43L22 44L23 44L23 45L24 45L24 44L25 44L25 43L24 43L24 42L26 42L26 43L28 43L28 44L29 44L29 47L30 47L30 48L31 48L31 49L32 49L32 51L33 51L33 49L34 49L34 52L35 52L35 49L36 49L36 47L37 47L37 46L38 46L38 47L39 47L39 48L38 48L38 49L39 49L39 51L40 51L40 49L42 49L42 50L41 50L41 51L42 51L42 50L43 50L43 52L44 52L44 51L45 51L45 50L46 50L46 49L44 49L44 45L43 45L43 43L44 43L44 44L46 44L46 43L47 43L47 42L45 42L45 41L48 41L48 38L47 38L47 40L46 40L46 37L47 37L47 34L48 34L48 32L47 32L47 34L46 34L46 35L45 35L45 33L46 33L46 32L45 32L45 30L46 30L46 31L50 31L50 30L49 30L49 29L47 29L47 30L46 30L46 29L45 29L45 30L44 30L44 27L42 27L42 26L43 26L43 25L42 25L42 24L43 24L43 22L39 22L39 21L40 21L40 20L39 20L39 19L41 19L41 21L42 21L42 19L43 19L43 15L42 15L42 14L43 14L43 13L44 13L44 12L42 12L42 13L41 13L41 16L40 16L40 13L39 13L39 16L40 16L40 17L41 17L41 18L39 18L39 17L37 17L37 15L36 15L36 14L35 14L35 13L36 13L36 12L35 12L35 11L34 11L34 10L33 10L33 12L32 12L32 13L33 13L33 14L31 14L31 11L32 11L32 9L34 9L34 8L33 8L33 7L34 7L34 6L33 6L33 7L32 7L32 4L31 4L31 3L30 3L30 4L29 4L29 1L27 1L27 2L26 2L26 1L25 1L25 2L23 2L23 1ZM18 2L18 3L17 3L17 4L16 4L16 5L17 5L17 7L18 7L18 3L19 3L19 2ZM25 2L25 3L26 3L26 2ZM37 3L37 4L36 4L36 6L35 6L35 7L36 7L36 6L37 6L37 7L38 7L38 8L39 8L39 7L38 7L38 3ZM19 4L19 5L20 5L20 4ZM25 5L25 8L28 8L28 5ZM30 5L30 7L31 7L31 5ZM11 6L11 7L12 7L12 6ZM26 6L26 7L27 7L27 6ZM44 6L44 7L45 7L45 6ZM0 8L0 12L1 12L1 13L0 13L0 15L2 15L2 14L5 14L5 11L7 11L7 10L6 10L6 9L7 9L7 8L6 8L6 9L5 9L5 11L4 11L4 8ZM11 8L11 9L12 9L12 8ZM14 8L14 9L15 9L15 8ZM44 8L44 9L46 9L46 8ZM1 9L1 12L3 12L3 13L4 13L4 11L2 11L2 10L3 10L3 9ZM9 10L9 11L10 11L10 10ZM19 10L19 11L18 11L18 14L19 14L19 15L20 15L20 16L19 16L19 17L16 17L16 18L18 18L18 19L15 19L15 18L12 18L12 19L10 19L10 20L11 20L11 21L12 21L12 19L15 19L15 20L20 20L20 21L23 21L23 22L22 22L22 23L23 23L23 24L24 24L24 28L23 28L23 27L22 27L22 26L23 26L23 25L22 25L22 24L20 24L20 23L19 23L19 24L17 24L17 23L18 23L18 21L17 21L17 23L16 23L16 25L15 25L15 23L14 23L14 22L15 22L15 21L13 21L13 25L14 25L14 26L16 26L16 25L17 25L17 28L16 28L16 27L15 27L15 28L10 28L10 29L11 29L11 30L13 30L13 29L15 29L15 31L13 31L13 35L14 35L14 36L15 36L15 37L17 37L17 34L16 34L16 33L15 33L15 35L14 35L14 32L15 32L15 31L19 31L19 32L20 32L20 33L21 33L21 34L23 34L23 35L21 35L21 36L23 36L23 37L22 37L22 38L23 38L23 37L24 37L24 38L25 38L25 37L26 37L26 36L27 36L27 40L26 40L26 42L28 42L28 43L29 43L29 44L30 44L30 47L31 47L31 48L34 48L34 47L35 47L35 46L34 46L34 45L35 45L35 44L38 44L38 43L39 43L39 42L38 42L38 43L37 43L37 41L38 41L38 40L41 40L41 41L40 41L40 45L41 45L41 46L42 46L42 47L43 47L43 45L42 45L42 43L41 43L41 42L42 42L42 40L45 40L45 39L44 39L44 38L42 38L42 39L41 39L41 37L40 37L40 35L39 35L39 34L41 34L41 33L42 33L42 35L41 35L41 36L42 36L42 37L43 37L43 36L42 36L42 35L43 35L43 33L45 33L45 32L44 32L44 31L43 31L43 32L42 32L42 31L41 31L41 30L42 30L42 29L43 29L43 28L42 28L42 27L41 27L41 25L38 25L38 24L37 24L37 23L38 23L38 22L37 22L37 21L35 21L35 20L34 20L34 21L32 21L32 24L33 24L33 23L35 23L35 24L36 24L36 25L35 25L35 26L38 26L38 27L39 27L39 28L37 28L37 30L36 30L36 27L34 27L34 25L33 25L33 27L32 27L32 26L30 26L30 27L29 27L29 25L31 25L31 24L30 24L30 23L31 23L31 19L32 19L32 18L33 18L33 19L35 19L35 17L36 17L36 15L35 15L35 16L34 16L34 14L33 14L33 15L32 15L32 17L31 17L31 19L30 19L30 17L29 17L29 19L30 19L30 20L29 20L29 21L27 21L27 20L28 20L28 16L27 16L27 17L25 17L25 18L24 18L24 16L26 16L26 15L29 15L29 13L30 13L30 12L29 12L29 11L27 11L27 12L26 12L26 11L25 11L25 13L24 13L24 15L23 15L23 13L22 13L22 15L21 15L21 12L20 12L20 10ZM13 12L13 13L14 13L14 12ZM16 12L16 13L15 13L15 16L14 16L14 14L12 14L12 15L13 15L13 16L14 16L14 17L15 17L15 16L16 16L16 15L17 15L17 14L16 14L16 13L17 13L17 12ZM19 12L19 14L20 14L20 12ZM33 12L33 13L35 13L35 12ZM49 12L49 13L48 13L48 14L49 14L49 13L50 13L50 12ZM25 13L25 14L26 14L26 13ZM37 13L37 14L38 14L38 13ZM30 14L30 16L31 16L31 14ZM44 14L44 18L45 18L45 17L46 17L46 16L45 16L45 14ZM20 16L20 17L19 17L19 18L20 18L20 19L21 19L21 20L23 20L23 21L25 21L25 22L26 22L26 23L24 23L24 22L23 22L23 23L24 23L24 24L27 24L27 21L25 21L25 20L26 20L26 18L25 18L25 19L22 19L22 18L23 18L23 16ZM33 16L33 17L34 17L34 16ZM41 16L41 17L42 17L42 16ZM2 17L2 18L3 18L3 19L4 19L4 20L3 20L3 21L4 21L4 20L5 20L5 18L3 18L3 17ZM21 17L21 18L22 18L22 17ZM38 18L38 19L36 19L36 20L38 20L38 19L39 19L39 18ZM41 18L41 19L42 19L42 18ZM49 18L49 19L50 19L50 18ZM43 20L43 21L44 21L44 24L45 24L45 22L48 22L48 23L47 23L47 24L48 24L48 23L49 23L49 24L51 24L51 23L49 23L49 20L47 20L47 21L46 21L46 20L45 20L45 21L44 21L44 20ZM34 21L34 22L35 22L35 23L37 23L37 22L35 22L35 21ZM50 21L50 22L51 22L51 21ZM6 22L6 23L7 23L7 22ZM28 22L28 23L29 23L29 22ZM39 23L39 24L40 24L40 23ZM41 23L41 24L42 24L42 23ZM5 25L5 28L8 28L8 25ZM9 25L9 26L11 26L11 25ZM25 25L25 28L28 28L28 25ZM45 25L45 28L48 28L48 25ZM49 25L49 27L50 27L50 25ZM6 26L6 27L7 27L7 26ZM18 26L18 27L19 27L19 26ZM20 26L20 28L18 28L18 29L17 29L17 30L18 30L18 29L20 29L20 30L19 30L19 31L25 31L25 32L23 32L23 33L25 33L25 32L26 32L26 33L27 33L27 32L29 32L29 31L30 31L30 33L31 33L31 35L30 35L30 36L31 36L31 35L33 35L33 36L32 36L32 37L33 37L33 38L31 38L31 37L30 37L30 38L29 38L29 36L28 36L28 40L27 40L27 41L29 41L29 39L30 39L30 40L31 40L31 41L30 41L30 44L31 44L31 47L32 47L32 45L34 45L34 44L33 44L33 42L31 42L31 41L32 41L32 40L31 40L31 39L33 39L33 40L34 40L34 41L35 41L35 43L36 43L36 41L37 41L37 38L38 38L38 36L39 36L39 35L38 35L38 36L37 36L37 37L36 37L36 36L35 36L35 37L33 37L33 36L34 36L34 34L37 34L37 32L38 32L38 31L37 31L37 32L35 32L35 31L36 31L36 30L35 30L35 31L34 31L34 32L33 32L33 30L34 30L34 29L35 29L35 28L33 28L33 30L32 30L32 31L31 31L31 28L30 28L30 30L29 30L29 29L27 29L27 30L26 30L26 29L25 29L25 30L23 30L23 28L22 28L22 27L21 27L21 26ZM26 26L26 27L27 27L27 26ZM39 26L39 27L40 27L40 26ZM46 26L46 27L47 27L47 26ZM21 28L21 29L22 29L22 28ZM39 28L39 29L38 29L38 30L41 30L41 29L42 29L42 28ZM28 30L28 31L29 31L29 30ZM6 31L6 32L7 32L7 31ZM11 31L11 32L9 32L9 33L11 33L11 32L12 32L12 31ZM39 31L39 32L40 32L40 31ZM17 32L17 33L18 33L18 32ZM21 32L21 33L22 33L22 32ZM31 32L31 33L32 33L32 34L33 34L33 33L32 33L32 32ZM34 32L34 33L35 33L35 32ZM52 32L52 33L51 33L51 34L53 34L53 32ZM6 33L6 34L7 34L7 33ZM38 33L38 34L39 34L39 33ZM24 34L24 35L23 35L23 36L24 36L24 35L26 35L26 34ZM27 34L27 35L28 35L28 34ZM3 35L3 37L1 37L1 38L0 38L0 40L2 40L2 39L1 39L1 38L3 38L3 40L4 40L4 36L5 36L5 35ZM44 36L44 37L45 37L45 36ZM35 37L35 38L36 38L36 37ZM39 37L39 39L40 39L40 37ZM50 37L50 38L49 38L49 39L50 39L50 38L51 38L51 37ZM7 38L7 39L6 39L6 40L7 40L7 41L8 41L8 40L9 40L9 41L10 41L10 40L9 40L9 39L11 39L11 40L12 40L12 38L9 38L9 39L8 39L8 38ZM14 38L14 40L15 40L15 38ZM30 38L30 39L31 39L31 38ZM7 39L7 40L8 40L8 39ZM35 39L35 41L36 41L36 39ZM23 40L23 42L22 42L22 43L23 43L23 42L24 42L24 40ZM52 40L52 41L51 41L51 42L52 42L52 41L53 41L53 40ZM12 41L12 42L11 42L11 43L12 43L12 44L14 44L14 43L12 43L12 42L13 42L13 41ZM13 45L13 46L15 46L15 48L16 48L16 46L15 46L15 45ZM20 45L20 46L21 46L21 45ZM25 45L25 48L28 48L28 45ZM45 45L45 48L48 48L48 45ZM49 45L49 46L50 46L50 45ZM51 45L51 46L52 46L52 45ZM26 46L26 47L27 47L27 46ZM33 46L33 47L34 47L34 46ZM39 46L39 47L40 47L40 46ZM46 46L46 47L47 47L47 46ZM39 48L39 49L40 49L40 48ZM16 49L16 50L17 50L17 49ZM43 49L43 50L44 50L44 49ZM0 0L0 7L7 7L7 0ZM1 1L1 6L6 6L6 1ZM2 2L2 5L5 5L5 2ZM46 0L46 7L53 7L53 0ZM47 1L47 6L52 6L52 1ZM48 2L48 5L51 5L51 2ZM0 46L0 53L7 53L7 46ZM1 47L1 52L6 52L6 47ZM2 48L2 51L5 51L5 48Z" fill="#000000"/></g></g></svg>
