<?xml version="1.0" encoding="UTF-8"?>
<svg xmlns="http://www.w3.org/2000/svg" version="1.1" width="300" height="300" viewBox="0 0 300 300"><rect x="0" y="0" width="300" height="300" fill="#ffffff"/><g transform="scale(5.66)"><g transform="translate(0,0)"><path fill-rule="evenodd" d="M11 0L11 2L10 2L10 1L8 1L8 2L10 2L10 5L11 5L11 3L13 3L13 4L14 4L14 5L12 5L12 7L11 7L11 6L10 6L10 7L9 7L9 5L8 5L8 7L9 7L9 8L6 8L6 9L5 9L5 8L0 8L0 11L1 11L1 10L2 10L2 13L4 13L4 12L5 12L5 10L6 10L6 11L8 11L8 14L6 14L6 13L7 13L7 12L6 12L6 13L5 13L5 14L6 14L6 15L7 15L7 16L6 16L6 17L5 17L5 15L3 15L3 14L2 14L2 16L1 16L1 13L0 13L0 16L1 16L1 17L0 17L0 18L1 18L1 20L0 20L0 21L1 21L1 23L0 23L0 24L1 24L1 29L0 29L0 31L1 31L1 30L2 30L2 32L1 32L1 33L0 33L0 34L2 34L2 35L4 35L4 36L3 36L3 37L2 37L2 38L0 38L0 40L1 40L1 39L2 39L2 41L3 41L3 43L2 43L2 42L1 42L1 41L0 41L0 43L1 43L1 44L3 44L3 45L4 45L4 44L3 44L3 43L7 43L7 44L6 44L6 45L8 45L8 47L9 47L9 48L8 48L8 53L9 53L9 51L10 51L10 52L11 52L11 53L13 53L13 52L15 52L15 53L17 53L17 51L14 51L14 50L15 50L15 49L19 49L19 50L18 50L18 53L21 53L21 52L19 52L19 51L21 51L21 50L20 50L20 49L21 49L21 48L24 48L24 49L22 49L22 52L23 52L23 50L24 50L24 51L25 51L25 52L24 52L24 53L25 53L25 52L26 52L26 51L28 51L28 52L27 52L27 53L28 53L28 52L29 52L29 50L33 50L33 49L31 49L31 47L30 47L30 46L31 46L31 45L32 45L32 46L33 46L33 47L32 47L32 48L33 48L33 47L34 47L34 48L35 48L35 47L38 47L38 48L36 48L36 50L34 50L34 51L31 51L31 53L32 53L32 52L33 52L33 53L35 53L35 52L36 52L36 53L37 53L37 52L36 52L36 51L37 51L37 50L38 50L38 51L39 51L39 52L38 52L38 53L39 53L39 52L42 52L42 53L45 53L45 52L46 52L46 53L49 53L49 52L50 52L50 53L51 53L51 52L52 52L52 51L53 51L53 50L52 50L52 51L51 51L51 52L50 52L50 51L49 51L49 50L50 50L50 49L51 49L51 48L52 48L52 47L51 47L51 48L50 48L50 46L51 46L51 44L50 44L50 41L52 41L52 42L53 42L53 40L50 40L50 39L51 39L51 37L52 37L52 38L53 38L53 35L52 35L52 34L53 34L53 33L52 33L52 31L51 31L51 30L53 30L53 29L52 29L52 28L53 28L53 27L51 27L51 26L53 26L53 25L51 25L51 24L50 24L50 21L51 21L51 23L52 23L52 22L53 22L53 19L52 19L52 21L51 21L51 20L50 20L50 19L51 19L51 18L50 18L50 19L49 19L49 18L48 18L48 19L49 19L49 20L48 20L48 21L49 21L49 22L48 22L48 23L49 23L49 24L43 24L43 23L45 23L45 22L44 22L44 21L46 21L46 20L44 20L44 19L43 19L43 21L40 21L40 20L42 20L42 19L40 19L40 20L39 20L39 18L38 18L38 16L39 16L39 15L40 15L40 16L41 16L41 18L44 18L44 17L49 17L49 16L50 16L50 17L52 17L52 18L53 18L53 17L52 17L52 16L53 16L53 15L52 15L52 14L53 14L53 13L52 13L52 12L53 12L53 11L51 11L51 10L53 10L53 9L52 9L52 8L51 8L51 9L50 9L50 8L49 8L49 9L50 9L50 11L51 11L51 12L50 12L50 13L49 13L49 12L48 12L48 14L46 14L46 15L45 15L45 16L44 16L44 15L40 15L40 14L44 14L44 13L47 13L47 12L46 12L46 11L45 11L45 12L44 12L44 13L42 13L42 11L40 11L40 10L43 10L43 11L44 11L44 10L43 10L43 9L46 9L46 8L45 8L45 6L44 6L44 8L43 8L43 3L44 3L44 4L45 4L45 3L44 3L44 1L43 1L43 0L42 0L42 1L41 1L41 2L40 2L40 3L38 3L38 4L39 4L39 5L36 5L36 4L37 4L37 3L36 3L36 2L37 2L37 1L38 1L38 2L39 2L39 1L40 1L40 0L39 0L39 1L38 1L38 0L37 0L37 1L36 1L36 2L35 2L35 1L34 1L34 0L33 0L33 1L31 1L31 0L30 0L30 1L31 1L31 4L30 4L30 2L28 2L28 1L29 1L29 0L22 0L22 1L27 1L27 2L28 2L28 3L26 3L26 4L24 4L24 3L25 3L25 2L24 2L24 3L23 3L23 4L21 4L21 3L22 3L22 2L21 2L21 1L20 1L20 2L21 2L21 3L18 3L18 4L17 4L17 3L16 3L16 2L15 2L15 1L16 1L16 0L15 0L15 1L14 1L14 0ZM17 0L17 2L19 2L19 1L18 1L18 0ZM12 1L12 2L13 2L13 1ZM14 2L14 4L15 4L15 7L16 7L16 6L17 6L17 8L16 8L16 9L13 9L13 8L14 8L14 6L13 6L13 7L12 7L12 9L13 9L13 10L14 10L14 13L13 13L13 15L12 15L12 14L11 14L11 13L12 13L12 11L10 11L10 14L11 14L11 15L12 15L12 16L11 16L11 17L10 17L10 15L9 15L9 14L8 14L8 15L9 15L9 18L8 18L8 17L6 17L6 18L7 18L7 19L4 19L4 17L3 17L3 18L2 18L2 17L1 17L1 18L2 18L2 19L3 19L3 20L1 20L1 21L2 21L2 22L4 22L4 23L5 23L5 22L8 22L8 21L3 21L3 20L9 20L9 19L10 19L10 18L11 18L11 19L12 19L12 20L14 20L14 21L15 21L15 22L16 22L16 24L15 24L15 25L13 25L13 24L14 24L14 23L13 23L13 24L12 24L12 23L10 23L10 22L12 22L12 21L9 21L9 23L6 23L6 24L10 24L10 25L9 25L9 27L10 27L10 28L11 28L11 29L10 29L10 30L11 30L11 31L10 31L10 34L9 34L9 33L8 33L8 34L7 34L7 33L6 33L6 34L7 34L7 35L5 35L5 32L7 32L7 31L6 31L6 30L7 30L7 29L5 29L5 30L4 30L4 29L3 29L3 28L2 28L2 29L3 29L3 30L4 30L4 31L3 31L3 34L4 34L4 35L5 35L5 36L4 36L4 37L5 37L5 36L7 36L7 37L6 37L6 38L7 38L7 39L4 39L4 38L2 38L2 39L4 39L4 40L7 40L7 41L6 41L6 42L8 42L8 41L9 41L9 43L8 43L8 44L9 44L9 43L10 43L10 44L11 44L11 45L12 45L12 46L11 46L11 47L10 47L10 48L9 48L9 50L11 50L11 52L13 52L13 50L11 50L11 49L12 49L12 48L14 48L14 47L15 47L15 46L14 46L14 45L15 45L15 44L16 44L16 43L14 43L14 44L13 44L13 45L12 45L12 44L11 44L11 42L12 42L12 43L13 43L13 42L17 42L17 45L16 45L16 46L17 46L17 45L18 45L18 46L19 46L19 45L20 45L20 48L21 48L21 45L24 45L24 44L23 44L23 43L24 43L24 42L23 42L23 43L22 43L22 42L21 42L21 41L20 41L20 40L19 40L19 39L20 39L20 38L21 38L21 39L22 39L22 41L24 41L24 40L25 40L25 41L27 41L27 42L26 42L26 44L29 44L29 46L30 46L30 45L31 45L31 44L32 44L32 45L33 45L33 44L34 44L34 46L39 46L39 47L41 47L41 44L42 44L42 43L47 43L47 44L49 44L49 46L50 46L50 44L49 44L49 43L47 43L47 40L48 40L48 41L50 41L50 40L48 40L48 39L49 39L49 38L48 38L48 37L50 37L50 36L52 36L52 35L50 35L50 34L51 34L51 31L50 31L50 30L51 30L51 29L49 29L49 30L48 30L48 29L46 29L46 31L45 31L45 30L41 30L41 32L39 32L39 31L36 31L36 30L35 30L35 29L36 29L36 28L38 28L38 29L37 29L37 30L39 30L39 27L36 27L36 26L37 26L37 25L36 25L36 24L37 24L37 23L36 23L36 24L31 24L31 26L29 26L29 27L34 27L34 28L32 28L32 29L31 29L31 30L29 30L29 31L28 31L28 30L25 30L25 29L24 29L24 26L23 26L23 28L22 28L22 25L24 25L24 24L22 24L22 25L20 25L20 26L19 26L19 25L16 25L16 24L18 24L18 22L19 22L19 24L21 24L21 23L20 23L20 22L23 22L23 21L24 21L24 20L23 20L23 19L22 19L22 17L24 17L24 16L22 16L22 17L20 17L20 20L21 20L21 21L18 21L18 20L19 20L19 19L18 19L18 20L17 20L17 21L15 21L15 20L16 20L16 19L17 19L17 16L20 16L20 14L21 14L21 13L23 13L23 11L25 11L25 12L24 12L24 14L22 14L22 15L26 15L26 16L25 16L25 22L24 22L24 23L25 23L25 22L27 22L27 23L26 23L26 24L29 24L29 23L34 23L34 22L35 22L35 21L36 21L36 20L37 20L37 19L38 19L38 18L37 18L37 19L36 19L36 20L35 20L35 19L34 19L34 20L32 20L32 19L33 19L33 18L36 18L36 16L37 16L37 15L38 15L38 14L39 14L39 12L40 12L40 13L41 13L41 12L40 12L40 11L38 11L38 10L40 10L40 9L41 9L41 8L42 8L42 9L43 9L43 8L42 8L42 5L41 5L41 3L43 3L43 2L41 2L41 3L40 3L40 6L39 6L39 9L38 9L38 10L37 10L37 9L36 9L36 8L37 8L37 7L38 7L38 6L37 6L37 7L36 7L36 5L35 5L35 4L36 4L36 3L35 3L35 2L32 2L32 4L31 4L31 5L29 5L29 9L31 9L31 10L30 10L30 11L29 11L29 10L28 10L28 11L26 11L26 10L27 10L27 9L24 9L24 10L22 10L22 11L19 11L19 10L21 10L21 9L20 9L20 8L22 8L22 9L23 9L23 7L24 7L24 5L23 5L23 7L22 7L22 6L21 6L21 7L20 7L20 5L21 5L21 4L18 4L18 5L17 5L17 4L15 4L15 2ZM8 3L8 4L9 4L9 3ZM28 3L28 4L29 4L29 3ZM33 3L33 5L31 5L31 6L30 6L30 8L31 8L31 6L32 6L32 8L33 8L33 9L32 9L32 10L33 10L33 11L32 11L32 12L31 12L31 11L30 11L30 12L25 12L25 13L28 13L28 14L31 14L31 15L30 15L30 16L29 16L29 17L28 17L28 18L27 18L27 16L26 16L26 19L28 19L28 18L29 18L29 20L26 20L26 21L27 21L27 22L31 22L31 21L32 21L32 22L34 22L34 21L32 21L32 20L31 20L31 21L30 21L30 18L31 18L31 19L32 19L32 18L33 18L33 17L35 17L35 16L36 16L36 15L35 15L35 14L34 14L34 13L35 13L35 12L36 12L36 13L38 13L38 11L37 11L37 10L36 10L36 9L35 9L35 10L34 10L34 8L35 8L35 5L34 5L34 3ZM25 5L25 8L28 8L28 5ZM33 5L33 8L34 8L34 5ZM18 6L18 7L19 7L19 6ZM26 6L26 7L27 7L27 6ZM40 6L40 8L41 8L41 6ZM10 7L10 8L9 8L9 9L8 9L8 11L9 11L9 9L10 9L10 8L11 8L11 7ZM18 8L18 9L19 9L19 8ZM47 8L47 11L48 11L48 8ZM6 9L6 10L7 10L7 9ZM16 9L16 10L15 10L15 11L16 11L16 13L17 13L17 14L18 14L18 15L19 15L19 14L18 14L18 13L19 13L19 11L17 11L17 9ZM3 10L3 11L4 11L4 10ZM35 10L35 11L36 11L36 12L37 12L37 11L36 11L36 10ZM17 12L17 13L18 13L18 12ZM20 12L20 13L21 13L21 12ZM30 12L30 13L31 13L31 12ZM32 12L32 15L31 15L31 18L32 18L32 17L33 17L33 16L32 16L32 15L34 15L34 16L35 16L35 15L34 15L34 14L33 14L33 12ZM14 13L14 14L15 14L15 13ZM50 13L50 14L48 14L48 15L46 15L46 16L48 16L48 15L50 15L50 16L51 16L51 14L52 14L52 13ZM26 14L26 15L27 15L27 14ZM13 15L13 16L14 16L14 15ZM15 15L15 18L14 18L14 17L13 17L13 18L12 18L12 17L11 17L11 18L12 18L12 19L14 19L14 20L15 20L15 18L16 18L16 15ZM43 16L43 17L44 17L44 16ZM18 17L18 18L19 18L19 17ZM45 18L45 19L46 19L46 18ZM21 19L21 20L22 20L22 19ZM38 20L38 21L37 21L37 22L39 22L39 20ZM49 20L49 21L50 21L50 20ZM17 21L17 22L18 22L18 21ZM40 22L40 23L38 23L38 26L40 26L40 27L42 27L42 29L44 29L44 26L40 26L40 25L43 25L43 24L40 24L40 23L41 23L41 22ZM46 22L46 23L47 23L47 22ZM2 23L2 24L3 24L3 23ZM3 25L3 26L4 26L4 25ZM5 25L5 28L8 28L8 25ZM10 25L10 26L11 26L11 25ZM12 25L12 27L14 27L14 26L13 26L13 25ZM25 25L25 28L28 28L28 25ZM32 25L32 26L33 26L33 25ZM45 25L45 28L48 28L48 25ZM49 25L49 26L51 26L51 25ZM6 26L6 27L7 27L7 26ZM15 26L15 28L16 28L16 29L17 29L17 28L16 28L16 27L17 27L17 26ZM18 26L18 29L19 29L19 28L20 28L20 29L21 29L21 30L24 30L24 29L21 29L21 28L20 28L20 27L19 27L19 26ZM26 26L26 27L27 27L27 26ZM34 26L34 27L35 27L35 28L36 28L36 27L35 27L35 26ZM46 26L46 27L47 27L47 26ZM50 27L50 28L51 28L51 27ZM13 28L13 29L12 29L12 31L11 31L11 34L13 34L13 38L11 38L11 37L12 37L12 35L11 35L11 36L10 36L10 35L8 35L8 36L9 36L9 38L8 38L8 39L7 39L7 40L10 40L10 42L11 42L11 40L10 40L10 38L11 38L11 39L14 39L14 40L13 40L13 41L12 41L12 42L13 42L13 41L19 41L19 42L18 42L18 45L19 45L19 44L20 44L20 45L21 45L21 44L20 44L20 43L19 43L19 42L20 42L20 41L19 41L19 40L17 40L17 39L18 39L18 37L19 37L19 38L20 38L20 37L21 37L21 38L22 38L22 39L23 39L23 38L24 38L24 39L25 39L25 40L27 40L27 41L28 41L28 39L29 39L29 40L30 40L30 39L29 39L29 38L28 38L28 39L25 39L25 38L24 38L24 37L26 37L26 38L27 38L27 37L28 37L28 36L27 36L27 35L29 35L29 37L30 37L30 38L31 38L31 40L33 40L33 39L35 39L35 40L36 40L36 41L37 41L37 42L36 42L36 43L37 43L37 44L36 44L36 45L38 45L38 44L39 44L39 45L40 45L40 44L41 44L41 42L44 42L44 41L46 41L46 40L47 40L47 39L46 39L46 38L47 38L47 37L48 37L48 36L50 36L50 35L49 35L49 33L50 33L50 31L49 31L49 33L48 33L48 35L45 35L45 34L47 34L47 33L46 33L46 32L47 32L47 31L46 31L46 32L45 32L45 31L42 31L42 32L41 32L41 33L39 33L39 32L38 32L38 33L37 33L37 32L36 32L36 33L37 33L37 35L38 35L38 33L39 33L39 35L40 35L40 36L38 36L38 37L39 37L39 38L38 38L38 39L37 39L37 36L36 36L36 35L35 35L35 34L33 34L33 33L34 33L34 32L33 32L33 31L35 31L35 30L34 30L34 29L32 29L32 30L31 30L31 31L30 31L30 32L29 32L29 33L25 33L25 32L24 32L24 33L22 33L22 32L23 32L23 31L22 31L22 32L20 32L20 31L19 31L19 30L15 30L15 34L14 34L14 33L13 33L13 32L14 32L14 31L13 31L13 30L14 30L14 28ZM29 28L29 29L30 29L30 28ZM40 28L40 29L41 29L41 28ZM8 30L8 31L9 31L9 30ZM32 30L32 31L31 31L31 34L29 34L29 35L31 35L31 36L32 36L32 39L33 39L33 36L32 36L32 33L33 33L33 32L32 32L32 31L33 31L33 30ZM12 31L12 32L13 32L13 31ZM16 31L16 32L17 32L17 31ZM26 31L26 32L28 32L28 31ZM42 32L42 33L43 33L43 34L40 34L40 35L44 35L44 36L43 36L43 38L40 38L40 39L41 39L41 40L40 40L40 42L39 42L39 41L38 41L38 42L37 42L37 43L38 43L38 42L39 42L39 43L40 43L40 42L41 42L41 41L44 41L44 40L42 40L42 39L45 39L45 40L46 40L46 39L45 39L45 38L44 38L44 36L45 36L45 37L47 37L47 36L45 36L45 35L44 35L44 34L45 34L45 33L44 33L44 32ZM16 33L16 34L15 34L15 36L14 36L14 37L15 37L15 36L17 36L17 37L16 37L16 39L15 39L15 40L16 40L16 39L17 39L17 37L18 37L18 36L21 36L21 37L23 37L23 36L26 36L26 37L27 37L27 36L26 36L26 35L27 35L27 34L25 34L25 35L24 35L24 34L22 34L22 35L21 35L21 33L20 33L20 35L19 35L19 33ZM16 34L16 35L18 35L18 34ZM34 35L34 36L35 36L35 37L34 37L34 38L35 38L35 39L36 39L36 40L37 40L37 39L36 39L36 36L35 36L35 35ZM0 36L0 37L1 37L1 36ZM40 36L40 37L42 37L42 36ZM29 41L29 42L28 42L28 43L30 43L30 44L31 44L31 43L30 43L30 42L31 42L31 41ZM32 41L32 42L33 42L33 43L32 43L32 44L33 44L33 43L34 43L34 44L35 44L35 42L33 42L33 41ZM52 43L52 46L53 46L53 43ZM43 44L43 46L42 46L42 47L44 47L44 44ZM25 45L25 48L28 48L28 45ZM45 45L45 48L48 48L48 45ZM12 46L12 47L14 47L14 46ZM22 46L22 47L23 47L23 46ZM26 46L26 47L27 47L27 46ZM46 46L46 47L47 47L47 46ZM16 47L16 48L18 48L18 47ZM29 48L29 49L26 49L26 50L25 50L25 51L26 51L26 50L29 50L29 49L30 49L30 48ZM38 48L38 50L39 50L39 48ZM40 48L40 49L41 49L41 50L40 50L40 51L43 51L43 52L44 52L44 51L46 51L46 52L48 52L48 50L49 50L49 49L50 49L50 48L49 48L49 49L47 49L47 50L44 50L44 51L43 51L43 50L42 50L42 49L44 49L44 48ZM34 51L34 52L35 52L35 51ZM0 0L0 7L7 7L7 0ZM1 1L1 6L6 6L6 1ZM2 2L2 5L5 5L5 2ZM46 0L46 7L53 7L53 0ZM47 1L47 6L52 6L52 1ZM48 2L48 5L51 5L51 2ZM0 46L0 53L7 53L7 46ZM1 47L1 52L6 52L6 47ZM2 48L2 51L5 51L5 48Z" fill="#000000"/></g></g></svg>
