<?xml version="1.0" encoding="UTF-8"?>
<svg xmlns="http://www.w3.org/2000/svg" version="1.1" width="300" height="300" viewBox="0 0 300 300"><rect x="0" y="0" width="300" height="300" fill="#ffffff"/><g transform="scale(5.66)"><g transform="translate(0,0)"><path fill-rule="evenodd" d="M8 0L8 1L9 1L9 0ZM10 0L10 2L8 2L8 5L9 5L9 6L8 6L8 7L9 7L9 6L10 6L10 8L8 8L8 9L7 9L7 8L6 8L6 9L5 9L5 10L6 10L6 11L5 11L5 12L4 12L4 11L3 11L3 10L2 10L2 11L1 11L1 9L4 9L4 8L0 8L0 13L1 13L1 12L2 12L2 11L3 11L3 13L2 13L2 14L3 14L3 13L8 13L8 14L10 14L10 18L8 18L8 17L9 17L9 16L6 16L6 15L7 15L7 14L6 14L6 15L5 15L5 14L4 14L4 15L2 15L2 16L4 16L4 17L7 17L7 18L5 18L5 19L4 19L4 18L3 18L3 17L1 17L1 18L0 18L0 19L1 19L1 20L2 20L2 19L1 19L1 18L3 18L3 19L4 19L4 21L1 21L1 22L2 22L2 23L0 23L0 25L2 25L2 26L0 26L0 27L1 27L1 30L3 30L3 31L4 31L4 30L6 30L6 31L5 31L5 33L8 33L8 34L10 34L10 35L11 35L11 34L12 34L12 33L10 33L10 32L11 32L11 31L10 31L10 30L6 30L6 29L10 29L10 28L11 28L11 29L12 29L12 28L11 28L11 27L13 27L13 25L14 25L14 28L13 28L13 29L14 29L14 30L15 30L15 31L13 31L13 30L12 30L12 32L13 32L13 35L12 35L12 38L14 38L14 40L13 40L13 39L12 39L12 40L13 40L13 42L14 42L14 44L13 44L13 45L12 45L12 47L10 47L10 43L12 43L12 41L11 41L11 37L10 37L10 36L9 36L9 37L8 37L8 38L9 38L9 39L7 39L7 38L6 38L6 39L7 39L7 40L6 40L6 41L7 41L7 40L8 40L8 43L9 43L9 44L6 44L6 45L8 45L8 46L9 46L9 47L10 47L10 48L9 48L9 49L8 49L8 53L9 53L9 52L10 52L10 51L9 51L9 50L10 50L10 49L12 49L12 48L13 48L13 50L16 50L16 49L17 49L17 50L19 50L19 51L18 51L18 52L17 52L17 51L16 51L16 52L15 52L15 51L11 51L11 53L12 53L12 52L13 52L13 53L14 53L14 52L15 52L15 53L18 53L18 52L21 52L21 53L22 53L22 52L21 52L21 51L22 51L22 50L23 50L23 53L24 53L24 50L23 50L23 49L22 49L22 48L24 48L24 49L25 49L25 51L28 51L28 52L29 52L29 53L31 53L31 51L32 51L32 53L33 53L33 51L34 51L34 52L35 52L35 53L36 53L36 49L37 49L37 53L40 53L40 52L41 52L41 50L42 50L42 52L44 52L44 53L47 53L47 52L46 52L46 51L47 51L47 50L51 50L51 53L52 53L52 50L53 50L53 48L52 48L52 46L53 46L53 44L52 44L52 43L51 43L51 42L52 42L52 39L53 39L53 36L52 36L52 35L51 35L51 36L49 36L49 35L50 35L50 34L49 34L49 32L52 32L52 31L51 31L51 30L52 30L52 29L51 29L51 30L50 30L50 29L49 29L49 28L50 28L50 27L51 27L51 28L53 28L53 25L52 25L52 24L53 24L53 23L52 23L52 22L53 22L53 21L52 21L52 20L53 20L53 19L51 19L51 18L52 18L52 16L51 16L51 17L48 17L48 19L47 19L47 20L49 20L49 21L48 21L48 22L49 22L49 23L48 23L48 24L47 24L47 22L44 22L44 21L45 21L45 19L46 19L46 18L47 18L47 16L46 16L46 15L45 15L45 13L46 13L46 10L43 10L43 9L42 9L42 7L43 7L43 8L44 8L44 9L46 9L46 8L45 8L45 6L44 6L44 7L43 7L43 3L44 3L44 4L45 4L45 3L44 3L44 1L43 1L43 0L42 0L42 1L41 1L41 2L43 2L43 3L41 3L41 4L40 4L40 0L39 0L39 4L38 4L38 7L37 7L37 3L38 3L38 2L36 2L36 1L34 1L34 0L32 0L32 2L31 2L31 0L30 0L30 1L29 1L29 0L28 0L28 1L26 1L26 0L21 0L21 1L20 1L20 0L19 0L19 2L18 2L18 0L17 0L17 2L18 2L18 5L19 5L19 6L18 6L18 8L19 8L19 6L20 6L20 7L21 7L21 5L22 5L22 8L20 8L20 9L19 9L19 10L20 10L20 11L22 11L22 12L24 12L24 13L25 13L25 14L23 14L23 13L22 13L22 14L23 14L23 17L25 17L25 18L26 18L26 21L27 21L27 23L28 23L28 24L24 24L24 25L22 25L22 24L20 24L20 25L19 25L19 22L18 22L18 21L17 21L17 22L16 22L16 24L15 24L15 23L14 23L14 22L15 22L15 21L16 21L16 19L20 19L20 20L19 20L19 21L21 21L21 22L20 22L20 23L21 23L21 22L23 22L23 23L25 23L25 21L24 21L24 20L22 20L22 18L21 18L21 19L20 19L20 18L19 18L19 17L20 17L20 16L19 16L19 17L18 17L18 16L16 16L16 15L17 15L17 14L16 14L16 13L17 13L17 12L18 12L18 14L19 14L19 15L21 15L21 12L18 12L18 10L16 10L16 12L15 12L15 14L16 14L16 15L15 15L15 16L14 16L14 14L13 14L13 16L12 16L12 15L11 15L11 14L12 14L12 13L14 13L14 12L13 12L13 11L14 11L14 10L12 10L12 7L13 7L13 5L11 5L11 6L10 6L10 5L9 5L9 3L10 3L10 4L11 4L11 1L12 1L12 2L13 2L13 0ZM15 0L15 3L16 3L16 4L15 4L15 5L14 5L14 7L15 7L15 6L16 6L16 7L17 7L17 5L16 5L16 4L17 4L17 3L16 3L16 0ZM37 0L37 1L38 1L38 0ZM23 1L23 2L22 2L22 3L21 3L21 2L19 2L19 5L20 5L20 3L21 3L21 4L23 4L23 7L24 7L24 4L26 4L26 3L27 3L27 4L29 4L29 5L30 5L30 6L29 6L29 10L28 10L28 9L25 9L25 10L22 10L22 9L20 9L20 10L22 10L22 11L24 11L24 12L25 12L25 13L26 13L26 15L25 15L25 17L26 17L26 18L27 18L27 17L28 17L28 19L29 19L29 17L28 17L28 16L30 16L30 14L32 14L32 15L33 15L33 14L34 14L34 16L33 16L33 17L32 17L32 16L31 16L31 17L30 17L30 20L31 20L31 22L32 22L32 21L34 21L34 22L35 22L35 21L37 21L37 22L36 22L36 23L37 23L37 24L38 24L38 25L41 25L41 24L42 24L42 26L43 26L43 23L40 23L40 22L39 22L39 21L40 21L40 19L41 19L41 20L42 20L42 19L43 19L43 20L44 20L44 19L45 19L45 17L46 17L46 16L45 16L45 15L44 15L44 14L43 14L43 13L41 13L41 12L42 12L42 9L41 9L41 10L40 10L40 9L38 9L38 8L39 8L39 7L40 7L40 4L39 4L39 7L38 7L38 8L35 8L35 9L34 9L34 8L33 8L33 7L34 7L34 6L35 6L35 7L36 7L36 5L35 5L35 4L36 4L36 3L34 3L34 4L33 4L33 3L32 3L32 4L33 4L33 5L31 5L31 4L30 4L30 3L27 3L27 2L26 2L26 1L25 1L25 2L26 2L26 3L23 3L23 2L24 2L24 1ZM28 1L28 2L29 2L29 1ZM33 1L33 2L34 2L34 1ZM12 3L12 4L14 4L14 3ZM41 4L41 7L42 7L42 4ZM25 5L25 8L28 8L28 5ZM33 5L33 6L32 6L32 7L33 7L33 6L34 6L34 5ZM11 6L11 7L12 7L12 6ZM26 6L26 7L27 7L27 6ZM30 6L30 8L31 8L31 9L30 9L30 10L29 10L29 13L28 13L28 11L27 11L27 12L26 12L26 10L25 10L25 12L26 12L26 13L28 13L28 14L27 14L27 15L29 15L29 13L30 13L30 12L31 12L31 13L32 13L32 12L33 12L33 11L31 11L31 9L32 9L32 8L31 8L31 6ZM14 8L14 9L16 9L16 8ZM23 8L23 9L24 9L24 8ZM48 8L48 9L47 9L47 10L48 10L48 13L47 13L47 14L49 14L49 15L48 15L48 16L50 16L50 14L51 14L51 13L52 13L52 15L53 15L53 13L52 13L52 12L50 12L50 11L49 11L49 10L48 10L48 9L51 9L51 11L52 11L52 10L53 10L53 8L52 8L52 9L51 9L51 8ZM6 9L6 10L7 10L7 9ZM8 9L8 11L6 11L6 12L8 12L8 13L9 13L9 12L12 12L12 10L11 10L11 9L10 9L10 10L9 10L9 9ZM33 9L33 10L34 10L34 11L35 11L35 12L36 12L36 14L37 14L37 12L38 12L38 15L37 15L37 17L39 17L39 18L38 18L38 19L36 19L36 20L39 20L39 18L41 18L41 19L42 19L42 18L41 18L41 17L43 17L43 18L44 18L44 16L43 16L43 14L42 14L42 16L41 16L41 13L40 13L40 11L39 11L39 12L38 12L38 11L35 11L35 10L34 10L34 9ZM37 9L37 10L38 10L38 9ZM10 10L10 11L11 11L11 10ZM10 13L10 14L11 14L11 13ZM19 13L19 14L20 14L20 13ZM39 13L39 16L40 16L40 17L41 17L41 16L40 16L40 13ZM4 15L4 16L5 16L5 15ZM35 15L35 16L34 16L34 17L33 17L33 19L34 19L34 20L35 20L35 17L36 17L36 15ZM13 16L13 17L12 17L12 19L11 19L11 20L9 20L9 19L5 19L5 20L7 20L7 21L5 21L5 22L4 22L4 23L2 23L2 25L3 25L3 24L5 24L5 22L7 22L7 23L6 23L6 24L9 24L9 26L10 26L10 27L9 27L9 28L10 28L10 27L11 27L11 25L10 25L10 24L12 24L12 25L13 25L13 24L12 24L12 23L8 23L8 22L7 22L7 21L9 21L9 22L14 22L14 21L15 21L15 20L13 20L13 18L14 18L14 19L16 19L16 16L15 16L15 17L14 17L14 16ZM31 17L31 20L32 20L32 17ZM49 18L49 20L50 20L50 18ZM27 20L27 21L28 21L28 20ZM50 21L50 22L51 22L51 21ZM28 22L28 23L29 23L29 24L31 24L31 25L29 25L29 26L32 26L32 27L30 27L30 28L29 28L29 29L30 29L30 30L29 30L29 31L28 31L28 30L27 30L27 31L26 31L26 30L25 30L25 32L23 32L23 33L25 33L25 34L24 34L24 36L23 36L23 35L22 35L22 36L21 36L21 34L22 34L22 31L20 31L20 30L21 30L21 26L20 26L20 29L19 29L19 28L18 28L18 27L19 27L19 26L17 26L17 25L18 25L18 23L17 23L17 25L16 25L16 26L15 26L15 30L16 30L16 31L18 31L18 30L16 30L16 27L17 27L17 28L18 28L18 29L19 29L19 31L20 31L20 32L18 32L18 35L17 35L17 32L14 32L14 34L16 34L16 35L14 35L14 37L15 37L15 39L16 39L16 40L14 40L14 42L15 42L15 41L16 41L16 40L17 40L17 42L16 42L16 44L15 44L15 45L14 45L14 46L15 46L15 48L14 48L14 49L15 49L15 48L16 48L16 47L18 47L18 48L19 48L19 50L20 50L20 51L21 51L21 50L22 50L22 49L21 49L21 50L20 50L20 47L21 47L21 48L22 48L22 47L24 47L24 44L23 44L23 43L25 43L25 44L27 44L27 42L29 42L29 43L28 43L28 44L30 44L30 45L29 45L29 46L30 46L30 45L31 45L31 47L32 47L32 45L34 45L34 46L33 46L33 47L34 47L34 48L29 48L29 49L27 49L27 50L31 50L31 49L32 49L32 51L33 51L33 49L34 49L34 51L35 51L35 49L36 49L36 47L39 47L39 48L38 48L38 49L39 49L39 52L40 52L40 49L41 49L41 48L42 48L42 50L43 50L43 51L44 51L44 52L45 52L45 50L46 50L46 49L44 49L44 46L43 46L43 47L41 47L41 45L43 45L43 42L44 42L44 40L43 40L43 39L42 39L42 38L43 38L43 37L45 37L45 44L46 44L46 43L47 43L47 44L49 44L49 43L50 43L50 42L51 42L51 39L50 39L50 38L51 38L51 37L50 37L50 38L49 38L49 36L48 36L48 35L49 35L49 34L47 34L47 33L46 33L46 36L45 36L45 33L44 33L44 34L43 34L43 36L42 36L42 37L41 37L41 35L42 35L42 33L43 33L43 31L44 31L44 32L45 32L45 30L46 30L46 31L50 31L50 30L49 30L49 29L47 29L47 30L46 30L46 29L45 29L45 30L43 30L43 29L44 29L44 27L42 27L42 28L43 28L43 29L42 29L42 30L43 30L43 31L41 31L41 28L40 28L40 26L39 26L39 29L38 29L38 30L40 30L40 31L39 31L39 32L40 32L40 31L41 31L41 32L42 32L42 33L41 33L41 34L39 34L39 33L38 33L38 34L39 34L39 35L38 35L38 37L36 37L36 35L35 35L35 36L34 36L34 34L37 34L37 32L38 32L38 31L37 31L37 32L35 32L35 31L36 31L36 30L37 30L37 27L38 27L38 26L35 26L35 25L36 25L36 24L35 24L35 23L33 23L33 24L32 24L32 23L29 23L29 22ZM39 23L39 24L40 24L40 23ZM44 23L44 24L45 24L45 23ZM49 23L49 24L52 24L52 23ZM5 25L5 28L8 28L8 25ZM25 25L25 28L28 28L28 25ZM33 25L33 27L32 27L32 28L30 28L30 29L33 29L33 28L34 28L34 31L33 31L33 32L34 32L34 33L35 33L35 32L34 32L34 31L35 31L35 29L36 29L36 27L35 27L35 28L34 28L34 25ZM45 25L45 28L48 28L48 25ZM49 25L49 26L50 26L50 25ZM51 25L51 26L52 26L52 25ZM2 26L2 27L4 27L4 26ZM6 26L6 27L7 27L7 26ZM22 26L22 29L23 29L23 26ZM26 26L26 27L27 27L27 26ZM46 26L46 27L47 27L47 26ZM2 28L2 29L3 29L3 30L4 30L4 28ZM23 30L23 31L24 31L24 30ZM31 30L31 31L32 31L32 30ZM1 31L1 32L0 32L0 36L1 36L1 37L0 37L0 39L1 39L1 40L2 40L2 41L0 41L0 43L1 43L1 44L3 44L3 45L4 45L4 44L3 44L3 43L7 43L7 42L5 42L5 41L4 41L4 40L2 40L2 39L1 39L1 38L2 38L2 37L3 37L3 38L4 38L4 39L5 39L5 38L4 38L4 36L1 36L1 32L2 32L2 31ZM6 31L6 32L8 32L8 33L9 33L9 32L10 32L10 31L9 31L9 32L8 32L8 31ZM3 32L3 33L2 33L2 34L4 34L4 32ZM20 32L20 33L19 33L19 36L18 36L18 37L17 37L17 36L15 36L15 37L17 37L17 38L21 38L21 39L22 39L22 40L23 40L23 42L24 42L24 40L25 40L25 39L26 39L26 42L27 42L27 40L28 40L28 41L29 41L29 42L30 42L30 41L29 41L29 40L28 40L28 38L29 38L29 37L28 37L28 38L27 38L27 39L26 39L26 36L30 36L30 37L32 37L32 36L33 36L33 35L31 35L31 33L32 33L32 34L33 34L33 33L32 33L32 32L31 32L31 33L30 33L30 32L29 32L29 34L27 34L27 33L28 33L28 32L27 32L27 33L26 33L26 32L25 32L25 33L26 33L26 36L25 36L25 37L24 37L24 40L23 40L23 37L22 37L22 38L21 38L21 36L20 36L20 33L21 33L21 32ZM51 33L51 34L53 34L53 33ZM6 34L6 35L5 35L5 37L7 37L7 36L8 36L8 35L7 35L7 34ZM6 35L6 36L7 36L7 35ZM30 35L30 36L31 36L31 35ZM19 36L19 37L20 37L20 36ZM39 36L39 37L38 37L38 39L37 39L37 38L36 38L36 39L35 39L35 41L34 41L34 40L33 40L33 39L32 39L32 38L30 38L30 40L32 40L32 41L31 41L31 42L33 42L33 43L35 43L35 41L36 41L36 44L37 44L37 45L39 45L39 47L40 47L40 45L41 45L41 43L42 43L42 42L41 42L41 41L42 41L42 40L41 40L41 38L40 38L40 36ZM47 36L47 37L46 37L46 40L47 40L47 42L48 42L48 43L49 43L49 42L50 42L50 41L49 41L49 40L50 40L50 39L49 39L49 38L48 38L48 36ZM47 38L47 40L48 40L48 38ZM9 39L9 40L10 40L10 39ZM18 39L18 40L19 40L19 41L18 41L18 42L17 42L17 44L19 44L19 43L18 43L18 42L19 42L19 41L20 41L20 39ZM36 39L36 41L37 41L37 44L38 44L38 42L39 42L39 44L40 44L40 41L41 41L41 40L38 40L38 41L37 41L37 39ZM2 41L2 43L3 43L3 41ZM21 41L21 42L20 42L20 45L19 45L19 47L20 47L20 45L21 45L21 47L22 47L22 46L23 46L23 44L22 44L22 41ZM48 41L48 42L49 42L49 41ZM9 42L9 43L10 43L10 42ZM31 43L31 44L32 44L32 43ZM51 44L51 46L52 46L52 44ZM15 45L15 46L16 46L16 45ZM17 45L17 46L18 46L18 45ZM25 45L25 48L28 48L28 45ZM45 45L45 48L48 48L48 45ZM49 45L49 46L50 46L50 45ZM26 46L26 47L27 47L27 46ZM34 46L34 47L36 47L36 46ZM46 46L46 47L47 47L47 46ZM49 47L49 49L50 49L50 48L51 48L51 50L52 50L52 48L51 48L51 47ZM39 48L39 49L40 49L40 48ZM29 51L29 52L30 52L30 51ZM48 51L48 52L50 52L50 51ZM25 52L25 53L27 53L27 52ZM0 0L0 7L7 7L7 0ZM1 1L1 6L6 6L6 1ZM2 2L2 5L5 5L5 2ZM46 0L46 7L53 7L53 0ZM47 1L47 6L52 6L52 1ZM48 2L48 5L51 5L51 2ZM0 46L0 53L7 53L7 46ZM1 47L1 52L6 52L6 47ZM2 48L2 51L5 51L5 48Z" fill="#000000"/></g></g></svg>
