<?xml version="1.0" encoding="UTF-8"?>
<svg xmlns="http://www.w3.org/2000/svg" version="1.1" width="300" height="300" viewBox="0 0 300 300"><rect x="0" y="0" width="300" height="300" fill="#ffffff"/><g transform="scale(5.66)"><g transform="translate(0,0)"><path fill-rule="evenodd" d="M8 0L8 4L9 4L9 3L10 3L10 5L11 5L11 6L10 6L10 8L9 8L9 10L8 10L8 9L7 9L7 8L4 8L4 9L2 9L2 8L0 8L0 15L2 15L2 16L0 16L0 18L1 18L1 19L0 19L0 21L1 21L1 22L0 22L0 25L1 25L1 22L2 22L2 23L3 23L3 24L4 24L4 26L3 26L3 27L4 27L4 29L3 29L3 28L1 28L1 27L0 27L0 32L1 32L1 31L2 31L2 30L4 30L4 31L7 31L7 30L5 30L5 29L9 29L9 30L8 30L8 32L5 32L5 34L6 34L6 35L7 35L7 36L6 36L6 37L7 37L7 36L9 36L9 35L10 35L10 37L12 37L12 39L11 39L11 38L10 38L10 39L8 39L8 38L9 38L9 37L8 37L8 38L6 38L6 39L5 39L5 37L3 37L3 36L5 36L5 35L4 35L4 32L2 32L2 34L3 34L3 36L1 36L1 38L0 38L0 40L3 40L3 39L1 39L1 38L2 38L2 37L3 37L3 38L4 38L4 40L5 40L5 41L4 41L4 42L3 42L3 43L2 43L2 42L0 42L0 43L1 43L1 44L3 44L3 45L4 45L4 44L3 44L3 43L8 43L8 44L6 44L6 45L8 45L8 46L9 46L9 47L8 47L8 49L9 49L9 51L8 51L8 53L11 53L11 52L12 52L12 50L13 50L13 51L14 51L14 50L16 50L16 51L15 51L15 52L14 52L14 53L15 53L15 52L16 52L16 53L17 53L17 52L18 52L18 53L19 53L19 52L18 52L18 50L16 50L16 49L19 49L19 48L20 48L20 46L21 46L21 49L20 49L20 50L19 50L19 51L21 51L21 50L23 50L23 52L24 52L24 53L27 53L27 52L25 52L25 51L24 51L24 50L25 50L25 49L26 49L26 51L28 51L28 49L29 49L29 52L32 52L32 53L33 53L33 52L34 52L34 53L35 53L35 51L31 51L31 49L33 49L33 50L34 50L34 48L33 48L33 47L34 47L34 46L33 46L33 47L32 47L32 48L30 48L30 49L29 49L29 44L30 44L30 43L31 43L31 42L32 42L32 41L33 41L33 43L32 43L32 45L30 45L30 47L31 47L31 46L32 46L32 45L33 45L33 43L34 43L34 40L35 40L35 39L36 39L36 41L37 41L37 40L40 40L40 39L41 39L41 40L42 40L42 43L41 43L41 46L40 46L40 45L39 45L39 44L40 44L40 43L39 43L39 41L38 41L38 43L36 43L36 42L35 42L35 44L36 44L36 45L37 45L37 47L35 47L35 48L36 48L36 50L37 50L37 47L38 47L38 51L39 51L39 53L40 53L40 51L44 51L44 52L45 52L45 53L50 53L50 51L49 51L49 52L48 52L48 50L47 50L47 49L50 49L50 50L52 50L52 48L53 48L53 44L51 44L51 46L52 46L52 47L51 47L51 49L50 49L50 42L52 42L52 43L53 43L53 36L52 36L52 37L51 37L51 38L49 38L49 37L50 37L50 35L53 35L53 33L52 33L52 34L51 34L51 32L53 32L53 29L52 29L52 31L51 31L51 29L49 29L49 28L50 28L50 27L51 27L51 28L52 28L52 27L53 27L53 25L52 25L52 24L53 24L53 20L51 20L51 21L50 21L50 19L51 19L51 18L52 18L52 19L53 19L53 17L50 17L50 15L49 15L49 13L50 13L50 14L51 14L51 16L52 16L52 15L53 15L53 13L50 13L50 12L49 12L49 10L50 10L50 11L51 11L51 12L52 12L52 11L53 11L53 8L49 8L49 10L48 10L48 8L47 8L47 10L46 10L46 9L42 9L42 7L43 7L43 3L44 3L44 4L45 4L45 3L44 3L44 1L43 1L43 0L42 0L42 1L41 1L41 3L38 3L38 4L36 4L36 3L37 3L37 2L38 2L38 1L39 1L39 2L40 2L40 1L39 1L39 0L38 0L38 1L36 1L36 3L35 3L35 1L34 1L34 3L33 3L33 4L32 4L32 2L30 2L30 4L29 4L29 3L26 3L26 4L25 4L25 3L24 3L24 2L22 2L22 1L25 1L25 2L27 2L27 1L25 1L25 0L19 0L19 1L18 1L18 0L17 0L17 1L18 1L18 2L16 2L16 1L15 1L15 0L14 0L14 1L15 1L15 6L14 6L14 8L16 8L16 7L17 7L17 8L18 8L18 9L19 9L19 11L22 11L22 12L21 12L21 13L20 13L20 12L18 12L18 10L17 10L17 9L13 9L13 8L12 8L12 10L11 10L11 9L10 9L10 8L11 8L11 6L12 6L12 7L13 7L13 6L12 6L12 5L11 5L11 4L13 4L13 5L14 5L14 2L11 2L11 1L10 1L10 2L9 2L9 0ZM12 0L12 1L13 1L13 0ZM28 0L28 1L29 1L29 0ZM30 0L30 1L33 1L33 0ZM20 1L20 2L19 2L19 3L18 3L18 5L17 5L17 3L16 3L16 6L15 6L15 7L16 7L16 6L17 6L17 7L18 7L18 6L19 6L19 8L20 8L20 9L21 9L21 10L22 10L22 9L23 9L23 8L24 8L24 5L23 5L23 8L22 8L22 3L21 3L21 1ZM10 2L10 3L11 3L11 2ZM42 2L42 3L41 3L41 4L39 4L39 5L37 5L37 7L38 7L38 6L39 6L39 8L37 8L37 9L36 9L36 8L35 8L35 7L36 7L36 5L35 5L35 4L33 4L33 5L29 5L29 7L30 7L30 8L29 8L29 9L31 9L31 8L32 8L32 6L33 6L33 9L32 9L32 10L31 10L31 11L30 11L30 10L29 10L29 11L30 11L30 13L31 13L31 14L32 14L32 15L30 15L30 16L32 16L32 15L35 15L35 17L34 17L34 16L33 16L33 17L32 17L32 19L31 19L31 20L30 20L30 18L29 18L29 20L30 20L30 21L32 21L32 22L31 22L31 23L29 23L29 24L31 24L31 23L34 23L34 26L33 26L33 25L32 25L32 26L31 26L31 27L29 27L29 29L30 29L30 28L31 28L31 29L32 29L32 31L30 31L30 32L32 32L32 31L33 31L33 33L32 33L32 34L31 34L31 35L29 35L29 34L28 34L28 33L29 33L29 32L28 32L28 33L25 33L25 34L24 34L24 35L25 35L25 37L24 37L24 39L26 39L26 40L27 40L27 41L25 41L25 42L24 42L24 43L23 43L23 42L22 42L22 41L24 41L24 40L20 40L20 41L16 41L16 40L17 40L17 39L18 39L18 38L19 38L19 39L20 39L20 37L21 37L21 39L23 39L23 38L22 38L22 37L23 37L23 36L22 36L22 35L21 35L21 34L22 34L22 33L24 33L24 32L23 32L23 31L22 31L22 29L24 29L24 30L25 30L25 32L26 32L26 31L29 31L29 30L28 30L28 29L24 29L24 28L23 28L23 26L20 26L20 25L24 25L24 24L25 24L25 23L24 23L24 22L23 22L23 21L24 21L24 20L26 20L26 21L27 21L27 23L26 23L26 24L28 24L28 19L26 19L26 18L27 18L27 16L28 16L28 17L29 17L29 16L28 16L28 14L27 14L27 15L26 15L26 14L25 14L25 13L28 13L28 11L26 11L26 10L25 10L25 9L24 9L24 10L25 10L25 11L23 11L23 12L22 12L22 13L21 13L21 14L22 14L22 13L23 13L23 12L24 12L24 14L25 14L25 15L22 15L22 16L20 16L20 14L19 14L19 13L18 13L18 12L17 12L17 10L16 10L16 11L15 11L15 10L14 10L14 12L13 12L13 13L11 13L11 11L10 11L10 10L9 10L9 11L8 11L8 12L7 12L7 11L6 11L6 12L7 12L7 13L6 13L6 14L8 14L8 13L10 13L10 14L11 14L11 15L9 15L9 16L8 16L8 15L4 15L4 13L5 13L5 10L7 10L7 9L4 9L4 13L3 13L3 11L1 11L1 14L2 14L2 13L3 13L3 15L4 15L4 16L3 16L3 17L2 17L2 18L4 18L4 20L3 20L3 19L2 19L2 20L3 20L3 22L4 22L4 20L7 20L7 21L6 21L6 22L5 22L5 23L4 23L4 24L7 24L7 23L8 23L8 22L9 22L9 25L11 25L11 26L9 26L9 27L11 27L11 28L12 28L12 30L11 30L11 29L10 29L10 28L9 28L9 29L10 29L10 30L11 30L11 31L9 31L9 33L6 33L6 34L7 34L7 35L9 35L9 34L11 34L11 33L10 33L10 32L12 32L12 33L13 33L13 34L12 34L12 35L11 35L11 36L12 36L12 35L13 35L13 34L14 34L14 33L13 33L13 31L14 31L14 32L15 32L15 37L14 37L14 36L13 36L13 38L17 38L17 39L15 39L15 40L14 40L14 39L12 39L12 41L11 41L11 40L9 40L9 41L10 41L10 44L8 44L8 45L10 45L10 44L13 44L13 47L14 47L14 45L15 45L15 46L16 46L16 47L18 47L18 48L19 48L19 46L20 46L20 45L21 45L21 46L22 46L22 45L24 45L24 44L25 44L25 42L26 42L26 44L28 44L28 43L30 43L30 42L29 42L29 41L31 41L31 40L30 40L30 39L29 39L29 38L30 38L30 37L29 37L29 36L31 36L31 38L32 38L32 39L33 39L33 40L34 40L34 39L35 39L35 38L36 38L36 39L38 39L38 38L36 38L36 35L35 35L35 34L38 34L38 35L37 35L37 36L38 36L38 37L39 37L39 38L40 38L40 37L42 37L42 36L43 36L43 35L44 35L44 38L43 38L43 39L42 39L42 40L43 40L43 39L45 39L45 40L44 40L44 41L43 41L43 43L42 43L42 44L43 44L43 43L46 43L46 44L47 44L47 43L49 43L49 42L50 42L50 41L52 41L52 38L51 38L51 39L50 39L50 41L49 41L49 39L48 39L48 41L49 41L49 42L47 42L47 39L45 39L45 38L46 38L46 37L47 37L47 38L48 38L48 37L49 37L49 35L50 35L50 34L48 34L48 33L50 33L50 32L51 32L51 31L50 31L50 30L49 30L49 31L50 31L50 32L47 32L47 31L45 31L45 30L48 30L48 29L43 29L43 28L44 28L44 27L43 27L43 28L42 28L42 25L41 25L41 24L46 24L46 23L47 23L47 22L48 22L48 23L49 23L49 22L50 22L50 24L49 24L49 25L51 25L51 27L52 27L52 25L51 25L51 24L52 24L52 23L51 23L51 22L52 22L52 21L51 21L51 22L50 22L50 21L48 21L48 20L46 20L46 19L45 19L45 18L44 18L44 20L42 20L42 19L40 19L40 18L41 18L41 17L42 17L42 16L43 16L43 17L46 17L46 18L48 18L48 19L50 19L50 18L49 18L49 17L46 17L46 16L45 16L45 15L48 15L48 16L49 16L49 15L48 15L48 12L47 12L47 13L46 13L46 12L45 12L45 11L46 11L46 10L44 10L44 11L43 11L43 12L42 12L42 9L41 9L41 7L42 7L42 5L41 5L41 4L42 4L42 3L43 3L43 2ZM19 3L19 6L20 6L20 7L21 7L21 6L20 6L20 5L21 5L21 3ZM23 3L23 4L24 4L24 3ZM8 5L8 7L9 7L9 5ZM25 5L25 8L28 8L28 5ZM33 5L33 6L34 6L34 7L35 7L35 5ZM26 6L26 7L27 7L27 6ZM30 6L30 7L31 7L31 6ZM40 6L40 7L41 7L41 6ZM44 6L44 8L45 8L45 6ZM39 8L39 9L38 9L38 11L36 11L36 9L35 9L35 11L36 11L36 13L37 13L37 14L35 14L35 15L36 15L36 18L37 18L37 16L38 16L38 19L36 19L36 21L37 21L37 23L36 23L36 25L37 25L37 24L38 24L38 26L37 26L37 27L36 27L36 26L35 26L35 27L34 27L34 28L33 28L33 27L31 27L31 28L32 28L32 29L35 29L35 31L34 31L34 30L33 30L33 31L34 31L34 32L36 32L36 33L38 33L38 34L39 34L39 35L41 35L41 33L40 33L40 30L41 30L41 31L43 31L43 32L42 32L42 35L43 35L43 34L44 34L44 35L45 35L45 37L46 37L46 35L48 35L48 34L47 34L47 33L46 33L46 35L45 35L45 33L44 33L44 32L45 32L45 31L43 31L43 29L42 29L42 28L41 28L41 29L40 29L40 30L39 30L39 28L40 28L40 27L41 27L41 25L40 25L40 24L38 24L38 23L41 23L41 22L43 22L43 23L45 23L45 22L46 22L46 21L44 21L44 22L43 22L43 21L40 21L40 22L39 22L39 18L40 18L40 16L39 16L39 15L43 15L43 16L44 16L44 15L43 15L43 13L44 13L44 14L46 14L46 13L44 13L44 12L43 12L43 13L42 13L42 12L41 12L41 13L40 13L40 14L39 14L39 12L38 12L38 11L41 11L41 9L40 9L40 8ZM1 9L1 10L2 10L2 9ZM27 9L27 10L28 10L28 9ZM50 9L50 10L51 10L51 11L52 11L52 9ZM33 10L33 11L32 11L32 14L33 14L33 12L34 12L34 13L35 13L35 12L34 12L34 10ZM47 10L47 11L48 11L48 10ZM14 12L14 13L13 13L13 14L12 14L12 15L11 15L11 17L12 17L12 18L11 18L11 19L10 19L10 18L8 18L8 19L7 19L7 18L6 18L6 17L7 17L7 16L5 16L5 19L7 19L7 20L9 20L9 22L11 22L11 23L10 23L10 24L11 24L11 23L12 23L12 22L13 22L13 23L14 23L14 24L15 24L15 25L13 25L13 24L12 24L12 26L11 26L11 27L12 27L12 28L13 28L13 27L14 27L14 26L15 26L15 28L14 28L14 30L15 30L15 32L16 32L16 33L19 33L19 32L20 32L20 31L19 31L19 32L17 32L17 31L16 31L16 29L17 29L17 28L18 28L18 29L19 29L19 30L21 30L21 29L22 29L22 28L21 28L21 29L20 29L20 27L19 27L19 28L18 28L18 26L17 26L17 27L16 27L16 25L19 25L19 24L18 24L18 21L19 21L19 22L20 22L20 23L21 23L21 24L22 24L22 20L23 20L23 19L21 19L21 21L19 21L19 20L20 20L20 18L26 18L26 15L25 15L25 16L24 16L24 17L20 17L20 18L19 18L19 20L18 20L18 21L17 21L17 20L16 20L16 21L15 21L15 16L17 16L17 18L16 18L16 19L17 19L17 18L18 18L18 17L19 17L19 15L18 15L18 13L17 13L17 12ZM37 12L37 13L38 13L38 12ZM14 13L14 14L13 14L13 15L12 15L12 16L13 16L13 15L14 15L14 16L15 16L15 15L16 15L16 14L17 14L17 13L16 13L16 14L15 14L15 13ZM37 14L37 15L38 15L38 14ZM13 17L13 18L14 18L14 17ZM33 17L33 19L32 19L32 21L33 21L33 20L34 20L34 21L35 21L35 19L34 19L34 17ZM9 19L9 20L10 20L10 21L11 21L11 20L10 20L10 19ZM13 19L13 20L12 20L12 21L13 21L13 22L15 22L15 21L14 21L14 19ZM37 20L37 21L38 21L38 20ZM16 21L16 22L17 22L17 21ZM6 22L6 23L7 23L7 22ZM5 25L5 28L8 28L8 25ZM25 25L25 28L28 28L28 25ZM43 25L43 26L44 26L44 25ZM45 25L45 28L48 28L48 25ZM6 26L6 27L7 27L7 26ZM26 26L26 27L27 27L27 26ZM46 26L46 27L47 27L47 26ZM35 27L35 29L36 29L36 27ZM37 27L37 29L38 29L38 28L39 28L39 27ZM36 30L36 31L37 31L37 32L38 32L38 33L39 33L39 34L40 34L40 33L39 33L39 31L37 31L37 30ZM0 33L0 34L1 34L1 33ZM20 33L20 34L18 34L18 35L16 35L16 37L17 37L17 38L18 38L18 37L19 37L19 35L20 35L20 34L21 34L21 33ZM33 33L33 34L32 34L32 38L33 38L33 39L34 39L34 38L33 38L33 36L34 36L34 37L35 37L35 35L34 35L34 33ZM27 34L27 35L26 35L26 37L25 37L25 38L26 38L26 37L27 37L27 38L28 38L28 37L27 37L27 35L28 35L28 36L29 36L29 35L28 35L28 34ZM17 36L17 37L18 37L18 36ZM21 36L21 37L22 37L22 36ZM47 36L47 37L48 37L48 36ZM6 39L6 40L7 40L7 41L5 41L5 42L8 42L8 40L7 40L7 39ZM27 39L27 40L29 40L29 39ZM13 41L13 42L14 42L14 43L13 43L13 44L15 44L15 43L16 43L16 41ZM20 41L20 42L21 42L21 41ZM27 41L27 42L28 42L28 41ZM44 41L44 42L46 42L46 43L47 43L47 42L46 42L46 41ZM17 42L17 44L16 44L16 45L17 45L17 46L18 46L18 45L20 45L20 43L19 43L19 44L18 44L18 42ZM22 43L22 44L21 44L21 45L22 45L22 44L23 44L23 43ZM17 44L17 45L18 45L18 44ZM37 44L37 45L38 45L38 44ZM25 45L25 48L28 48L28 45ZM45 45L45 48L48 48L48 45ZM10 46L10 47L11 47L11 48L9 48L9 49L11 49L11 50L10 50L10 52L11 52L11 50L12 50L12 46ZM23 46L23 47L22 47L22 49L24 49L24 46ZM26 46L26 47L27 47L27 46ZM39 46L39 47L40 47L40 48L39 48L39 50L40 50L40 49L41 49L41 50L42 50L42 49L41 49L41 47L42 47L42 48L43 48L43 47L44 47L44 46L43 46L43 47L42 47L42 46L41 46L41 47L40 47L40 46ZM46 46L46 47L47 47L47 46ZM14 48L14 49L13 49L13 50L14 50L14 49L16 49L16 48ZM43 49L43 50L44 50L44 51L46 51L46 49ZM16 51L16 52L17 52L17 51ZM36 51L36 53L38 53L38 52L37 52L37 51ZM51 51L51 53L52 53L52 52L53 52L53 51ZM21 52L21 53L22 53L22 52ZM42 52L42 53L43 53L43 52ZM0 0L0 7L7 7L7 0ZM1 1L1 6L6 6L6 1ZM2 2L2 5L5 5L5 2ZM46 0L46 7L53 7L53 0ZM47 1L47 6L52 6L52 1ZM48 2L48 5L51 5L51 2ZM0 46L0 53L7 53L7 46ZM1 47L1 52L6 52L6 47ZM2 48L2 51L5 51L5 48Z" fill="#000000"/></g></g></svg>
