<?xml version="1.0" encoding="UTF-8"?>
<svg xmlns="http://www.w3.org/2000/svg" version="1.1" width="300" height="300" viewBox="0 0 300 300"><rect x="0" y="0" width="300" height="300" fill="#ffffff"/><g transform="scale(5.66)"><g transform="translate(0,0)"><path fill-rule="evenodd" d="M8 0L8 1L10 1L10 0ZM14 0L14 2L13 2L13 4L12 4L12 7L11 7L11 5L10 5L10 3L12 3L12 2L10 2L10 3L9 3L9 2L8 2L8 5L10 5L10 7L9 7L9 6L8 6L8 7L9 7L9 8L8 8L8 9L7 9L7 8L6 8L6 9L5 9L5 10L4 10L4 11L3 11L3 9L4 9L4 8L0 8L0 10L1 10L1 11L0 11L0 13L2 13L2 15L3 15L3 16L1 16L1 14L0 14L0 16L1 16L1 17L0 17L0 23L2 23L2 24L1 24L1 25L3 25L3 26L4 26L4 28L2 28L2 29L1 29L1 28L0 28L0 31L1 31L1 30L3 30L3 29L5 29L5 30L4 30L4 31L3 31L3 33L2 33L2 32L0 32L0 37L1 37L1 35L2 35L2 36L3 36L3 38L0 38L0 39L3 39L3 38L4 38L4 39L5 39L5 40L6 40L6 41L5 41L5 42L3 42L3 41L4 41L4 40L3 40L3 41L2 41L2 42L1 42L1 41L0 41L0 43L1 43L1 44L3 44L3 45L4 45L4 44L3 44L3 43L7 43L7 44L6 44L6 45L8 45L8 46L9 46L9 45L8 45L8 44L9 44L9 42L10 42L10 44L13 44L13 45L14 45L14 46L12 46L12 47L11 47L11 45L10 45L10 47L9 47L9 48L10 48L10 49L8 49L8 53L9 53L9 51L10 51L10 52L12 52L12 51L13 51L13 52L14 52L14 51L15 51L15 52L16 52L16 53L18 53L18 52L20 52L20 51L21 51L21 50L22 50L22 51L23 51L23 53L24 53L24 51L23 51L23 49L22 49L22 48L21 48L21 46L22 46L22 47L23 47L23 48L24 48L24 50L25 50L25 53L28 53L28 52L29 52L29 53L30 53L30 52L31 52L31 51L32 51L32 53L33 53L33 52L34 52L34 53L36 53L36 49L37 49L37 51L39 51L39 52L37 52L37 53L40 53L40 52L42 52L42 53L47 53L47 52L46 52L46 51L47 51L47 50L49 50L49 47L52 47L52 46L53 46L53 43L51 43L51 42L52 42L52 39L53 39L53 38L52 38L52 37L53 37L53 36L52 36L52 35L51 35L51 36L50 36L50 35L49 35L49 36L50 36L50 37L49 37L49 38L48 38L48 35L47 35L47 37L46 37L46 40L47 40L47 42L48 42L48 41L49 41L49 42L50 42L50 43L49 43L49 44L48 44L48 43L45 43L45 42L44 42L44 43L42 43L42 42L41 42L41 41L40 41L40 44L39 44L39 47L38 47L38 46L37 46L37 47L36 47L36 46L34 46L34 45L35 45L35 44L38 44L38 43L39 43L39 42L38 42L38 43L37 43L37 41L38 41L38 40L41 40L41 38L40 38L40 37L38 37L38 36L37 36L37 35L39 35L39 36L40 36L40 35L39 35L39 34L41 34L41 31L40 31L40 32L39 32L39 30L38 30L38 29L36 29L36 27L35 27L35 29L34 29L34 28L33 28L33 27L34 27L34 25L33 25L33 27L32 27L32 26L29 26L29 25L31 25L31 24L29 24L29 23L28 23L28 22L31 22L31 21L27 21L27 19L28 19L28 20L29 20L29 19L30 19L30 20L31 20L31 19L32 19L32 17L33 17L33 21L32 21L32 24L33 24L33 23L35 23L35 24L36 24L36 25L35 25L35 26L38 26L38 27L39 27L39 29L40 29L40 30L42 30L42 29L40 29L40 28L41 28L41 27L44 27L44 28L43 28L43 30L45 30L45 32L44 32L44 31L43 31L43 32L42 32L42 35L41 35L41 37L42 37L42 36L43 36L43 33L45 33L45 34L46 34L46 32L48 32L48 33L47 33L47 34L49 34L49 32L51 32L51 33L50 33L50 34L53 34L53 33L52 33L52 32L53 32L53 31L51 31L51 30L52 30L52 29L51 29L51 30L50 30L50 28L49 28L49 27L51 27L51 28L53 28L53 25L52 25L52 26L51 26L51 24L49 24L49 23L52 23L52 24L53 24L53 23L52 23L52 22L53 22L53 21L52 21L52 20L53 20L53 19L50 19L50 18L49 18L49 17L48 17L48 19L47 19L47 21L48 21L48 22L49 22L49 23L48 23L48 24L47 24L47 22L46 22L46 21L45 21L45 19L46 19L46 18L47 18L47 16L46 16L46 15L45 15L45 13L46 13L46 12L47 12L47 13L49 13L49 14L48 14L48 16L50 16L50 14L51 14L51 15L53 15L53 13L52 13L52 12L50 12L50 13L49 13L49 10L48 10L48 9L51 9L51 10L50 10L50 11L52 11L52 10L53 10L53 8L52 8L52 9L51 9L51 8L48 8L48 9L47 9L47 10L48 10L48 11L46 11L46 10L44 10L44 9L46 9L46 8L45 8L45 6L44 6L44 8L43 8L43 9L42 9L42 8L41 8L41 6L40 6L40 7L39 7L39 4L40 4L40 5L41 5L41 4L42 4L42 7L43 7L43 3L44 3L44 4L45 4L45 3L44 3L44 1L43 1L43 0L42 0L42 2L43 2L43 3L41 3L41 4L40 4L40 3L38 3L38 2L36 2L36 1L34 1L34 0L32 0L32 3L31 3L31 4L32 4L32 3L33 3L33 4L34 4L34 3L36 3L36 4L37 4L37 3L38 3L38 7L37 7L37 6L36 6L36 7L35 7L35 6L34 6L34 5L33 5L33 6L32 6L32 7L33 7L33 8L34 8L34 9L33 9L33 10L34 10L34 11L35 11L35 12L33 12L33 11L31 11L31 9L32 9L32 8L31 8L31 5L30 5L30 8L31 8L31 9L30 9L30 10L29 10L29 4L27 4L27 3L29 3L29 2L31 2L31 0L30 0L30 1L29 1L29 0L28 0L28 1L27 1L27 3L26 3L26 1L25 1L25 0L21 0L21 1L20 1L20 0L19 0L19 1L18 1L18 0L17 0L17 1L16 1L16 0ZM37 0L37 1L38 1L38 0ZM39 0L39 2L40 2L40 0ZM22 1L22 2L20 2L20 3L21 3L21 5L22 5L22 4L23 4L23 7L22 7L22 6L21 6L21 8L23 8L23 7L24 7L24 4L25 4L25 1ZM28 1L28 2L29 2L29 1ZM33 1L33 2L34 2L34 1ZM14 2L14 4L13 4L13 5L14 5L14 6L13 6L13 7L12 7L12 8L10 8L10 11L9 11L9 10L8 10L8 11L9 11L9 13L6 13L6 12L7 12L7 11L6 11L6 10L7 10L7 9L6 9L6 10L5 10L5 11L4 11L4 12L3 12L3 11L1 11L1 12L3 12L3 14L5 14L5 15L4 15L4 16L3 16L3 17L1 17L1 18L2 18L2 19L1 19L1 20L2 20L2 21L1 21L1 22L2 22L2 21L3 21L3 20L2 20L2 19L4 19L4 18L5 18L5 19L6 19L6 20L7 20L7 19L6 19L6 18L8 18L8 17L12 17L12 15L14 15L14 16L13 16L13 17L14 17L14 18L12 18L12 20L13 20L13 21L11 21L11 23L10 23L10 22L9 22L9 21L5 21L5 20L4 20L4 22L3 22L3 24L4 24L4 23L5 23L5 24L7 24L7 23L6 23L6 22L8 22L8 23L9 23L9 24L12 24L12 25L10 25L10 26L9 26L9 27L10 27L10 26L12 26L12 27L14 27L14 28L15 28L15 30L12 30L12 29L8 29L8 30L12 30L12 31L10 31L10 33L11 33L11 34L8 34L8 33L9 33L9 32L8 32L8 33L6 33L6 34L7 34L7 35L6 35L6 36L7 36L7 37L5 37L5 36L4 36L4 35L5 35L5 33L3 33L3 34L4 34L4 35L3 35L3 36L4 36L4 37L5 37L5 38L7 38L7 37L8 37L8 35L11 35L11 36L12 36L12 37L9 37L9 38L8 38L8 39L6 39L6 40L8 40L8 39L9 39L9 40L10 40L10 42L11 42L11 43L12 43L12 42L11 42L11 41L13 41L13 40L14 40L14 42L15 42L15 43L14 43L14 44L15 44L15 43L16 43L16 46L14 46L14 47L16 47L16 48L18 48L18 47L19 47L19 48L20 48L20 47L19 47L19 43L22 43L22 42L23 42L23 43L24 43L24 44L23 44L23 45L24 45L24 44L27 44L27 42L26 42L26 39L28 39L28 41L30 41L30 42L29 42L29 43L28 43L28 44L30 44L30 43L31 43L31 44L32 44L32 45L31 45L31 47L32 47L32 45L34 45L34 44L35 44L35 43L36 43L36 41L37 41L37 39L36 39L36 41L35 41L35 38L38 38L38 37L36 37L36 36L35 36L35 35L34 35L34 34L37 34L37 32L38 32L38 31L37 31L37 32L35 32L35 31L36 31L36 29L35 29L35 31L34 31L34 29L33 29L33 30L31 30L31 29L30 29L30 28L31 28L31 27L30 27L30 28L29 28L29 29L30 29L30 30L29 30L29 31L28 31L28 30L27 30L27 31L26 31L26 30L23 30L23 28L24 28L24 24L25 24L25 23L26 23L26 24L28 24L28 23L26 23L26 22L27 22L27 21L26 21L26 18L27 18L27 17L28 17L28 19L29 19L29 17L28 17L28 16L30 16L30 14L31 14L31 15L33 15L33 14L34 14L34 16L33 16L33 17L34 17L34 16L35 16L35 15L36 15L36 17L35 17L35 19L34 19L34 20L35 20L35 21L34 21L34 22L35 22L35 21L37 21L37 22L38 22L38 23L37 23L37 24L38 24L38 25L41 25L41 24L42 24L42 26L43 26L43 24L44 24L44 23L46 23L46 22L45 22L45 21L44 21L44 19L45 19L45 17L46 17L46 16L45 16L45 15L44 15L44 14L43 14L43 13L44 13L44 12L45 12L45 11L44 11L44 12L43 12L43 11L41 11L41 10L40 10L40 9L38 9L38 8L39 8L39 7L38 7L38 8L35 8L35 9L34 9L34 10L36 10L36 11L38 11L38 12L37 12L37 13L36 13L36 12L35 12L35 13L33 13L33 12L32 12L32 13L33 13L33 14L31 14L31 13L29 13L29 10L28 10L28 9L25 9L25 10L26 10L26 12L25 12L25 11L24 11L24 12L23 12L23 11L22 11L22 12L21 12L21 11L20 11L20 10L24 10L24 9L20 9L20 10L19 10L19 8L20 8L20 6L19 6L19 5L20 5L20 4L19 4L19 5L18 5L18 6L17 6L17 4L18 4L18 2L17 2L17 4L16 4L16 3L15 3L15 2ZM22 2L22 3L23 3L23 4L24 4L24 2ZM15 4L15 5L16 5L16 4ZM25 5L25 8L28 8L28 5ZM14 6L14 7L15 7L15 6ZM16 6L16 7L17 7L17 10L16 10L16 11L15 11L15 9L11 9L11 10L14 10L14 11L15 11L15 13L17 13L17 12L16 12L16 11L18 11L18 14L16 14L16 17L15 17L15 16L14 16L14 17L15 17L15 18L14 18L14 19L13 19L13 20L15 20L15 18L17 18L17 19L16 19L16 20L17 20L17 19L20 19L20 21L19 21L19 22L20 22L20 21L21 21L21 22L23 22L23 23L25 23L25 22L26 22L26 21L24 21L24 20L21 20L21 18L19 18L19 17L20 17L20 14L21 14L21 15L22 15L22 16L21 16L21 17L22 17L22 16L23 16L23 19L24 19L24 18L26 18L26 16L25 16L25 14L24 14L24 16L23 16L23 15L22 15L22 14L23 14L23 13L21 13L21 12L20 12L20 14L19 14L19 11L18 11L18 7L19 7L19 6L18 6L18 7L17 7L17 6ZM26 6L26 7L27 7L27 6ZM33 6L33 7L34 7L34 6ZM36 9L36 10L38 10L38 9ZM10 11L10 12L11 12L11 13L10 13L10 14L6 14L6 15L5 15L5 16L4 16L4 17L3 17L3 18L4 18L4 17L5 17L5 18L6 18L6 17L8 17L8 16L10 16L10 15L12 15L12 14L14 14L14 15L15 15L15 14L14 14L14 12L13 12L13 11ZM27 11L27 12L26 12L26 15L29 15L29 13L28 13L28 14L27 14L27 12L28 12L28 11ZM30 11L30 12L31 12L31 11ZM39 11L39 12L38 12L38 15L37 15L37 17L39 17L39 18L38 18L38 20L37 20L37 19L35 19L35 20L37 20L37 21L38 21L38 20L39 20L39 18L42 18L42 17L43 17L43 18L44 18L44 16L43 16L43 14L41 14L41 13L42 13L42 12L41 12L41 13L40 13L40 11ZM4 12L4 13L5 13L5 12ZM12 12L12 13L13 13L13 12ZM24 12L24 13L25 13L25 12ZM35 13L35 14L36 14L36 13ZM39 13L39 16L40 16L40 17L42 17L42 15L41 15L41 16L40 16L40 13ZM18 14L18 15L19 15L19 14ZM6 15L6 16L5 16L5 17L6 17L6 16L8 16L8 15ZM17 16L17 17L19 17L19 16ZM24 16L24 17L25 17L25 16ZM31 16L31 17L30 17L30 19L31 19L31 17L32 17L32 16ZM52 16L52 17L51 17L51 18L52 18L52 17L53 17L53 16ZM9 18L9 19L8 19L8 20L11 20L11 18ZM40 19L40 21L41 21L41 23L43 23L43 22L44 22L44 21L41 21L41 19ZM49 19L49 20L48 20L48 21L49 21L49 20L50 20L50 19ZM14 21L14 22L12 22L12 23L13 23L13 25L12 25L12 26L13 26L13 25L14 25L14 27L15 27L15 26L16 26L16 27L17 27L17 26L19 26L19 27L18 27L18 28L16 28L16 30L15 30L15 31L12 31L12 32L13 32L13 35L12 35L12 36L13 36L13 37L14 37L14 36L13 36L13 35L15 35L15 36L16 36L16 37L17 37L17 36L16 36L16 35L18 35L18 33L17 33L17 34L16 34L16 35L15 35L15 34L14 34L14 32L15 32L15 31L16 31L16 30L18 30L18 31L17 31L17 32L19 32L19 33L21 33L21 34L20 34L20 36L18 36L18 39L19 39L19 40L23 40L23 42L24 42L24 43L25 43L25 42L24 42L24 41L25 41L25 39L26 39L26 38L25 38L25 36L26 36L26 34L27 34L27 36L29 36L29 37L28 37L28 38L29 38L29 37L30 37L30 36L29 36L29 35L31 35L31 36L33 36L33 37L32 37L32 39L31 39L31 38L30 38L30 40L32 40L32 41L31 41L31 42L33 42L33 44L34 44L34 43L35 43L35 41L34 41L34 40L33 40L33 39L34 39L34 38L33 38L33 37L35 37L35 36L33 36L33 35L31 35L31 33L32 33L32 34L33 34L33 33L32 33L32 32L31 32L31 33L30 33L30 32L29 32L29 34L28 34L28 33L26 33L26 32L25 32L25 31L23 31L23 30L21 30L21 31L20 31L20 30L19 30L19 29L18 29L18 28L19 28L19 27L21 27L21 26L22 26L22 27L23 27L23 25L21 25L21 23L20 23L20 24L19 24L19 23L18 23L18 21L17 21L17 22L16 22L16 21ZM23 21L23 22L24 22L24 21ZM50 21L50 22L52 22L52 21ZM14 22L14 23L15 23L15 24L16 24L16 22ZM39 22L39 24L40 24L40 22ZM17 24L17 25L16 25L16 26L17 26L17 25L18 25L18 24ZM5 25L5 28L8 28L8 25ZM25 25L25 28L28 28L28 25ZM45 25L45 28L48 28L48 25ZM49 25L49 26L50 26L50 25ZM1 26L1 27L2 27L2 26ZM6 26L6 27L7 27L7 26ZM26 26L26 27L27 27L27 26ZM39 26L39 27L40 27L40 26ZM46 26L46 27L47 27L47 26ZM21 28L21 29L22 29L22 28ZM6 29L6 30L7 30L7 29ZM45 29L45 30L46 30L46 31L50 31L50 30L49 30L49 29L47 29L47 30L46 30L46 29ZM6 31L6 32L7 32L7 31ZM22 31L22 32L21 32L21 33L22 33L22 32L23 32L23 33L25 33L25 34L24 34L24 35L23 35L23 36L22 36L22 35L21 35L21 37L22 37L22 38L21 38L21 39L22 39L22 38L23 38L23 39L25 39L25 38L24 38L24 36L25 36L25 34L26 34L26 33L25 33L25 32L23 32L23 31ZM33 31L33 32L34 32L34 33L35 33L35 32L34 32L34 31ZM38 33L38 34L39 34L39 33ZM43 37L43 38L42 38L42 39L43 39L43 40L44 40L44 41L45 41L45 39L44 39L44 38L45 38L45 37ZM50 37L50 38L49 38L49 39L50 39L50 40L49 40L49 41L50 41L50 42L51 42L51 39L50 39L50 38L51 38L51 37ZM9 38L9 39L10 39L10 40L13 40L13 39L12 39L12 38ZM14 38L14 40L16 40L16 41L15 41L15 42L17 42L17 41L18 41L18 43L17 43L17 44L18 44L18 43L19 43L19 42L20 42L20 41L18 41L18 40L16 40L16 39L17 39L17 38L16 38L16 39L15 39L15 38ZM19 38L19 39L20 39L20 38ZM39 38L39 39L40 39L40 38ZM47 38L47 40L48 40L48 38ZM6 41L6 42L7 42L7 43L8 43L8 41ZM21 41L21 42L22 42L22 41ZM2 42L2 43L3 43L3 42ZM41 43L41 45L40 45L40 47L39 47L39 48L38 48L38 49L39 49L39 51L40 51L40 49L42 49L42 50L41 50L41 51L42 51L42 52L45 52L45 50L46 50L46 49L44 49L44 46L41 46L41 45L42 45L42 43ZM51 44L51 46L52 46L52 44ZM17 45L17 46L16 46L16 47L18 47L18 45ZM20 45L20 46L21 46L21 45ZM25 45L25 48L28 48L28 45ZM45 45L45 48L48 48L48 45ZM49 45L49 46L50 46L50 45ZM23 46L23 47L24 47L24 46ZM26 46L26 47L27 47L27 46ZM46 46L46 47L47 47L47 46ZM12 47L12 49L11 49L11 50L10 50L10 51L11 51L11 50L13 50L13 51L14 51L14 50L13 50L13 49L15 49L15 48L13 48L13 47ZM34 47L34 48L29 48L29 49L27 49L27 50L31 50L31 49L32 49L32 51L33 51L33 49L34 49L34 52L35 52L35 49L36 49L36 47ZM39 48L39 49L40 49L40 48ZM42 48L42 49L43 49L43 50L42 50L42 51L43 51L43 50L44 50L44 49L43 49L43 48ZM50 48L50 51L48 51L48 52L49 52L49 53L50 53L50 51L51 51L51 53L52 53L52 50L53 50L53 48L52 48L52 50L51 50L51 48ZM16 49L16 50L15 50L15 51L16 51L16 52L18 52L18 51L20 51L20 49L19 49L19 50L18 50L18 49ZM16 50L16 51L17 51L17 50ZM26 51L26 52L27 52L27 51ZM21 52L21 53L22 53L22 52ZM0 0L0 7L7 7L7 0ZM1 1L1 6L6 6L6 1ZM2 2L2 5L5 5L5 2ZM46 0L46 7L53 7L53 0ZM47 1L47 6L52 6L52 1ZM48 2L48 5L51 5L51 2ZM0 46L0 53L7 53L7 46ZM1 47L1 52L6 52L6 47ZM2 48L2 51L5 51L5 48Z" fill="#000000"/></g></g></svg>
