<?xml version="1.0" encoding="UTF-8"?>
<svg xmlns="http://www.w3.org/2000/svg" version="1.1" width="300" height="300" viewBox="0 0 300 300"><rect x="0" y="0" width="300" height="300" fill="#ffffff"/><g transform="scale(5.66)"><g transform="translate(0,0)"><path fill-rule="evenodd" d="M10 0L10 1L8 1L8 2L9 2L9 3L8 3L8 4L9 4L9 5L8 5L8 7L9 7L9 8L6 8L6 9L5 9L5 8L0 8L0 9L2 9L2 11L1 11L1 10L0 10L0 11L1 11L1 12L0 12L0 14L2 14L2 15L0 15L0 17L1 17L1 18L0 18L0 21L1 21L1 23L0 23L0 24L1 24L1 25L2 25L2 26L3 26L3 25L4 25L4 27L2 27L2 28L0 28L0 29L1 29L1 30L0 30L0 34L1 34L1 32L4 32L4 31L5 31L5 29L9 29L9 30L11 30L11 31L10 31L10 32L11 32L11 34L10 34L10 33L9 33L9 32L6 32L6 33L5 33L5 34L6 34L6 35L4 35L4 36L3 36L3 37L1 37L1 36L2 36L2 35L3 35L3 33L2 33L2 35L0 35L0 37L1 37L1 38L0 38L0 41L1 41L1 40L2 40L2 42L0 42L0 43L1 43L1 44L3 44L3 45L4 45L4 44L3 44L3 43L7 43L7 42L8 42L8 44L6 44L6 45L8 45L8 47L9 47L9 48L8 48L8 53L9 53L9 50L10 50L10 51L12 51L12 52L13 52L13 53L15 53L15 51L16 51L16 53L17 53L17 51L18 51L18 50L15 50L15 49L19 49L19 48L20 48L20 49L21 49L21 50L22 50L22 51L23 51L23 52L24 52L24 53L28 53L28 52L29 52L29 53L31 53L31 51L30 51L30 50L33 50L33 49L29 49L29 48L30 48L30 47L29 47L29 46L31 46L31 47L32 47L32 48L33 48L33 47L34 47L34 48L35 48L35 47L36 47L36 46L37 46L37 47L38 47L38 48L36 48L36 50L34 50L34 51L32 51L32 52L33 52L33 53L35 53L35 52L34 52L34 51L37 51L37 50L38 50L38 51L39 51L39 52L38 52L38 53L39 53L39 52L42 52L42 53L43 53L43 51L44 51L44 52L46 52L46 53L49 53L49 52L50 52L50 53L51 53L51 52L52 52L52 51L53 51L53 49L51 49L51 48L52 48L52 47L51 47L51 48L50 48L50 46L51 46L51 45L52 45L52 44L50 44L50 43L51 43L51 42L49 42L49 41L47 41L47 43L46 43L46 44L44 44L44 43L45 43L45 42L46 42L46 41L45 41L45 39L46 39L46 40L47 40L47 39L46 39L46 38L47 38L47 37L48 37L48 38L49 38L49 39L48 39L48 40L50 40L50 41L51 41L51 40L50 40L50 39L51 39L51 37L52 37L52 38L53 38L53 35L52 35L52 34L53 34L53 33L51 33L51 34L50 34L50 35L49 35L49 33L50 33L50 31L51 31L51 32L52 32L52 31L51 31L51 30L50 30L50 31L49 31L49 33L46 33L46 32L47 32L47 31L46 31L46 29L48 29L48 30L49 30L49 25L50 25L50 27L51 27L51 28L50 28L50 29L52 29L52 30L53 30L53 29L52 29L52 28L53 28L53 27L51 27L51 26L53 26L53 24L50 24L50 21L51 21L51 20L48 20L48 19L49 19L49 18L48 18L48 19L46 19L46 18L44 18L44 19L43 19L43 20L41 20L41 19L40 19L40 20L38 20L38 21L39 21L39 22L37 22L37 20L36 20L36 19L35 19L35 18L33 18L33 19L32 19L32 17L29 17L29 16L26 16L26 17L28 17L28 18L26 18L26 19L27 19L27 20L25 20L25 19L23 19L23 20L24 20L24 21L21 21L21 20L20 20L20 21L21 21L21 23L23 23L23 22L31 22L31 23L30 23L30 24L28 24L28 23L27 23L27 24L25 24L25 23L24 23L24 26L23 26L23 25L22 25L22 24L20 24L20 23L19 23L19 24L18 24L18 25L19 25L19 26L18 26L18 27L19 27L19 28L18 28L18 29L17 29L17 26L15 26L15 27L16 27L16 28L15 28L15 29L14 29L14 26L13 26L13 25L17 25L17 23L16 23L16 21L17 21L17 22L18 22L18 21L19 21L19 19L20 19L20 17L21 17L21 16L25 16L25 15L26 15L26 14L29 14L29 15L30 15L30 16L33 16L33 17L35 17L35 16L36 16L36 18L38 18L38 19L39 19L39 18L38 18L38 16L39 16L39 15L40 15L40 16L41 16L41 18L43 18L43 17L49 17L49 16L50 16L50 17L52 17L52 18L53 18L53 17L52 17L52 15L51 15L51 16L50 16L50 15L49 15L49 14L50 14L50 13L51 13L51 14L53 14L53 13L52 13L52 12L53 12L53 11L51 11L51 12L50 12L50 13L49 13L49 12L48 12L48 14L46 14L46 13L47 13L47 12L46 12L46 11L45 11L45 10L43 10L43 9L46 9L46 8L43 8L43 3L44 3L44 4L45 4L45 3L44 3L44 1L43 1L43 0L41 0L41 2L40 2L40 3L38 3L38 4L39 4L39 5L37 5L37 3L36 3L36 2L37 2L37 1L38 1L38 2L39 2L39 1L40 1L40 0L39 0L39 1L38 1L38 0L37 0L37 1L36 1L36 2L35 2L35 1L34 1L34 0L32 0L32 1L33 1L33 2L32 2L32 3L31 3L31 2L29 2L29 4L27 4L27 3L25 3L25 2L26 2L26 1L27 1L27 0L26 0L26 1L25 1L25 0L23 0L23 1L22 1L22 3L25 3L25 4L22 4L22 8L23 8L23 5L24 5L24 9L21 9L21 5L20 5L20 8L18 8L18 7L19 7L19 5L18 5L18 4L19 4L19 3L20 3L20 4L21 4L21 3L20 3L20 0L19 0L19 1L18 1L18 0L17 0L17 1L18 1L18 2L19 2L19 3L18 3L18 4L17 4L17 2L16 2L16 3L15 3L15 4L14 4L14 2L12 2L12 1L13 1L13 0ZM15 0L15 1L16 1L16 0ZM28 0L28 1L29 1L29 0ZM30 0L30 1L31 1L31 0ZM10 1L10 2L11 2L11 3L10 3L10 5L11 5L11 7L10 7L10 6L9 6L9 7L10 7L10 8L9 8L9 10L8 10L8 9L6 9L6 10L8 10L8 12L9 12L9 13L10 13L10 15L11 15L11 17L10 17L10 18L8 18L8 17L9 17L9 15L8 15L8 13L6 13L6 14L5 14L5 15L3 15L3 16L4 16L4 18L3 18L3 17L2 17L2 18L1 18L1 20L2 20L2 18L3 18L3 19L4 19L4 18L5 18L5 17L6 17L6 18L8 18L8 19L5 19L5 21L6 21L6 22L7 22L7 23L4 23L4 21L3 21L3 22L2 22L2 23L1 23L1 24L7 24L7 23L9 23L9 26L10 26L10 27L12 27L12 28L13 28L13 26L12 26L12 25L13 25L13 24L14 24L14 23L13 23L13 22L14 22L14 21L15 21L15 20L17 20L17 21L18 21L18 18L19 18L19 17L18 17L18 16L21 16L21 15L20 15L20 14L21 14L21 13L23 13L23 11L25 11L25 14L24 14L24 15L25 15L25 14L26 14L26 12L29 12L29 13L30 13L30 12L31 12L31 11L33 11L33 12L32 12L32 13L31 13L31 14L32 14L32 15L34 15L34 16L35 16L35 15L36 15L36 16L37 16L37 15L36 15L36 14L39 14L39 11L38 11L38 10L40 10L40 11L41 11L41 10L42 10L42 11L43 11L43 10L42 10L42 6L41 6L41 5L40 5L40 6L39 6L39 9L38 9L38 10L37 10L37 9L36 9L36 8L37 8L37 7L38 7L38 6L37 6L37 7L36 7L36 5L35 5L35 4L36 4L36 3L35 3L35 4L34 4L34 5L32 5L32 4L33 4L33 3L32 3L32 4L31 4L31 5L29 5L29 7L30 7L30 8L29 8L29 10L28 10L28 9L25 9L25 10L21 10L21 9L20 9L20 10L19 10L19 9L18 9L18 8L17 8L17 7L18 7L18 5L17 5L17 4L15 4L15 5L16 5L16 6L15 6L15 7L16 7L16 8L15 8L15 9L13 9L13 11L10 11L10 10L12 10L12 8L14 8L14 6L13 6L13 7L12 7L12 5L11 5L11 3L12 3L12 4L13 4L13 3L12 3L12 2L11 2L11 1ZM23 1L23 2L24 2L24 1ZM41 2L41 3L40 3L40 4L41 4L41 3L43 3L43 2ZM25 5L25 8L28 8L28 5ZM34 5L34 8L33 8L33 6L32 6L32 8L33 8L33 11L35 11L35 12L36 12L36 13L37 13L37 12L36 12L36 11L37 11L37 10L36 10L36 11L35 11L35 10L34 10L34 8L35 8L35 5ZM16 6L16 7L17 7L17 6ZM26 6L26 7L27 7L27 6ZM30 6L30 7L31 7L31 6ZM40 6L40 8L41 8L41 6ZM44 6L44 7L45 7L45 6ZM11 7L11 8L10 8L10 9L11 9L11 8L12 8L12 7ZM16 8L16 9L17 9L17 8ZM30 8L30 10L32 10L32 9L31 9L31 8ZM47 8L47 11L48 11L48 8ZM49 8L49 11L50 11L50 8ZM51 8L51 10L53 10L53 9L52 9L52 8ZM3 9L3 11L2 11L2 12L1 12L1 13L3 13L3 11L5 11L5 9ZM40 9L40 10L41 10L41 9ZM14 10L14 11L13 11L13 12L12 12L12 13L14 13L14 14L15 14L15 18L14 18L14 17L13 17L13 16L14 16L14 15L13 15L13 14L12 14L12 15L13 15L13 16L12 16L12 17L11 17L11 18L10 18L10 19L11 19L11 20L12 20L12 21L10 21L10 20L9 20L9 21L10 21L10 22L13 22L13 21L14 21L14 19L15 19L15 18L16 18L16 19L17 19L17 18L18 18L18 17L17 17L17 16L16 16L16 15L17 15L17 14L18 14L18 15L19 15L19 14L18 14L18 13L21 13L21 12L22 12L22 11L21 11L21 12L20 12L20 11L18 11L18 13L17 13L17 12L16 12L16 11L17 11L17 10ZM25 10L25 11L28 11L28 10ZM6 11L6 12L7 12L7 11ZM14 11L14 13L15 13L15 14L17 14L17 13L16 13L16 12L15 12L15 11ZM29 11L29 12L30 12L30 11ZM44 11L44 12L43 12L43 13L44 13L44 15L43 15L43 14L41 14L41 16L45 16L45 13L44 13L44 12L45 12L45 11ZM40 12L40 13L42 13L42 12ZM32 13L32 14L34 14L34 15L35 15L35 14L34 14L34 13ZM6 14L6 15L5 15L5 16L6 16L6 17L8 17L8 16L6 16L6 15L7 15L7 14ZM22 14L22 15L23 15L23 14ZM46 15L46 16L48 16L48 15ZM12 17L12 20L13 20L13 17ZM16 17L16 18L17 18L17 17ZM22 17L22 18L21 18L21 19L22 19L22 18L23 18L23 17ZM24 17L24 18L25 18L25 17ZM28 18L28 20L27 20L27 21L29 21L29 18ZM30 18L30 21L31 21L31 20L32 20L32 23L34 23L34 22L35 22L35 23L36 23L36 24L31 24L31 26L30 26L30 27L29 27L29 28L30 28L30 29L31 29L31 30L29 30L29 29L27 29L27 31L28 31L28 32L29 32L29 31L31 31L31 34L29 34L29 35L28 35L28 34L26 34L26 33L27 33L27 32L26 32L26 29L24 29L24 30L23 30L23 27L22 27L22 26L21 26L21 25L20 25L20 24L19 24L19 25L20 25L20 26L19 26L19 27L20 27L20 28L21 28L21 29L20 29L20 30L19 30L19 29L18 29L18 30L17 30L17 29L16 29L16 30L17 30L17 31L16 31L16 32L19 32L19 31L20 31L20 30L22 30L22 31L23 31L23 32L22 32L22 33L20 33L20 34L21 34L21 35L19 35L19 37L18 37L18 34L19 34L19 33L18 33L18 34L17 34L17 33L15 33L15 30L14 30L14 29L13 29L13 31L12 31L12 34L11 34L11 35L10 35L10 34L9 34L9 33L8 33L8 34L9 34L9 38L8 38L8 39L9 39L9 40L8 40L8 42L9 42L9 45L10 45L10 46L9 46L9 47L10 47L10 46L11 46L11 45L10 45L10 44L11 44L11 41L13 41L13 42L12 42L12 43L15 43L15 45L14 45L14 46L13 46L13 44L12 44L12 47L11 47L11 48L12 48L12 49L13 49L13 50L12 50L12 51L13 51L13 52L14 52L14 51L13 51L13 50L14 50L14 49L15 49L15 48L14 48L14 46L15 46L15 45L16 45L16 48L17 48L17 46L19 46L19 45L18 45L18 44L21 44L21 45L20 45L20 46L21 46L21 48L22 48L22 49L23 49L23 51L24 51L24 52L27 52L27 51L29 51L29 49L28 49L28 50L27 50L27 49L26 49L26 50L27 50L27 51L24 51L24 50L25 50L25 49L24 49L24 48L22 48L22 47L23 47L23 46L24 46L24 44L25 44L25 43L27 43L27 44L29 44L29 45L30 45L30 44L29 44L29 43L31 43L31 46L33 46L33 44L32 44L32 43L33 43L33 42L35 42L35 43L34 43L34 44L35 44L35 45L34 45L34 46L35 46L35 45L36 45L36 44L38 44L38 45L37 45L37 46L40 46L40 47L41 47L41 48L40 48L40 49L41 49L41 50L40 50L40 51L43 51L43 50L44 50L44 51L46 51L46 52L48 52L48 50L49 50L49 51L50 51L50 52L51 52L51 51L52 51L52 50L51 50L51 49L50 49L50 48L49 48L49 49L47 49L47 50L44 50L44 48L42 48L42 47L44 47L44 46L41 46L41 44L40 44L40 42L41 42L41 43L42 43L42 45L44 45L44 44L43 44L43 43L44 43L44 42L45 42L45 41L44 41L44 40L43 40L43 39L45 39L45 37L47 37L47 36L46 36L46 35L48 35L48 34L45 34L45 35L44 35L44 36L43 36L43 34L42 34L42 32L43 32L43 33L45 33L45 32L46 32L46 31L45 31L45 32L43 32L43 31L44 31L44 30L45 30L45 29L44 29L44 27L43 27L43 26L42 26L42 25L41 25L41 24L40 24L40 23L43 23L43 25L44 25L44 24L49 24L49 22L47 22L47 20L46 20L46 19L44 19L44 20L43 20L43 21L44 21L44 22L45 22L45 21L44 21L44 20L46 20L46 22L47 22L47 23L43 23L43 22L40 22L40 23L38 23L38 26L40 26L40 27L41 27L41 26L42 26L42 29L43 29L43 30L41 30L41 28L40 28L40 29L39 29L39 27L38 27L38 29L36 29L36 28L37 28L37 27L36 27L36 26L37 26L37 25L36 25L36 24L37 24L37 23L36 23L36 20L35 20L35 19L33 19L33 20L32 20L32 19L31 19L31 18ZM50 18L50 19L51 19L51 18ZM52 19L52 22L53 22L53 19ZM6 20L6 21L7 21L7 22L8 22L8 20ZM40 20L40 21L41 21L41 20ZM33 21L33 22L34 22L34 21ZM10 23L10 25L12 25L12 24L11 24L11 23ZM15 23L15 24L16 24L16 23ZM5 25L5 28L8 28L8 25ZM25 25L25 28L28 28L28 25ZM32 25L32 26L33 26L33 25ZM40 25L40 26L41 26L41 25ZM45 25L45 28L48 28L48 25ZM0 26L0 27L1 27L1 26ZM6 26L6 27L7 27L7 26ZM26 26L26 27L27 27L27 26ZM34 26L34 27L32 27L32 28L31 28L31 27L30 27L30 28L31 28L31 29L32 29L32 30L34 30L34 31L37 31L37 30L36 30L36 29L35 29L35 26ZM46 26L46 27L47 27L47 26ZM21 27L21 28L22 28L22 27ZM2 28L2 29L3 29L3 28ZM9 28L9 29L11 29L11 28ZM32 28L32 29L33 29L33 28ZM34 29L34 30L35 30L35 29ZM6 30L6 31L8 31L8 30ZM18 30L18 31L19 31L19 30ZM28 30L28 31L29 31L29 30ZM38 30L38 31L39 31L39 32L38 32L38 33L37 33L37 32L36 32L36 33L37 33L37 36L36 36L36 35L35 35L35 34L33 34L33 33L34 33L34 32L33 32L33 31L32 31L32 32L33 32L33 33L32 33L32 35L31 35L31 37L30 37L30 35L29 35L29 37L26 37L26 36L27 36L27 35L26 35L26 36L25 36L25 31L24 31L24 33L22 33L22 36L24 36L24 37L21 37L21 36L20 36L20 37L19 37L19 38L18 38L18 37L17 37L17 35L15 35L15 34L14 34L14 33L13 33L13 34L12 34L12 35L11 35L11 36L10 36L10 38L9 38L9 39L10 39L10 38L11 38L11 39L12 39L12 40L13 40L13 41L19 41L19 42L17 42L17 43L19 43L19 42L20 42L20 43L22 43L22 42L24 42L24 43L25 43L25 42L27 42L27 43L29 43L29 42L31 42L31 40L33 40L33 39L30 39L30 40L28 40L28 39L29 39L29 38L31 38L31 37L32 37L32 38L34 38L34 39L35 39L35 40L36 40L36 41L37 41L37 42L36 42L36 43L35 43L35 44L36 44L36 43L37 43L37 42L38 42L38 43L39 43L39 42L40 42L40 40L41 40L41 42L43 42L43 40L41 40L41 39L43 39L43 37L41 37L41 39L39 39L39 38L40 38L40 37L39 37L39 38L36 38L36 39L35 39L35 38L34 38L34 37L32 37L32 36L34 36L34 35L35 35L35 36L36 36L36 37L38 37L38 36L42 36L42 34L41 34L41 33L39 33L39 32L41 32L41 31L39 31L39 30ZM13 31L13 32L14 32L14 31ZM6 33L6 34L7 34L7 33ZM38 33L38 35L39 35L39 33ZM23 34L23 35L24 35L24 34ZM40 34L40 35L41 35L41 34ZM6 35L6 36L7 36L7 35ZM12 35L12 36L11 36L11 37L13 37L13 36L14 36L14 37L15 37L15 36L14 36L14 35ZM50 35L50 36L48 36L48 37L50 37L50 36L52 36L52 35ZM4 36L4 37L3 37L3 38L1 38L1 39L2 39L2 40L3 40L3 42L2 42L2 43L3 43L3 42L4 42L4 40L3 40L3 38L4 38L4 39L5 39L5 42L7 42L7 41L6 41L6 40L7 40L7 39L5 39L5 38L4 38L4 37L5 37L5 36ZM6 37L6 38L7 38L7 37ZM16 37L16 40L18 40L18 38L17 38L17 37ZM20 37L20 40L21 40L21 37ZM24 37L24 38L23 38L23 40L22 40L22 41L20 41L20 42L22 42L22 41L24 41L24 40L25 40L25 41L27 41L27 40L26 40L26 39L28 39L28 38L26 38L26 37ZM12 38L12 39L13 39L13 40L14 40L14 39L13 39L13 38ZM36 39L36 40L37 40L37 39ZM52 39L52 42L53 42L53 39ZM28 41L28 42L29 42L29 41ZM32 41L32 42L33 42L33 41ZM38 41L38 42L39 42L39 41ZM15 42L15 43L16 43L16 42ZM16 44L16 45L17 45L17 44ZM21 45L21 46L23 46L23 45ZM25 45L25 48L28 48L28 45ZM45 45L45 48L48 48L48 45ZM49 45L49 46L50 46L50 45ZM26 46L26 47L27 47L27 46ZM46 46L46 47L47 47L47 46ZM12 47L12 48L13 48L13 47ZM9 48L9 49L10 49L10 50L11 50L11 49L10 49L10 48ZM38 48L38 50L39 50L39 48ZM41 48L41 49L42 49L42 50L43 50L43 49L42 49L42 48ZM50 50L50 51L51 51L51 50ZM19 51L19 52L18 52L18 53L19 53L19 52L20 52L20 53L21 53L21 51ZM10 52L10 53L11 53L11 52ZM36 52L36 53L37 53L37 52ZM0 0L0 7L7 7L7 0ZM1 1L1 6L6 6L6 1ZM2 2L2 5L5 5L5 2ZM46 0L46 7L53 7L53 0ZM47 1L47 6L52 6L52 1ZM48 2L48 5L51 5L51 2ZM0 46L0 53L7 53L7 46ZM1 47L1 52L6 52L6 47ZM2 48L2 51L5 51L5 48Z" fill="#000000"/></g></g></svg>
