<?xml version="1.0" encoding="UTF-8"?>
<svg xmlns="http://www.w3.org/2000/svg" version="1.1" width="300" height="300" viewBox="0 0 300 300"><rect x="0" y="0" width="300" height="300" fill="#ffffff"/><g transform="scale(5.66)"><g transform="translate(0,0)"><path fill-rule="evenodd" d="M9 0L9 1L8 1L8 2L9 2L9 1L10 1L10 3L8 3L8 4L10 4L10 3L11 3L11 0ZM12 0L12 2L14 2L14 3L13 3L13 4L11 4L11 5L10 5L10 7L9 7L9 5L8 5L8 7L9 7L9 8L6 8L6 9L9 9L9 10L10 10L10 11L9 11L9 12L6 12L6 11L7 11L7 10L3 10L3 9L5 9L5 8L0 8L0 10L1 10L1 11L0 11L0 13L1 13L1 14L0 14L0 15L1 15L1 16L0 16L0 18L1 18L1 19L2 19L2 20L4 20L4 19L5 19L5 20L6 20L6 21L5 21L5 23L3 23L3 22L4 22L4 21L3 21L3 22L2 22L2 21L1 21L1 20L0 20L0 21L1 21L1 22L0 22L0 23L1 23L1 22L2 22L2 25L1 25L1 24L0 24L0 26L2 26L2 28L1 28L1 29L0 29L0 31L1 31L1 32L4 32L4 33L5 33L5 31L7 31L7 32L6 32L6 33L7 33L7 34L6 34L6 35L7 35L7 36L6 36L6 37L5 37L5 38L4 38L4 40L3 40L3 37L4 37L4 36L5 36L5 34L4 34L4 36L3 36L3 37L2 37L2 35L3 35L3 34L2 34L2 33L0 33L0 34L1 34L1 37L2 37L2 39L1 39L1 41L0 41L0 43L1 43L1 44L3 44L3 45L4 45L4 44L3 44L3 43L7 43L7 44L6 44L6 45L7 45L7 44L8 44L8 47L9 47L9 46L10 46L10 47L11 47L11 48L12 48L12 49L10 49L10 48L8 48L8 53L9 53L9 52L10 52L10 53L11 53L11 52L10 52L10 51L11 51L11 50L13 50L13 51L12 51L12 52L13 52L13 51L14 51L14 53L17 53L17 51L18 51L18 53L21 53L21 52L20 52L20 51L18 51L18 50L15 50L15 49L19 49L19 50L20 50L20 49L21 49L21 48L20 48L20 45L21 45L21 47L22 47L22 48L24 48L24 49L22 49L22 52L23 52L23 51L25 51L25 50L26 50L26 51L27 51L27 50L28 50L28 49L29 49L29 51L28 51L28 52L26 52L26 53L28 53L28 52L29 52L29 53L30 53L30 52L31 52L31 53L32 53L32 52L33 52L33 51L32 51L32 52L31 52L31 51L30 51L30 50L33 50L33 49L29 49L29 48L30 48L30 46L31 46L31 47L32 47L32 48L33 48L33 47L34 47L34 48L35 48L35 46L36 46L36 47L37 47L37 45L38 45L38 44L39 44L39 46L38 46L38 48L36 48L36 50L34 50L34 51L35 51L35 52L36 52L36 53L37 53L37 52L36 52L36 51L37 51L37 50L38 50L38 51L40 51L40 52L39 52L39 53L40 53L40 52L41 52L41 51L40 51L40 50L41 50L41 49L40 49L40 48L44 48L44 50L43 50L43 49L42 49L42 50L43 50L43 51L42 51L42 52L44 52L44 50L47 50L47 49L49 49L49 50L48 50L48 52L46 52L46 51L45 51L45 52L46 52L46 53L49 53L49 50L50 50L50 49L52 49L52 47L51 47L51 48L50 48L50 46L53 46L53 43L51 43L51 44L50 44L50 42L51 42L51 40L50 40L50 39L52 39L52 38L53 38L53 35L52 35L52 34L53 34L53 33L52 33L52 32L53 32L53 31L52 31L52 30L53 30L53 29L52 29L52 28L53 28L53 27L51 27L51 28L50 28L50 25L51 25L51 26L53 26L53 23L52 23L52 22L53 22L53 19L52 19L52 21L51 21L51 20L50 20L50 19L51 19L51 18L50 18L50 19L49 19L49 18L48 18L48 19L47 19L47 21L49 21L49 22L48 22L48 23L49 23L49 24L45 24L45 23L47 23L47 22L45 22L45 23L44 23L44 21L45 21L45 20L46 20L46 18L44 18L44 17L49 17L49 16L50 16L50 17L52 17L52 18L53 18L53 17L52 17L52 16L53 16L53 15L51 15L51 16L50 16L50 15L49 15L49 14L50 14L50 13L51 13L51 14L53 14L53 13L52 13L52 12L53 12L53 11L51 11L51 10L53 10L53 9L52 9L52 8L51 8L51 10L49 10L49 12L48 12L48 8L47 8L47 12L46 12L46 11L45 11L45 12L44 12L44 11L43 11L43 12L44 12L44 13L42 13L42 10L43 10L43 9L46 9L46 8L45 8L45 6L44 6L44 7L43 7L43 3L44 3L44 4L45 4L45 3L44 3L44 1L43 1L43 0L41 0L41 1L42 1L42 2L43 2L43 3L41 3L41 2L39 2L39 1L40 1L40 0L39 0L39 1L38 1L38 0L37 0L37 1L36 1L36 2L35 2L35 1L34 1L34 0L32 0L32 1L33 1L33 2L32 2L32 3L31 3L31 4L30 4L30 2L29 2L29 4L27 4L27 3L26 3L26 2L27 2L27 1L25 1L25 0L24 0L24 1L25 1L25 2L24 2L24 3L23 3L23 4L21 4L21 3L22 3L22 2L21 2L21 1L20 1L20 3L19 3L19 1L17 1L17 0L16 0L16 1L13 1L13 0ZM22 0L22 1L23 1L23 0ZM28 0L28 1L29 1L29 0ZM30 0L30 1L31 1L31 0ZM37 1L37 2L36 2L36 3L35 3L35 2L33 2L33 3L32 3L32 4L33 4L33 3L34 3L34 5L29 5L29 7L30 7L30 8L29 8L29 10L27 10L27 9L24 9L24 10L22 10L22 9L23 9L23 8L22 8L22 9L18 9L18 10L17 10L17 8L21 8L21 7L22 7L22 6L21 6L21 7L20 7L20 5L21 5L21 4L18 4L18 2L17 2L17 4L15 4L15 3L16 3L16 2L15 2L15 3L14 3L14 4L15 4L15 5L13 5L13 7L14 7L14 8L12 8L12 9L14 9L14 11L13 11L13 10L12 10L12 12L14 12L14 14L15 14L15 16L16 16L16 17L13 17L13 18L16 18L16 17L17 17L17 18L18 18L18 19L17 19L17 21L15 21L15 20L16 20L16 19L15 19L15 20L14 20L14 21L15 21L15 22L13 22L13 20L12 20L12 21L10 21L10 20L8 20L8 18L7 18L7 17L8 17L8 13L6 13L6 12L5 12L5 13L4 13L4 15L2 15L2 16L3 16L3 17L1 17L1 18L2 18L2 19L4 19L4 18L5 18L5 19L6 19L6 20L7 20L7 21L6 21L6 22L8 22L8 23L10 23L10 24L9 24L9 27L12 27L12 28L14 28L14 29L15 29L15 31L16 31L16 32L15 32L15 33L13 33L13 35L11 35L11 34L12 34L12 32L14 32L14 31L11 31L11 30L13 30L13 29L11 29L11 30L10 30L10 29L6 29L6 30L8 30L8 31L9 31L9 32L10 32L10 31L11 31L11 33L8 33L8 34L7 34L7 35L9 35L9 34L10 34L10 37L8 37L8 39L6 39L6 40L5 40L5 42L7 42L7 43L8 43L8 44L9 44L9 45L10 45L10 46L11 46L11 47L12 47L12 48L13 48L13 47L14 47L14 46L17 46L17 47L16 47L16 48L17 48L17 47L19 47L19 45L20 45L20 44L21 44L21 45L23 45L23 46L22 46L22 47L23 47L23 46L24 46L24 44L23 44L23 43L24 43L24 42L23 42L23 43L22 43L22 41L24 41L24 40L25 40L25 41L28 41L28 42L29 42L29 43L27 43L27 42L26 42L26 43L25 43L25 44L29 44L29 43L33 43L33 42L35 42L35 43L34 43L34 44L35 44L35 45L33 45L33 44L32 44L32 45L31 45L31 44L30 44L30 45L29 45L29 46L30 46L30 45L31 45L31 46L32 46L32 47L33 47L33 46L35 46L35 45L36 45L36 44L38 44L38 42L39 42L39 43L40 43L40 42L41 42L41 43L44 43L44 44L43 44L43 45L44 45L44 44L45 44L45 43L47 43L47 44L48 44L48 43L49 43L49 42L50 42L50 40L48 40L48 39L49 39L49 38L48 38L48 37L50 37L50 36L52 36L52 35L51 35L51 31L50 31L50 30L52 30L52 29L50 29L50 28L49 28L49 30L48 30L48 29L46 29L46 31L45 31L45 29L44 29L44 30L42 30L42 31L45 31L45 32L39 32L39 31L37 31L37 30L39 30L39 28L40 28L40 29L41 29L41 28L42 28L42 27L43 27L43 28L44 28L44 26L42 26L42 24L40 24L40 23L43 23L43 24L44 24L44 23L43 23L43 22L41 22L41 21L42 21L42 20L40 20L40 19L41 19L41 18L42 18L42 19L43 19L43 21L44 21L44 20L45 20L45 19L44 19L44 18L42 18L42 15L43 15L43 14L40 14L40 15L39 15L39 16L38 16L38 18L36 18L36 16L37 16L37 15L36 15L36 12L38 12L38 13L37 13L37 14L39 14L39 12L40 12L40 13L41 13L41 12L40 12L40 11L41 11L41 10L42 10L42 6L41 6L41 5L42 5L42 4L41 4L41 3L40 3L40 4L39 4L39 3L38 3L38 4L36 4L36 3L37 3L37 2L38 2L38 1ZM24 3L24 4L25 4L25 3ZM17 4L17 5L18 5L18 7L19 7L19 5L18 5L18 4ZM11 5L11 7L12 7L12 5ZM23 5L23 7L24 7L24 5ZM25 5L25 8L28 8L28 5ZM34 5L34 8L33 8L33 6L32 6L32 8L33 8L33 10L32 10L32 9L31 9L31 8L30 8L30 10L32 10L32 12L31 12L31 11L27 11L27 10L25 10L25 11L24 11L24 12L23 12L23 13L21 13L21 12L20 12L20 13L21 13L21 14L20 14L20 17L22 17L22 19L21 19L21 18L19 18L19 19L21 19L21 20L18 20L18 21L17 21L17 23L15 23L15 26L16 26L16 24L17 24L17 25L19 25L19 26L18 26L18 29L17 29L17 27L16 27L16 29L17 29L17 31L18 31L18 29L19 29L19 28L20 28L20 29L21 29L21 30L22 30L22 31L21 31L21 32L20 32L20 31L19 31L19 32L16 32L16 33L19 33L19 34L18 34L18 37L19 37L19 38L17 38L17 39L18 39L18 40L16 40L16 38L15 38L15 37L17 37L17 36L16 36L16 35L17 35L17 34L14 34L14 35L13 35L13 36L11 36L11 37L10 37L10 38L9 38L9 40L8 40L8 43L9 43L9 41L10 41L10 42L12 42L12 43L13 43L13 44L10 44L10 45L11 45L11 46L12 46L12 47L13 47L13 44L14 44L14 45L15 45L15 44L14 44L14 43L15 43L15 42L16 42L16 43L17 43L17 42L16 42L16 41L19 41L19 42L18 42L18 43L20 43L20 41L21 41L21 40L23 40L23 39L22 39L22 38L23 38L23 37L24 37L24 36L23 36L23 37L21 37L21 36L20 36L20 35L19 35L19 34L20 34L20 33L21 33L21 35L22 35L22 34L24 34L24 35L25 35L25 38L24 38L24 39L25 39L25 38L28 38L28 39L26 39L26 40L28 40L28 41L29 41L29 42L31 42L31 40L33 40L33 39L30 39L30 38L31 38L31 37L32 37L32 38L33 38L33 37L35 37L35 36L36 36L36 37L37 37L37 36L36 36L36 35L35 35L35 34L33 34L33 33L34 33L34 32L33 32L33 31L35 31L35 30L34 30L34 28L36 28L36 29L38 29L38 28L39 28L39 27L40 27L40 28L41 28L41 27L42 27L42 26L41 26L41 25L40 25L40 26L38 26L38 23L40 23L40 20L38 20L38 21L39 21L39 22L38 22L38 23L37 23L37 20L36 20L36 19L35 19L35 18L33 18L33 22L31 22L31 21L32 21L32 18L31 18L31 17L29 17L29 16L26 16L26 15L27 15L27 14L31 14L31 15L30 15L30 16L33 16L33 17L35 17L35 16L36 16L36 15L35 15L35 14L34 14L34 11L35 11L35 12L36 12L36 11L37 11L37 10L38 10L38 11L40 11L40 10L41 10L41 9L40 9L40 10L38 10L38 9L39 9L39 5L37 5L37 6L36 6L36 7L37 7L37 8L36 8L36 11L35 11L35 10L34 10L34 8L35 8L35 5ZM14 6L14 7L15 7L15 6ZM16 6L16 7L17 7L17 6ZM26 6L26 7L27 7L27 6ZM30 6L30 7L31 7L31 6ZM37 6L37 7L38 7L38 6ZM40 6L40 8L41 8L41 6ZM9 8L9 9L10 9L10 10L11 10L11 9L10 9L10 8ZM49 8L49 9L50 9L50 8ZM15 9L15 10L16 10L16 9ZM2 10L2 11L1 11L1 13L3 13L3 10ZM18 10L18 13L19 13L19 10ZM20 10L20 11L22 11L22 10ZM10 11L10 12L9 12L9 13L10 13L10 12L11 12L11 11ZM15 11L15 13L17 13L17 12L16 12L16 11ZM25 11L25 13L23 13L23 14L21 14L21 16L22 16L22 17L24 17L24 16L22 16L22 15L26 15L26 14L27 14L27 13L26 13L26 12L27 12L27 11ZM50 11L50 12L51 12L51 11ZM28 12L28 13L30 13L30 12ZM32 12L32 13L33 13L33 12ZM44 13L44 14L48 14L48 13ZM6 14L6 15L4 15L4 16L5 16L5 18L6 18L6 19L7 19L7 18L6 18L6 17L7 17L7 16L6 16L6 15L7 15L7 14ZM10 14L10 15L11 15L11 14ZM18 14L18 16L17 16L17 15L16 15L16 16L17 16L17 17L19 17L19 14ZM12 15L12 16L14 16L14 15ZM34 15L34 16L35 16L35 15ZM40 15L40 16L41 16L41 15ZM46 15L46 16L48 16L48 15ZM10 16L10 17L9 17L9 19L11 19L11 18L10 18L10 17L11 17L11 16ZM25 16L25 18L24 18L24 19L25 19L25 20L23 20L23 19L22 19L22 20L21 20L21 21L18 21L18 22L19 22L19 24L21 24L21 23L22 23L22 25L24 25L24 24L23 24L23 22L24 22L24 23L25 23L25 22L24 22L24 21L25 21L25 20L27 20L27 21L26 21L26 24L27 24L27 23L28 23L28 24L30 24L30 23L31 23L31 22L30 22L30 21L29 21L29 22L27 22L27 21L28 21L28 20L29 20L29 18L28 18L28 20L27 20L27 19L26 19L26 18L27 18L27 17L26 17L26 16ZM43 16L43 17L44 17L44 16ZM3 17L3 18L4 18L4 17ZM30 18L30 19L31 19L31 18ZM38 18L38 19L39 19L39 18ZM34 19L34 20L35 20L35 21L34 21L34 22L35 22L35 21L36 21L36 20L35 20L35 19ZM48 19L48 20L49 20L49 21L50 21L50 24L51 24L51 21L50 21L50 20L49 20L49 19ZM8 21L8 22L10 22L10 21ZM11 22L11 24L10 24L10 26L12 26L12 27L14 27L14 25L12 25L12 22ZM20 22L20 23L21 23L21 22ZM6 23L6 24L7 24L7 23ZM13 23L13 24L14 24L14 23ZM36 23L36 24L31 24L31 26L30 26L30 27L29 27L29 29L27 29L27 30L30 30L30 31L31 31L31 34L29 34L29 31L28 31L28 33L27 33L27 32L26 32L26 29L24 29L24 26L23 26L23 28L22 28L22 26L21 26L21 25L20 25L20 28L21 28L21 29L24 29L24 30L23 30L23 31L22 31L22 33L23 33L23 31L24 31L24 32L25 32L25 35L26 35L26 37L29 37L29 38L30 38L30 37L31 37L31 36L32 36L32 37L33 37L33 36L32 36L32 33L33 33L33 32L32 32L32 31L33 31L33 28L34 28L34 26L35 26L35 27L36 27L36 28L37 28L37 27L36 27L36 26L37 26L37 25L36 25L36 24L37 24L37 23ZM3 24L3 25L4 25L4 24ZM5 25L5 28L8 28L8 25ZM25 25L25 28L28 28L28 25ZM32 25L32 26L33 26L33 25ZM45 25L45 28L48 28L48 25ZM6 26L6 27L7 27L7 26ZM26 26L26 27L27 27L27 26ZM40 26L40 27L41 27L41 26ZM46 26L46 27L47 27L47 26ZM3 27L3 29L1 29L1 31L2 31L2 30L3 30L3 29L4 29L4 27ZM30 27L30 28L31 28L31 29L30 29L30 30L31 30L31 31L32 31L32 28L33 28L33 27L32 27L32 28L31 28L31 27ZM4 30L4 31L5 31L5 30ZM40 30L40 31L41 31L41 30ZM46 31L46 33L44 33L44 35L40 35L40 34L43 34L43 33L39 33L39 32L38 32L38 33L37 33L37 32L36 32L36 33L37 33L37 35L38 35L38 33L39 33L39 35L40 35L40 36L38 36L38 37L39 37L39 38L36 38L36 39L35 39L35 38L34 38L34 39L35 39L35 40L36 40L36 41L37 41L37 42L36 42L36 43L35 43L35 44L36 44L36 43L37 43L37 42L38 42L38 41L39 41L39 42L40 42L40 40L42 40L42 41L41 41L41 42L44 42L44 43L45 43L45 42L44 42L44 41L46 41L46 42L47 42L47 41L46 41L46 40L47 40L47 39L46 39L46 38L47 38L47 37L48 37L48 35L49 35L49 36L50 36L50 35L49 35L49 34L50 34L50 31L49 31L49 33L48 33L48 35L46 35L46 36L47 36L47 37L45 37L45 38L44 38L44 37L43 37L43 36L44 36L44 35L45 35L45 34L47 34L47 31ZM26 33L26 34L27 34L27 33ZM28 34L28 35L29 35L29 34ZM14 35L14 37L15 37L15 35ZM34 35L34 36L35 36L35 35ZM40 36L40 37L42 37L42 36ZM6 37L6 38L7 38L7 37ZM11 37L11 38L10 38L10 39L11 39L11 40L10 40L10 41L12 41L12 42L13 42L13 41L14 41L14 42L15 42L15 38L13 38L13 37ZM20 37L20 38L19 38L19 39L20 39L20 38L21 38L21 37ZM11 38L11 39L13 39L13 40L12 40L12 41L13 41L13 40L14 40L14 39L13 39L13 38ZM40 38L40 39L44 39L44 38ZM28 39L28 40L30 40L30 39ZM36 39L36 40L37 40L37 39ZM45 39L45 40L46 40L46 39ZM2 40L2 41L1 41L1 42L2 42L2 43L3 43L3 42L2 42L2 41L3 41L3 40ZM6 40L6 41L7 41L7 40ZM43 40L43 41L44 41L44 40ZM32 41L32 42L33 42L33 41ZM48 41L48 42L49 42L49 41ZM52 41L52 42L53 42L53 41ZM16 44L16 45L17 45L17 44ZM18 44L18 45L19 45L19 44ZM40 44L40 45L41 45L41 47L44 47L44 46L42 46L42 45L41 45L41 44ZM51 44L51 45L52 45L52 44ZM25 45L25 48L28 48L28 45ZM32 45L32 46L33 46L33 45ZM45 45L45 48L48 48L48 45ZM49 45L49 46L50 46L50 45ZM26 46L26 47L27 47L27 46ZM46 46L46 47L47 47L47 46ZM19 48L19 49L20 49L20 48ZM38 48L38 50L39 50L39 48ZM49 48L49 49L50 49L50 48ZM9 49L9 50L10 50L10 49ZM26 49L26 50L27 50L27 49ZM14 50L14 51L15 51L15 52L16 52L16 51L15 51L15 50ZM52 50L52 51L51 51L51 52L50 52L50 53L51 53L51 52L52 52L52 51L53 51L53 50ZM29 51L29 52L30 52L30 51ZM24 52L24 53L25 53L25 52ZM0 0L0 7L7 7L7 0ZM1 1L1 6L6 6L6 1ZM2 2L2 5L5 5L5 2ZM46 0L46 7L53 7L53 0ZM47 1L47 6L52 6L52 1ZM48 2L48 5L51 5L51 2ZM0 46L0 53L7 53L7 46ZM1 47L1 52L6 52L6 47ZM2 48L2 51L5 51L5 48Z" fill="#000000"/></g></g></svg>
