<?xml version="1.0" encoding="UTF-8"?>
<svg xmlns="http://www.w3.org/2000/svg" version="1.1" width="300" height="300" viewBox="0 0 300 300"><rect x="0" y="0" width="300" height="300" fill="#ffffff"/><g transform="scale(5.66)"><g transform="translate(0,0)"><path fill-rule="evenodd" d="M8 0L8 1L9 1L9 2L8 2L8 5L9 5L9 6L8 6L8 7L9 7L9 8L8 8L8 11L9 11L9 12L8 12L8 13L7 13L7 12L6 12L6 11L7 11L7 10L6 10L6 9L7 9L7 8L6 8L6 9L4 9L4 8L0 8L0 9L1 9L1 10L0 10L0 11L1 11L1 10L2 10L2 12L0 12L0 13L1 13L1 14L2 14L2 12L3 12L3 13L5 13L5 14L4 14L4 15L5 15L5 17L3 17L3 16L1 16L1 15L0 15L0 18L1 18L1 20L0 20L0 21L1 21L1 23L2 23L2 24L0 24L0 25L2 25L2 28L3 28L3 30L4 30L4 29L5 29L5 31L3 31L3 32L2 32L2 31L0 31L0 33L2 33L2 36L3 36L3 37L2 37L2 38L1 38L1 37L0 37L0 38L1 38L1 39L2 39L2 40L4 40L4 41L5 41L5 40L4 40L4 38L5 38L5 39L7 39L7 40L6 40L6 41L7 41L7 42L3 42L3 41L1 41L1 40L0 40L0 41L1 41L1 42L0 42L0 43L1 43L1 44L3 44L3 45L4 45L4 44L3 44L3 43L7 43L7 42L9 42L9 43L8 43L8 44L6 44L6 45L8 45L8 46L9 46L9 45L10 45L10 47L9 47L9 49L8 49L8 53L9 53L9 52L10 52L10 53L11 53L11 52L13 52L13 51L14 51L14 53L15 53L15 51L14 51L14 50L16 50L16 49L17 49L17 51L16 51L16 53L18 53L18 52L19 52L19 53L20 53L20 50L21 50L21 51L22 51L22 52L21 52L21 53L22 53L22 52L23 52L23 53L24 53L24 52L23 52L23 51L24 51L24 50L23 50L23 49L21 49L21 48L22 48L22 47L21 47L21 46L23 46L23 44L22 44L22 43L23 43L23 42L24 42L24 43L26 43L26 44L24 44L24 47L23 47L23 48L24 48L24 49L25 49L25 51L28 51L28 52L29 52L29 51L30 51L30 53L34 53L34 52L33 52L33 51L34 51L34 49L33 49L33 51L32 51L32 49L31 49L31 50L27 50L27 49L29 49L29 48L34 48L34 47L36 47L36 49L35 49L35 53L36 53L36 49L37 49L37 51L39 51L39 49L40 49L40 52L41 52L41 53L43 53L43 52L44 52L44 53L47 53L47 52L46 52L46 51L47 51L47 50L49 50L49 51L48 51L48 52L49 52L49 51L50 51L50 50L51 50L51 53L52 53L52 48L53 48L53 47L52 47L52 46L53 46L53 45L52 45L52 44L53 44L53 43L52 43L52 44L51 44L51 43L50 43L50 42L52 42L52 40L51 40L51 41L49 41L49 40L50 40L50 39L51 39L51 38L50 38L50 37L52 37L52 39L53 39L53 36L52 36L52 35L51 35L51 34L53 34L53 31L52 31L52 29L51 29L51 30L50 30L50 29L49 29L49 28L50 28L50 27L49 27L49 26L51 26L51 28L53 28L53 24L49 24L49 23L51 23L51 22L53 22L53 21L52 21L52 20L53 20L53 19L51 19L51 18L52 18L52 17L51 17L51 18L50 18L50 17L48 17L48 20L45 20L45 19L46 19L46 18L47 18L47 16L46 16L46 15L45 15L45 14L46 14L46 13L47 13L47 15L48 15L48 16L50 16L50 14L51 14L51 16L53 16L53 13L52 13L52 12L49 12L49 11L50 11L50 10L48 10L48 9L51 9L51 11L52 11L52 10L53 10L53 8L52 8L52 9L51 9L51 8L48 8L48 9L47 9L47 10L48 10L48 11L46 11L46 10L44 10L44 9L46 9L46 8L44 8L44 7L45 7L45 6L44 6L44 7L43 7L43 3L44 3L44 4L45 4L45 3L44 3L44 1L43 1L43 0L41 0L41 2L43 2L43 3L41 3L41 5L40 5L40 3L39 3L39 2L40 2L40 0L39 0L39 2L38 2L38 3L37 3L37 2L36 2L36 1L34 1L34 0L32 0L32 2L31 2L31 0L30 0L30 1L29 1L29 0L28 0L28 1L27 1L27 3L25 3L25 4L24 4L24 3L23 3L23 2L26 2L26 1L25 1L25 0L24 0L24 1L23 1L23 0L22 0L22 1L21 1L21 2L19 2L19 3L18 3L18 5L19 5L19 6L18 6L18 7L17 7L17 5L16 5L16 4L17 4L17 3L16 3L16 2L17 2L17 0L16 0L16 2L14 2L14 1L13 1L13 0L12 0L12 2L11 2L11 0ZM37 0L37 1L38 1L38 0ZM22 1L22 2L21 2L21 9L20 9L20 6L19 6L19 8L18 8L18 11L17 11L17 9L16 9L16 11L14 11L14 13L15 13L15 12L16 12L16 11L17 11L17 13L16 13L16 14L17 14L17 16L16 16L16 15L15 15L15 16L14 16L14 14L13 14L13 9L11 9L11 10L10 10L10 9L9 9L9 11L10 11L10 12L11 12L11 13L8 13L8 16L10 16L10 14L11 14L11 13L12 13L12 14L13 14L13 16L12 16L12 15L11 15L11 16L12 16L12 17L13 17L13 16L14 16L14 18L15 18L15 17L16 17L16 18L18 18L18 19L19 19L19 20L15 20L15 19L14 19L14 20L13 20L13 18L11 18L11 17L9 17L9 18L8 18L8 19L9 19L9 21L6 21L6 22L3 22L3 21L5 21L5 20L4 20L4 19L5 19L5 18L7 18L7 17L5 17L5 18L2 18L2 19L3 19L3 20L2 20L2 23L3 23L3 24L5 24L5 23L6 23L6 24L7 24L7 23L9 23L9 24L10 24L10 22L12 22L12 23L11 23L11 24L13 24L13 25L12 25L12 26L13 26L13 27L12 27L12 28L16 28L16 27L15 27L15 26L17 26L17 28L18 28L18 29L20 29L20 30L18 30L18 31L21 31L21 33L20 33L20 32L18 32L18 33L17 33L17 30L15 30L15 31L11 31L11 30L10 30L10 29L11 29L11 28L10 28L10 29L9 29L9 30L8 30L8 29L6 29L6 30L8 30L8 31L5 31L5 33L4 33L4 32L3 32L3 35L4 35L4 37L3 37L3 38L2 38L2 39L3 39L3 38L4 38L4 37L5 37L5 35L6 35L6 36L8 36L8 35L6 35L6 34L7 34L7 33L6 33L6 32L10 32L10 31L11 31L11 32L13 32L13 36L14 36L14 40L13 40L13 39L12 39L12 40L13 40L13 42L12 42L12 41L11 41L11 40L10 40L10 41L9 41L9 37L6 37L6 38L7 38L7 39L8 39L8 40L7 40L7 41L9 41L9 42L10 42L10 41L11 41L11 42L12 42L12 44L10 44L10 45L12 45L12 46L13 46L13 45L14 45L14 44L13 44L13 43L14 43L14 42L15 42L15 43L16 43L16 45L15 45L15 46L14 46L14 47L15 47L15 48L14 48L14 49L12 49L12 48L11 48L11 47L10 47L10 48L11 48L11 49L9 49L9 50L11 50L11 51L13 51L13 50L14 50L14 49L15 49L15 48L16 48L16 46L19 46L19 44L20 44L20 43L22 43L22 42L23 42L23 40L24 40L24 42L26 42L26 43L27 43L27 42L28 42L28 41L27 41L27 42L26 42L26 39L27 39L27 38L28 38L28 40L29 40L29 41L30 41L30 42L29 42L29 43L28 43L28 44L31 44L31 46L32 46L32 45L33 45L33 47L34 47L34 46L35 46L35 45L37 45L37 46L36 46L36 47L39 47L39 48L38 48L38 49L39 49L39 48L40 48L40 49L41 49L41 48L42 48L42 47L40 47L40 46L39 46L39 45L40 45L40 41L41 41L41 42L42 42L42 43L41 43L41 44L42 44L42 45L41 45L41 46L42 46L42 45L43 45L43 43L44 43L44 42L45 42L45 44L46 44L46 43L48 43L48 44L49 44L49 46L50 46L50 44L49 44L49 41L47 41L47 40L48 40L48 38L49 38L49 39L50 39L50 38L49 38L49 37L50 37L50 36L51 36L51 35L50 35L50 34L51 34L51 33L52 33L52 31L51 31L51 32L49 32L49 33L50 33L50 34L48 34L48 32L46 32L46 33L47 33L47 34L46 34L46 36L45 36L45 34L44 34L44 33L45 33L45 30L46 30L46 31L50 31L50 30L49 30L49 29L47 29L47 30L46 30L46 29L45 29L45 30L44 30L44 26L43 26L43 25L44 25L44 24L43 24L43 23L41 23L41 21L43 21L43 20L44 20L44 18L45 18L45 17L46 17L46 16L44 16L44 18L43 18L43 17L42 17L42 14L43 14L43 15L44 15L44 14L43 14L43 13L44 13L44 12L42 12L42 13L41 13L41 10L40 10L40 9L38 9L38 8L39 8L39 7L40 7L40 6L39 6L39 7L38 7L38 4L39 4L39 3L38 3L38 4L37 4L37 7L38 7L38 8L35 8L35 9L34 9L34 8L33 8L33 7L34 7L34 6L35 6L35 7L36 7L36 5L35 5L35 4L36 4L36 3L34 3L34 4L33 4L33 3L32 3L32 6L31 6L31 8L30 8L30 5L31 5L31 3L30 3L30 4L29 4L29 3L27 3L27 4L29 4L29 10L28 10L28 11L27 11L27 9L24 9L24 10L26 10L26 12L25 12L25 11L23 11L23 10L22 10L22 6L23 6L23 8L24 8L24 4L23 4L23 3L22 3L22 2L23 2L23 1ZM28 1L28 2L29 2L29 1ZM33 1L33 2L34 2L34 1ZM12 2L12 3L10 3L10 6L9 6L9 7L10 7L10 6L11 6L11 7L12 7L12 6L13 6L13 7L14 7L14 6L15 6L15 7L16 7L16 8L17 8L17 7L16 7L16 6L15 6L15 3L14 3L14 6L13 6L13 2ZM11 4L11 5L12 5L12 4ZM19 4L19 5L20 5L20 4ZM22 4L22 5L23 5L23 4ZM25 5L25 8L28 8L28 5ZM33 5L33 6L32 6L32 7L33 7L33 6L34 6L34 5ZM26 6L26 7L27 7L27 6ZM41 6L41 9L43 9L43 7L42 7L42 6ZM14 8L14 10L15 10L15 8ZM31 8L31 9L30 9L30 10L29 10L29 12L30 12L30 13L31 13L31 14L30 14L30 16L28 16L28 17L29 17L29 19L30 19L30 17L31 17L31 20L33 20L33 19L35 19L35 17L36 17L36 15L35 15L35 16L34 16L34 15L33 15L33 14L32 14L32 12L36 12L36 13L35 13L35 14L37 14L37 13L38 13L38 15L37 15L37 17L39 17L39 18L38 18L38 20L37 20L37 19L36 19L36 20L37 20L37 21L35 21L35 22L34 22L34 21L33 21L33 22L34 22L34 23L35 23L35 24L36 24L36 25L35 25L35 26L38 26L38 27L37 27L37 29L36 29L36 27L34 27L34 25L33 25L33 27L32 27L32 26L29 26L29 25L31 25L31 24L29 24L29 23L32 23L32 24L33 24L33 23L32 23L32 22L31 22L31 21L30 21L30 20L29 20L29 21L28 21L28 20L27 20L27 19L28 19L28 18L26 18L26 17L25 17L25 18L26 18L26 21L25 21L25 20L24 20L24 23L22 23L22 22L21 22L21 23L22 23L22 24L20 24L20 23L19 23L19 24L18 24L18 23L17 23L17 26L21 26L21 27L22 27L22 28L21 28L21 29L22 29L22 28L23 28L23 30L22 30L22 31L23 31L23 30L26 30L26 31L30 31L30 30L29 30L29 29L33 29L33 27L34 27L34 28L35 28L35 29L34 29L34 30L33 30L33 32L34 32L34 33L35 33L35 32L37 32L37 34L34 34L34 36L33 36L33 35L31 35L31 33L32 33L32 34L33 34L33 33L32 33L32 32L31 32L31 33L30 33L30 32L28 32L28 33L29 33L29 34L27 34L27 33L26 33L26 32L25 32L25 31L24 31L24 32L22 32L22 33L21 33L21 34L20 34L20 33L19 33L19 34L20 34L20 35L21 35L21 36L18 36L18 37L17 37L17 35L18 35L18 34L16 34L16 36L15 36L15 38L16 38L16 39L15 39L15 40L14 40L14 41L15 41L15 40L16 40L16 43L17 43L17 44L19 44L19 43L20 43L20 42L19 42L19 41L20 41L20 40L21 40L21 42L22 42L22 40L23 40L23 38L25 38L25 39L26 39L26 36L25 36L25 35L24 35L24 34L25 34L25 33L26 33L26 35L27 35L27 36L29 36L29 35L30 35L30 36L31 36L31 37L32 37L32 36L33 36L33 39L32 39L32 38L30 38L30 37L28 37L28 38L29 38L29 39L30 39L30 40L32 40L32 41L31 41L31 42L33 42L33 43L35 43L35 41L36 41L36 44L37 44L37 41L38 41L38 40L41 40L41 41L42 41L42 40L45 40L45 37L43 37L43 36L42 36L42 35L43 35L43 33L44 33L44 31L43 31L43 32L42 32L42 29L41 29L41 31L40 31L40 30L38 30L38 29L39 29L39 26L40 26L40 28L41 28L41 25L42 25L42 24L41 24L41 25L38 25L38 24L37 24L37 23L35 23L35 22L37 22L37 21L39 21L39 22L40 22L40 21L41 21L41 19L39 19L39 18L42 18L42 17L40 17L40 16L41 16L41 13L40 13L40 11L39 11L39 13L38 13L38 11L36 11L36 10L38 10L38 9L36 9L36 10L34 10L34 9L33 9L33 10L34 10L34 11L31 11L31 10L32 10L32 8ZM3 10L3 11L4 11L4 12L5 12L5 13L6 13L6 14L7 14L7 13L6 13L6 12L5 12L5 10ZM11 10L11 12L12 12L12 10ZM43 10L43 11L44 11L44 10ZM19 11L19 12L18 12L18 13L17 13L17 14L19 14L19 15L18 15L18 16L19 16L19 15L20 15L20 16L21 16L21 15L22 15L22 16L23 16L23 18L22 18L22 17L21 17L21 18L20 18L20 17L18 17L18 18L19 18L19 19L20 19L20 21L23 21L23 20L21 20L21 18L22 18L22 19L24 19L24 16L26 16L26 15L29 15L29 13L28 13L28 12L26 12L26 14L25 14L25 12L23 12L23 11L21 11L21 12L20 12L20 11ZM30 11L30 12L31 12L31 11ZM45 11L45 12L46 12L46 11ZM19 12L19 14L20 14L20 12ZM21 12L21 14L22 14L22 13L23 13L23 12ZM27 13L27 14L28 14L28 13ZM39 13L39 16L40 16L40 13ZM48 13L48 15L49 15L49 13ZM51 13L51 14L52 14L52 13ZM23 14L23 15L24 15L24 14ZM31 14L31 15L32 15L32 14ZM6 15L6 16L7 16L7 15ZM31 16L31 17L32 17L32 19L33 19L33 17L34 17L34 16L33 16L33 17L32 17L32 16ZM49 18L49 19L50 19L50 18ZM6 19L6 20L7 20L7 19ZM11 19L11 20L12 20L12 22L14 22L14 23L16 23L16 22L15 22L15 21L13 21L13 20L12 20L12 19ZM39 20L39 21L40 21L40 20ZM48 20L48 21L44 21L44 22L45 22L45 23L46 23L46 22L48 22L48 23L47 23L47 24L48 24L48 23L49 23L49 20ZM9 21L9 22L10 22L10 21ZM17 21L17 22L18 22L18 21ZM26 21L26 22L27 22L27 21ZM29 21L29 22L28 22L28 23L24 23L24 24L22 24L22 25L21 25L21 26L22 26L22 27L23 27L23 28L24 28L24 24L28 24L28 23L29 23L29 22L30 22L30 21ZM50 21L50 22L51 22L51 21ZM6 22L6 23L7 23L7 22ZM39 23L39 24L40 24L40 23ZM15 24L15 25L13 25L13 26L15 26L15 25L16 25L16 24ZM5 25L5 28L8 28L8 25ZM9 25L9 26L10 26L10 27L11 27L11 25ZM22 25L22 26L23 26L23 25ZM25 25L25 28L28 28L28 25ZM45 25L45 28L48 28L48 25ZM51 25L51 26L52 26L52 25ZM0 26L0 27L1 27L1 26ZM6 26L6 27L7 27L7 26ZM26 26L26 27L27 27L27 26ZM42 26L42 28L43 28L43 26ZM46 26L46 27L47 27L47 26ZM3 27L3 28L4 28L4 27ZM18 27L18 28L20 28L20 27ZM29 27L29 28L30 28L30 27ZM31 27L31 28L32 28L32 27ZM0 29L0 30L1 30L1 29ZM13 29L13 30L14 30L14 29ZM35 29L35 31L34 31L34 32L35 32L35 31L37 31L37 32L38 32L38 31L37 31L37 30L36 30L36 29ZM9 30L9 31L10 31L10 30ZM31 30L31 31L32 31L32 30ZM39 31L39 32L40 32L40 31ZM14 32L14 33L16 33L16 32ZM24 32L24 33L25 33L25 32ZM41 32L41 34L39 34L39 33L38 33L38 34L39 34L39 35L38 35L38 36L37 36L37 38L36 38L36 41L37 41L37 39L38 39L38 36L39 36L39 35L40 35L40 37L39 37L39 39L40 39L40 37L41 37L41 39L42 39L42 38L43 38L43 37L42 37L42 36L41 36L41 35L42 35L42 32ZM5 33L5 34L4 34L4 35L5 35L5 34L6 34L6 33ZM8 33L8 34L9 34L9 35L10 35L10 38L12 38L12 36L11 36L11 35L12 35L12 34L11 34L11 33L10 33L10 34L9 34L9 33ZM0 34L0 35L1 35L1 34ZM10 34L10 35L11 35L11 34ZM21 34L21 35L23 35L23 36L21 36L21 39L22 39L22 37L23 37L23 36L24 36L24 37L25 37L25 36L24 36L24 35L23 35L23 34ZM47 34L47 37L46 37L46 40L47 40L47 38L48 38L48 36L49 36L49 35L48 35L48 34ZM35 36L35 37L34 37L34 39L33 39L33 40L34 40L34 41L35 41L35 37L36 37L36 36ZM16 37L16 38L17 38L17 37ZM18 38L18 39L16 39L16 40L17 40L17 43L18 43L18 41L19 41L19 40L18 40L18 39L19 39L19 38ZM45 41L45 42L46 42L46 41ZM2 42L2 43L3 43L3 42ZM38 42L38 43L39 43L39 42ZM31 43L31 44L32 44L32 43ZM12 44L12 45L13 45L13 44ZM20 45L20 46L21 46L21 45ZM25 45L25 48L28 48L28 45ZM29 45L29 47L30 47L30 45ZM45 45L45 48L48 48L48 45ZM26 46L26 47L27 47L27 46ZM43 46L43 49L42 49L42 50L41 50L41 52L42 52L42 50L43 50L43 51L44 51L44 52L45 52L45 50L46 50L46 49L44 49L44 46ZM46 46L46 47L47 47L47 46ZM18 47L18 48L19 48L19 49L20 49L20 48L21 48L21 47ZM49 47L49 49L50 49L50 48L52 48L52 47ZM22 50L22 51L23 51L23 50ZM17 51L17 52L18 52L18 51ZM31 51L31 52L32 52L32 51ZM38 52L38 53L39 53L39 52ZM0 0L0 7L7 7L7 0ZM1 1L1 6L6 6L6 1ZM2 2L2 5L5 5L5 2ZM46 0L46 7L53 7L53 0ZM47 1L47 6L52 6L52 1ZM48 2L48 5L51 5L51 2ZM0 46L0 53L7 53L7 46ZM1 47L1 52L6 52L6 47ZM2 48L2 51L5 51L5 48Z" fill="#000000"/></g></g></svg>
