<?xml version="1.0" encoding="UTF-8"?>
<svg xmlns="http://www.w3.org/2000/svg" version="1.1" width="300" height="300" viewBox="0 0 300 300"><rect x="0" y="0" width="300" height="300" fill="#ffffff"/><g transform="scale(5.66)"><g transform="translate(0,0)"><path fill-rule="evenodd" d="M9 0L9 1L8 1L8 2L9 2L9 3L8 3L8 4L9 4L9 5L8 5L8 7L9 7L9 8L6 8L6 9L7 9L7 10L6 10L6 11L7 11L7 12L5 12L5 10L3 10L3 9L5 9L5 8L0 8L0 13L2 13L2 15L1 15L1 16L0 16L0 17L1 17L1 18L0 18L0 19L1 19L1 18L2 18L2 20L0 20L0 22L1 22L1 24L0 24L0 26L1 26L1 24L2 24L2 22L3 22L3 21L4 21L4 23L8 23L8 24L4 24L4 25L2 25L2 27L3 27L3 26L4 26L4 28L1 28L1 29L0 29L0 30L1 30L1 31L0 31L0 32L1 32L1 33L0 33L0 34L1 34L1 33L2 33L2 36L3 36L3 37L4 37L4 38L2 38L2 37L0 37L0 38L1 38L1 39L5 39L5 41L4 41L4 42L3 42L3 43L2 43L2 41L0 41L0 43L1 43L1 44L3 44L3 45L4 45L4 44L3 44L3 43L7 43L7 44L6 44L6 45L7 45L7 44L8 44L8 47L9 47L9 46L10 46L10 48L11 48L11 49L12 49L12 50L9 50L9 48L8 48L8 53L11 53L11 52L10 52L10 51L12 51L12 50L13 50L13 52L12 52L12 53L14 53L14 51L15 51L15 50L16 50L16 51L18 51L18 53L19 53L19 51L20 51L20 49L21 49L21 50L23 50L23 51L25 51L25 50L26 50L26 51L28 51L28 52L26 52L26 53L28 53L28 52L30 52L30 53L32 53L32 52L33 52L33 51L32 51L32 52L31 52L31 51L29 51L29 50L33 50L33 49L31 49L31 47L32 47L32 48L33 48L33 47L34 47L34 48L35 48L35 46L36 46L36 47L37 47L37 44L38 44L38 45L39 45L39 46L38 46L38 48L36 48L36 50L34 50L34 51L35 51L35 52L36 52L36 53L37 53L37 52L36 52L36 51L37 51L37 50L38 50L38 51L40 51L40 52L39 52L39 53L40 53L40 52L41 52L41 51L40 51L40 50L41 50L41 49L42 49L42 50L43 50L43 51L42 51L42 52L44 52L44 50L47 50L47 49L49 49L49 50L48 50L48 52L46 52L46 51L45 51L45 52L46 52L46 53L49 53L49 50L50 50L50 49L52 49L52 47L51 47L51 48L50 48L50 46L53 46L53 44L52 44L52 45L51 45L51 44L50 44L50 42L51 42L51 40L50 40L50 39L52 39L52 38L53 38L53 35L52 35L52 34L53 34L53 33L52 33L52 32L53 32L53 31L52 31L52 30L53 30L53 29L52 29L52 28L53 28L53 27L51 27L51 28L50 28L50 25L51 25L51 26L53 26L53 23L52 23L52 22L53 22L53 19L52 19L52 21L51 21L51 20L50 20L50 19L51 19L51 18L50 18L50 19L49 19L49 18L48 18L48 19L47 19L47 21L49 21L49 22L48 22L48 23L49 23L49 24L45 24L45 23L47 23L47 22L45 22L45 23L44 23L44 21L45 21L45 20L46 20L46 18L45 18L45 20L44 20L44 19L42 19L42 18L44 18L44 17L49 17L49 16L50 16L50 17L52 17L52 18L53 18L53 17L52 17L52 16L53 16L53 15L51 15L51 16L50 16L50 15L49 15L49 14L50 14L50 13L51 13L51 14L53 14L53 13L52 13L52 12L53 12L53 11L51 11L51 10L53 10L53 9L52 9L52 8L51 8L51 10L49 10L49 12L48 12L48 8L47 8L47 12L46 12L46 11L45 11L45 12L44 12L44 13L42 13L42 11L40 11L40 10L43 10L43 11L44 11L44 10L43 10L43 9L46 9L46 8L45 8L45 6L44 6L44 7L43 7L43 3L44 3L44 4L45 4L45 3L44 3L44 1L43 1L43 0L41 0L41 1L42 1L42 2L43 2L43 3L41 3L41 2L39 2L39 1L40 1L40 0L39 0L39 1L38 1L38 0L37 0L37 1L36 1L36 2L35 2L35 1L34 1L34 0L33 0L33 1L31 1L31 0L30 0L30 1L31 1L31 2L32 2L32 3L31 3L31 4L30 4L30 2L28 2L28 1L29 1L29 0L27 0L27 1L25 1L25 0L24 0L24 1L25 1L25 2L24 2L24 3L25 3L25 4L21 4L21 3L19 3L19 1L20 1L20 2L22 2L22 1L23 1L23 0L22 0L22 1L20 1L20 0L19 0L19 1L18 1L18 0L17 0L17 1L18 1L18 4L17 4L17 3L16 3L16 2L15 2L15 1L16 1L16 0L15 0L15 1L14 1L14 0L13 0L13 1L12 1L12 2L11 2L11 0ZM37 1L37 2L36 2L36 3L35 3L35 2L33 2L33 3L32 3L32 4L33 4L33 3L34 3L34 5L29 5L29 9L31 9L31 10L30 10L30 11L31 11L31 12L32 12L32 13L34 13L34 14L35 14L35 15L34 15L34 16L35 16L35 17L33 17L33 16L32 16L32 15L31 15L31 14L28 14L28 13L30 13L30 12L28 12L28 13L23 13L23 12L24 12L24 11L25 11L25 12L27 12L27 11L29 11L29 10L27 10L27 9L25 9L25 10L23 10L23 11L22 11L22 9L24 9L24 5L23 5L23 8L22 8L22 9L20 9L20 8L21 8L21 7L22 7L22 6L21 6L21 4L18 4L18 5L17 5L17 4L15 4L15 3L14 3L14 2L13 2L13 3L11 3L11 2L10 2L10 3L11 3L11 4L10 4L10 6L9 6L9 7L10 7L10 6L11 6L11 7L12 7L12 6L11 6L11 5L12 5L12 4L13 4L13 3L14 3L14 4L15 4L15 8L16 8L16 9L13 9L13 8L14 8L14 6L13 6L13 8L11 8L11 9L8 9L8 12L7 12L7 13L6 13L6 14L5 14L5 12L4 12L4 13L3 13L3 10L2 10L2 11L1 11L1 12L2 12L2 13L3 13L3 15L2 15L2 17L4 17L4 18L3 18L3 19L4 19L4 18L7 18L7 19L5 19L5 20L4 20L4 21L5 21L5 22L8 22L8 20L10 20L10 21L9 21L9 22L10 22L10 23L9 23L9 24L10 24L10 23L11 23L11 24L12 24L12 23L13 23L13 24L14 24L14 23L13 23L13 21L12 21L12 23L11 23L11 19L12 19L12 20L13 20L13 17L14 17L14 18L15 18L15 19L16 19L16 20L17 20L17 21L15 21L15 20L14 20L14 21L15 21L15 23L17 23L17 24L16 24L16 25L10 25L10 26L9 26L9 29L5 29L5 31L4 31L4 30L3 30L3 29L1 29L1 30L2 30L2 31L1 31L1 32L2 32L2 31L4 31L4 33L3 33L3 36L4 36L4 37L5 37L5 39L6 39L6 40L7 40L7 41L6 41L6 42L7 42L7 43L8 43L8 42L9 42L9 41L10 41L10 44L11 44L11 45L10 45L10 46L12 46L12 47L11 47L11 48L12 48L12 49L13 49L13 50L14 50L14 48L15 48L15 47L14 47L14 46L18 46L18 47L16 47L16 48L19 48L19 47L20 47L20 46L21 46L21 47L22 47L22 48L21 48L21 49L24 49L24 48L23 48L23 46L24 46L24 45L23 45L23 44L29 44L29 43L28 43L28 42L26 42L26 41L27 41L27 40L26 40L26 39L28 39L28 41L31 41L31 42L30 42L30 43L33 43L33 42L35 42L35 43L34 43L34 44L35 44L35 45L33 45L33 44L32 44L32 45L31 45L31 44L30 44L30 45L29 45L29 46L30 46L30 47L31 47L31 46L32 46L32 47L33 47L33 46L35 46L35 45L36 45L36 44L37 44L37 43L38 43L38 44L39 44L39 43L40 43L40 42L41 42L41 43L47 43L47 44L48 44L48 43L49 43L49 42L50 42L50 40L48 40L48 39L49 39L49 38L48 38L48 37L50 37L50 36L52 36L52 35L51 35L51 31L50 31L50 30L52 30L52 29L50 29L50 28L49 28L49 30L48 30L48 29L46 29L46 31L45 31L45 30L42 30L42 31L41 31L41 30L40 30L40 31L41 31L41 32L39 32L39 31L37 31L37 30L39 30L39 28L40 28L40 29L41 29L41 28L42 28L42 27L43 27L43 29L44 29L44 27L43 27L43 26L42 26L42 25L44 25L44 23L43 23L43 22L41 22L41 21L42 21L42 20L40 20L40 19L41 19L41 18L42 18L42 17L44 17L44 16L42 16L42 15L43 15L43 14L40 14L40 15L39 15L39 16L38 16L38 18L37 18L37 19L36 19L36 20L35 20L35 19L34 19L34 20L35 20L35 21L34 21L34 22L35 22L35 23L36 23L36 24L31 24L31 26L29 26L29 30L30 30L30 31L28 31L28 32L26 32L26 31L27 31L27 30L26 30L26 29L24 29L24 27L23 27L23 26L24 26L24 24L23 24L23 23L25 23L25 22L24 22L24 21L26 21L26 24L29 24L29 23L31 23L31 22L33 22L33 18L35 18L35 17L36 17L36 16L37 16L37 15L36 15L36 14L39 14L39 12L40 12L40 13L41 13L41 12L40 12L40 11L38 11L38 10L40 10L40 9L41 9L41 8L43 8L43 7L42 7L42 6L41 6L41 5L42 5L42 4L41 4L41 3L40 3L40 4L39 4L39 3L38 3L38 4L36 4L36 3L37 3L37 2L38 2L38 1ZM26 2L26 3L28 3L28 4L29 4L29 3L28 3L28 2ZM18 5L18 8L17 8L17 9L16 9L16 10L15 10L15 11L16 11L16 12L15 12L15 13L17 13L17 9L19 9L19 8L20 8L20 7L21 7L21 6L20 6L20 7L19 7L19 5ZM25 5L25 8L28 8L28 5ZM34 5L34 8L33 8L33 6L32 6L32 8L33 8L33 9L32 9L32 10L33 10L33 11L32 11L32 12L34 12L34 11L35 11L35 12L36 12L36 13L38 13L38 12L36 12L36 11L37 11L37 10L38 10L38 9L39 9L39 5L37 5L37 6L36 6L36 7L37 7L37 8L36 8L36 9L35 9L35 10L34 10L34 8L35 8L35 5ZM16 6L16 7L17 7L17 6ZM26 6L26 7L27 7L27 6ZM30 6L30 8L31 8L31 6ZM37 6L37 7L38 7L38 6ZM40 6L40 8L41 8L41 6ZM49 8L49 9L50 9L50 8ZM36 9L36 10L37 10L37 9ZM13 10L13 11L14 11L14 10ZM18 10L18 13L21 13L21 12L22 12L22 11L21 11L21 10L20 10L20 12L19 12L19 10ZM26 10L26 11L27 11L27 10ZM9 11L9 12L8 12L8 13L9 13L9 14L8 14L8 16L4 16L4 15L3 15L3 16L4 16L4 17L7 17L7 18L8 18L8 16L12 16L12 15L13 15L13 16L14 16L14 15L13 15L13 14L14 14L14 12L13 12L13 14L12 14L12 13L11 13L11 11ZM50 11L50 12L51 12L51 11ZM9 12L9 13L10 13L10 14L9 14L9 15L10 15L10 14L11 14L11 13L10 13L10 12ZM44 13L44 14L48 14L48 13ZM6 14L6 15L7 15L7 14ZM17 14L17 15L16 15L16 16L17 16L17 17L21 17L21 18L20 18L20 19L21 19L21 18L22 18L22 20L25 20L25 19L24 19L24 16L26 16L26 19L27 19L27 20L26 20L26 21L27 21L27 22L29 22L29 21L30 21L30 22L31 22L31 21L32 21L32 18L31 18L31 15L30 15L30 16L29 16L29 17L27 17L27 16L26 16L26 15L27 15L27 14L26 14L26 15L24 15L24 14L23 14L23 17L22 17L22 16L19 16L19 14ZM20 14L20 15L21 15L21 14ZM35 15L35 16L36 16L36 15ZM40 15L40 16L41 16L41 15ZM46 15L46 16L48 16L48 15ZM9 17L9 18L10 18L10 19L11 19L11 17ZM15 17L15 18L16 18L16 17ZM17 18L17 19L18 19L18 18ZM28 18L28 20L27 20L27 21L28 21L28 20L29 20L29 18ZM30 18L30 19L31 19L31 18ZM38 18L38 19L39 19L39 18ZM48 19L48 20L49 20L49 21L50 21L50 24L51 24L51 21L50 21L50 20L49 20L49 19ZM2 20L2 21L1 21L1 22L2 22L2 21L3 21L3 20ZM6 20L6 21L7 21L7 20ZM18 20L18 21L17 21L17 23L18 23L18 21L19 21L19 20ZM20 20L20 21L21 21L21 22L20 22L20 25L21 25L21 26L18 26L18 29L17 29L17 25L19 25L19 24L17 24L17 25L16 25L16 26L15 26L15 27L16 27L16 29L17 29L17 31L18 31L18 32L17 32L17 33L19 33L19 34L18 34L18 37L19 37L19 36L20 36L20 37L21 37L21 39L22 39L22 40L23 40L23 39L22 39L22 38L23 38L23 37L21 37L21 36L20 36L20 33L21 33L21 32L23 32L23 33L22 33L22 35L23 35L23 36L25 36L25 38L24 38L24 39L25 39L25 38L27 38L27 37L28 37L28 36L27 36L27 37L26 37L26 35L25 35L25 34L27 34L27 35L29 35L29 34L31 34L31 31L32 31L32 32L33 32L33 33L32 33L32 36L31 36L31 37L30 37L30 38L28 38L28 39L29 39L29 40L30 40L30 38L31 38L31 37L32 37L32 38L33 38L33 37L35 37L35 36L36 36L36 37L37 37L37 36L36 36L36 35L35 35L35 34L33 34L33 33L34 33L34 32L33 32L33 31L35 31L35 30L34 30L34 28L36 28L36 29L38 29L38 28L39 28L39 27L40 27L40 28L41 28L41 27L42 27L42 26L41 26L41 25L42 25L42 24L43 24L43 23L42 23L42 24L41 24L41 23L40 23L40 20L38 20L38 21L39 21L39 22L38 22L38 23L37 23L37 20L36 20L36 21L35 21L35 22L36 22L36 23L37 23L37 24L36 24L36 25L37 25L37 26L36 26L36 27L35 27L35 26L34 26L34 28L33 28L33 27L32 27L32 28L31 28L31 27L30 27L30 28L31 28L31 29L30 29L30 30L31 30L31 31L30 31L30 32L28 32L28 33L25 33L25 34L24 34L24 31L22 31L22 30L24 30L24 29L21 29L21 28L19 28L19 27L22 27L22 26L23 26L23 25L22 25L22 23L23 23L23 21L21 21L21 20ZM43 20L43 21L44 21L44 20ZM21 22L21 23L22 23L22 22ZM38 23L38 26L40 26L40 27L41 27L41 26L40 26L40 25L41 25L41 24L40 24L40 23ZM5 25L5 28L8 28L8 25ZM25 25L25 28L28 28L28 25ZM32 25L32 26L33 26L33 25ZM45 25L45 28L48 28L48 25ZM6 26L6 27L7 27L7 26ZM12 26L12 27L11 27L11 28L10 28L10 29L11 29L11 30L6 30L6 31L7 31L7 32L5 32L5 33L7 33L7 34L6 34L6 35L8 35L8 36L6 36L6 37L8 37L8 38L11 38L11 39L10 39L10 41L11 41L11 39L12 39L12 40L13 40L13 41L15 41L15 40L16 40L16 41L19 41L19 42L18 42L18 43L19 43L19 44L18 44L18 45L19 45L19 46L20 46L20 45L21 45L21 44L20 44L20 43L19 43L19 42L20 42L20 41L21 41L21 40L20 40L20 39L17 39L17 40L16 40L16 38L15 38L15 37L17 37L17 35L16 35L16 36L15 36L15 37L14 37L14 35L15 35L15 34L16 34L16 31L15 31L15 34L14 34L14 33L12 33L12 32L11 32L11 30L12 30L12 31L13 31L13 32L14 32L14 31L13 31L13 30L15 30L15 29L14 29L14 28L12 28L12 27L14 27L14 26ZM26 26L26 27L27 27L27 26ZM46 26L46 27L47 27L47 26ZM36 27L36 28L37 28L37 27ZM32 28L32 31L33 31L33 28ZM18 29L18 30L19 30L19 32L21 32L21 31L20 31L20 30L21 30L21 29ZM8 31L8 32L9 32L9 34L8 34L8 35L9 35L9 37L11 37L11 38L12 38L12 39L13 39L13 40L14 40L14 39L13 39L13 38L12 38L12 37L13 37L13 36L10 36L10 35L11 35L11 33L10 33L10 31ZM43 31L43 32L42 32L42 33L39 33L39 32L38 32L38 33L37 33L37 32L36 32L36 33L37 33L37 35L38 35L38 33L39 33L39 35L40 35L40 36L38 36L38 37L39 37L39 38L34 38L34 39L35 39L35 40L36 40L36 41L37 41L37 42L36 42L36 43L35 43L35 44L36 44L36 43L37 43L37 42L38 42L38 43L39 43L39 42L40 42L40 40L44 40L44 41L41 41L41 42L44 42L44 41L46 41L46 42L47 42L47 41L46 41L46 40L47 40L47 39L46 39L46 38L47 38L47 37L48 37L48 35L49 35L49 36L50 36L50 35L49 35L49 34L50 34L50 31L49 31L49 33L48 33L48 35L46 35L46 36L47 36L47 37L45 37L45 36L44 36L44 35L45 35L45 34L47 34L47 31L46 31L46 33L44 33L44 35L40 35L40 34L43 34L43 32L45 32L45 31ZM28 33L28 34L29 34L29 33ZM13 34L13 35L14 35L14 34ZM23 34L23 35L24 35L24 34ZM0 35L0 36L1 36L1 35ZM4 35L4 36L5 36L5 35ZM34 35L34 36L35 36L35 35ZM32 36L32 37L33 37L33 36ZM40 36L40 37L42 37L42 36ZM43 36L43 38L40 38L40 39L44 39L44 36ZM6 38L6 39L7 39L7 40L8 40L8 41L9 41L9 40L8 40L8 39L7 39L7 38ZM31 39L31 40L33 40L33 39ZM36 39L36 40L37 40L37 39ZM45 39L45 40L46 40L46 39ZM24 40L24 41L22 41L22 44L23 44L23 42L24 42L24 43L26 43L26 42L25 42L25 40ZM32 41L32 42L33 42L33 41ZM38 41L38 42L39 42L39 41ZM48 41L48 42L49 42L49 41ZM52 41L52 42L53 42L53 41ZM11 42L11 43L14 43L14 44L16 44L16 45L17 45L17 44L16 44L16 43L17 43L17 42L15 42L15 43L14 43L14 42ZM40 44L40 45L41 45L41 48L40 48L40 49L41 49L41 48L42 48L42 47L44 47L44 44L43 44L43 46L42 46L42 45L41 45L41 44ZM22 45L22 46L23 46L23 45ZM25 45L25 48L28 48L28 45ZM30 45L30 46L31 46L31 45ZM32 45L32 46L33 46L33 45ZM45 45L45 48L48 48L48 45ZM49 45L49 46L50 46L50 45ZM26 46L26 47L27 47L27 46ZM46 46L46 47L47 47L47 46ZM29 48L29 49L26 49L26 50L29 50L29 49L30 49L30 48ZM38 48L38 50L39 50L39 48ZM43 48L43 50L44 50L44 48ZM49 48L49 49L50 49L50 48ZM16 49L16 50L18 50L18 51L19 51L19 49ZM52 50L52 51L51 51L51 52L50 52L50 53L51 53L51 52L52 52L52 51L53 51L53 50ZM15 52L15 53L17 53L17 52ZM20 52L20 53L21 53L21 52ZM24 52L24 53L25 53L25 52ZM0 0L0 7L7 7L7 0ZM1 1L1 6L6 6L6 1ZM2 2L2 5L5 5L5 2ZM46 0L46 7L53 7L53 0ZM47 1L47 6L52 6L52 1ZM48 2L48 5L51 5L51 2ZM0 46L0 53L7 53L7 46ZM1 47L1 52L6 52L6 47ZM2 48L2 51L5 51L5 48Z" fill="#000000"/></g></g></svg>
