<?xml version="1.0" encoding="UTF-8"?>
<svg xmlns="http://www.w3.org/2000/svg" version="1.1" width="300" height="300" viewBox="0 0 300 300"><rect x="0" y="0" width="300" height="300" fill="#ffffff"/><g transform="scale(5.263)"><g transform="translate(0,0)"><path fill-rule="evenodd" d="M9 0L9 1L8 1L8 2L9 2L9 3L8 3L8 4L9 4L9 5L8 5L8 7L9 7L9 8L6 8L6 9L7 9L7 10L6 10L6 11L5 11L5 12L4 12L4 13L5 13L5 12L6 12L6 13L8 13L8 15L9 15L9 18L6 18L6 19L8 19L8 20L10 20L10 22L8 22L8 23L7 23L7 22L6 22L6 21L7 21L7 20L5 20L5 18L4 18L4 17L3 17L3 16L1 16L1 15L3 15L3 14L2 14L2 12L3 12L3 10L5 10L5 8L0 8L0 12L1 12L1 14L0 14L0 17L2 17L2 18L1 18L1 19L0 19L0 20L1 20L1 22L0 22L0 27L2 27L2 28L3 28L3 30L2 30L2 29L1 29L1 28L0 28L0 29L1 29L1 30L2 30L2 31L3 31L3 32L0 32L0 35L1 35L1 33L2 33L2 34L3 34L3 33L4 33L4 34L6 34L6 35L4 35L4 36L2 36L2 37L1 37L1 38L0 38L0 39L3 39L3 38L4 38L4 41L3 41L3 40L0 40L0 41L2 41L2 42L0 42L0 44L1 44L1 45L2 45L2 47L1 47L1 46L0 46L0 48L5 48L5 47L7 47L7 48L6 48L6 49L8 49L8 51L10 51L10 52L8 52L8 57L12 57L12 56L15 56L15 57L19 57L19 56L17 56L17 53L20 53L20 52L21 52L21 54L24 54L24 53L25 53L25 54L30 54L30 53L32 53L32 52L33 52L33 54L34 54L34 55L35 55L35 54L36 54L36 55L37 55L37 54L38 54L38 55L39 55L39 56L36 56L36 57L40 57L40 56L42 56L42 57L44 57L44 55L43 55L43 56L42 56L42 55L39 55L39 54L40 54L40 52L41 52L41 54L43 54L43 53L44 53L44 54L45 54L45 55L47 55L47 56L48 56L48 57L52 57L52 56L53 56L53 57L54 57L54 56L55 56L55 57L56 57L56 56L55 56L55 54L53 54L53 52L55 52L55 53L57 53L57 52L55 52L55 49L56 49L56 50L57 50L57 47L56 47L56 46L57 46L57 45L56 45L56 44L55 44L55 43L56 43L56 42L57 42L57 41L56 41L56 42L55 42L55 43L54 43L54 40L55 40L55 39L57 39L57 37L54 37L54 36L55 36L55 34L57 34L57 33L56 33L56 32L55 32L55 31L56 31L56 27L53 27L53 26L52 26L52 24L53 24L53 25L54 25L54 26L55 26L55 25L56 25L56 26L57 26L57 25L56 25L56 22L57 22L57 21L56 21L56 19L55 19L55 18L57 18L57 15L56 15L56 14L57 14L57 13L54 13L54 14L53 14L53 15L51 15L51 14L50 14L50 15L48 15L48 16L51 16L51 17L52 17L52 16L53 16L53 15L54 15L54 16L55 16L55 17L53 17L53 18L50 18L50 19L52 19L52 20L50 20L50 21L47 21L47 22L46 22L46 23L47 23L47 24L51 24L51 26L49 26L49 25L47 25L47 26L45 26L45 25L46 25L46 24L45 24L45 23L44 23L44 22L45 22L45 21L44 21L44 22L43 22L43 20L49 20L49 17L47 17L47 14L46 14L46 13L48 13L48 14L49 14L49 13L48 13L48 12L49 12L49 9L50 9L50 8L49 8L49 6L48 6L48 7L47 7L47 5L48 5L48 0L42 0L42 1L45 1L45 2L42 2L42 3L47 3L47 5L44 5L44 4L40 4L40 5L38 5L38 3L41 3L41 2L39 2L39 1L41 1L41 0L39 0L39 1L38 1L38 3L35 3L35 4L37 4L37 5L36 5L36 7L35 7L35 5L34 5L34 4L33 4L33 6L32 6L32 3L33 3L33 2L35 2L35 1L34 1L34 0L33 0L33 1L31 1L31 0L27 0L27 1L25 1L25 0L21 0L21 1L20 1L20 3L21 3L21 4L19 4L19 3L18 3L18 4L19 4L19 5L18 5L18 7L19 7L19 8L16 8L16 7L17 7L17 6L16 6L16 7L15 7L15 6L14 6L14 7L13 7L13 6L12 6L12 5L13 5L13 4L14 4L14 5L16 5L16 4L14 4L14 1L15 1L15 3L16 3L16 2L17 2L17 1L16 1L16 0L14 0L14 1L13 1L13 0L12 0L12 1L11 1L11 2L12 2L12 4L10 4L10 2L9 2L9 1L10 1L10 0ZM18 1L18 2L19 2L19 1ZM21 1L21 3L22 3L22 4L21 4L21 8L22 8L22 9L20 9L20 10L19 10L19 9L15 9L15 8L14 8L14 9L13 9L13 7L12 7L12 6L11 6L11 7L10 7L10 6L9 6L9 7L10 7L10 9L11 9L11 11L10 11L10 10L8 10L8 13L9 13L9 11L10 11L10 12L11 12L11 11L13 11L13 12L14 12L14 11L13 11L13 10L14 10L14 9L15 9L15 12L16 12L16 10L17 10L17 11L18 11L18 10L19 10L19 15L18 15L18 14L17 14L17 13L18 13L18 12L17 12L17 13L10 13L10 15L11 15L11 16L12 16L12 14L15 14L15 16L14 16L14 17L13 17L13 18L12 18L12 17L11 17L11 19L10 19L10 18L9 18L9 19L10 19L10 20L11 20L11 21L12 21L12 23L13 23L13 27L12 27L12 28L9 28L9 29L10 29L10 30L11 30L11 31L8 31L8 33L6 33L6 34L7 34L7 35L6 35L6 36L11 36L11 35L10 35L10 34L11 34L11 33L10 33L10 32L11 32L11 31L12 31L12 33L13 33L13 34L15 34L15 33L16 33L16 36L15 36L15 35L14 35L14 36L13 36L13 35L12 35L12 37L11 37L11 38L10 38L10 39L9 39L9 37L8 37L8 38L7 38L7 37L4 37L4 38L7 38L7 39L6 39L6 40L8 40L8 42L7 42L7 41L4 41L4 43L3 43L3 42L2 42L2 43L1 43L1 44L2 44L2 45L3 45L3 47L5 47L5 46L7 46L7 47L8 47L8 43L9 43L9 44L10 44L10 45L9 45L9 46L10 46L10 45L11 45L11 47L9 47L9 50L10 50L10 51L11 51L11 53L12 53L12 54L11 54L11 55L10 55L10 56L12 56L12 55L14 55L14 54L13 54L13 53L12 53L12 52L13 52L13 51L14 51L14 48L15 48L15 47L16 47L16 48L17 48L17 49L16 49L16 51L15 51L15 52L16 52L16 53L15 53L15 54L16 54L16 53L17 53L17 52L18 52L18 50L19 50L19 49L18 49L18 48L17 48L17 47L18 47L18 46L17 46L17 45L18 45L18 44L17 44L17 43L18 43L18 42L19 42L19 44L21 44L21 45L19 45L19 47L20 47L20 46L21 46L21 49L20 49L20 51L21 51L21 52L22 52L22 53L24 53L24 51L25 51L25 53L26 53L26 50L24 50L24 49L26 49L26 47L27 47L27 48L28 48L28 47L30 47L30 48L31 48L31 47L33 47L33 48L32 48L32 49L33 49L33 50L36 50L36 51L34 51L34 52L35 52L35 53L34 53L34 54L35 54L35 53L36 53L36 54L37 54L37 53L36 53L36 52L37 52L37 51L38 51L38 50L39 50L39 52L40 52L40 51L41 51L41 52L42 52L42 53L43 53L43 52L44 52L44 53L45 53L45 51L46 51L46 52L48 52L48 50L47 50L47 49L48 49L48 48L49 48L49 47L48 47L48 45L49 45L49 46L50 46L50 47L51 47L51 48L54 48L54 49L53 49L53 51L54 51L54 49L55 49L55 48L56 48L56 47L55 47L55 48L54 48L54 45L55 45L55 44L54 44L54 45L52 45L52 44L53 44L53 41L52 41L52 42L50 42L50 43L49 43L49 42L47 42L47 41L48 41L48 40L50 40L50 39L53 39L53 40L54 40L54 38L53 38L53 37L52 37L52 36L53 36L53 34L55 34L55 32L54 32L54 30L55 30L55 28L53 28L53 29L54 29L54 30L53 30L53 31L51 31L51 32L50 32L50 31L49 31L49 33L48 33L48 32L47 32L47 31L48 31L48 29L45 29L45 28L44 28L44 29L43 29L43 30L42 30L42 27L45 27L45 26L44 26L44 25L45 25L45 24L44 24L44 25L43 25L43 22L41 22L41 20L42 20L42 19L43 19L43 18L42 18L42 17L43 17L43 16L42 16L42 15L43 15L43 14L44 14L44 15L45 15L45 16L44 16L44 19L46 19L46 18L47 18L47 17L45 17L45 16L46 16L46 15L45 15L45 12L44 12L44 13L43 13L43 14L42 14L42 13L41 13L41 12L39 12L39 11L41 11L41 10L42 10L42 11L44 11L44 10L45 10L45 11L46 11L46 10L47 10L47 9L49 9L49 8L47 8L47 7L46 7L46 6L45 6L45 7L46 7L46 8L44 8L44 5L40 5L40 6L39 6L39 7L38 7L38 5L37 5L37 7L36 7L36 8L38 8L38 10L39 10L39 11L36 11L36 10L37 10L37 9L35 9L35 7L34 7L34 6L33 6L33 7L34 7L34 9L33 9L33 8L32 8L32 6L31 6L31 9L33 9L33 10L32 10L32 11L33 11L33 10L35 10L35 11L34 11L34 12L30 12L30 11L31 11L31 10L30 10L30 9L27 9L27 11L26 11L26 9L25 9L25 8L26 8L26 4L29 4L29 3L27 3L27 2L25 2L25 1ZM28 1L28 2L29 2L29 1ZM36 1L36 2L37 2L37 1ZM46 1L46 2L47 2L47 1ZM22 2L22 3L23 3L23 4L22 4L22 5L23 5L23 6L22 6L22 7L23 7L23 6L24 6L24 8L23 8L23 9L22 9L22 11L21 11L21 10L20 10L20 11L21 11L21 12L20 12L20 13L21 13L21 15L23 15L23 16L25 16L25 17L24 17L24 19L23 19L23 20L24 20L24 21L22 21L22 18L23 18L23 17L22 17L22 18L20 18L20 19L21 19L21 21L22 21L22 22L21 22L21 24L20 24L20 25L22 25L22 26L21 26L21 27L19 27L19 29L18 29L18 28L17 28L17 27L18 27L18 26L17 26L17 27L16 27L16 26L15 26L15 24L14 24L14 26L15 26L15 27L16 27L16 28L15 28L15 29L14 29L14 30L15 30L15 29L18 29L18 30L17 30L17 31L14 31L14 32L13 32L13 33L15 33L15 32L16 32L16 33L17 33L17 34L18 34L18 35L22 35L22 36L21 36L21 37L19 37L19 36L17 36L17 39L19 39L19 40L16 40L16 39L15 39L15 38L16 38L16 37L15 37L15 36L14 36L14 37L15 37L15 38L12 38L12 39L10 39L10 40L13 40L13 41L11 41L11 42L12 42L12 47L11 47L11 48L10 48L10 50L11 50L11 51L13 51L13 50L12 50L12 49L11 49L11 48L12 48L12 47L14 47L14 45L15 45L15 44L14 44L14 45L13 45L13 41L14 41L14 40L13 40L13 39L15 39L15 41L17 41L17 42L18 42L18 41L19 41L19 40L20 40L20 41L22 41L22 43L21 43L21 42L20 42L20 43L21 43L21 44L22 44L22 45L21 45L21 46L22 46L22 45L23 45L23 41L24 41L24 42L25 42L25 41L24 41L24 40L25 40L25 39L26 39L26 40L27 40L27 41L26 41L26 42L27 42L27 43L24 43L24 44L27 44L27 45L29 45L29 46L30 46L30 47L31 47L31 44L34 44L34 45L36 45L36 46L34 46L34 47L37 47L37 48L36 48L36 50L37 50L37 48L38 48L38 47L39 47L39 49L40 49L40 48L41 48L41 47L40 47L40 46L38 46L38 45L37 45L37 44L38 44L38 43L39 43L39 44L41 44L41 46L43 46L43 47L42 47L42 48L43 48L43 49L42 49L42 50L41 50L41 51L42 51L42 52L43 52L43 51L44 51L44 50L43 50L43 49L44 49L44 48L48 48L48 47L45 47L45 46L43 46L43 43L44 43L44 44L45 44L45 43L46 43L46 45L47 45L47 44L48 44L48 43L47 43L47 42L45 42L45 41L44 41L44 40L45 40L45 39L47 39L47 40L48 40L48 39L50 39L50 38L52 38L52 37L50 37L50 38L49 38L49 36L48 36L48 35L50 35L50 36L51 36L51 35L52 35L52 34L51 34L51 33L53 33L53 32L51 32L51 33L50 33L50 34L48 34L48 35L47 35L47 34L44 34L44 32L45 32L45 33L46 33L46 32L45 32L45 31L46 31L46 30L45 30L45 29L44 29L44 30L45 30L45 31L44 31L44 32L43 32L43 33L42 33L42 34L44 34L44 35L43 35L43 36L45 36L45 39L44 39L44 38L43 38L43 37L41 37L41 38L39 38L39 39L40 39L40 40L41 40L41 41L39 41L39 42L38 42L38 37L40 37L40 36L42 36L42 35L41 35L41 34L40 34L40 32L41 32L41 31L42 31L42 30L41 30L41 29L40 29L40 30L38 30L38 28L36 28L36 27L35 27L35 26L33 26L33 25L32 25L32 24L33 24L33 22L34 22L34 23L36 23L36 22L38 22L38 23L37 23L37 24L36 24L36 25L37 25L37 27L40 27L40 28L41 28L41 27L42 27L42 26L43 26L43 25L42 25L42 26L41 26L41 25L40 25L40 26L38 26L38 25L37 25L37 24L38 24L38 23L40 23L40 24L41 24L41 22L40 22L40 20L41 20L41 19L42 19L42 18L41 18L41 19L40 19L40 16L41 16L41 15L42 15L42 14L41 14L41 15L40 15L40 16L39 16L39 14L40 14L40 13L39 13L39 12L34 12L34 13L36 13L36 14L34 14L34 16L33 16L33 15L32 15L32 16L31 16L31 15L30 15L30 14L31 14L31 13L28 13L28 12L29 12L29 11L28 11L28 12L26 12L26 13L24 13L24 12L25 12L25 9L24 9L24 8L25 8L25 4L26 4L26 3L25 3L25 2L24 2L24 3L23 3L23 2ZM23 4L23 5L24 5L24 4ZM19 5L19 7L20 7L20 5ZM27 5L27 8L30 8L30 5ZM28 6L28 7L29 7L29 6ZM40 6L40 7L39 7L39 8L41 8L41 6ZM42 6L42 8L43 8L43 6ZM11 7L11 9L12 9L12 10L13 10L13 9L12 9L12 7ZM51 8L51 10L50 10L50 13L51 13L51 11L52 11L52 12L53 12L53 11L54 11L54 12L55 12L55 11L54 11L54 10L53 10L53 9L54 9L54 8L53 8L53 9L52 9L52 8ZM55 8L55 10L57 10L57 9L56 9L56 8ZM1 9L1 12L2 12L2 9ZM23 9L23 10L24 10L24 9ZM39 9L39 10L40 10L40 9ZM42 9L42 10L44 10L44 9ZM52 10L52 11L53 11L53 10ZM6 11L6 12L7 12L7 11ZM47 11L47 12L48 12L48 11ZM56 11L56 12L57 12L57 11ZM21 12L21 13L22 13L22 14L24 14L24 13L22 13L22 12ZM32 13L32 14L33 14L33 13ZM38 13L38 14L37 14L37 15L35 15L35 16L34 16L34 18L35 18L35 19L34 19L34 20L35 20L35 21L34 21L34 22L36 22L36 20L37 20L37 19L38 19L38 18L39 18L39 16L37 16L37 15L38 15L38 14L39 14L39 13ZM4 14L4 16L5 16L5 17L8 17L8 16L6 16L6 15L7 15L7 14ZM25 14L25 15L26 15L26 16L27 16L27 17L26 17L26 18L27 18L27 19L24 19L24 20L25 20L25 21L24 21L24 22L23 22L23 23L24 23L24 25L23 25L23 24L22 24L22 25L23 25L23 26L22 26L22 27L21 27L21 28L22 28L22 29L19 29L19 33L18 33L18 32L17 32L17 33L18 33L18 34L21 34L21 33L23 33L23 34L22 34L22 35L23 35L23 36L22 36L22 37L21 37L21 38L22 38L22 39L21 39L21 40L22 40L22 41L23 41L23 40L24 40L24 39L23 39L23 38L24 38L24 37L23 37L23 36L24 36L24 35L25 35L25 38L26 38L26 39L28 39L28 40L29 40L29 41L28 41L28 42L29 42L29 41L30 41L30 40L32 40L32 42L31 42L31 43L28 43L28 44L29 44L29 45L30 45L30 44L31 44L31 43L32 43L32 42L35 42L35 43L34 43L34 44L37 44L37 43L36 43L36 42L37 42L37 41L36 41L36 40L37 40L37 39L36 39L36 38L37 38L37 37L38 37L38 36L37 36L37 35L36 35L36 32L37 32L37 34L39 34L39 36L40 36L40 34L39 34L39 31L38 31L38 30L37 30L37 31L36 31L36 30L35 30L35 27L33 27L33 28L31 28L31 31L30 31L30 33L31 33L31 34L32 34L32 35L31 35L31 36L30 36L30 34L29 34L29 33L28 33L28 35L27 35L27 33L26 33L26 31L25 31L25 30L26 30L26 27L25 27L25 26L28 26L28 25L29 25L29 26L30 26L30 25L29 25L29 24L28 24L28 22L29 22L29 23L30 23L30 24L32 24L32 23L31 23L31 22L29 22L29 20L28 20L28 18L27 18L27 17L28 17L28 16L29 16L29 17L31 17L31 16L30 16L30 15L29 15L29 14L28 14L28 16L27 16L27 15L26 15L26 14ZM54 14L54 15L55 15L55 14ZM16 15L16 17L14 17L14 18L16 18L16 17L17 17L17 19L18 19L18 21L20 21L20 20L19 20L19 19L18 19L18 17L21 17L21 16L18 16L18 17L17 17L17 15ZM32 16L32 18L31 18L31 19L30 19L30 21L31 21L31 20L32 20L32 22L33 22L33 20L32 20L32 19L33 19L33 16ZM36 16L36 17L35 17L35 18L36 18L36 19L37 19L37 18L36 18L36 17L37 17L37 16ZM2 18L2 23L1 23L1 24L3 24L3 25L1 25L1 26L3 26L3 28L4 28L4 26L3 26L3 25L5 25L5 26L7 26L7 25L6 25L6 24L7 24L7 23L6 23L6 22L3 22L3 18ZM53 18L53 19L54 19L54 18ZM13 19L13 20L14 20L14 19ZM39 19L39 20L40 20L40 19ZM4 20L4 21L5 21L5 20ZM15 20L15 21L16 21L16 22L14 22L14 21L13 21L13 22L14 22L14 23L16 23L16 24L17 24L17 25L19 25L19 23L20 23L20 22L17 22L17 21L16 21L16 20ZM26 20L26 21L25 21L25 22L26 22L26 23L25 23L25 24L27 24L27 21L28 21L28 20ZM52 20L52 21L53 21L53 22L52 22L52 23L53 23L53 24L54 24L54 25L55 25L55 24L54 24L54 23L55 23L55 20L54 20L54 21L53 21L53 20ZM38 21L38 22L39 22L39 21ZM50 21L50 23L51 23L51 21ZM3 23L3 24L5 24L5 23ZM9 23L9 24L11 24L11 23ZM9 25L9 27L10 27L10 25ZM24 25L24 26L25 26L25 25ZM31 25L31 26L32 26L32 25ZM40 26L40 27L41 27L41 26ZM5 27L5 30L8 30L8 27ZM27 27L27 30L30 30L30 27ZM46 27L46 28L48 28L48 27ZM49 27L49 30L52 30L52 27ZM6 28L6 29L7 29L7 28ZM12 28L12 29L11 29L11 30L12 30L12 31L13 31L13 28ZM23 28L23 29L24 29L24 30L25 30L25 29L24 29L24 28ZM28 28L28 29L29 29L29 28ZM50 28L50 29L51 29L51 28ZM34 30L34 31L32 31L32 32L31 32L31 33L32 33L32 32L33 32L33 33L35 33L35 32L36 32L36 31L35 31L35 30ZM40 30L40 31L41 31L41 30ZM5 31L5 32L4 32L4 33L5 33L5 32L7 32L7 31ZM21 31L21 32L20 32L20 33L21 33L21 32L22 32L22 31ZM24 31L24 32L25 32L25 31ZM27 31L27 32L28 32L28 31ZM34 31L34 32L35 32L35 31ZM8 33L8 35L9 35L9 33ZM24 33L24 34L25 34L25 35L26 35L26 34L25 34L25 33ZM34 34L34 35L32 35L32 36L31 36L31 38L30 38L30 36L29 36L29 39L32 39L32 40L33 40L33 41L35 41L35 40L36 40L36 39L35 39L35 38L34 38L34 37L35 37L35 34ZM50 34L50 35L51 35L51 34ZM45 35L45 36L46 36L46 38L47 38L47 39L48 39L48 38L47 38L47 37L48 37L48 36L47 36L47 35ZM32 36L32 37L33 37L33 36ZM36 36L36 37L37 37L37 36ZM2 37L2 38L3 38L3 37ZM18 37L18 38L19 38L19 39L20 39L20 38L19 38L19 37ZM22 37L22 38L23 38L23 37ZM27 37L27 38L28 38L28 37ZM42 38L42 39L43 39L43 40L42 40L42 41L41 41L41 42L40 42L40 43L41 43L41 44L42 44L42 43L43 43L43 42L42 42L42 41L43 41L43 40L44 40L44 39L43 39L43 38ZM8 39L8 40L9 40L9 39ZM22 39L22 40L23 40L23 39ZM33 39L33 40L34 40L34 39ZM9 41L9 43L10 43L10 44L11 44L11 43L10 43L10 41ZM5 42L5 43L7 43L7 42ZM50 43L50 44L51 44L51 43ZM3 44L3 45L4 45L4 46L5 46L5 45L4 45L4 44ZM6 44L6 45L7 45L7 44ZM16 44L16 45L17 45L17 44ZM24 45L24 46L25 46L25 47L26 47L26 46L25 46L25 45ZM32 45L32 46L33 46L33 45ZM50 45L50 46L52 46L52 45ZM37 46L37 47L38 47L38 46ZM43 47L43 48L44 48L44 47ZM33 48L33 49L34 49L34 48ZM21 49L21 51L22 51L22 50L23 50L23 51L24 51L24 50L23 50L23 49ZM27 49L27 52L30 52L30 49ZM49 49L49 52L52 52L52 49ZM28 50L28 51L29 51L29 50ZM42 50L42 51L43 51L43 50ZM46 50L46 51L47 51L47 50ZM50 50L50 51L51 51L51 50ZM16 51L16 52L17 52L17 51ZM31 51L31 52L32 52L32 51ZM38 53L38 54L39 54L39 53ZM46 53L46 54L47 54L47 53ZM48 53L48 54L51 54L51 55L50 55L50 56L51 56L51 55L53 55L53 56L54 56L54 55L53 55L53 54L51 54L51 53ZM18 54L18 55L20 55L20 54ZM31 54L31 55L32 55L32 56L30 56L30 55L29 55L29 56L27 56L27 55L26 55L26 56L27 56L27 57L29 57L29 56L30 56L30 57L32 57L32 56L33 56L33 57L34 57L34 56L33 56L33 55L32 55L32 54ZM15 55L15 56L16 56L16 55ZM21 55L21 56L20 56L20 57L22 57L22 56L23 56L23 57L24 57L24 55ZM48 55L48 56L49 56L49 55ZM45 56L45 57L46 57L46 56ZM0 0L0 7L7 7L7 0ZM1 1L1 6L6 6L6 1ZM2 2L2 5L5 5L5 2ZM50 0L50 7L57 7L57 0ZM51 1L51 6L56 6L56 1ZM52 2L52 5L55 5L55 2ZM0 50L0 57L7 57L7 50ZM1 51L1 56L6 56L6 51ZM2 52L2 55L5 55L5 52Z" fill="#000000"/></g></g></svg>
