<?xml version="1.0" encoding="UTF-8"?>
<svg xmlns="http://www.w3.org/2000/svg" version="1.1" width="300" height="300" viewBox="0 0 300 300"><rect x="0" y="0" width="300" height="300" fill="#ffffff"/><g transform="scale(5.66)"><g transform="translate(0,0)"><path fill-rule="evenodd" d="M9 0L9 1L8 1L8 2L9 2L9 3L8 3L8 4L9 4L9 3L13 3L13 4L12 4L12 5L11 5L11 6L10 6L10 7L9 7L9 5L8 5L8 7L9 7L9 8L6 8L6 9L5 9L5 8L0 8L0 9L1 9L1 13L0 13L0 16L1 16L1 13L2 13L2 14L3 14L3 15L4 15L4 16L2 16L2 17L1 17L1 18L0 18L0 20L3 20L3 22L1 22L1 23L0 23L0 26L1 26L1 25L2 25L2 23L4 23L4 26L2 26L2 28L0 28L0 29L1 29L1 31L0 31L0 34L1 34L1 38L3 38L3 39L5 39L5 37L7 37L7 36L2 36L2 34L1 34L1 32L2 32L2 31L3 31L3 32L4 32L4 33L5 33L5 32L6 32L6 33L8 33L8 31L7 31L7 30L8 30L8 29L9 29L9 28L10 28L10 30L9 30L9 31L11 31L11 32L9 32L9 34L11 34L11 35L12 35L12 36L13 36L13 37L10 37L10 38L6 38L6 39L9 39L9 40L8 40L8 41L7 41L7 40L6 40L6 41L4 41L4 40L2 40L2 39L0 39L0 40L2 40L2 41L1 41L1 42L0 42L0 43L1 43L1 44L3 44L3 45L4 45L4 44L3 44L3 43L7 43L7 42L8 42L8 41L9 41L9 40L10 40L10 41L11 41L11 43L10 43L10 42L9 42L9 43L8 43L8 47L9 47L9 48L8 48L8 53L11 53L11 52L10 52L10 51L12 51L12 53L13 53L13 51L14 51L14 52L15 52L15 51L16 51L16 53L17 53L17 50L15 50L15 51L14 51L14 50L13 50L13 49L19 49L19 48L20 48L20 49L21 49L21 50L22 50L22 51L23 51L23 52L24 52L24 53L25 53L25 52L26 52L26 53L28 53L28 52L29 52L29 51L30 51L30 52L31 52L31 51L30 51L30 50L33 50L33 49L29 49L29 48L30 48L30 47L29 47L29 45L30 45L30 46L31 46L31 45L32 45L32 46L33 46L33 47L32 47L32 48L33 48L33 47L34 47L34 48L35 48L35 46L34 46L34 45L35 45L35 44L36 44L36 45L37 45L37 44L36 44L36 43L37 43L37 42L38 42L38 43L39 43L39 44L38 44L38 45L39 45L39 46L38 46L38 48L36 48L36 50L34 50L34 52L33 52L33 51L32 51L32 52L33 52L33 53L34 53L34 52L36 52L36 53L38 53L38 52L39 52L39 51L40 51L40 52L41 52L41 53L43 53L43 52L44 52L44 50L47 50L47 49L49 49L49 50L48 50L48 52L46 52L46 51L45 51L45 52L46 52L46 53L49 53L49 52L50 52L50 53L51 53L51 52L52 52L52 51L53 51L53 47L52 47L52 49L51 49L51 48L50 48L50 46L51 46L51 45L52 45L52 46L53 46L53 45L52 45L52 44L50 44L50 43L51 43L51 42L50 42L50 43L49 43L49 41L46 41L46 40L47 40L47 39L46 39L46 38L47 38L47 37L48 37L48 38L49 38L49 39L48 39L48 40L50 40L50 41L51 41L51 40L52 40L52 39L51 39L51 37L52 37L52 38L53 38L53 35L52 35L52 34L53 34L53 32L51 32L51 34L49 34L49 33L50 33L50 31L51 31L51 30L50 30L50 31L49 31L49 33L48 33L48 32L47 32L47 31L46 31L46 29L48 29L48 30L49 30L49 28L50 28L50 29L52 29L52 30L53 30L53 29L52 29L52 28L53 28L53 27L51 27L51 26L53 26L53 25L52 25L52 23L51 23L51 24L50 24L50 21L51 21L51 22L53 22L53 19L52 19L52 21L51 21L51 20L50 20L50 21L49 21L49 20L48 20L48 22L46 22L46 23L49 23L49 24L43 24L43 23L44 23L44 21L47 21L47 20L46 20L46 18L45 18L45 19L44 19L44 21L42 21L42 19L39 19L39 18L38 18L38 16L39 16L39 15L40 15L40 16L41 16L41 15L40 15L40 14L43 14L43 15L45 15L45 16L44 16L44 17L43 17L43 16L42 16L42 17L41 17L41 18L44 18L44 17L49 17L49 16L50 16L50 19L51 19L51 16L50 16L50 15L49 15L49 14L50 14L50 13L51 13L51 15L52 15L52 14L53 14L53 13L52 13L52 12L53 12L53 11L51 11L51 10L53 10L53 9L52 9L52 8L51 8L51 10L50 10L50 11L51 11L51 12L48 12L48 13L49 13L49 14L48 14L48 16L46 16L46 15L47 15L47 14L46 14L46 12L47 12L47 11L48 11L48 8L47 8L47 11L46 11L46 12L44 12L44 10L43 10L43 9L46 9L46 8L44 8L44 7L45 7L45 6L44 6L44 7L43 7L43 3L44 3L44 4L45 4L45 3L44 3L44 1L43 1L43 0L42 0L42 2L43 2L43 3L41 3L41 2L40 2L40 3L39 3L39 5L37 5L37 6L36 6L36 7L37 7L37 8L36 8L36 11L35 11L35 10L34 10L34 8L35 8L35 5L34 5L34 4L35 4L35 3L36 3L36 4L37 4L37 3L36 3L36 2L37 2L37 1L38 1L38 2L39 2L39 1L40 1L40 0L39 0L39 1L38 1L38 0L37 0L37 1L36 1L36 2L35 2L35 1L34 1L34 0L32 0L32 1L33 1L33 2L32 2L32 3L30 3L30 2L29 2L29 3L30 3L30 4L27 4L27 3L26 3L26 4L22 4L22 5L20 5L20 8L18 8L18 7L19 7L19 5L18 5L18 4L19 4L19 3L20 3L20 4L21 4L21 3L20 3L20 0L19 0L19 1L18 1L18 0L17 0L17 1L18 1L18 2L19 2L19 3L18 3L18 4L17 4L17 2L16 2L16 4L17 4L17 5L18 5L18 7L17 7L17 6L16 6L16 7L15 7L15 4L14 4L14 2L15 2L15 1L16 1L16 0L15 0L15 1L14 1L14 2L9 2L9 1L10 1L10 0ZM11 0L11 1L13 1L13 0ZM21 0L21 1L22 1L22 3L24 3L24 1L26 1L26 0ZM28 0L28 1L29 1L29 0ZM30 0L30 1L31 1L31 0ZM34 2L34 3L32 3L32 6L31 6L31 7L30 7L30 6L29 6L29 7L30 7L30 8L29 8L29 10L28 10L28 9L25 9L25 10L28 10L28 11L25 11L25 13L26 13L26 12L28 12L28 13L29 13L29 12L28 12L28 11L30 11L30 13L31 13L31 14L24 14L24 15L25 15L25 16L23 16L23 15L20 15L20 14L21 14L21 13L24 13L24 12L23 12L23 10L22 10L22 9L24 9L24 5L22 5L22 6L21 6L21 7L22 7L22 6L23 6L23 8L21 8L21 9L20 9L20 10L19 10L19 9L18 9L18 8L17 8L17 7L16 7L16 8L15 8L15 9L13 9L13 10L19 10L19 11L16 11L16 12L17 12L17 13L15 13L15 11L14 11L14 13L13 13L13 15L12 15L12 8L11 8L11 7L12 7L12 6L11 6L11 7L10 7L10 10L8 10L8 9L6 9L6 10L7 10L7 11L6 11L6 12L5 12L5 11L3 11L3 12L2 12L2 13L5 13L5 14L4 14L4 15L5 15L5 17L6 17L6 18L5 18L5 19L6 19L6 20L4 20L4 22L7 22L7 21L6 21L6 20L7 20L7 19L10 19L10 18L13 18L13 17L14 17L14 21L12 21L12 20L10 20L10 22L9 22L9 21L8 21L8 23L6 23L6 24L9 24L9 23L11 23L11 21L12 21L12 25L11 25L11 24L10 24L10 25L11 25L11 26L9 26L9 27L11 27L11 28L12 28L12 29L13 29L13 28L14 28L14 29L15 29L15 28L16 28L16 27L15 27L15 28L14 28L14 27L12 27L12 26L17 26L17 29L16 29L16 31L15 31L15 30L12 30L12 31L14 31L14 32L13 32L13 33L12 33L12 35L13 35L13 36L14 36L14 38L15 38L15 35L17 35L17 37L16 37L16 38L17 38L17 39L16 39L16 40L18 40L18 38L19 38L19 37L20 37L20 40L22 40L22 41L20 41L20 42L19 42L19 41L13 41L13 40L14 40L14 39L10 39L10 40L11 40L11 41L12 41L12 42L13 42L13 44L17 44L17 45L16 45L16 48L17 48L17 45L18 45L18 46L19 46L19 45L18 45L18 44L21 44L21 45L20 45L20 46L21 46L21 47L22 47L22 49L24 49L24 48L23 48L23 46L24 46L24 44L26 44L26 43L27 43L27 44L29 44L29 43L33 43L33 42L35 42L35 43L34 43L34 44L35 44L35 43L36 43L36 42L37 42L37 41L36 41L36 40L37 40L37 38L39 38L39 39L41 39L41 40L40 40L40 42L39 42L39 41L38 41L38 42L39 42L39 43L40 43L40 42L42 42L42 43L43 43L43 42L42 42L42 41L41 41L41 40L42 40L42 39L44 39L44 38L45 38L45 37L47 37L47 36L48 36L48 37L49 37L49 35L47 35L47 32L46 32L46 31L45 31L45 30L44 30L44 29L43 29L43 28L44 28L44 26L42 26L42 25L41 25L41 24L40 24L40 23L38 23L38 22L39 22L39 19L38 19L38 18L36 18L36 16L37 16L37 15L36 15L36 16L35 16L35 15L34 15L34 14L35 14L35 13L36 13L36 12L37 12L37 14L39 14L39 13L38 13L38 12L40 12L40 13L41 13L41 12L43 12L43 10L42 10L42 9L43 9L43 8L40 8L40 6L41 6L41 7L42 7L42 5L40 5L40 6L39 6L39 9L38 9L38 10L37 10L37 11L36 11L36 12L35 12L35 11L34 11L34 12L32 12L32 10L33 10L33 8L34 8L34 5L33 5L33 4L34 4L34 3L35 3L35 2ZM40 3L40 4L41 4L41 3ZM13 4L13 5L14 5L14 4ZM25 5L25 8L28 8L28 5ZM13 6L13 8L14 8L14 6ZM26 6L26 7L27 7L27 6ZM32 6L32 8L33 8L33 6ZM37 6L37 7L38 7L38 6ZM16 8L16 9L17 9L17 8ZM30 8L30 10L31 10L31 8ZM49 8L49 9L50 9L50 8ZM2 9L2 10L3 10L3 9ZM40 9L40 10L38 10L38 11L40 11L40 12L41 12L41 11L42 11L42 10L41 10L41 9ZM40 10L40 11L41 11L41 10ZM8 11L8 12L6 12L6 13L8 13L8 14L6 14L6 15L8 15L8 16L6 16L6 17L7 17L7 18L6 18L6 19L7 19L7 18L8 18L8 16L9 16L9 18L10 18L10 17L13 17L13 16L14 16L14 15L13 15L13 16L9 16L9 15L8 15L8 14L9 14L9 13L10 13L10 12L11 12L11 11ZM19 11L19 12L18 12L18 13L17 13L17 14L18 14L18 15L19 15L19 14L18 14L18 13L21 13L21 12L22 12L22 11L21 11L21 12L20 12L20 11ZM8 12L8 13L9 13L9 12ZM31 12L31 13L32 13L32 14L34 14L34 13L35 13L35 12L34 12L34 13L32 13L32 12ZM14 13L14 14L15 14L15 18L16 18L16 19L18 19L18 21L17 21L17 20L16 20L16 21L17 21L17 22L15 22L15 21L14 21L14 22L13 22L13 23L14 23L14 24L13 24L13 25L17 25L17 24L16 24L16 23L17 23L17 22L18 22L18 21L19 21L19 19L20 19L20 17L21 17L21 19L22 19L22 18L23 18L23 17L22 17L22 16L18 16L18 17L17 17L17 16L16 16L16 14L15 14L15 13ZM44 13L44 14L45 14L45 13ZM30 15L30 16L33 16L33 17L35 17L35 16L34 16L34 15ZM26 16L26 17L28 17L28 18L26 18L26 19L28 19L28 20L25 20L25 19L23 19L23 21L21 21L21 20L20 20L20 21L21 21L21 24L20 24L20 23L19 23L19 24L18 24L18 25L19 25L19 26L18 26L18 29L17 29L17 30L18 30L18 31L19 31L19 32L17 32L17 31L16 31L16 32L15 32L15 33L17 33L17 34L18 34L18 37L19 37L19 35L21 35L21 34L20 34L20 33L22 33L22 36L25 36L25 38L28 38L28 39L26 39L26 40L27 40L27 41L25 41L25 39L24 39L24 41L22 41L22 42L20 42L20 43L22 43L22 42L24 42L24 43L25 43L25 42L27 42L27 43L29 43L29 42L31 42L31 40L33 40L33 39L35 39L35 40L36 40L36 39L35 39L35 38L37 38L37 37L38 37L38 36L36 36L36 37L35 37L35 38L34 38L34 35L35 35L35 34L33 34L33 33L34 33L34 32L33 32L33 31L32 31L32 28L34 28L34 27L35 27L35 28L36 28L36 31L39 31L39 32L38 32L38 33L37 33L37 32L36 32L36 33L37 33L37 35L38 35L38 33L39 33L39 37L40 37L40 36L41 36L41 38L44 38L44 37L42 37L42 35L40 35L40 34L44 34L44 35L43 35L43 36L44 36L44 35L45 35L45 34L46 34L46 33L45 33L45 31L43 31L43 29L40 29L40 28L42 28L42 26L41 26L41 25L40 25L40 26L38 26L38 23L37 23L37 21L38 21L38 19L37 19L37 20L36 20L36 19L35 19L35 18L33 18L33 19L32 19L32 18L31 18L31 17L29 17L29 16ZM16 17L16 18L17 18L17 17ZM18 17L18 18L19 18L19 17ZM24 17L24 18L25 18L25 17ZM52 17L52 18L53 18L53 17ZM28 18L28 19L29 19L29 20L28 20L28 21L29 21L29 20L30 20L30 21L31 21L31 22L27 22L27 21L25 21L25 22L22 22L22 23L23 23L23 24L22 24L22 25L20 25L20 24L19 24L19 25L20 25L20 26L19 26L19 27L20 27L20 28L21 28L21 29L20 29L20 30L19 30L19 29L18 29L18 30L19 30L19 31L20 31L20 30L23 30L23 32L22 32L22 33L24 33L24 32L25 32L25 35L27 35L27 36L26 36L26 37L30 37L30 36L29 36L29 35L31 35L31 36L32 36L32 37L31 37L31 38L29 38L29 39L28 39L28 40L30 40L30 39L33 39L33 38L32 38L32 37L33 37L33 36L32 36L32 33L33 33L33 32L32 32L32 31L31 31L31 30L29 30L29 29L27 29L27 31L28 31L28 32L26 32L26 29L24 29L24 28L23 28L23 27L22 27L22 25L23 25L23 26L24 26L24 23L26 23L26 24L27 24L27 23L28 23L28 24L30 24L30 23L31 23L31 22L32 22L32 23L34 23L34 22L35 22L35 23L36 23L36 24L31 24L31 26L30 26L30 29L31 29L31 28L32 28L32 27L34 27L34 26L35 26L35 27L36 27L36 28L37 28L37 27L36 27L36 26L37 26L37 25L36 25L36 24L37 24L37 23L36 23L36 22L35 22L35 21L36 21L36 20L35 20L35 21L34 21L34 22L32 22L32 21L33 21L33 20L32 20L32 21L31 21L31 20L30 20L30 19L31 19L31 18L30 18L30 19L29 19L29 18ZM48 18L48 19L49 19L49 18ZM40 20L40 21L41 21L41 20ZM26 22L26 23L27 23L27 22ZM41 22L41 23L43 23L43 22ZM5 25L5 28L8 28L8 25ZM25 25L25 28L28 28L28 25ZM32 25L32 26L33 26L33 25ZM45 25L45 28L48 28L48 25ZM49 25L49 27L50 27L50 28L51 28L51 27L50 27L50 26L51 26L51 25ZM6 26L6 27L7 27L7 26ZM26 26L26 27L27 27L27 26ZM40 26L40 27L39 27L39 28L38 28L38 29L37 29L37 30L39 30L39 28L40 28L40 27L41 27L41 26ZM46 26L46 27L47 27L47 26ZM3 27L3 28L2 28L2 29L3 29L3 31L4 31L4 29L3 29L3 28L4 28L4 27ZM21 27L21 28L22 28L22 27ZM6 29L6 30L5 30L5 31L6 31L6 32L7 32L7 31L6 31L6 30L7 30L7 29ZM23 29L23 30L24 30L24 31L25 31L25 30L24 30L24 29ZM33 29L33 30L34 30L34 31L35 31L35 30L34 30L34 29ZM28 30L28 31L29 31L29 32L28 32L28 33L29 33L29 34L28 34L28 35L29 35L29 34L31 34L31 31L29 31L29 30ZM40 30L40 31L41 31L41 32L39 32L39 33L41 33L41 32L42 32L42 31L41 31L41 30ZM43 32L43 33L44 33L44 34L45 34L45 33L44 33L44 32ZM13 33L13 35L14 35L14 33ZM18 33L18 34L19 34L19 33ZM26 33L26 34L27 34L27 33ZM4 34L4 35L8 35L8 36L9 36L9 35L8 35L8 34ZM23 34L23 35L24 35L24 34ZM46 35L46 36L47 36L47 35ZM50 35L50 36L52 36L52 35ZM20 36L20 37L21 37L21 38L24 38L24 37L21 37L21 36ZM22 39L22 40L23 40L23 39ZM45 39L45 40L43 40L43 41L45 41L45 40L46 40L46 39ZM50 39L50 40L51 40L51 39ZM2 41L2 43L3 43L3 41ZM6 41L6 42L7 42L7 41ZM32 41L32 42L33 42L33 41ZM52 41L52 42L53 42L53 41ZM14 42L14 43L16 43L16 42ZM17 42L17 43L18 43L18 42ZM45 42L45 43L44 43L44 44L43 44L43 45L44 45L44 44L45 44L45 43L48 43L48 42ZM11 43L11 45L10 45L10 44L9 44L9 45L10 45L10 46L9 46L9 47L11 47L11 46L12 46L12 43ZM6 44L6 45L7 45L7 44ZM32 44L32 45L33 45L33 44ZM39 44L39 45L40 45L40 46L39 46L39 47L44 47L44 46L41 46L41 45L42 45L42 44ZM49 44L49 46L50 46L50 44ZM21 45L21 46L23 46L23 45ZM25 45L25 48L28 48L28 45ZM45 45L45 48L48 48L48 45ZM13 46L13 47L12 47L12 48L9 48L9 49L10 49L10 50L12 50L12 48L13 48L13 47L14 47L14 48L15 48L15 46ZM26 46L26 47L27 47L27 46ZM36 46L36 47L37 47L37 46ZM46 46L46 47L47 47L47 46ZM38 48L38 50L37 50L37 51L36 51L36 52L37 52L37 51L38 51L38 50L39 50L39 48ZM40 48L40 49L41 49L41 50L40 50L40 51L41 51L41 52L42 52L42 51L43 51L43 50L44 50L44 48ZM49 48L49 49L50 49L50 52L51 52L51 51L52 51L52 50L51 50L51 49L50 49L50 48ZM26 49L26 50L25 50L25 51L24 51L24 52L25 52L25 51L26 51L26 52L28 52L28 51L29 51L29 49L28 49L28 50L27 50L27 49ZM42 49L42 50L43 50L43 49ZM18 50L18 53L19 53L19 52L20 52L20 53L21 53L21 51L19 51L19 50ZM26 50L26 51L27 51L27 50ZM0 0L0 7L7 7L7 0ZM1 1L1 6L6 6L6 1ZM2 2L2 5L5 5L5 2ZM46 0L46 7L53 7L53 0ZM47 1L47 6L52 6L52 1ZM48 2L48 5L51 5L51 2ZM0 46L0 53L7 53L7 46ZM1 47L1 52L6 52L6 47ZM2 48L2 51L5 51L5 48Z" fill="#000000"/></g></g></svg>
