<?xml version="1.0" encoding="UTF-8"?>
<svg xmlns="http://www.w3.org/2000/svg" version="1.1" width="300" height="300" viewBox="0 0 300 300"><rect x="0" y="0" width="300" height="300" fill="#ffffff"/><g transform="scale(5.263)"><g transform="translate(0,0)"><path fill-rule="evenodd" d="M9 0L9 1L8 1L8 2L9 2L9 3L8 3L8 4L10 4L10 7L11 7L11 9L14 9L14 10L11 10L11 11L10 11L10 10L9 10L9 11L8 11L8 10L6 10L6 11L5 11L5 13L4 13L4 10L5 10L5 8L0 8L0 9L1 9L1 11L0 11L0 12L1 12L1 13L0 13L0 14L1 14L1 16L0 16L0 17L1 17L1 16L3 16L3 18L6 18L6 19L5 19L5 20L4 20L4 19L2 19L2 18L0 18L0 26L2 26L2 28L3 28L3 29L2 29L2 30L4 30L4 31L0 31L0 33L1 33L1 32L4 32L4 33L3 33L3 34L2 34L2 35L1 35L1 37L2 37L2 36L3 36L3 37L4 37L4 35L3 35L3 34L5 34L5 32L4 32L4 31L9 31L9 32L8 32L8 33L7 33L7 32L6 32L6 33L7 33L7 34L6 34L6 35L7 35L7 36L6 36L6 37L7 37L7 38L6 38L6 39L7 39L7 40L6 40L6 41L5 41L5 40L3 40L3 39L2 39L2 38L1 38L1 39L2 39L2 42L1 42L1 40L0 40L0 43L2 43L2 44L3 44L3 45L4 45L4 44L5 44L5 47L3 47L3 46L2 46L2 47L1 47L1 46L0 46L0 48L5 48L5 47L7 47L7 48L6 48L6 49L7 49L7 48L8 48L8 44L9 44L9 45L10 45L10 44L13 44L13 43L12 43L12 42L11 42L11 43L10 43L10 44L9 44L9 43L8 43L8 42L9 42L9 40L10 40L10 41L12 41L12 40L13 40L13 39L15 39L15 41L13 41L13 42L14 42L14 44L16 44L16 45L11 45L11 47L10 47L10 48L9 48L9 49L8 49L8 51L9 51L9 50L10 50L10 51L11 51L11 52L10 52L10 53L9 53L9 52L8 52L8 57L9 57L9 54L10 54L10 55L12 55L12 57L13 57L13 56L14 56L14 57L17 57L17 53L16 53L16 52L17 52L17 51L16 51L16 49L17 49L17 46L19 46L19 45L21 45L21 46L20 46L20 47L21 47L21 46L22 46L22 45L23 45L23 48L24 48L24 46L25 46L25 49L24 49L24 52L23 52L23 53L22 53L22 51L20 51L20 49L21 49L21 50L23 50L23 49L21 49L21 48L19 48L19 47L18 47L18 49L19 49L19 50L18 50L18 53L20 53L20 52L21 52L21 55L22 55L22 54L25 54L25 55L24 55L24 56L23 56L23 57L24 57L24 56L26 56L26 55L27 55L27 54L29 54L29 56L27 56L27 57L29 57L29 56L31 56L31 57L32 57L32 56L33 56L33 55L37 55L37 56L36 56L36 57L37 57L37 56L38 56L38 55L40 55L40 54L41 54L41 53L40 53L40 52L41 52L41 51L42 51L42 52L43 52L43 53L42 53L42 54L43 54L43 53L44 53L44 54L45 54L45 55L44 55L44 56L43 56L43 55L41 55L41 56L42 56L42 57L44 57L44 56L45 56L45 57L47 57L47 56L46 56L46 55L47 55L47 54L48 54L48 55L49 55L49 57L52 57L52 56L55 56L55 57L56 57L56 56L55 56L55 55L54 55L54 54L55 54L55 53L57 53L57 52L55 52L55 50L54 50L54 48L55 48L55 49L56 49L56 50L57 50L57 48L55 48L55 45L56 45L56 46L57 46L57 45L56 45L56 44L57 44L57 43L56 43L56 42L57 42L57 41L55 41L55 43L54 43L54 41L53 41L53 40L55 40L55 39L57 39L57 37L55 37L55 39L54 39L54 37L53 37L53 36L55 36L55 34L57 34L57 33L55 33L55 34L53 34L53 36L51 36L51 35L52 35L52 34L51 34L51 33L53 33L53 30L54 30L54 32L55 32L55 31L56 31L56 32L57 32L57 31L56 31L56 30L57 30L57 29L55 29L55 30L54 30L54 29L53 29L53 28L55 28L55 27L56 27L56 28L57 28L57 27L56 27L56 26L57 26L57 24L56 24L56 22L57 22L57 21L56 21L56 20L55 20L55 18L57 18L57 17L54 17L54 18L53 18L53 19L52 19L52 20L53 20L53 21L51 21L51 20L50 20L50 21L47 21L47 20L46 20L46 19L48 19L48 20L49 20L49 19L48 19L48 18L49 18L49 17L50 17L50 13L48 13L48 11L49 11L49 12L50 12L50 11L51 11L51 10L52 10L52 12L53 12L53 11L54 11L54 12L55 12L55 13L56 13L56 14L54 14L54 16L55 16L55 15L56 15L56 14L57 14L57 13L56 13L56 10L57 10L57 9L56 9L56 8L55 8L55 9L56 9L56 10L55 10L55 11L54 11L54 10L52 10L52 8L51 8L51 10L50 10L50 11L49 11L49 9L50 9L50 8L49 8L49 6L48 6L48 7L47 7L47 5L48 5L48 0L45 0L45 1L44 1L44 0L39 0L39 1L37 1L37 0L36 0L36 2L40 2L40 3L38 3L38 4L37 4L37 3L35 3L35 1L34 1L34 0L33 0L33 1L34 1L34 2L32 2L32 1L31 1L31 0L30 0L30 1L31 1L31 2L28 2L28 0L27 0L27 1L25 1L25 0L21 0L21 1L20 1L20 3L21 3L21 1L22 1L22 3L23 3L23 4L22 4L22 5L21 5L21 4L19 4L19 1L17 1L17 2L14 2L14 3L17 3L17 2L18 2L18 4L17 4L17 6L16 6L16 7L15 7L15 6L14 6L14 8L12 8L12 7L13 7L13 6L12 6L12 5L13 5L13 2L12 2L12 3L11 3L11 2L9 2L9 1L10 1L10 0ZM11 0L11 1L13 1L13 0ZM14 0L14 1L16 1L16 0ZM23 1L23 3L24 3L24 2L25 2L25 3L26 3L26 4L25 4L25 5L26 5L26 4L29 4L29 3L28 3L28 2L27 2L27 3L26 3L26 2L25 2L25 1ZM40 1L40 2L41 2L41 1ZM42 1L42 2L44 2L44 1ZM45 1L45 2L47 2L47 1ZM10 3L10 4L11 4L11 5L12 5L12 4L11 4L11 3ZM32 3L32 6L31 6L31 10L30 10L30 9L29 9L29 12L28 12L28 9L27 9L27 11L26 11L26 8L24 8L24 6L23 6L23 5L24 5L24 4L23 4L23 5L22 5L22 6L21 6L21 7L22 7L22 6L23 6L23 8L22 8L22 9L18 9L18 6L17 6L17 7L16 7L16 8L14 8L14 9L15 9L15 10L17 10L17 11L16 11L16 12L17 12L17 13L16 13L16 16L15 16L15 13L13 13L13 14L12 14L12 16L10 16L10 15L9 15L9 17L8 17L8 16L7 16L7 15L6 15L6 14L9 14L9 13L5 13L5 14L4 14L4 13L3 13L3 14L4 14L4 15L3 15L3 16L4 16L4 17L5 17L5 16L7 16L7 17L6 17L6 18L7 18L7 19L6 19L6 20L7 20L7 21L6 21L6 22L5 22L5 24L7 24L7 23L8 23L8 24L9 24L9 25L10 25L10 24L12 24L12 26L11 26L11 27L10 27L10 26L9 26L9 28L10 28L10 30L11 30L11 31L12 31L12 32L13 32L13 33L16 33L16 36L14 36L14 34L13 34L13 35L12 35L12 33L11 33L11 35L10 35L10 33L8 33L8 34L7 34L7 35L8 35L8 34L9 34L9 35L10 35L10 36L11 36L11 37L9 37L9 38L7 38L7 39L8 39L8 40L7 40L7 41L6 41L6 42L8 42L8 40L9 40L9 38L10 38L10 39L11 39L11 40L12 40L12 38L14 38L14 37L16 37L16 38L15 38L15 39L16 39L16 40L17 40L17 41L16 41L16 42L17 42L17 43L16 43L16 44L17 44L17 45L16 45L16 46L17 46L17 45L18 45L18 44L17 44L17 43L18 43L18 42L20 42L20 44L21 44L21 45L22 45L22 44L21 44L21 43L22 43L22 41L23 41L23 42L24 42L24 41L25 41L25 42L26 42L26 44L24 44L24 43L23 43L23 45L25 45L25 46L26 46L26 47L27 47L27 46L29 46L29 47L28 47L28 48L31 48L31 50L32 50L32 51L31 51L31 52L32 52L32 53L31 53L31 54L32 54L32 55L33 55L33 54L35 54L35 53L36 53L36 52L40 52L40 51L41 51L41 50L40 50L40 49L41 49L41 48L40 48L40 49L39 49L39 48L37 48L37 47L38 47L38 46L39 46L39 47L40 47L40 46L41 46L41 47L43 47L43 48L44 48L44 50L42 50L42 51L43 51L43 52L44 52L44 53L45 53L45 54L47 54L47 53L45 53L45 50L47 50L47 51L46 51L46 52L48 52L48 50L47 50L47 49L48 49L48 48L49 48L49 47L51 47L51 48L54 48L54 45L55 45L55 44L56 44L56 43L55 43L55 44L54 44L54 45L52 45L52 44L53 44L53 41L51 41L51 42L50 42L50 43L49 43L49 44L50 44L50 45L49 45L49 47L48 47L48 48L47 48L47 46L48 46L48 44L47 44L47 45L46 45L46 43L45 43L45 42L41 42L41 43L45 43L45 44L44 44L44 45L45 45L45 46L41 46L41 44L40 44L40 46L39 46L39 43L40 43L40 41L41 41L41 40L39 40L39 39L38 39L38 40L39 40L39 41L37 41L37 42L36 42L36 40L37 40L37 39L36 39L36 38L37 38L37 37L38 37L38 38L39 38L39 37L40 37L40 38L41 38L41 39L43 39L43 38L44 38L44 39L45 39L45 40L44 40L44 41L45 41L45 40L46 40L46 42L48 42L48 41L49 41L49 39L51 39L51 40L52 40L52 38L53 38L53 37L51 37L51 36L47 36L47 37L46 37L46 38L47 38L47 39L48 39L48 40L46 40L46 39L45 39L45 36L43 36L43 38L42 38L42 36L39 36L39 37L38 37L38 36L37 36L37 35L38 35L38 34L39 34L39 33L37 33L37 35L35 35L35 37L33 37L33 36L34 36L34 35L33 35L33 36L32 36L32 35L29 35L29 34L30 34L30 32L31 32L31 34L33 34L33 32L34 32L34 34L36 34L36 32L40 32L40 33L41 33L41 32L43 32L43 31L45 31L45 30L46 30L46 32L44 32L44 33L43 33L43 34L40 34L40 35L43 35L43 34L44 34L44 33L45 33L45 35L46 35L46 34L47 34L47 35L49 35L49 33L48 33L48 32L47 32L47 31L48 31L48 28L47 28L47 27L48 27L48 25L49 25L49 26L53 26L53 27L55 27L55 26L56 26L56 25L55 25L55 26L54 26L54 25L53 25L53 24L52 24L52 25L51 25L51 23L52 23L52 22L51 22L51 21L50 21L50 23L49 23L49 24L48 24L48 22L47 22L47 21L46 21L46 22L44 22L44 21L45 21L45 20L43 20L43 18L44 18L44 19L46 19L46 18L48 18L48 17L49 17L49 16L48 16L48 15L49 15L49 14L48 14L48 13L46 13L46 14L47 14L47 15L46 15L46 16L48 16L48 17L45 17L45 16L44 16L44 15L45 15L45 12L44 12L44 11L46 11L46 10L47 10L47 11L48 11L48 9L49 9L49 8L47 8L47 7L46 7L46 6L45 6L45 7L46 7L46 8L44 8L44 5L47 5L47 3L46 3L46 4L45 4L45 3L43 3L43 4L44 4L44 5L41 5L41 4L42 4L42 3L40 3L40 4L38 4L38 5L37 5L37 4L35 4L35 3ZM14 4L14 5L16 5L16 4ZM18 4L18 5L19 5L19 7L20 7L20 5L19 5L19 4ZM8 5L8 7L9 7L9 5ZM27 5L27 8L30 8L30 5ZM33 5L33 6L32 6L32 8L33 8L33 9L32 9L32 12L31 12L31 11L30 11L30 12L31 12L31 13L28 13L28 12L26 12L26 13L23 13L23 12L24 12L24 11L25 11L25 9L24 9L24 8L23 8L23 9L22 9L22 11L21 11L21 12L20 12L20 11L19 11L19 10L18 10L18 9L17 9L17 8L16 8L16 9L17 9L17 10L18 10L18 11L17 11L17 12L18 12L18 13L17 13L17 14L18 14L18 15L19 15L19 13L21 13L21 14L20 14L20 15L23 15L23 16L24 16L24 15L25 15L25 16L26 16L26 17L27 17L27 18L26 18L26 19L27 19L27 18L28 18L28 17L27 17L27 16L29 16L29 15L30 15L30 16L33 16L33 19L32 19L32 20L31 20L31 17L29 17L29 19L28 19L28 20L24 20L24 19L25 19L25 17L24 17L24 19L23 19L23 20L24 20L24 21L21 21L21 23L23 23L23 24L24 24L24 23L23 23L23 22L24 22L24 21L25 21L25 22L26 22L26 23L25 23L25 24L26 24L26 25L27 25L27 26L25 26L25 25L24 25L24 26L25 26L25 27L24 27L24 28L25 28L25 27L26 27L26 30L25 30L25 29L23 29L23 31L24 31L24 32L25 32L25 31L26 31L26 32L27 32L27 33L26 33L26 34L25 34L25 33L24 33L24 34L25 34L25 35L24 35L24 38L23 38L23 37L22 37L22 38L21 38L21 37L19 37L19 36L18 36L18 37L17 37L17 38L18 38L18 39L19 39L19 40L18 40L18 41L17 41L17 42L18 42L18 41L22 41L22 38L23 38L23 41L24 41L24 39L26 39L26 38L27 38L27 39L28 39L28 41L27 41L27 40L25 40L25 41L26 41L26 42L27 42L27 44L28 44L28 45L29 45L29 44L28 44L28 43L29 43L29 42L28 42L28 41L30 41L30 43L31 43L31 42L33 42L33 41L34 41L34 40L33 40L33 37L32 37L32 36L31 36L31 38L30 38L30 36L26 36L26 38L25 38L25 35L28 35L28 33L29 33L29 32L30 32L30 31L31 31L31 30L32 30L32 28L33 28L33 27L31 27L31 25L30 25L30 26L28 26L28 25L27 25L27 24L29 24L29 23L28 23L28 22L29 22L29 21L28 21L28 20L29 20L29 19L30 19L30 20L31 20L31 21L30 21L30 22L31 22L31 23L30 23L30 24L34 24L34 23L35 23L35 25L37 25L37 24L36 24L36 22L38 22L38 25L39 25L39 26L36 26L36 27L35 27L35 26L34 26L34 27L35 27L35 30L34 30L34 32L35 32L35 30L36 30L36 31L40 31L40 32L41 32L41 31L42 31L42 30L43 30L43 29L44 29L44 30L45 30L45 29L47 29L47 28L46 28L46 27L47 27L47 26L46 26L46 24L45 24L45 23L44 23L44 22L43 22L43 20L41 20L41 18L43 18L43 17L44 17L44 16L43 16L43 15L44 15L44 12L43 12L43 11L44 11L44 8L43 8L43 6L42 6L42 8L41 8L41 6L40 6L40 7L39 7L39 5L38 5L38 7L39 7L39 8L38 8L38 9L40 9L40 8L41 8L41 10L36 10L36 9L37 9L37 8L36 8L36 7L37 7L37 5L36 5L36 7L35 7L35 5ZM11 6L11 7L12 7L12 6ZM25 6L25 7L26 7L26 6ZM28 6L28 7L29 7L29 6ZM33 6L33 8L34 8L34 9L33 9L33 10L35 10L35 11L34 11L34 12L32 12L32 13L31 13L31 14L30 14L30 15L31 15L31 14L32 14L32 15L33 15L33 16L34 16L34 18L36 18L36 19L35 19L35 21L34 21L34 19L33 19L33 20L32 20L32 22L36 22L36 20L38 20L38 22L40 22L40 23L39 23L39 25L42 25L42 24L40 24L40 23L41 23L41 22L40 22L40 21L41 21L41 20L39 20L39 19L37 19L37 18L39 18L39 17L37 17L37 18L36 18L36 16L39 16L39 15L41 15L41 14L42 14L42 15L43 15L43 14L42 14L42 13L41 13L41 12L40 12L40 11L38 11L38 12L39 12L39 13L38 13L38 14L37 14L37 15L34 15L34 14L36 14L36 13L34 13L34 12L37 12L37 11L36 11L36 10L35 10L35 7L34 7L34 6ZM6 8L6 9L10 9L10 8ZM46 8L46 9L45 9L45 10L46 10L46 9L47 9L47 8ZM53 8L53 9L54 9L54 8ZM3 9L3 10L2 10L2 11L1 11L1 12L3 12L3 10L4 10L4 9ZM23 9L23 10L24 10L24 9ZM42 10L42 11L43 11L43 10ZM6 11L6 12L8 12L8 11ZM9 11L9 12L10 12L10 11ZM13 11L13 12L14 12L14 11ZM11 12L11 13L10 13L10 14L11 14L11 13L12 13L12 12ZM21 12L21 13L22 13L22 14L23 14L23 13L22 13L22 12ZM26 13L26 14L25 14L25 15L26 15L26 16L27 16L27 13ZM39 13L39 14L38 14L38 15L39 15L39 14L40 14L40 13ZM13 14L13 17L11 17L11 19L10 19L10 17L9 17L9 20L8 20L8 21L7 21L7 22L6 22L6 23L7 23L7 22L8 22L8 21L10 21L10 20L11 20L11 21L13 21L13 22L9 22L9 24L10 24L10 23L12 23L12 24L13 24L13 22L14 22L14 21L13 21L13 20L14 20L14 19L12 19L12 18L13 18L13 17L14 17L14 18L15 18L15 19L16 19L16 17L17 17L17 18L18 18L18 19L19 19L19 18L18 18L18 17L21 17L21 16L18 16L18 17L17 17L17 16L16 16L16 17L14 17L14 14ZM28 14L28 15L29 15L29 14ZM51 15L51 16L53 16L53 15ZM40 16L40 17L42 17L42 16ZM7 17L7 18L8 18L8 17ZM22 17L22 18L23 18L23 17ZM51 17L51 18L50 18L50 19L51 19L51 18L52 18L52 17ZM20 18L20 19L21 19L21 18ZM1 20L1 25L2 25L2 26L5 26L5 25L4 25L4 24L3 24L3 22L4 22L4 20L3 20L3 22L2 22L2 20ZM15 20L15 21L16 21L16 22L15 22L15 23L14 23L14 24L15 24L15 25L14 25L14 26L13 26L13 27L12 27L12 28L11 28L11 30L12 30L12 31L13 31L13 32L16 32L16 33L17 33L17 35L21 35L21 36L23 36L23 33L21 33L21 32L22 32L22 31L21 31L21 30L20 30L20 33L21 33L21 34L18 34L18 33L19 33L19 29L18 29L18 28L17 28L17 27L18 27L18 25L21 25L21 26L20 26L20 29L22 29L22 28L21 28L21 27L22 27L22 26L23 26L23 25L22 25L22 24L18 24L18 25L17 25L17 22L18 22L18 21L20 21L20 20L18 20L18 21L16 21L16 20ZM54 20L54 22L53 22L53 23L54 23L54 22L55 22L55 20ZM19 22L19 23L20 23L20 22ZM42 22L42 23L43 23L43 24L44 24L44 25L43 25L43 26L40 26L40 27L36 27L36 28L37 28L37 29L36 29L36 30L39 30L39 29L41 29L41 30L40 30L40 31L41 31L41 30L42 30L42 29L43 29L43 28L44 28L44 29L45 29L45 28L44 28L44 27L45 27L45 26L44 26L44 25L45 25L45 24L44 24L44 23L43 23L43 22ZM46 22L46 23L47 23L47 22ZM15 23L15 24L16 24L16 23ZM26 23L26 24L27 24L27 23ZM6 25L6 26L8 26L8 25ZM16 25L16 27L15 27L15 26L14 26L14 28L15 28L15 29L14 29L14 30L13 30L13 31L15 31L15 29L16 29L16 32L17 32L17 33L18 33L18 31L17 31L17 30L18 30L18 29L16 29L16 27L17 27L17 25ZM32 25L32 26L33 26L33 25ZM0 27L0 29L1 29L1 27ZM3 27L3 28L4 28L4 27ZM5 27L5 30L8 30L8 27ZM27 27L27 30L30 30L30 27ZM40 27L40 28L41 28L41 27ZM42 27L42 28L43 28L43 27ZM49 27L49 30L52 30L52 27ZM6 28L6 29L7 29L7 28ZM28 28L28 29L29 29L29 28ZM38 28L38 29L39 29L39 28ZM50 28L50 29L51 29L51 28ZM27 31L27 32L29 32L29 31ZM32 31L32 32L33 32L33 31ZM21 34L21 35L22 35L22 34ZM50 34L50 35L51 35L51 34ZM11 35L11 36L12 36L12 35ZM13 36L13 37L14 37L14 36ZM36 36L36 37L37 37L37 36ZM18 37L18 38L19 38L19 39L20 39L20 38L19 38L19 37ZM27 37L27 38L29 38L29 37ZM47 37L47 38L48 38L48 37ZM50 37L50 38L51 38L51 37ZM4 38L4 39L5 39L5 38ZM29 39L29 40L30 40L30 41L33 41L33 40L32 40L32 39ZM3 41L3 42L2 42L2 43L4 43L4 42L5 42L5 41ZM34 42L34 43L32 43L32 44L31 44L31 45L32 45L32 44L34 44L34 45L35 45L35 46L34 46L34 47L32 47L32 46L30 46L30 47L32 47L32 48L33 48L33 50L34 50L34 53L35 53L35 50L34 50L34 47L35 47L35 48L36 48L36 51L37 51L37 48L36 48L36 47L37 47L37 46L38 46L38 44L34 44L34 43L36 43L36 42ZM37 42L37 43L39 43L39 42ZM5 43L5 44L7 44L7 43ZM50 43L50 44L51 44L51 43ZM6 45L6 46L7 46L7 45ZM51 45L51 47L52 47L52 45ZM13 46L13 47L11 47L11 48L12 48L12 51L13 51L13 50L14 50L14 51L15 51L15 52L16 52L16 51L15 51L15 50L14 50L14 49L15 49L15 48L16 48L16 47L15 47L15 48L13 48L13 47L14 47L14 46ZM35 46L35 47L36 47L36 46ZM44 47L44 48L45 48L45 47ZM10 49L10 50L11 50L11 49ZM25 49L25 52L24 52L24 53L25 53L25 52L26 52L26 49ZM27 49L27 52L30 52L30 49ZM49 49L49 52L52 52L52 49ZM28 50L28 51L29 51L29 50ZM38 50L38 51L40 51L40 50ZM50 50L50 51L51 51L51 50ZM32 51L32 52L33 52L33 51ZM12 52L12 54L13 54L13 55L14 55L14 56L16 56L16 55L14 55L14 52ZM53 52L53 54L51 54L51 53L50 53L50 54L49 54L49 53L48 53L48 54L49 54L49 55L50 55L50 56L51 56L51 55L53 55L53 54L54 54L54 53L55 53L55 52ZM10 53L10 54L11 54L11 53ZM15 53L15 54L16 54L16 53ZM26 53L26 54L27 54L27 53ZM38 53L38 54L37 54L37 55L38 55L38 54L39 54L39 53ZM19 54L19 55L18 55L18 57L22 57L22 56L19 56L19 55L20 55L20 54ZM0 0L0 7L7 7L7 0ZM1 1L1 6L6 6L6 1ZM2 2L2 5L5 5L5 2ZM50 0L50 7L57 7L57 0ZM51 1L51 6L56 6L56 1ZM52 2L52 5L55 5L55 2ZM0 50L0 57L7 57L7 50ZM1 51L1 56L6 56L6 51ZM2 52L2 55L5 55L5 52Z" fill="#000000"/></g></g></svg>
