<?xml version="1.0" encoding="UTF-8"?>
<svg xmlns="http://www.w3.org/2000/svg" version="1.1" width="300" height="300" viewBox="0 0 300 300"><rect x="0" y="0" width="300" height="300" fill="#ffffff"/><g transform="scale(5.66)"><g transform="translate(0,0)"><path fill-rule="evenodd" d="M8 0L8 1L9 1L9 2L8 2L8 5L10 5L10 4L9 4L9 3L12 3L12 4L14 4L14 3L13 3L13 0L12 0L12 2L10 2L10 1L9 1L9 0ZM16 0L16 2L15 2L15 3L16 3L16 4L15 4L15 6L14 6L14 5L11 5L11 6L10 6L10 7L9 7L9 6L8 6L8 7L9 7L9 8L8 8L8 11L7 11L7 10L6 10L6 9L7 9L7 8L6 8L6 9L5 9L5 10L3 10L3 9L4 9L4 8L0 8L0 9L1 9L1 11L0 11L0 12L1 12L1 13L0 13L0 16L1 16L1 15L2 15L2 17L3 17L3 18L1 18L1 17L0 17L0 18L1 18L1 21L0 21L0 22L1 22L1 23L0 23L0 24L1 24L1 27L0 27L0 28L1 28L1 30L4 30L4 31L3 31L3 35L1 35L1 36L0 36L0 37L1 37L1 36L3 36L3 35L4 35L4 31L5 31L5 29L8 29L8 30L10 30L10 31L7 31L7 30L6 30L6 31L7 31L7 32L5 32L5 33L7 33L7 34L5 34L5 36L6 36L6 37L7 37L7 38L5 38L5 37L2 37L2 38L0 38L0 40L1 40L1 41L2 41L2 42L0 42L0 43L1 43L1 44L3 44L3 45L4 45L4 44L3 44L3 43L8 43L8 41L10 41L10 42L9 42L9 43L10 43L10 44L9 44L9 45L8 45L8 46L11 46L11 45L12 45L12 46L13 46L13 47L15 47L15 46L16 46L16 45L15 45L15 44L11 44L11 43L10 43L10 42L12 42L12 41L10 41L10 40L14 40L14 41L15 41L15 42L14 42L14 43L15 43L15 42L17 42L17 43L16 43L16 44L19 44L19 43L20 43L20 45L19 45L19 46L18 46L18 45L17 45L17 46L18 46L18 48L17 48L17 47L16 47L16 48L14 48L14 50L12 50L12 51L11 51L11 50L10 50L10 49L8 49L8 53L12 53L12 51L13 51L13 53L18 53L18 52L19 52L19 51L22 51L22 50L23 50L23 53L24 53L24 50L23 50L23 49L22 49L22 48L24 48L24 49L25 49L25 51L28 51L28 52L29 52L29 53L31 53L31 51L32 51L32 53L33 53L33 51L34 51L34 52L35 52L35 53L36 53L36 49L37 49L37 53L40 53L40 52L41 52L41 50L42 50L42 52L44 52L44 53L47 53L47 52L46 52L46 51L47 51L47 50L51 50L51 53L52 53L52 50L53 50L53 48L52 48L52 46L53 46L53 44L52 44L52 46L51 46L51 42L52 42L52 39L53 39L53 36L52 36L52 35L51 35L51 36L49 36L49 35L50 35L50 34L49 34L49 32L52 32L52 31L51 31L51 30L52 30L52 29L51 29L51 30L50 30L50 29L49 29L49 28L50 28L50 27L51 27L51 28L53 28L53 25L52 25L52 24L53 24L53 23L52 23L52 22L53 22L53 21L52 21L52 20L53 20L53 19L51 19L51 18L52 18L52 16L51 16L51 17L48 17L48 19L47 19L47 20L49 20L49 21L48 21L48 22L49 22L49 23L48 23L48 24L47 24L47 22L44 22L44 21L45 21L45 19L46 19L46 18L47 18L47 16L46 16L46 15L45 15L45 13L46 13L46 10L44 10L44 11L45 11L45 12L43 12L43 9L41 9L41 8L42 8L42 7L43 7L43 8L44 8L44 9L46 9L46 8L45 8L45 6L44 6L44 7L43 7L43 3L44 3L44 4L45 4L45 3L44 3L44 1L43 1L43 0L42 0L42 1L41 1L41 2L43 2L43 3L41 3L41 4L40 4L40 0L39 0L39 4L38 4L38 7L37 7L37 3L38 3L38 2L36 2L36 1L34 1L34 0L32 0L32 2L31 2L31 0L30 0L30 1L29 1L29 0L28 0L28 1L27 1L27 0L26 0L26 1L25 1L25 0L21 0L21 3L20 3L20 1L19 1L19 2L18 2L18 1L17 1L17 0ZM37 0L37 1L38 1L38 0ZM23 1L23 2L22 2L22 3L21 3L21 4L23 4L23 7L24 7L24 4L26 4L26 3L27 3L27 4L29 4L29 5L30 5L30 6L29 6L29 10L28 10L28 9L25 9L25 10L22 10L22 9L20 9L20 8L22 8L22 5L21 5L21 7L20 7L20 6L19 6L19 5L20 5L20 3L19 3L19 5L18 5L18 2L16 2L16 3L17 3L17 4L16 4L16 5L17 5L17 7L16 7L16 6L15 6L15 8L14 8L14 11L13 11L13 12L14 12L14 13L13 13L13 15L12 15L12 14L11 14L11 13L12 13L12 11L11 11L11 13L10 13L10 11L9 11L9 12L8 12L8 15L6 15L6 14L7 14L7 13L6 13L6 12L7 12L7 11L6 11L6 12L5 12L5 11L3 11L3 10L2 10L2 11L1 11L1 12L2 12L2 11L3 11L3 12L5 12L5 13L3 13L3 14L5 14L5 15L6 15L6 16L4 16L4 15L3 15L3 16L4 16L4 17L5 17L5 18L4 18L4 19L2 19L2 20L3 20L3 21L1 21L1 22L2 22L2 23L1 23L1 24L2 24L2 26L4 26L4 25L3 25L3 24L4 24L4 23L5 23L5 22L4 22L4 23L3 23L3 21L6 21L6 22L7 22L7 23L6 23L6 24L9 24L9 25L10 25L10 26L9 26L9 29L10 29L10 30L11 30L11 29L12 29L12 32L11 32L11 31L10 31L10 35L9 35L9 36L8 36L8 35L6 35L6 36L7 36L7 37L8 37L8 38L7 38L7 39L5 39L5 38L2 38L2 39L1 39L1 40L3 40L3 39L4 39L4 40L7 40L7 41L4 41L4 42L7 42L7 41L8 41L8 40L7 40L7 39L9 39L9 40L10 40L10 39L9 39L9 36L11 36L11 34L12 34L12 33L13 33L13 34L15 34L15 35L14 35L14 37L15 37L15 38L14 38L14 40L15 40L15 41L16 41L16 40L17 40L17 42L18 42L18 43L19 43L19 42L22 42L22 44L23 44L23 47L24 47L24 44L27 44L27 42L29 42L29 43L28 43L28 44L30 44L30 45L29 45L29 46L30 46L30 45L31 45L31 47L32 47L32 45L34 45L34 46L33 46L33 47L34 47L34 48L29 48L29 49L27 49L27 50L31 50L31 49L32 49L32 51L33 51L33 49L34 49L34 51L35 51L35 49L36 49L36 47L39 47L39 48L38 48L38 49L39 49L39 52L40 52L40 49L41 49L41 45L43 45L43 42L44 42L44 44L46 44L46 43L47 43L47 44L49 44L49 43L50 43L50 42L51 42L51 39L50 39L50 38L51 38L51 37L50 37L50 38L49 38L49 36L48 36L48 35L49 35L49 34L47 34L47 33L46 33L46 36L45 36L45 33L44 33L44 34L43 34L43 36L42 36L42 37L41 37L41 34L39 34L39 33L38 33L38 34L39 34L39 35L38 35L38 36L37 36L37 37L36 37L36 35L35 35L35 36L34 36L34 37L33 37L33 36L32 36L32 37L30 37L30 36L31 36L31 35L34 35L34 34L37 34L37 32L38 32L38 31L37 31L37 32L35 32L35 31L36 31L36 30L37 30L37 27L38 27L38 26L35 26L35 25L36 25L36 24L35 24L35 23L33 23L33 24L32 24L32 23L29 23L29 22L28 22L28 23L27 23L27 21L29 21L29 17L28 17L28 16L30 16L30 14L32 14L32 15L33 15L33 14L34 14L34 16L33 16L33 17L32 17L32 16L31 16L31 17L30 17L30 20L31 20L31 22L32 22L32 21L34 21L34 22L36 22L36 23L37 23L37 24L38 24L38 25L41 25L41 27L42 27L42 28L43 28L43 29L42 29L42 30L43 30L43 31L42 31L42 32L43 32L43 31L44 31L44 32L45 32L45 30L46 30L46 31L50 31L50 30L49 30L49 29L47 29L47 30L46 30L46 29L45 29L45 30L43 30L43 29L44 29L44 27L42 27L42 26L43 26L43 25L41 25L41 24L43 24L43 23L40 23L40 22L39 22L39 21L40 21L40 19L41 19L41 20L42 20L42 19L43 19L43 20L44 20L44 19L45 19L45 17L46 17L46 16L45 16L45 15L44 15L44 14L43 14L43 13L41 13L41 12L42 12L42 11L41 11L41 10L40 10L40 9L38 9L38 8L39 8L39 7L40 7L40 4L39 4L39 7L38 7L38 8L35 8L35 9L34 9L34 8L33 8L33 7L34 7L34 6L35 6L35 7L36 7L36 5L35 5L35 4L36 4L36 3L34 3L34 4L33 4L33 3L32 3L32 4L33 4L33 5L31 5L31 4L30 4L30 3L27 3L27 2L26 2L26 3L23 3L23 2L24 2L24 1ZM28 1L28 2L29 2L29 1ZM33 1L33 2L34 2L34 1ZM41 4L41 7L42 7L42 4ZM25 5L25 8L28 8L28 5ZM33 5L33 6L32 6L32 7L33 7L33 6L34 6L34 5ZM11 6L11 7L10 7L10 8L9 8L9 9L10 9L10 8L12 8L12 6ZM13 6L13 7L14 7L14 6ZM18 6L18 7L17 7L17 8L16 8L16 9L15 9L15 14L14 14L14 16L11 16L11 15L9 15L9 16L6 16L6 17L8 17L8 18L10 18L10 17L13 17L13 18L12 18L12 19L13 19L13 20L10 20L10 19L9 19L9 20L10 20L10 21L9 21L9 23L10 23L10 25L11 25L11 26L10 26L10 27L11 27L11 26L12 26L12 27L13 27L13 26L14 26L14 28L12 28L12 29L14 29L14 30L13 30L13 31L15 31L15 32L14 32L14 33L15 33L15 32L17 32L17 33L18 33L18 31L19 31L19 34L20 34L20 35L21 35L21 36L20 36L20 37L19 37L19 36L18 36L18 37L17 37L17 36L16 36L16 35L18 35L18 34L16 34L16 35L15 35L15 37L17 37L17 40L19 40L19 41L18 41L18 42L19 42L19 41L20 41L20 39L18 39L18 38L21 38L21 39L22 39L22 40L23 40L23 42L24 42L24 43L23 43L23 44L24 44L24 43L25 43L25 42L24 42L24 40L25 40L25 39L26 39L26 42L27 42L27 40L28 40L28 41L29 41L29 42L30 42L30 41L29 41L29 40L28 40L28 38L29 38L29 37L28 37L28 38L27 38L27 39L26 39L26 36L30 36L30 35L31 35L31 33L32 33L32 34L33 34L33 33L32 33L32 32L31 32L31 33L30 33L30 32L28 32L28 33L29 33L29 34L27 34L27 33L26 33L26 32L25 32L25 30L26 30L26 31L27 31L27 30L28 30L28 31L29 31L29 30L30 30L30 29L33 29L33 28L34 28L34 25L33 25L33 27L32 27L32 26L29 26L29 25L31 25L31 24L29 24L29 23L28 23L28 24L24 24L24 25L22 25L22 24L19 24L19 23L18 23L18 21L17 21L17 22L16 22L16 24L15 24L15 25L13 25L13 23L12 23L12 25L11 25L11 22L10 22L10 21L12 21L12 22L13 22L13 20L15 20L15 21L14 21L14 23L15 23L15 21L16 21L16 20L15 20L15 19L17 19L17 20L18 20L18 19L19 19L19 21L21 21L21 22L20 22L20 23L21 23L21 22L23 22L23 23L25 23L25 21L24 21L24 20L22 20L22 18L21 18L21 19L19 19L19 17L20 17L20 16L19 16L19 17L18 17L18 16L16 16L16 15L17 15L17 14L16 14L16 13L17 13L17 12L16 12L16 9L17 9L17 10L18 10L18 9L17 9L17 8L19 8L19 6ZM26 6L26 7L27 7L27 6ZM30 6L30 8L31 8L31 9L30 9L30 10L29 10L29 11L27 11L27 12L26 12L26 10L25 10L25 12L24 12L24 11L22 11L22 10L20 10L20 9L19 9L19 11L18 11L18 15L21 15L21 12L19 12L19 11L22 11L22 12L24 12L24 13L25 13L25 14L23 14L23 13L22 13L22 14L23 14L23 17L25 17L25 18L26 18L26 21L27 21L27 20L28 20L28 17L27 17L27 18L26 18L26 17L25 17L25 15L26 15L26 13L28 13L28 14L27 14L27 15L29 15L29 13L30 13L30 12L31 12L31 13L32 13L32 12L36 12L36 13L37 13L37 12L38 12L38 15L37 15L37 14L36 14L36 15L35 15L35 16L34 16L34 17L33 17L33 19L34 19L34 20L35 20L35 17L36 17L36 15L37 15L37 17L39 17L39 18L38 18L38 19L36 19L36 20L37 20L37 21L36 21L36 22L37 22L37 21L39 21L39 18L42 18L42 17L43 17L43 14L42 14L42 16L41 16L41 13L40 13L40 11L39 11L39 12L38 12L38 11L35 11L35 10L34 10L34 9L33 9L33 10L31 10L31 9L32 9L32 8L31 8L31 6ZM23 8L23 9L24 9L24 8ZM48 8L48 9L47 9L47 10L48 10L48 13L47 13L47 14L49 14L49 15L48 15L48 16L50 16L50 14L51 14L51 13L52 13L52 15L53 15L53 13L52 13L52 12L50 12L50 11L49 11L49 10L48 10L48 9L51 9L51 11L52 11L52 10L53 10L53 8L52 8L52 9L51 9L51 8ZM11 9L11 10L12 10L12 9ZM36 9L36 10L38 10L38 9ZM33 10L33 11L34 11L34 10ZM25 12L25 13L26 13L26 12ZM1 13L1 14L2 14L2 13ZM5 13L5 14L6 14L6 13ZM9 13L9 14L10 14L10 13ZM19 13L19 14L20 14L20 13ZM39 13L39 16L40 16L40 17L41 17L41 16L40 16L40 13ZM15 14L15 15L16 15L16 14ZM9 16L9 17L10 17L10 16ZM14 16L14 19L15 19L15 16ZM17 17L17 18L18 18L18 17ZM6 18L6 19L5 19L5 20L6 20L6 21L7 21L7 20L8 20L8 19L7 19L7 18ZM31 18L31 20L32 20L32 18ZM43 18L43 19L44 19L44 18ZM49 18L49 20L50 20L50 18ZM6 19L6 20L7 20L7 19ZM50 21L50 22L51 22L51 21ZM17 23L17 24L18 24L18 23ZM39 23L39 24L40 24L40 23ZM44 23L44 24L45 24L45 23ZM49 23L49 24L52 24L52 23ZM5 25L5 28L8 28L8 25ZM12 25L12 26L13 26L13 25ZM15 25L15 26L16 26L16 27L15 27L15 30L16 30L16 31L18 31L18 30L16 30L16 28L18 28L18 29L19 29L19 31L20 31L20 32L21 32L21 33L20 33L20 34L22 34L22 31L20 31L20 30L21 30L21 26L19 26L19 28L18 28L18 25ZM25 25L25 28L28 28L28 25ZM45 25L45 28L48 28L48 25ZM49 25L49 26L50 26L50 25ZM51 25L51 26L52 26L52 25ZM6 26L6 27L7 27L7 26ZM22 26L22 29L23 29L23 26ZM26 26L26 27L27 27L27 26ZM39 26L39 29L38 29L38 30L40 30L40 31L39 31L39 32L40 32L40 31L41 31L41 28L40 28L40 26ZM46 26L46 27L47 27L47 26ZM2 27L2 29L4 29L4 27ZM30 27L30 28L29 28L29 29L30 29L30 28L32 28L32 27ZM35 27L35 29L34 29L34 31L33 31L33 32L34 32L34 33L35 33L35 32L34 32L34 31L35 31L35 29L36 29L36 27ZM10 28L10 29L11 29L11 28ZM19 28L19 29L20 29L20 28ZM23 30L23 31L24 31L24 30ZM31 30L31 31L32 31L32 30ZM1 31L1 33L2 33L2 31ZM7 32L7 33L9 33L9 32ZM23 32L23 33L25 33L25 34L24 34L24 36L23 36L23 35L22 35L22 36L21 36L21 38L22 38L22 37L23 37L23 40L24 40L24 37L25 37L25 36L26 36L26 33L25 33L25 32ZM51 33L51 34L53 34L53 33ZM12 35L12 36L13 36L13 35ZM39 36L39 37L38 37L38 39L37 39L37 41L36 41L36 38L35 38L35 41L34 41L34 40L33 40L33 39L32 39L32 38L30 38L30 40L32 40L32 41L31 41L31 42L33 42L33 43L35 43L35 41L36 41L36 44L37 44L37 41L38 41L38 40L41 40L41 41L40 41L40 44L39 44L39 42L38 42L38 44L39 44L39 47L40 47L40 45L41 45L41 42L42 42L42 41L43 41L43 40L44 40L44 42L45 42L45 37L43 37L43 38L42 38L42 39L41 39L41 38L40 38L40 36ZM47 36L47 37L46 37L46 40L47 40L47 42L48 42L48 43L49 43L49 42L50 42L50 41L49 41L49 40L50 40L50 39L49 39L49 38L48 38L48 36ZM11 38L11 39L13 39L13 38ZM47 38L47 40L48 40L48 38ZM15 39L15 40L16 40L16 39ZM48 41L48 42L49 42L49 41ZM2 42L2 43L3 43L3 42ZM31 43L31 44L32 44L32 43ZM6 44L6 45L7 45L7 44ZM13 45L13 46L14 46L14 45ZM20 45L20 47L19 47L19 48L20 48L20 47L21 47L21 48L22 48L22 47L21 47L21 45ZM25 45L25 48L28 48L28 45ZM36 45L36 46L34 46L34 47L36 47L36 46L37 46L37 45ZM45 45L45 48L48 48L48 45ZM49 45L49 46L50 46L50 45ZM26 46L26 47L27 47L27 46ZM43 46L43 47L42 47L42 48L43 48L43 49L42 49L42 50L43 50L43 51L44 51L44 52L45 52L45 50L46 50L46 49L44 49L44 46ZM46 46L46 47L47 47L47 46ZM10 47L10 48L12 48L12 49L13 49L13 48L12 48L12 47ZM49 47L49 49L50 49L50 48L51 48L51 50L52 50L52 48L51 48L51 47ZM39 48L39 49L40 49L40 48ZM16 49L16 50L15 50L15 52L18 52L18 51L19 51L19 50L17 50L17 49ZM21 49L21 50L22 50L22 49ZM16 50L16 51L17 51L17 50ZM9 51L9 52L10 52L10 51ZM29 51L29 52L30 52L30 51ZM48 51L48 52L50 52L50 51ZM21 52L21 53L22 53L22 52ZM0 0L0 7L7 7L7 0ZM1 1L1 6L6 6L6 1ZM2 2L2 5L5 5L5 2ZM46 0L46 7L53 7L53 0ZM47 1L47 6L52 6L52 1ZM48 2L48 5L51 5L51 2ZM0 46L0 53L7 53L7 46ZM1 47L1 52L6 52L6 47ZM2 48L2 51L5 51L5 48Z" fill="#000000"/></g></g></svg>
