<?xml version="1.0" encoding="UTF-8"?>
<svg xmlns="http://www.w3.org/2000/svg" version="1.1" width="300" height="300" viewBox="0 0 300 300"><rect x="0" y="0" width="300" height="300" fill="#ffffff"/><g transform="scale(5.66)"><g transform="translate(0,0)"><path fill-rule="evenodd" d="M10 0L10 1L8 1L8 2L9 2L9 3L8 3L8 4L10 4L10 8L6 8L6 9L7 9L7 10L5 10L5 11L4 11L4 12L1 12L1 10L4 10L4 9L5 9L5 8L0 8L0 13L1 13L1 14L2 14L2 13L4 13L4 14L3 14L3 15L4 15L4 14L5 14L5 13L7 13L7 14L6 14L6 15L5 15L5 16L4 16L4 17L3 17L3 16L1 16L1 15L0 15L0 17L2 17L2 18L0 18L0 19L1 19L1 20L4 20L4 19L3 19L3 18L4 18L4 17L7 17L7 18L5 18L5 19L7 19L7 18L9 18L9 20L10 20L10 23L12 23L12 24L11 24L11 25L9 25L9 23L8 23L8 24L5 24L5 23L7 23L7 22L5 22L5 23L4 23L4 25L3 25L3 22L4 22L4 21L3 21L3 22L1 22L1 25L3 25L3 26L2 26L2 28L1 28L1 27L0 27L0 29L1 29L1 30L2 30L2 31L3 31L3 29L2 29L2 28L4 28L4 29L5 29L5 30L4 30L4 31L5 31L5 32L6 32L6 33L5 33L5 34L4 34L4 32L3 32L3 34L2 34L2 33L1 33L1 32L0 32L0 36L1 36L1 37L0 37L0 39L1 39L1 40L0 40L0 43L1 43L1 44L3 44L3 45L4 45L4 44L3 44L3 43L7 43L7 42L3 42L3 43L2 43L2 42L1 42L1 41L5 41L5 38L6 38L6 39L7 39L7 38L6 38L6 37L7 37L7 36L6 36L6 35L7 35L7 34L6 34L6 33L7 33L7 32L6 32L6 31L7 31L7 30L9 30L9 31L8 31L8 37L9 37L9 38L11 38L11 39L10 39L10 40L6 40L6 41L9 41L9 42L8 42L8 44L6 44L6 45L8 45L8 47L10 47L10 48L11 48L11 49L9 49L9 48L8 48L8 53L10 53L10 52L9 52L9 50L10 50L10 51L11 51L11 53L13 53L13 52L12 52L12 51L15 51L15 53L17 53L17 51L15 51L15 50L12 50L12 48L11 48L11 47L13 47L13 45L14 45L14 44L15 44L15 46L14 46L14 48L15 48L15 49L19 49L19 50L18 50L18 53L21 53L21 52L19 52L19 51L21 51L21 50L20 50L20 49L21 49L21 48L24 48L24 49L22 49L22 52L23 52L23 50L24 50L24 51L25 51L25 52L24 52L24 53L26 53L26 51L27 51L27 50L28 50L28 49L29 49L29 51L28 51L28 52L27 52L27 53L28 53L28 52L29 52L29 51L30 51L30 50L33 50L33 49L29 49L29 48L30 48L30 46L31 46L31 45L32 45L32 46L33 46L33 47L32 47L32 48L33 48L33 47L34 47L34 48L35 48L35 46L36 46L36 47L38 47L38 48L36 48L36 50L34 50L34 51L31 51L31 53L32 53L32 52L33 52L33 53L35 53L35 52L36 52L36 53L39 53L39 52L42 52L42 53L45 53L45 52L46 52L46 53L49 53L49 52L50 52L50 53L51 53L51 52L52 52L52 51L53 51L53 50L52 50L52 51L51 51L51 52L50 52L50 51L49 51L49 50L50 50L50 49L51 49L51 48L52 48L52 47L51 47L51 48L50 48L50 46L51 46L51 44L50 44L50 41L52 41L52 42L53 42L53 40L50 40L50 39L51 39L51 37L52 37L52 38L53 38L53 35L52 35L52 34L53 34L53 33L52 33L52 31L51 31L51 30L53 30L53 29L52 29L52 28L53 28L53 27L51 27L51 26L53 26L53 25L51 25L51 24L50 24L50 21L51 21L51 23L52 23L52 22L53 22L53 19L52 19L52 21L51 21L51 20L50 20L50 19L51 19L51 18L50 18L50 19L49 19L49 18L48 18L48 19L49 19L49 20L48 20L48 21L49 21L49 22L48 22L48 23L49 23L49 24L43 24L43 23L45 23L45 22L44 22L44 21L46 21L46 20L43 20L43 21L40 21L40 20L42 20L42 18L44 18L44 19L46 19L46 18L44 18L44 17L49 17L49 16L50 16L50 17L52 17L52 18L53 18L53 17L52 17L52 16L53 16L53 15L52 15L52 14L53 14L53 13L52 13L52 12L53 12L53 11L51 11L51 10L53 10L53 9L52 9L52 8L51 8L51 9L50 9L50 8L49 8L49 9L50 9L50 11L51 11L51 12L50 12L50 13L49 13L49 12L48 12L48 14L46 14L46 15L45 15L45 16L44 16L44 15L40 15L40 14L44 14L44 13L47 13L47 12L46 12L46 11L45 11L45 10L44 10L44 11L43 11L43 12L44 12L44 13L42 13L42 10L43 10L43 9L46 9L46 8L45 8L45 6L44 6L44 8L41 8L41 6L40 6L40 3L41 3L41 5L42 5L42 7L43 7L43 3L44 3L44 4L45 4L45 3L44 3L44 1L43 1L43 0L42 0L42 1L41 1L41 2L40 2L40 3L38 3L38 4L39 4L39 5L37 5L37 3L36 3L36 2L37 2L37 1L38 1L38 2L39 2L39 1L40 1L40 0L39 0L39 1L38 1L38 0L37 0L37 1L36 1L36 2L35 2L35 1L34 1L34 0L32 0L32 1L33 1L33 3L36 3L36 4L35 4L35 5L34 5L34 4L33 4L33 5L31 5L31 4L32 4L32 2L31 2L31 4L30 4L30 2L29 2L29 4L27 4L27 3L26 3L26 4L24 4L24 3L25 3L25 2L24 2L24 3L23 3L23 4L21 4L21 3L22 3L22 2L21 2L21 1L20 1L20 2L21 2L21 3L19 3L19 1L18 1L18 0L17 0L17 1L18 1L18 2L17 2L17 3L16 3L16 2L15 2L15 1L16 1L16 0L15 0L15 1L14 1L14 0ZM22 0L22 1L27 1L27 0ZM28 0L28 1L29 1L29 0ZM30 0L30 1L31 1L31 0ZM10 1L10 3L11 3L11 5L14 5L14 4L15 4L15 7L16 7L16 6L17 6L17 8L16 8L16 9L13 9L13 8L14 8L14 6L13 6L13 8L12 8L12 6L11 6L11 8L12 8L12 10L14 10L14 13L13 13L13 15L12 15L12 16L13 16L13 17L12 17L12 23L13 23L13 24L12 24L12 25L13 25L13 26L11 26L11 27L10 27L10 26L9 26L9 27L10 27L10 31L11 31L11 33L12 33L12 34L9 34L9 35L12 35L12 36L10 36L10 37L12 37L12 36L13 36L13 35L12 35L12 34L13 34L13 33L14 33L14 34L15 34L15 36L14 36L14 37L15 37L15 36L17 36L17 37L16 37L16 39L15 39L15 40L16 40L16 39L17 39L17 40L19 40L19 41L13 41L13 40L14 40L14 39L12 39L12 41L11 41L11 40L10 40L10 42L9 42L9 44L8 44L8 45L10 45L10 44L12 44L12 45L13 45L13 44L14 44L14 42L17 42L17 45L16 45L16 46L17 46L17 45L18 45L18 46L19 46L19 45L20 45L20 48L21 48L21 45L24 45L24 44L23 44L23 43L24 43L24 42L23 42L23 43L22 43L22 42L21 42L21 41L20 41L20 40L19 40L19 39L20 39L20 38L21 38L21 39L22 39L22 41L24 41L24 40L25 40L25 41L27 41L27 42L26 42L26 44L29 44L29 46L30 46L30 45L31 45L31 44L32 44L32 45L33 45L33 44L34 44L34 46L35 46L35 45L36 45L36 44L37 44L37 43L38 43L38 42L39 42L39 43L40 43L40 42L42 42L42 43L41 43L41 44L40 44L40 45L39 45L39 44L38 44L38 45L37 45L37 46L39 46L39 47L41 47L41 48L40 48L40 49L41 49L41 50L40 50L40 51L43 51L43 52L44 52L44 51L46 51L46 52L48 52L48 50L49 50L49 49L50 49L50 48L49 48L49 49L47 49L47 50L44 50L44 51L43 51L43 50L42 50L42 49L41 49L41 48L42 48L42 47L44 47L44 46L42 46L42 47L41 47L41 44L42 44L42 43L44 43L44 44L43 44L43 45L44 45L44 44L45 44L45 43L47 43L47 44L49 44L49 46L50 46L50 44L49 44L49 43L47 43L47 40L48 40L48 41L50 41L50 40L48 40L48 39L49 39L49 38L48 38L48 37L50 37L50 36L52 36L52 35L50 35L50 34L51 34L51 31L50 31L50 30L51 30L51 29L49 29L49 30L48 30L48 29L46 29L46 31L45 31L45 29L44 29L44 26L42 26L42 25L43 25L43 24L40 24L40 23L41 23L41 22L40 22L40 23L38 23L38 26L40 26L40 27L41 27L41 26L42 26L42 29L44 29L44 30L41 30L41 31L45 31L45 32L46 32L46 33L47 33L47 34L45 34L45 33L44 33L44 32L43 32L43 34L42 34L42 32L39 32L39 31L36 31L36 30L35 30L35 29L36 29L36 28L38 28L38 29L37 29L37 30L39 30L39 27L36 27L36 26L37 26L37 25L36 25L36 24L37 24L37 22L39 22L39 20L40 20L40 19L41 19L41 18L42 18L42 16L40 16L40 15L39 15L39 16L38 16L38 18L36 18L36 16L37 16L37 15L38 15L38 14L39 14L39 12L40 12L40 13L41 13L41 12L40 12L40 11L41 11L41 10L42 10L42 9L41 9L41 8L40 8L40 6L39 6L39 9L38 9L38 10L37 10L37 9L36 9L36 8L37 8L37 7L38 7L38 6L37 6L37 7L36 7L36 5L35 5L35 8L34 8L34 5L33 5L33 8L32 8L32 6L31 6L31 5L29 5L29 7L30 7L30 8L29 8L29 10L28 10L28 11L25 11L25 10L27 10L27 9L24 9L24 10L22 10L22 11L17 11L17 13L16 13L16 11L15 11L15 10L16 10L16 9L17 9L17 10L21 10L21 9L20 9L20 8L22 8L22 9L23 9L23 7L24 7L24 5L23 5L23 7L22 7L22 6L21 6L21 7L20 7L20 5L21 5L21 4L18 4L18 3L17 3L17 4L15 4L15 2L14 2L14 4L12 4L12 3L13 3L13 1ZM41 2L41 3L43 3L43 2ZM17 4L17 5L18 5L18 4ZM8 5L8 7L9 7L9 5ZM25 5L25 8L28 8L28 5ZM18 6L18 7L19 7L19 6ZM26 6L26 7L27 7L27 6ZM30 6L30 7L31 7L31 6ZM18 8L18 9L19 9L19 8ZM30 8L30 10L31 10L31 11L30 11L30 12L26 12L26 13L27 13L27 14L26 14L26 15L22 15L22 14L24 14L24 12L25 12L25 11L23 11L23 13L21 13L21 12L20 12L20 13L21 13L21 14L20 14L20 16L17 16L17 18L18 18L18 19L19 19L19 20L18 20L18 21L17 21L17 19L16 19L16 20L15 20L15 18L16 18L16 15L15 15L15 18L14 18L14 17L13 17L13 19L14 19L14 20L13 20L13 23L14 23L14 24L13 24L13 25L15 25L15 24L16 24L16 25L19 25L19 26L18 26L18 29L19 29L19 28L20 28L20 29L21 29L21 30L24 30L24 29L25 29L25 30L26 30L26 32L28 32L28 31L29 31L29 33L26 33L26 34L28 34L28 35L29 35L29 37L26 37L26 36L27 36L27 35L26 35L26 36L23 36L23 37L21 37L21 36L18 36L18 37L17 37L17 39L18 39L18 37L19 37L19 38L20 38L20 37L21 37L21 38L22 38L22 39L23 39L23 38L24 38L24 39L25 39L25 38L24 38L24 37L26 37L26 38L28 38L28 39L26 39L26 40L27 40L27 41L28 41L28 39L29 39L29 37L30 37L30 38L31 38L31 39L30 39L30 40L29 40L29 42L27 42L27 43L29 43L29 42L31 42L31 40L33 40L33 39L35 39L35 40L36 40L36 41L37 41L37 42L36 42L36 43L37 43L37 42L38 42L38 41L39 41L39 42L40 42L40 40L41 40L41 39L40 39L40 38L43 38L43 36L44 36L44 38L45 38L45 39L42 39L42 40L44 40L44 41L42 41L42 42L44 42L44 43L45 43L45 42L44 42L44 41L46 41L46 40L47 40L47 39L46 39L46 38L47 38L47 37L48 37L48 36L50 36L50 35L49 35L49 33L50 33L50 31L49 31L49 33L48 33L48 35L45 35L45 34L44 34L44 35L42 35L42 34L41 34L41 33L39 33L39 32L38 32L38 33L37 33L37 32L36 32L36 33L37 33L37 35L38 35L38 33L39 33L39 35L40 35L40 36L38 36L38 37L39 37L39 38L38 38L38 39L37 39L37 36L36 36L36 35L35 35L35 34L33 34L33 33L34 33L34 32L33 32L33 31L35 31L35 30L34 30L34 29L35 29L35 28L36 28L36 27L35 27L35 26L34 26L34 27L30 27L30 26L31 26L31 24L36 24L36 23L35 23L35 22L34 22L34 21L32 21L32 20L33 20L33 19L35 19L35 20L36 20L36 22L37 22L37 21L38 21L38 20L39 20L39 18L38 18L38 19L37 19L37 20L36 20L36 19L35 19L35 18L33 18L33 19L32 19L32 17L29 17L29 16L26 16L26 15L27 15L27 14L31 14L31 15L30 15L30 16L33 16L33 17L35 17L35 16L36 16L36 15L35 15L35 14L34 14L34 13L35 13L35 12L36 12L36 13L38 13L38 11L40 11L40 10L41 10L41 9L40 9L40 10L38 10L38 11L37 11L37 10L36 10L36 9L35 9L35 10L34 10L34 8L33 8L33 11L32 11L32 10L31 10L31 8ZM47 8L47 11L48 11L48 8ZM9 9L9 10L8 10L8 11L6 11L6 12L7 12L7 13L8 13L8 15L9 15L9 17L10 17L10 16L11 16L11 15L10 15L10 14L11 14L11 13L10 13L10 12L11 12L11 11L10 11L10 12L8 12L8 11L9 11L9 10L10 10L10 9ZM31 11L31 12L30 12L30 13L31 13L31 12L32 12L32 15L34 15L34 16L35 16L35 15L34 15L34 14L33 14L33 12L32 12L32 11ZM36 11L36 12L37 12L37 11ZM44 11L44 12L45 12L45 11ZM18 12L18 13L17 13L17 14L18 14L18 15L19 15L19 14L18 14L18 13L19 13L19 12ZM14 13L14 14L15 14L15 13ZM50 13L50 14L48 14L48 15L46 15L46 16L48 16L48 15L50 15L50 16L51 16L51 14L52 14L52 13ZM6 15L6 16L7 16L7 15ZM13 15L13 16L14 16L14 15ZM22 16L22 17L20 17L20 20L21 20L21 21L18 21L18 22L17 22L17 21L15 21L15 20L14 20L14 21L15 21L15 22L16 22L16 24L18 24L18 22L19 22L19 24L21 24L21 23L20 23L20 22L23 22L23 21L24 21L24 20L23 20L23 19L22 19L22 17L24 17L24 16ZM25 16L25 20L29 20L29 18L28 18L28 17L26 17L26 16ZM43 16L43 17L44 17L44 16ZM18 17L18 18L19 18L19 17ZM26 18L26 19L28 19L28 18ZM30 18L30 21L31 21L31 22L27 22L27 21L25 21L25 22L24 22L24 23L25 23L25 22L27 22L27 23L26 23L26 24L27 24L27 23L28 23L28 24L30 24L30 23L34 23L34 22L32 22L32 21L31 21L31 20L32 20L32 19L31 19L31 18ZM10 19L10 20L11 20L11 19ZM21 19L21 20L22 20L22 19ZM5 20L5 21L7 21L7 20ZM49 20L49 21L50 21L50 20ZM46 22L46 23L47 23L47 22ZM22 24L22 25L20 25L20 26L19 26L19 27L20 27L20 28L21 28L21 29L24 29L24 26L23 26L23 28L22 28L22 25L24 25L24 24ZM5 25L5 28L8 28L8 25ZM25 25L25 28L28 28L28 25ZM32 25L32 26L33 26L33 25ZM40 25L40 26L41 26L41 25ZM45 25L45 28L48 28L48 25ZM49 25L49 26L51 26L51 25ZM6 26L6 27L7 27L7 26ZM13 26L13 27L14 27L14 26ZM15 26L15 28L16 28L16 29L17 29L17 28L16 28L16 27L17 27L17 26ZM26 26L26 27L27 27L27 26ZM46 26L46 27L47 27L47 26ZM11 27L11 28L12 28L12 29L11 29L11 30L12 30L12 29L13 29L13 30L14 30L14 28L12 28L12 27ZM34 27L34 28L32 28L32 29L31 29L31 30L29 30L29 29L30 29L30 28L29 28L29 29L27 29L27 31L28 31L28 30L29 30L29 31L31 31L31 34L29 34L29 35L31 35L31 36L32 36L32 39L33 39L33 36L32 36L32 33L33 33L33 32L32 32L32 31L33 31L33 30L32 30L32 29L34 29L34 28L35 28L35 27ZM50 27L50 28L51 28L51 27ZM40 28L40 29L41 29L41 28ZM6 29L6 30L5 30L5 31L6 31L6 30L7 30L7 29ZM15 30L15 34L16 34L16 35L18 35L18 34L16 34L16 33L19 33L19 35L20 35L20 33L21 33L21 35L22 35L22 34L24 34L24 35L25 35L25 32L24 32L24 33L22 33L22 32L23 32L23 31L22 31L22 32L20 32L20 31L19 31L19 30ZM31 30L31 31L32 31L32 30ZM13 31L13 32L12 32L12 33L13 33L13 32L14 32L14 31ZM16 31L16 32L17 32L17 31ZM46 31L46 32L47 32L47 31ZM1 34L1 36L2 36L2 37L3 37L3 38L4 38L4 36L5 36L5 37L6 37L6 36L5 36L5 35L6 35L6 34L5 34L5 35L3 35L3 36L2 36L2 34ZM40 34L40 35L41 35L41 34ZM34 35L34 36L35 36L35 37L34 37L34 38L35 38L35 39L36 39L36 40L37 40L37 39L36 39L36 36L35 36L35 35ZM44 35L44 36L45 36L45 37L47 37L47 36L45 36L45 35ZM40 36L40 37L42 37L42 36ZM3 39L3 40L4 40L4 39ZM45 39L45 40L46 40L46 39ZM12 41L12 42L11 42L11 43L12 43L12 42L13 42L13 41ZM19 41L19 42L18 42L18 45L19 45L19 44L20 44L20 45L21 45L21 44L20 44L20 43L19 43L19 42L20 42L20 41ZM32 41L32 42L33 42L33 43L32 43L32 44L33 44L33 43L34 43L34 44L35 44L35 42L33 42L33 41ZM15 43L15 44L16 44L16 43ZM30 43L30 44L31 44L31 43ZM52 43L52 46L53 46L53 43ZM25 45L25 48L28 48L28 45ZM45 45L45 48L48 48L48 45ZM22 46L22 47L23 47L23 46ZM26 46L26 47L27 47L27 46ZM46 46L46 47L47 47L47 46ZM16 47L16 48L18 48L18 47ZM38 48L38 50L37 50L37 51L36 51L36 52L39 52L39 51L38 51L38 50L39 50L39 48ZM43 48L43 49L44 49L44 48ZM26 49L26 50L25 50L25 51L26 51L26 50L27 50L27 49ZM11 50L11 51L12 51L12 50ZM34 51L34 52L35 52L35 51ZM0 0L0 7L7 7L7 0ZM1 1L1 6L6 6L6 1ZM2 2L2 5L5 5L5 2ZM46 0L46 7L53 7L53 0ZM47 1L47 6L52 6L52 1ZM48 2L48 5L51 5L51 2ZM0 46L0 53L7 53L7 46ZM1 47L1 52L6 52L6 47ZM2 48L2 51L5 51L5 48Z" fill="#000000"/></g></g></svg>
